<svg width="50" height="50" viewBox="0 0 50 50" fill="none" xmlns="http://www.w3.org/2000/svg">
<path d="M33.1377 32.0423C32.8272 32.4671 32.6638 32.5815 32.386 32.5652C32.0756 32.5488 31.8141 32.0586 30.8991 32.0423C30.1475 32.0259 28.922 32.4344 27.3697 32.7612C25.556 33.1371 22.3533 31.6338 21.6507 29.3789C21.4547 28.7416 21.2913 28.088 21.1279 27.5325C21.0788 27.3691 20.8664 27.3201 20.7684 27.4508C20.654 27.5978 20.5396 27.7286 20.4089 27.8429C20.2455 28.0063 20.1475 28.2351 20.1475 28.4639C20.1475 28.758 20.1638 29.0194 20.1638 29.1991C20.2782 30.6371 20.4579 31.0946 21.1115 32.0259C21.7651 32.9573 24.0527 35.4737 27.0265 35.7024C30.0167 35.9148 31.6671 35.6697 33.3337 33.758C34.837 32.0259 34.886 28.4312 34.886 28.4312C34.0854 30.8495 33.5462 31.4704 33.1377 32.0423Z" fill="#5D4DE0"/>
</svg>
