<svg width="50" height="50" viewBox="0 0 50 50" fill="none" xmlns="http://www.w3.org/2000/svg">
<path d="M37.9089 18.4802C37.4514 19.9018 36.3566 21.0946 35.654 21.8953C35.8174 21.1273 35.6704 20.6698 35.703 20.1306C35.7521 19.3953 36.0135 18.5783 35.9645 18.2515C35.9318 17.9574 35.8664 17.6796 35.8011 17.3855C35.7194 17.026 35.6213 16.6828 35.507 16.3397C32.9416 18.8397 28.5462 16.3724 28.5462 16.3724C28.5462 16.3724 27.6148 17.1404 25.9808 16.9606C24.2325 16.7809 23.7586 15.7024 23.7586 15.7024C23.2847 19.0031 20.1638 17.7449 20.7357 21.0292C20.8991 21.9279 20.8991 22.794 20.1311 23.6926C20.0004 23.2351 19.3632 21.3724 17.2717 21.6338C15.2945 21.8789 14.5429 26.4541 18.6279 28.0227C18.5789 29.5423 18.7423 31.6011 18.5789 31.0619C17.4351 27.5325 15.1475 28.0881 14.0691 25.4247C13.5625 24.1502 13.6442 23.0227 13.9057 22.1894C14.1671 21.3887 14.1508 20.5227 13.8893 19.7221C13.5952 18.7907 13.3664 17.3855 13.9057 15.6861C14.8207 12.7776 16.7815 12.1077 17.288 11.7645C17.7945 11.4214 17.5494 8.28415 21.0952 7.30376C23.922 6.51944 26.0462 8.16977 26.6671 8.05539C27.288 7.94101 31.6344 5.08153 34.9841 7.77761C38.2194 10.392 37.0102 13.4802 37.0102 13.4802C37.0102 13.4802 39.02 15.0325 37.9089 18.4802Z" fill="#5D4DE0"/>
</svg>
