<svg width="50" height="50" viewBox="0 0 50 50" fill="none" xmlns="http://www.w3.org/2000/svg">
<path d="M37.0425 13.4969C38.2026 9.29752 33.4967 6.6668 32.2385 8.56223C31.3235 9.93478 27.7941 8.87269 22.4346 8.77465C17.0751 8.66027 15.6372 11.5034 15.5719 14.559C15.5719 14.559 13.2189 15.8008 13.366 20.1799C13.5131 24.7224 18.1863 28.3825 18.7581 30.6864C18.7581 30.6864 18.8235 30.9805 18.2026 27.8269C14.6405 26.1112 15.3921 21.8792 17.3039 21.6341C18.7581 21.4544 19.5261 22.3041 19.8856 22.9903C20.0327 23.1864 21.4215 24.8858 21.4542 19.3302C21.4706 15.5394 25.1634 14.2975 29.3627 15.8335C31.5523 16.6341 33.8562 17.2224 35.4412 16.0786C35.7026 16.8302 35.9804 17.6635 35.7679 18.6766C36.4052 18.0884 36.9444 17.2224 37.0915 16.1603C37.1895 15.523 37.0261 14.9675 36.6666 14.4773C36.8137 14.1995 36.9444 13.8563 37.0425 13.4969Z" fill="#5D4DE0"/>
</svg>
