<svg width="50" height="50" viewBox="0 0 50 50" fill="none" xmlns="http://www.w3.org/2000/svg">
<path d="M29.9021 40.1307C29.5589 41.8137 27.3367 42.8268 23.5949 41.3072C19.706 39.7386 18.023 35.9967 17.5981 34.8856C19.9021 30.5719 18.3008 27.5817 18.3008 27.5817C23.6112 27.1242 28.2517 33.3333 28.2517 33.3333L28.9707 36.4052C29.0361 36.6667 29.1668 36.8954 29.3629 37.0588C29.706 37.6634 30.1145 39.0523 29.9021 40.1307Z" fill="#E7E7E7"/>
<path d="M17.5165 34.9346C17.8269 34.4607 18.023 33.9052 18.1537 33.366C18.3988 32.2385 18.4805 31.0947 18.4969 29.9509V29.5261C18.4478 29.1013 18.3008 28.6601 18.1374 28.2679C17.925 27.7451 18.6929 27.4183 18.938 27.9411C18.9707 28.0065 18.9707 28.1209 18.9707 28.1862C19.0197 30.4085 19.1178 33.2679 17.7125 35.1143C17.6145 35.2124 17.4184 35.0653 17.5165 34.9346Z" fill="black"/>
<path d="M28.4313 33.3006C28.6764 33.4477 28.7581 33.6437 28.7908 33.8398C28.8888 34.232 28.8561 34.6568 28.9542 35.0653C29.0359 35.4575 29.281 35.8333 29.3463 36.2418C29.428 36.6666 29.6731 37.5653 29.7712 38.0065C29.8038 38.1045 29.7385 38.2189 29.6241 38.2352C29.5587 38.2516 29.5097 38.2352 29.4607 38.2026C29.2483 38.0228 29.1502 37.8431 29.0195 37.6143C28.8071 37.2222 28.66 36.8627 28.5293 36.4215C28.4149 36.0294 28.464 35.6045 28.3659 35.196C28.2842 34.8039 28.0555 34.4281 27.9738 34.0196C27.9248 33.8235 27.9084 33.6111 28.0555 33.366C28.1535 33.2679 28.3169 33.2352 28.4313 33.3006Z" fill="black"/>
<path d="M29.6082 37.6144C26.4873 37.451 23.9383 36.4706 21.4546 32.0425C23.5461 33.8889 26.0134 34.5915 28.6115 34.9183L28.9546 36.4216C29.0199 36.683 29.4121 37.451 29.6082 37.6144Z" fill="black"/>
<path d="M29.4773 37.0099C30.0329 38.0556 30.3597 39.3628 30.0165 40.5229C29.7551 41.3399 29.0035 41.9445 28.1865 42.1733C26.291 42.6798 24.1015 41.8792 22.4185 40.9805C20.3433 39.8203 18.8074 37.8759 17.827 35.7517C17.7616 35.5883 17.9904 35.4576 18.0884 35.621C18.4316 36.3073 18.8237 36.9772 19.2649 37.5818C19.7061 38.2027 20.2126 38.7746 20.7845 39.2811C22.4512 40.7844 24.7061 41.7158 26.961 41.7158C29.2812 41.6504 30.1636 40.4249 29.6244 38.17C29.5427 37.8105 29.412 37.4347 29.2322 37.1243C29.1342 36.9935 29.3793 36.8465 29.4773 37.0099Z" fill="black"/>
<path d="M35.8006 17.3853C36.0947 18.7579 35.8659 19.6729 35.7352 23.4637C34.2319 29.7382 34.3463 33.2186 33.513 34.052C32.8594 34.7056 28.9542 35.5552 26.062 34.8199C24.5914 34.4441 23.3496 33.5944 22.3365 32.9899C21.062 32.2219 20.098 29.7219 19.1829 28.2023C18.464 27.0095 18.3823 28.5781 17.4509 27.5487C16.16 26.1435 14.6078 23.3167 15.3757 18.3167C16.6176 10.2121 23.0391 9.26439 27.794 10.1631C32.5653 11.0618 35.0163 13.7742 35.8006 17.3853Z" fill="#E7E7E7"/>
<path d="M18.2517 28.9868C17.6798 28.0391 16.8628 27.2548 16.34 26.2744C14.755 23.3005 14.4282 19.6894 15.3432 16.4541C17.255 9.55867 24.1831 8.5456 30.1962 10.5717C33.5622 11.7155 35.9315 14.5587 36.2746 18.1371C36.3073 19.2809 36.0132 20.343 35.9968 21.4704C35.9151 24.4443 34.9838 27.3038 34.6243 30.1632C34.5426 31.0619 34.5426 32.0097 34.4119 32.9247C34.3792 33.1208 34.3465 33.3005 34.2811 33.5129C34.1341 33.9541 33.8073 34.2646 33.4478 34.5097C32.0916 35.343 30.5557 35.49 29.0197 35.5717C25.8171 35.7025 23.0066 34.7711 21.0949 32.1077C21.0295 32.0097 21.1602 31.8953 21.2419 31.9933C23.3825 34.2809 25.9478 35.0162 28.987 34.8691C30.2779 34.8038 33.0393 34.5587 33.6112 33.3005C33.889 32.2711 33.889 31.1927 34.0524 30.1142C34.2321 28.8397 34.7223 27.0587 35.0164 25.8005C35.3432 24.3789 35.621 22.941 35.6374 21.4868C35.6537 20.7515 35.6537 20.0162 35.6537 19.2809C35.6864 18.5456 35.5393 17.9083 35.3596 17.2057C34.706 14.4116 32.6962 12.0914 29.9838 11.0619C27.3204 10.0325 24.2321 9.77109 21.5034 10.6698C18.7256 11.5521 16.8302 13.9378 16.1112 16.7155C15.7354 18.0881 15.5393 19.526 15.4413 20.9476C15.3596 22.3855 15.5066 23.8561 16.0785 25.1959C16.487 26.209 17.157 27.0914 17.9413 27.8266L18.7093 28.6273C19.0687 28.9541 18.5132 29.3789 18.2517 28.9868Z" fill="black"/>
<path d="M20.18 23.7907C20.18 23.7907 19.6735 21.3398 17.2878 21.6339C15.229 21.8953 14.5101 26.83 19.1833 28.2025" fill="#E7E7E7"/>
<path d="M18.9705 26.0622C18.5947 25.8498 18.3333 25.4903 18.3169 25.0491C18.3333 24.7223 18.3823 24.3465 18.3006 24.0197C18.2516 23.7092 17.9248 23.6275 17.6797 23.6439C17.4182 23.6929 17.2548 24.0197 17.2058 24.2811C17.2058 24.2975 17.1895 24.3465 17.1895 24.3628C17.1731 24.4445 17.0424 24.4445 17.0097 24.3628C16.7973 23.7256 17.2712 23.023 17.9574 23.1047C18.9215 23.17 19.0522 24.1831 18.8725 24.9511C18.7744 25.2779 18.9051 25.572 19.0849 25.8498L19.1176 25.8988C19.1993 25.9968 19.0685 26.1275 18.9705 26.0622Z" fill="black"/>
<path d="M32.0425 22.0588C32.2876 23.219 32.7451 24.2974 33.317 25.3105C33.8236 26.5523 32.5164 27.7288 31.3562 27.6797C31.2255 27.6797 31.2092 27.5 31.3236 27.4673C32.0589 27.2386 32.7288 26.7484 32.8432 25.9967C32.8922 25.768 32.8268 25.5719 32.7124 25.3758C32.1732 24.3628 31.8464 23.2026 31.9281 22.0588C31.9281 21.9771 32.0425 21.9771 32.0425 22.0588Z" fill="black"/>
<path d="M20.0981 23.8072C19.7223 22.8432 18.9053 21.9281 17.8105 21.9445C17.7125 21.9281 17.5491 21.9608 17.451 21.9608C17.1733 21.9772 16.9445 22.0752 16.7321 22.2713C15.6863 23.317 15.8661 25.1634 16.7157 26.3236C17.0099 26.7321 17.3857 27.0915 17.8105 27.3857C18.2354 27.6798 18.7092 27.9085 19.2157 28.1046C19.3301 28.1373 19.2811 28.317 19.1667 28.3007C18.072 28.0719 17.0262 27.5327 16.3073 26.634C15.1961 25.2942 14.9674 23.0556 16.2909 21.7484C16.585 21.487 16.9935 21.2909 17.402 21.2909C17.5327 21.2909 17.7288 21.2582 17.8595 21.2909C18.5458 21.3236 19.1994 21.6667 19.6242 22.2059C20.0001 22.6634 20.2125 23.219 20.2778 23.7746C20.2778 23.8726 20.1308 23.9053 20.0981 23.8072Z" fill="black"/>
</svg>
