<svg width="50" height="50" viewBox="0 0 50 50" fill="none" xmlns="http://www.w3.org/2000/svg">
<path d="M29.9016 40.1307C29.5584 41.8137 27.3362 42.8268 23.5944 41.3072C19.7055 39.7386 18.0225 35.9967 17.5977 34.8856C19.9016 30.5719 18.3003 27.5817 18.3003 27.5817C23.6107 27.1242 28.2513 33.3333 28.2513 33.3333L28.9702 36.4052C29.0356 36.6667 29.1663 36.8954 29.3624 37.0588C29.7055 37.6634 30.114 39.0523 29.9016 40.1307Z" fill="#E7E7E7"/>
<path d="M17.516 34.9346C17.8264 34.4607 18.0225 33.9052 18.1532 33.366C18.3983 32.2385 18.48 31.0947 18.4964 29.9509V29.5261C18.4474 29.1013 18.3003 28.6601 18.1369 28.2679C17.9245 27.7451 18.6924 27.4183 18.9375 27.9411C18.9702 28.0065 18.9702 28.1209 18.9702 28.1862C19.0192 30.4085 19.1173 33.2679 17.7121 35.1143C17.614 35.2124 17.4179 35.0653 17.516 34.9346Z" fill="black"/>
<path d="M28.4308 33.3006C28.6759 33.4477 28.7576 33.6437 28.7903 33.8398C28.8883 34.232 28.8556 34.6568 28.9537 35.0653C29.0354 35.4575 29.2805 35.8333 29.3458 36.2418C29.4275 36.6666 29.6726 37.5653 29.7707 38.0065C29.8033 38.1045 29.738 38.2189 29.6236 38.2352C29.5582 38.2516 29.5092 38.2352 29.4602 38.2026C29.2478 38.0228 29.1498 37.8431 29.019 37.6143C28.8066 37.2222 28.6596 36.8627 28.5288 36.4215C28.4145 36.0294 28.4635 35.6045 28.3654 35.196C28.2837 34.8039 28.055 34.4281 27.9733 34.0196C27.9243 33.8235 27.9079 33.6111 28.055 33.366C28.153 33.2679 28.3164 33.2352 28.4308 33.3006Z" fill="black"/>
<path d="M29.6077 37.6144C26.4868 37.451 23.9378 36.4706 21.4541 32.0425C23.5456 33.8889 26.0129 34.5915 28.611 34.9183L28.9541 36.4216C29.0195 36.683 29.4116 37.451 29.6077 37.6144Z" fill="black"/>
<path d="M29.4763 37.0099C30.0319 38.0556 30.3587 39.3628 30.0156 40.5229C29.7541 41.3399 29.0025 41.9445 28.1855 42.1733C26.2901 42.6798 24.1005 41.8792 22.4175 40.9805C20.3424 39.8203 18.8064 37.8759 17.826 35.7517C17.7607 35.5883 17.9894 35.4576 18.0875 35.621C18.4306 36.3073 18.8227 36.9772 19.2639 37.5818C19.7051 38.2027 20.2116 38.7746 20.7835 39.2811C22.4502 40.7844 24.7051 41.7158 26.96 41.7158C29.2803 41.6504 30.1626 40.4249 29.6234 38.17C29.5417 37.8105 29.411 37.4347 29.2312 37.1243C29.1332 36.9935 29.3783 36.8465 29.4763 37.0099Z" fill="black"/>
<path d="M35.8008 17.3855C36.0949 18.7581 35.523 19.379 35.523 23.0555C35.523 24.9019 35.6864 26.0783 35.1472 28.3169C34.9021 29.3463 34.1341 30.6045 33.6112 31.5522C33.0884 32.4999 33.4315 34.0849 32.5492 34.8202C29.9021 37.0261 26.6995 36.4051 23.791 34.5424C23.6766 34.477 23.0394 33.7254 22.8433 33.5783C22.1733 33.0718 21.0622 32.5326 20.7354 32.2058C19.8204 31.3071 20.5067 29.7221 19.9511 28.7908C19.2322 27.5979 18.3661 28.562 17.4348 27.5326C16.1439 26.1274 14.5916 23.3006 15.3596 18.3006C16.6014 10.196 23.023 9.24827 27.7779 10.147C32.5655 11.062 35.0165 13.7744 35.8008 17.3855Z" fill="#E7E7E7"/>
<path d="M18.2516 28.9868C17.8758 28.3658 17.4019 27.8266 16.9607 27.2384C16.3071 26.3397 15.8169 25.343 15.4901 24.2972C14.0849 19.8037 14.8529 13.9541 19.0359 11.1763C22.8594 8.59459 30.2941 9.41159 33.6111 12.5979C35.0816 13.9214 36.5032 16.6828 36.1928 18.6763C35.915 20.0979 35.6699 21.5031 35.7189 22.9573C35.7189 23.6763 35.8006 24.3952 35.8006 25.1305C35.8496 26.6011 35.5882 28.0881 35.0326 29.4606C34.7549 30.1469 34.4117 30.8005 34.0359 31.4377C33.9705 31.5358 33.9215 31.6828 33.8888 31.8626C33.7581 32.3854 33.6928 32.9083 33.5784 33.4475C33.4477 34.0194 33.3006 34.673 32.8104 35.0979C31.4542 36.1926 29.6405 36.5194 27.9575 36.3887C26.781 36.2907 25.6372 35.9802 24.5751 35.4737C23.6437 34.9181 23.0228 34.0194 22.2385 33.3005C22.1568 33.2188 22.2549 33.0881 22.3529 33.1371C22.9248 33.4475 23.6111 34.0031 24.1339 34.4116C24.7058 34.8854 25.2941 35.0815 25.964 35.2776C26.6339 35.4737 27.3202 35.6207 28.0065 35.6698C29.5261 35.7841 31.1601 35.5064 32.3856 34.5586C32.7124 34.2482 32.8267 33.758 32.9411 33.3005C33.0882 32.6796 33.1699 32.026 33.3823 31.4214C33.415 31.3234 33.4803 31.1926 33.5294 31.1273C33.9215 30.539 34.281 29.9181 34.5751 29.2809C35.1797 27.99 35.4901 26.5848 35.4901 25.1632C35.4901 24.4443 35.4248 23.7253 35.4084 23.0064C35.3921 21.9116 35.3758 20.8168 35.4738 19.722C35.5228 19.1828 35.6045 18.6763 35.5882 18.1534C35.3758 16.2907 34.4934 14.4606 33.1862 13.1207C30.3594 10.2449 25 9.42793 21.2908 10.8005C16.9117 12.4345 15.7679 16.8626 15.5228 21.0946C15.3594 23.6273 16.1274 26.1109 18.0392 27.8593L18.8071 28.66C19.0686 28.9541 18.513 29.3789 18.2516 28.9868Z" fill="black"/>
<path d="M20.18 23.7907C20.18 23.7907 19.6735 21.3398 17.2878 21.6339C15.229 21.8953 14.5101 26.83 19.1833 28.2025" fill="#E7E7E7"/>
<path d="M18.971 26.0617C18.5952 25.8493 18.3337 25.4898 18.3174 25.0486C18.3337 24.7218 18.3828 24.346 18.3011 24.0192C18.252 23.7087 17.9252 23.627 17.6801 23.6434C17.4187 23.6924 17.2553 24.0192 17.2063 24.2806C17.2063 24.297 17.1899 24.346 17.1899 24.3623C17.1736 24.444 17.0429 24.444 17.0102 24.3623C16.7978 23.7251 17.2716 23.0225 17.9579 23.1042C18.922 23.1695 19.0527 24.1826 18.873 24.9506C18.7749 25.2774 18.9056 25.5715 19.0854 25.8493L19.1181 25.8983C19.1998 25.9963 19.069 26.127 18.971 26.0617Z" fill="black"/>
<path d="M32.0425 22.0588C32.2876 23.219 32.7451 24.2974 33.317 25.3105C33.8236 26.5523 32.5164 27.7288 31.3562 27.6797C31.2255 27.6797 31.2092 27.5 31.3236 27.4673C32.0589 27.2386 32.7288 26.7484 32.8432 25.9967C32.8922 25.768 32.8268 25.5719 32.7124 25.3758C32.1732 24.3628 31.8464 23.2026 31.9281 22.0588C31.9281 21.9771 32.0425 21.9771 32.0425 22.0588Z" fill="black"/>
<path d="M20.0981 23.8072C19.7223 22.8432 18.9053 21.9281 17.8105 21.9445C17.7125 21.9281 17.5491 21.9608 17.451 21.9608C17.1733 21.9772 16.9445 22.0752 16.7321 22.2713C15.6863 23.317 15.8661 25.1634 16.7157 26.3236C17.0099 26.7321 17.3857 27.0915 17.8105 27.3857C18.2354 27.6798 18.7092 27.9085 19.2157 28.1046C19.3301 28.1373 19.2811 28.317 19.1667 28.3007C18.072 28.0719 17.0262 27.5327 16.3073 26.634C15.1961 25.2942 14.9674 23.0556 16.2909 21.7484C16.585 21.487 16.9935 21.2909 17.402 21.2909C17.5327 21.2909 17.7288 21.2582 17.8595 21.2909C18.5458 21.3236 19.1994 21.6667 19.6242 22.2059C20.0001 22.6634 20.2125 23.219 20.2778 23.7746C20.2778 23.8726 20.1308 23.9053 20.0981 23.8072Z" fill="black"/>
</svg>
