<svg width="50" height="56" viewBox="0 0 50 56" fill="none" xmlns="http://www.w3.org/2000/svg">
<path d="M44.0042 55.6208H2.68066C2.68066 55.6208 3.3506 48.8887 5.89962 43.5129C6.83099 41.5521 7.14145 38.6763 8.98785 37.4181C10.8833 36.1273 14.9192 35.0979 16.3245 34.9345C17.1088 34.8364 16.929 34.7711 17.4846 34.624C17.6643 35.1142 19.4781 39.9181 23.8245 41.6828C27.5663 43.2025 29.7885 42.1894 30.1316 40.5064C30.3441 39.4279 29.6741 37.6632 29.331 37.0913C29.1349 36.9279 29.0042 36.6828 28.9388 36.4377L28.8081 35.8985C29.1022 35.8332 29.38 35.7515 29.6741 35.6698C29.8212 35.7025 29.9846 35.6861 30.1153 35.7678C31.4879 36.5194 35.6218 37.5815 37.7787 39.8528C38.6284 40.7351 39.9519 43.8724 40.1643 45.9149C40.7689 51.5194 44.0042 55.6208 44.0042 55.6208Z" fill="#E7E7E7"/>
<path d="M44.2328 55.719C31.9779 55.7516 14.772 55.8987 2.69685 55.8497C2.54979 55.8497 2.43541 55.719 2.45175 55.5719C2.59881 54.4118 2.79489 53.2843 3.02365 52.1405C3.62822 49.0196 4.54326 45.9477 5.9158 43.0882C6.47136 41.7484 6.74914 40.3431 7.41907 39.0359C7.81123 38.2516 8.39946 37.5 9.18378 37.0588C10.4419 36.3072 11.8308 35.8333 13.2197 35.4085C14.0531 35.1634 14.9027 34.9346 15.7524 34.7712C16.1772 34.6732 16.6021 34.6895 16.9942 34.5261C17.2067 34.4444 17.6152 34.1993 17.7459 34.5098C18.9387 37.598 21.2426 40.5229 24.4616 41.6176C26.1282 42.2222 29.0204 42.7288 29.8701 40.6863C30.1315 39.9183 29.8864 39.085 29.6576 38.317C29.5269 37.9248 29.3635 37.5163 29.1674 37.1895L29.2165 37.2386C28.9223 36.9935 28.7589 36.6013 28.7099 36.2418L28.6282 35.915C28.5955 35.7843 28.6772 35.6536 28.808 35.6209C29.1021 35.5719 29.3962 35.4739 29.6903 35.3922C29.8537 35.3922 30.1152 35.4248 30.3276 35.5392C32.125 36.3726 34.1674 36.9771 35.8831 38.0229C36.8472 38.5948 37.8276 39.2647 38.4485 40.2288C39.5923 42.1405 40.3276 44.3137 40.54 46.5196C40.9975 49.6732 42.272 52.6961 44.1021 55.2941L44.1674 55.3758L44.2001 55.4085L44.2165 55.4248C44.2165 55.4248 44.2165 55.4085 44.2328 55.4575C44.2491 55.5556 44.2491 55.6699 44.2328 55.719ZM43.7916 55.5065C43.7589 55.5556 43.7589 55.6699 43.7916 55.719C43.8243 55.7516 43.808 55.7353 43.808 55.7353L43.7916 55.719L43.7589 55.6699L43.6936 55.5882C42.6642 54.0196 41.8145 52.3366 41.1936 50.5882C40.7034 49.2974 40.3439 47.9575 40.1478 46.585C40.0825 46.0948 40.0008 45.4412 39.8864 44.9673C39.5106 43.3987 38.906 41.8301 38.04 40.4739C37.7622 40.0327 37.3537 39.6895 36.9452 39.3627C35.6544 38.3824 34.1348 37.7778 32.6315 37.1895L31.0955 36.6176C30.589 36.4216 29.9844 36.2092 29.674 35.8987H29.8047C29.5106 35.9967 29.2165 36.0784 28.9223 36.1438L29.1021 35.8497L29.1838 36.1765C29.2491 36.4706 29.3145 36.732 29.5433 36.9281C29.5596 36.9444 29.5759 36.9608 29.5923 36.9771C30.0335 37.7778 30.2949 38.6111 30.4256 39.5098C30.7034 41.0621 29.723 42.2876 28.2197 42.5817C26.1446 42.9902 23.6609 42.0915 21.9452 40.9314C19.7884 39.4118 18.2361 37.1569 17.2884 34.7222L17.5825 34.8693C17.4354 34.9183 17.3374 34.9673 17.1903 35.0327C17.0433 35.1144 16.8635 35.1634 16.7001 35.1961C16.7165 35.2941 16.6674 35 16.7328 35.3922C16.4223 35.4248 16.1772 35.4412 15.8831 35.5065C15.0498 35.6373 14.2165 35.8333 13.3995 36.0621C12.3047 36.3562 11.2263 36.7157 10.2132 37.1895C9.70665 37.4346 9.21646 37.6961 8.84064 38.0392C8.44848 38.3824 8.13803 38.8399 7.87659 39.3301C7.10861 40.817 6.7328 42.598 5.94848 44.1013C4.3145 47.7451 3.39946 51.7157 2.95829 55.6863L2.71319 55.4248C14.5759 55.3758 31.7328 55.4412 43.7916 55.5065Z" fill="#5D4DE0"/>
<path d="M30.7359 44.9343C30.164 45.0977 28.1706 43.0225 27.7621 42.6631C27.3863 43.0879 24.7392 46.0781 23.432 45.882C21.9941 45.6696 18.3176 43.2023 16.4549 39.3297C15.4255 37.2056 15.3928 35.9147 15.5072 35.2121C15.5562 34.8853 15.6542 34.6729 15.7032 34.5585C15.8666 34.1827 17.0431 32.7284 17.3372 32.7448V32.7611C17.4843 34.3297 17.9908 35.8493 18.8405 37.1729C19.8863 38.7905 21.5366 40.735 23.8405 41.6663C27.5823 43.1859 29.5268 41.6827 29.8536 39.9997C30.066 38.9212 29.6902 37.6467 29.347 37.0748C29.151 36.9114 29.0202 36.6663 28.9549 36.4212L28.8242 35.882C29.1183 35.8167 29.3961 35.735 29.6902 35.6533C29.7719 35.6206 29.8699 35.6042 29.9516 35.5716C30.0006 35.6369 30.066 35.7023 30.115 35.7676C30.8013 36.552 31.5202 37.6304 31.9124 39.4605C32.566 42.3853 31.3732 44.7382 30.7359 44.9343Z" fill="#5D4DE0"/>
<path d="M27.7129 42.5654C27.7129 42.5654 28.9057 43.2517 28.873 43.8236C28.8403 44.3955 29.1835 46.2092 29.1835 46.2092" stroke="#5D4DE0" stroke-width="0.490196" stroke-miterlimit="10" stroke-linecap="round" stroke-linejoin="round"/>
<path d="M27.6968 44.7384C27.9134 44.7384 28.089 44.5628 28.089 44.3463C28.089 44.1297 27.9134 43.9541 27.6968 43.9541C27.4803 43.9541 27.3047 44.1297 27.3047 44.3463C27.3047 44.5628 27.4803 44.7384 27.6968 44.7384Z" fill="#5D4DE0"/>
<path d="M27.8267 46.2746C28.0433 46.2746 28.2189 46.099 28.2189 45.8824C28.2189 45.6658 28.0433 45.4902 27.8267 45.4902C27.6101 45.4902 27.4346 45.6658 27.4346 45.8824C27.4346 46.099 27.6101 46.2746 27.8267 46.2746Z" fill="#5D4DE0"/>
<path d="M10.7685 55.6207L10.0332 49.5586" stroke="#544D4D" stroke-width="0.490196" stroke-miterlimit="10" stroke-linecap="round" stroke-linejoin="round"/>
<path d="M39.3143 47.5C39.3143 47.5 38.8241 48.6928 38.9712 49.8856C39.1182 51.0784 39.5431 52.8268 38.9385 55.6209" stroke="#544D4D" stroke-width="0.490196" stroke-miterlimit="10" stroke-linecap="round" stroke-linejoin="round"/>
<path d="M17.3369 32.745C17.3369 32.745 22.6147 31.1111 29.9676 35.5555C29.9676 35.5555 31.9937 41.013 30.7356 41.8463C29.4774 42.6797 25.5232 42.7614 22.7617 41.8463C19.9839 40.9477 16.4218 36.4542 17.3369 32.745Z" fill="#5D4DE0"/>
</svg>
