<svg width="50" height="57" viewBox="0 0 50 57" fill="none" xmlns="http://www.w3.org/2000/svg">
<path d="M40.8167 47.8104C40.5063 45.3921 39.1337 41.3234 38.3004 40.2287C37.3854 39.0358 37.0096 38.66 33.954 37.6306C33.7906 36.8136 33.186 34.7548 32.4671 33.8888C31.3723 32.2385 28.3821 31.8626 27.4834 32.0587C27.4834 32.0587 22.6468 30.3594 17.0749 30.3594C15.3102 30.7515 13.2677 31.5522 12.1566 33.2352C11.405 34.3463 12.2547 34.7058 11.8788 35.7189C11.7808 35.9803 9.49322 37.2875 8.56184 38.0718C8.13701 38.4149 7.66315 39.2809 7.33635 40.4084C6.68276 42.7123 7.38537 45.8986 6.56838 48.6764C4.99975 54.0358 1.81348 55.6372 1.81348 55.6372H44.0357C44.003 55.6208 41.4867 52.9084 40.8167 47.8104Z" fill="#E7E7E7"/>
<path d="M40.5719 47.8433C40.2451 45.7028 39.5915 43.5786 38.7581 41.5851C38.3496 40.6211 37.7287 39.6897 36.8627 39.1178C36.4215 38.84 35.9313 38.6276 35.4248 38.4152C34.9183 38.2191 34.3954 38.0394 33.8888 37.8597C33.8071 37.827 33.7418 37.7616 33.7254 37.6799C33.6601 37.3531 33.5784 37.0427 33.4804 36.7159C33.0555 35.3923 32.598 33.9217 31.3562 33.1538C30.4085 32.5819 29.281 32.3041 28.1862 32.2551C27.9738 32.2551 27.7451 32.2551 27.549 32.2878H27.4836C27.4673 32.2878 27.4346 32.2878 27.4183 32.2714C26.6339 31.8956 25.7679 31.6668 24.9183 31.4381C22.3692 30.8498 19.7058 30.6047 17.0915 30.5884C15.4902 30.9642 13.2516 31.8466 12.2712 33.4806C12.1078 33.742 12.0261 34.0034 12.0588 34.2976C12.0915 34.6244 12.2058 34.9838 12.1241 35.327C12.0915 35.474 12.0588 35.6374 11.9934 35.7681C11.8627 35.9479 11.6503 36.0623 11.4869 36.1766C10.6372 36.7322 9.7712 37.2224 8.95421 37.7943C8.67643 37.9904 8.41499 38.1701 8.21891 38.4479C7.64702 39.2649 7.30388 40.2453 7.15682 41.2257C6.89538 43.2191 7.15682 45.2453 6.89538 47.2387C6.60127 49.2322 5.83329 51.1603 4.75486 52.8597C4.00323 54.0034 3.08819 55.0655 1.92806 55.8008L1.81368 55.3433H44.0359L43.8562 55.7518C43.366 55.1963 42.9738 54.5917 42.6143 53.9544C41.5032 52.0917 40.8496 49.9838 40.5719 47.8433ZM41.0621 47.778C41.2418 49.1668 41.5849 50.5394 42.1078 51.8466C42.6307 53.1374 43.2843 54.3956 44.1993 55.4577C44.33 55.6047 44.2156 55.8825 44.0196 55.8662H1.79734C1.66663 55.8662 1.55225 55.7518 1.55225 55.6211C1.55225 55.5231 1.60127 55.4414 1.68297 55.4087C1.9444 55.2616 2.20584 55.0492 2.45094 54.8368C4.59146 52.9087 5.93133 50.0492 6.37251 47.2061C6.74832 44.5427 6.04571 41.6668 7.23852 39.1342C7.5163 38.5459 7.85944 37.925 8.41499 37.5492C9.42806 36.7976 10.5392 36.242 11.5359 35.5067C11.5522 35.5067 11.5522 35.4904 11.5522 35.4904C11.5359 35.5067 11.5196 35.5394 11.5196 35.5557C11.6176 35.327 11.6503 35.1309 11.6176 34.8695C11.5686 34.5427 11.4869 34.1015 11.6013 33.7583C11.6503 33.5623 11.7483 33.3825 11.8464 33.2355C13.0228 31.4708 15.098 30.6865 17.0751 30.2453C17.6307 30.2616 18.2026 30.1636 18.7581 30.1636C19.5261 30.1636 20.3104 30.278 21.0784 30.376C23.2843 30.7191 25.4085 31.3074 27.5817 31.7812L27.4346 31.7649C27.9411 31.6668 28.415 31.7159 28.9052 31.7812C32.0424 32.2551 33.1045 33.6276 33.9542 36.5525C34.0522 36.8793 34.1339 37.2061 34.2156 37.5492L34.0522 37.3531C35.6209 37.9087 37.3856 38.4152 38.3823 39.8695C38.7418 40.3106 39.0032 40.8335 39.232 41.3564C40.0653 43.4479 40.7189 45.5557 41.0621 47.778Z" fill="#5D4DE0"/>
<path d="M15.0653 37.059C16.2745 39.6407 18.1536 41.8303 20.3921 43.5623C20.4738 43.6277 20.3921 43.7584 20.2941 43.7094C18.3006 42.7617 16.6176 41.144 15.6209 39.1832C15.2941 38.5296 15.0163 37.827 14.9183 37.0917C14.8856 37.01 15.0163 36.9773 15.0653 37.059Z" fill="#5D4DE0"/>
<path d="M34.1996 37.5979C34.2486 40.3266 33.1375 43.1207 31.0133 44.8854C30.9643 44.9345 30.8989 44.9181 30.8499 44.8691C30.8009 44.8201 30.8172 44.7547 30.8662 44.7057C31.3401 44.2482 31.814 43.7743 32.1734 43.2188C32.9251 42.1403 33.3826 40.8658 33.595 39.575C33.693 38.9377 33.7584 38.2514 33.7094 37.6142C33.693 37.3037 34.1832 37.2711 34.1996 37.5979Z" fill="#5D4DE0"/>
<path d="M24.5749 44.0851C24.1991 45.4087 23.8887 46.8466 24.0684 48.2191C24.1174 48.5296 23.6436 48.6113 23.5782 48.2845C23.4965 47.5329 23.5946 46.7976 23.7253 46.0786C23.8723 45.3597 24.0521 44.6734 24.2972 43.9871C24.3625 43.8237 24.6403 43.9054 24.5749 44.0851Z" fill="#5D4DE0"/>
<path d="M29.7713 43.8398C30.3106 44.9999 30.6864 46.209 30.9805 47.4345C31.0132 47.5653 30.9315 47.696 30.8007 47.7287C30.67 47.7613 30.5393 47.6796 30.5066 47.5489C30.3432 46.6339 30.1308 45.7188 29.8367 44.8202C29.7387 44.526 29.6406 44.2319 29.5262 43.9378C29.4609 43.7907 29.6896 43.6764 29.7713 43.8398Z" fill="#5D4DE0"/>
<path d="M12.222 35.6534C12.8266 38.9541 15.1469 41.7482 17.941 43.5292C18.8887 44.1338 19.9018 44.6567 20.9475 45.0815C21.0129 45.1142 21.0456 45.1796 21.0129 45.2449C20.9966 45.3103 20.9149 45.343 20.8658 45.3103C19.7874 44.9181 18.7416 44.4279 17.7613 43.8397C15.7678 42.6632 14.0194 41.0292 12.843 39.0358C12.2384 38.0064 11.7645 36.9279 11.5358 35.7515C11.5031 35.5554 11.6338 35.3756 11.8299 35.343C12.0096 35.2939 12.2057 35.441 12.222 35.6534Z" fill="#5D4DE0"/>
<path d="M23.5948 48.5787C23.1373 48.5297 22.8105 48.1048 22.9086 47.6473L23.0883 46.7813C23.1537 46.4382 23.4805 46.1931 23.8236 46.2421C24.1667 46.2748 24.4445 46.5689 24.4445 46.9284V47.8107C24.4609 48.2682 24.0687 48.6277 23.5948 48.5787Z" fill="#5D4DE0"/>
<path d="M31.1276 47.974C30.6864 48.1374 30.2125 47.8759 30.0982 47.4184L29.8858 46.5524C29.8041 46.2093 29.9838 45.8661 30.3269 45.7354C30.6537 45.621 31.0295 45.7681 31.1766 46.0785L31.5688 46.8792C31.7648 47.3204 31.5688 47.8269 31.1276 47.974Z" fill="#5D4DE0"/>
<path d="M9.83647 55.6208C9.83647 55.6208 9.68941 51.977 9.19922 50.9966" stroke="#5D4DE0" stroke-width="0.837533" stroke-miterlimit="10" stroke-linecap="round" stroke-linejoin="round"/>
<path d="M38.6768 47.4839C38.6768 47.4839 39.5918 52.6146 39.2323 55.6211" stroke="#5D4DE0" stroke-width="0.837533" stroke-miterlimit="10" stroke-linecap="round" stroke-linejoin="round"/>
<path d="M36.0459 52.4185C36.0459 52.4185 33.6276 52.7779 31.5034 52.6799" stroke="#5D4DE0" stroke-width="0.837533" stroke-miterlimit="10" stroke-linecap="round" stroke-linejoin="round"/>
<path d="M17.3365 35.0654C17.1077 34.4118 17.0097 33.7418 17.0587 33.0556C17.0587 32.9902 17.1077 32.9575 17.1731 32.9575C17.2221 32.9575 17.2711 33.0065 17.2711 33.0556C17.3202 33.6765 17.4999 34.3137 17.794 34.8529C17.9411 35.1797 17.4509 35.3922 17.3365 35.0654Z" fill="#5D4DE0"/>
<path d="M28.3822 35.9314C27.9247 34.9019 26.7972 34.3791 25.8005 34.0196C25.1796 33.8235 24.4933 33.6765 23.8397 33.5784C22.2547 33.3333 20.0162 32.9575 18.4312 32.7941C18.4149 32.7941 18.4149 32.7614 18.4312 32.7614C18.8887 32.7124 19.3462 32.7124 19.8037 32.7124C21.1763 32.7451 22.5488 32.8921 23.9051 33.1046C25.2613 33.317 26.7155 33.7255 27.7449 34.7059C28.0717 35.049 28.3658 35.4412 28.4475 35.915C28.4639 35.964 28.3985 35.9804 28.3822 35.9314Z" fill="#5D4DE0"/>
</svg>
