<svg width="32" height="32" viewBox="0 0 32 32" fill="none" xmlns="http://www.w3.org/2000/svg">
<path d="M16.125 21.0312C16.125 21.1688 16.2312 21.2812 16.3594 21.2812H22.1406C22.2687 21.2812 22.375 21.1688 22.375 21.0312V19.5312C22.375 19.3938 22.2687 19.2812 22.1406 19.2812H16.3594C16.2312 19.2812 16.125 19.3938 16.125 19.5312V21.0312ZM10.0344 21.2219L16.0344 16.1906C16.1531 16.0906 16.1531 15.9062 16.0344 15.8062L10.0344 10.7781C9.99815 10.7473 9.95386 10.7276 9.90674 10.7212C9.85962 10.7148 9.81166 10.7221 9.76856 10.7422C9.72546 10.7622 9.68902 10.7943 9.66357 10.8344C9.63813 10.8746 9.62474 10.9212 9.625 10.9688V12.9281C9.625 13.0031 9.65625 13.0719 9.71562 13.1187L13.1469 16L9.71562 18.8813C9.68769 18.9046 9.66514 18.9338 9.6495 18.9667C9.63385 18.9996 9.6255 19.0355 9.625 19.0719V21.0312C9.625 21.2437 9.87188 21.3594 10.0344 21.2219ZM27.5 3.5H4.5C3.94687 3.5 3.5 3.94687 3.5 4.5V27.5C3.5 28.0531 3.94687 28.5 4.5 28.5H27.5C28.0531 28.5 28.5 28.0531 28.5 27.5V4.5C28.5 3.94687 28.0531 3.5 27.5 3.5ZM26.25 26.25H5.75V5.75H26.25V26.25Z" fill="#CCCCCC"/>
</svg>
