<svg width="16" height="16" viewBox="0 0 16 16" fill="none" xmlns="http://www.w3.org/2000/svg">
<path fill-rule="evenodd" clip-rule="evenodd" d="M3.99935 2.5C3.53911 2.5 3.16602 2.8731 3.16602 3.33333V12.6667C3.16602 12.9428 2.94216 13.1667 2.66602 13.1667C2.38987 13.1667 2.16602 12.9428 2.16602 12.6667V3.33333C2.16602 2.32081 2.98683 1.5 3.99935 1.5H12.9327C13.4298 1.5 13.8327 1.90296 13.8327 2.4V11.1429C13.8327 11.419 13.6088 11.6429 13.3327 11.6429C13.0565 11.6429 12.8327 11.419 12.8327 11.1429V2.5H3.99935Z" fill="#C0C0C1"/>
<path fill-rule="evenodd" clip-rule="evenodd" d="M3.5 11.3333C3.5 11.0571 3.72386 10.8333 4 10.8333H13.3333C13.6095 10.8333 13.8333 11.0571 13.8333 11.3333C13.8333 11.6094 13.6095 11.8333 13.3333 11.8333H4C3.72386 11.8333 3.5 11.6094 3.5 11.3333Z" fill="#C0C0C1"/>
<path fill-rule="evenodd" clip-rule="evenodd" d="M3.5 14C3.5 13.7239 3.72386 13.5 4 13.5H13.3333C13.6095 13.5 13.8333 13.7239 13.8333 14C13.8333 14.2761 13.6095 14.5 13.3333 14.5H4C3.72386 14.5 3.5 14.2761 3.5 14Z" fill="#C0C0C1"/>
<path fill-rule="evenodd" clip-rule="evenodd" d="M3.99935 11.8333C3.53911 11.8333 3.16602 12.2063 3.16602 12.6666C3.16602 13.1268 3.53911 13.4999 3.99935 13.4999C4.27549 13.4999 4.49935 13.7238 4.49935 13.9999C4.49935 14.2761 4.27549 14.4999 3.99935 14.4999C2.98683 14.4999 2.16602 13.6791 2.16602 12.6666C2.16602 11.654 2.98683 10.8333 3.99935 10.8333C4.27549 10.8333 4.49935 11.0571 4.49935 11.3333C4.49935 11.6094 4.27549 11.8333 3.99935 11.8333Z" fill="#C0C0C1"/>
<path fill-rule="evenodd" clip-rule="evenodd" d="M5.5 4.66675C5.5 4.39061 5.72386 4.16675 6 4.16675H10C10.2761 4.16675 10.5 4.39061 10.5 4.66675C10.5 4.94289 10.2761 5.16675 10 5.16675H6C5.72386 5.16675 5.5 4.94289 5.5 4.66675Z" fill="#C0C0C1"/>
</svg>
