<svg width="76" height="80" viewBox="0 0 76 80" fill="none" xmlns="http://www.w3.org/2000/svg">
<path d="M17.9775 24.6917H50.3008V27.475H17.9775V24.6917Z" fill="url(#paint0_linear_799_1299)"/>
<path d="M52.0967 29.7197H17.7263C17.268 29.7132 16.8158 29.614 16.397 29.428C15.9781 29.242 15.6012 28.9731 15.2891 28.6374C14.977 28.3018 14.7361 27.9065 14.5809 27.4752C14.4257 27.044 14.3595 26.5858 14.3862 26.1283C14.384 25.2177 14.7277 24.3404 15.3478 23.6736C15.9678 23.0069 16.818 22.6005 17.7263 22.5368H52.0967C52.5729 22.5368 53.0297 22.3476 53.3665 22.0108C53.7032 21.6741 53.8924 21.2173 53.8924 20.741C53.8924 20.2648 53.7032 19.808 53.3665 19.4713C53.0297 19.1345 52.5729 18.9453 52.0967 18.9453H17.7263C15.8652 19.0105 14.1021 19.7959 12.809 21.136C11.5158 22.4761 10.7936 24.266 10.7948 26.1283C10.7774 26.4213 10.7774 26.7151 10.7948 27.0082C10.7775 27.1513 10.7775 27.296 10.7948 27.4391V69.2259C10.7936 71.0882 11.5158 72.8781 12.809 74.2182C14.1021 75.5582 15.8652 76.3437 17.7263 76.4088H52.0967C52.5729 76.4088 53.0297 76.2196 53.3665 75.8829C53.7032 75.5461 53.8924 75.0894 53.8924 74.6131V31.6412C53.8935 31.1526 53.7084 30.682 53.3748 30.3251C53.0412 29.9681 52.5842 29.7517 52.0967 29.7197V29.7197ZM50.3009 72.8174H17.7263C16.818 72.7536 15.9678 72.3473 15.3478 71.6805C14.7277 71.0138 14.384 70.1364 14.3862 69.2259V32.5031C15.4073 33.0664 16.5607 33.3454 17.7263 33.3112H50.3009V72.8174Z" fill="url(#paint1_linear_799_1299)"/>
<g clip-path="url(#clip0_799_1299)">
<path d="M62.4961 10.0962C62.6739 9.56285 63.4271 9.56285 63.6048 10.0962L64.6473 13.2267C64.8767 13.9149 65.2633 14.5401 65.7764 15.0529C66.2895 15.5657 66.9149 15.952 67.6032 16.181L70.7321 17.2235C71.2654 17.4012 71.2654 18.1544 70.7321 18.3321L67.6016 19.3746C66.9134 19.604 66.2882 19.9906 65.7754 20.5037C65.2626 21.0168 64.8763 21.6422 64.6473 22.3305L63.6048 25.4594C63.5665 25.5762 63.4923 25.6779 63.3927 25.75C63.2932 25.8221 63.1734 25.8609 63.0505 25.8609C62.9276 25.8609 62.8078 25.8221 62.7083 25.75C62.6087 25.6779 62.5345 25.5762 62.4961 25.4594L61.4537 22.3289C61.2244 21.6409 60.8381 21.0158 60.3253 20.503C59.8125 19.9902 59.1874 19.6039 58.4994 19.3746L55.3689 18.3321C55.2521 18.2938 55.1504 18.2196 55.0783 18.12C55.0062 18.0205 54.9674 17.9007 54.9674 17.7778C54.9674 17.6549 55.0062 17.5351 55.0783 17.4356C55.1504 17.336 55.2521 17.2618 55.3689 17.2235L58.4994 16.181C59.1874 15.9517 59.8125 15.5654 60.3253 15.0526C60.8381 14.5398 61.2244 13.9147 61.4537 13.2267L62.4961 10.0962ZM56.2529 1.85538C56.2761 1.78539 56.3207 1.72448 56.3805 1.68131C56.4403 1.63815 56.5121 1.61491 56.5858 1.61491C56.6596 1.61491 56.7314 1.63815 56.7912 1.68131C56.851 1.72448 56.8956 1.78539 56.9188 1.85538L57.5442 3.73336C57.8238 4.57053 58.48 5.22669 59.3172 5.50629L61.1951 6.13174C61.2651 6.15491 61.326 6.19956 61.3692 6.25933C61.4124 6.31909 61.4356 6.39094 61.4356 6.46467C61.4356 6.53839 61.4124 6.61025 61.3692 6.67001C61.326 6.72978 61.2651 6.77442 61.1951 6.7976L59.3172 7.42305C58.9043 7.56062 58.5291 7.79245 58.2214 8.10018C57.9136 8.40792 57.6818 8.78309 57.5442 9.19598L56.9188 11.074C56.8956 11.144 56.851 11.2049 56.7912 11.248C56.7314 11.2912 56.6596 11.3144 56.5858 11.3144C56.5121 11.3144 56.4403 11.2912 56.3805 11.248C56.3207 11.2049 56.2761 11.144 56.2529 11.074L55.6275 9.19598C55.4899 8.78309 55.2581 8.40792 54.9503 8.10018C54.6426 7.79245 54.2674 7.56062 53.8545 7.42305L51.9765 6.7976C51.9066 6.77442 51.8457 6.72978 51.8025 6.67001C51.7593 6.61025 51.7361 6.53839 51.7361 6.46467C51.7361 6.39094 51.7593 6.31909 51.8025 6.25933C51.8457 6.19956 51.9066 6.15491 51.9765 6.13174L53.8545 5.50629C54.2674 5.36872 54.6426 5.13689 54.9503 4.82915C55.2581 4.52142 55.4899 4.14624 55.6275 3.73336L56.2529 1.85538ZM67.6776 0.160021C67.6935 0.114003 67.7234 0.0740997 67.7631 0.0458584C67.8028 0.017617 67.8503 0.00244141 67.899 0.00244141C67.9477 0.00244141 67.9952 0.017617 68.0349 0.0458584C68.0745 0.0740997 68.1044 0.114003 68.1204 0.160021L68.5374 1.41093C68.7232 1.97012 69.1612 2.4081 69.7204 2.59396L70.9713 3.01093C71.0173 3.02689 71.0572 3.05678 71.0855 3.09646C71.1137 3.13614 71.1289 3.18364 71.1289 3.23235C71.1289 3.28105 71.1137 3.32855 71.0855 3.36823C71.0572 3.40791 71.0173 3.43781 70.9713 3.45376L69.7204 3.87073C69.4448 3.9624 69.1944 4.11706 68.989 4.32242C68.7837 4.52778 68.629 4.77819 68.5374 5.05376L68.1204 6.30467C68.1044 6.35069 68.0745 6.39059 68.0349 6.41883C67.9952 6.44707 67.9477 6.46225 67.899 6.46225C67.8503 6.46225 67.8028 6.44707 67.7631 6.41883C67.7234 6.39059 67.6935 6.35069 67.6776 6.30467L67.2606 5.05376C67.1689 4.77819 67.0143 4.52778 66.8089 4.32242C66.6035 4.11706 66.3531 3.9624 66.0776 3.87073L64.8283 3.45376C64.7822 3.43781 64.7423 3.40791 64.7141 3.36823C64.6859 3.32855 64.6707 3.28105 64.6707 3.23235C64.6707 3.18364 64.6859 3.13614 64.7141 3.09646C64.7423 3.05678 64.7822 3.02689 64.8283 3.01093L66.0792 2.59396C66.6384 2.4081 67.0763 1.97012 67.2622 1.41093L67.6776 0.161638V0.160021Z" fill="url(#paint2_linear_799_1299)"/>
</g>
<defs>
<linearGradient id="paint0_linear_799_1299" x1="34.1392" y1="24.6917" x2="34.1392" y2="27.475" gradientUnits="userSpaceOnUse">
<stop offset="0.4375" stop-color="#808BF2"/>
<stop offset="1" stop-color="#80F2E7"/>
</linearGradient>
<linearGradient id="paint1_linear_799_1299" x1="32.3371" y1="18.9453" x2="32.3371" y2="76.4088" gradientUnits="userSpaceOnUse">
<stop offset="0.4375" stop-color="#808BF2"/>
<stop offset="1" stop-color="#80F2E7"/>
</linearGradient>
<linearGradient id="paint2_linear_799_1299" x1="61.4341" y1="0.00244141" x2="61.4341" y2="25.8609" gradientUnits="userSpaceOnUse">
<stop offset="0.4375" stop-color="#808BF2"/>
<stop offset="1" stop-color="#80F2E7"/>
</linearGradient>
<clipPath id="clip0_799_1299">
<rect width="25.8586" height="25.8586" fill="white" transform="translate(50.1211)"/>
</clipPath>
</defs>
</svg>
