<svg width="36" height="36" viewBox="0 0 36 36" fill="none" xmlns="http://www.w3.org/2000/svg">
<path d="M5.99983 31.9502C5.39983 32.1752 4.86883 32.0562 4.40683 31.5932C3.94383 31.1312 3.82483 30.6002 4.04983 30.0002L8.88733 16.4627C9.23733 15.4127 9.94983 14.7627 11.0248 14.5127C12.0998 14.2627 13.0373 14.5377 13.8373 15.3377L20.6623 22.1627C21.4623 22.9627 21.7373 23.9002 21.4873 24.9752C21.2373 26.0502 20.5873 26.7627 19.5373 27.1127L5.99983 31.9502ZM7.94983 28.0502L18.5248 24.3002L11.6998 17.4752L7.94983 28.0502ZM21.0373 18.0377C20.8123 17.8127 20.6998 17.5502 20.6998 17.2502C20.6998 16.9502 20.8123 16.6877 21.0373 16.4627L28.6498 8.8502C29.4498 8.0502 30.4123 7.6502 31.5373 7.6502C32.6623 7.6502 33.6248 8.0502 34.4248 8.8502L34.5748 9.0002C34.7748 9.2002 34.8748 9.4502 34.8748 9.7502C34.8748 10.0502 34.7623 10.3127 34.5373 10.5377C34.3123 10.7627 34.0498 10.8752 33.7498 10.8752C33.4498 10.8752 33.1873 10.7627 32.9623 10.5377L32.8498 10.4252C32.4998 10.0752 32.0623 9.9002 31.5373 9.9002C31.0123 9.9002 30.5748 10.0752 30.2248 10.4252L22.5748 18.0752C22.3748 18.2752 22.1248 18.3752 21.8248 18.3752C21.5248 18.3752 21.2623 18.2627 21.0373 18.0377V18.0377ZM15.0373 12.0377C14.8123 11.8127 14.6998 11.5502 14.6998 11.2502C14.6998 10.9502 14.8123 10.6877 15.0373 10.4627L15.1498 10.3502C15.4998 10.0002 15.6748 9.5752 15.6748 9.0752C15.6748 8.5752 15.4998 8.1502 15.1498 7.8002L14.9248 7.5752C14.7248 7.3752 14.6248 7.1252 14.6248 6.8252C14.6248 6.5252 14.7373 6.2627 14.9623 6.0377C15.1873 5.8127 15.4498 5.7002 15.7498 5.7002C16.0498 5.7002 16.3123 5.8127 16.5373 6.0377L16.7248 6.2252C17.5248 7.0252 17.9248 7.9752 17.9248 9.0752C17.9248 10.1752 17.5248 11.1252 16.7248 11.9252L16.5748 12.0752C16.3748 12.2752 16.1248 12.3752 15.8248 12.3752C15.5248 12.3752 15.2623 12.2627 15.0373 12.0377V12.0377ZM18.0373 15.0377C17.8123 14.8127 17.6998 14.5502 17.6998 14.2502C17.6998 13.9502 17.8123 13.6877 18.0373 13.4627L22.6498 8.8502C22.9998 8.5002 23.1748 8.0627 23.1748 7.5377C23.1748 7.0127 22.9998 6.5752 22.6498 6.2252L20.9998 4.5752C20.7998 4.3752 20.6998 4.1252 20.6998 3.8252C20.6998 3.5252 20.8123 3.2627 21.0373 3.0377C21.2623 2.8127 21.5248 2.7002 21.8248 2.7002C22.1248 2.7002 22.3873 2.8127 22.6123 3.0377L24.2248 4.6502C25.0248 5.4502 25.4248 6.4127 25.4248 7.5377C25.4248 8.6627 25.0248 9.62519 24.2248 10.4252L19.5748 15.0752C19.3748 15.2752 19.1248 15.3752 18.8248 15.3752C18.5248 15.3752 18.2623 15.2627 18.0373 15.0377V15.0377ZM24.0373 21.0377C23.8123 20.8127 23.6998 20.5502 23.6998 20.2502C23.6998 19.9502 23.8123 19.6877 24.0373 19.4627L25.6498 17.8502C26.4498 17.0502 27.4123 16.6502 28.5373 16.6502C29.6623 16.6502 30.6248 17.0502 31.4248 17.8502L33.0748 19.5002C33.2748 19.7002 33.3748 19.9502 33.3748 20.2502C33.3748 20.5502 33.2623 20.8127 33.0373 21.0377C32.8123 21.2627 32.5498 21.3752 32.2498 21.3752C31.9498 21.3752 31.6873 21.2627 31.4623 21.0377L29.8498 19.4252C29.4998 19.0752 29.0623 18.9002 28.5373 18.9002C28.0123 18.9002 27.5748 19.0752 27.2248 19.4252L25.5748 21.0752C25.3748 21.2752 25.1248 21.3752 24.8248 21.3752C24.5248 21.3752 24.2623 21.2627 24.0373 21.0377Z" fill="#5599FF"/>
</svg>
