<svg width="80" height="80" viewBox="0 0 80 80" fill="none" xmlns="http://www.w3.org/2000/svg">
<path d="M13.3335 71C12.0002 71.5 10.8202 71.2356 9.79349 70.2067C8.7646 69.18 8.50016 68 9.00016 66.6667L19.7502 36.5833C20.5279 34.25 22.1113 32.8056 24.5002 32.25C26.889 31.6944 28.9724 32.3056 30.7502 34.0833L45.9168 49.25C47.6946 51.0278 48.3057 53.1111 47.7502 55.5C47.1946 57.8889 45.7502 59.4722 43.4168 60.25L13.3335 71ZM17.6668 62.3333L41.1668 54L26.0002 38.8333L17.6668 62.3333ZM46.7502 40.0833C46.2502 39.5833 46.0002 39 46.0002 38.3333C46.0002 37.6667 46.2502 37.0833 46.7502 36.5833L63.6668 19.6667C65.4446 17.8889 67.5835 17 70.0835 17C72.5835 17 74.7224 17.8889 76.5002 19.6667L76.8335 20C77.2779 20.4444 77.5002 21 77.5002 21.6667C77.5002 22.3333 77.2502 22.9167 76.7502 23.4167C76.2502 23.9167 75.6668 24.1667 75.0002 24.1667C74.3335 24.1667 73.7502 23.9167 73.2502 23.4167L73.0002 23.1667C72.2224 22.3889 71.2502 22 70.0835 22C68.9168 22 67.9446 22.3889 67.1668 23.1667L50.1668 40.1667C49.7224 40.6111 49.1668 40.8333 48.5002 40.8333C47.8335 40.8333 47.2502 40.5833 46.7502 40.0833ZM33.4168 26.75C32.9168 26.25 32.6668 25.6667 32.6668 25C32.6668 24.3333 32.9168 23.75 33.4168 23.25L33.6668 23C34.4446 22.2222 34.8335 21.2778 34.8335 20.1667C34.8335 19.0556 34.4446 18.1111 33.6668 17.3333L33.1668 16.8333C32.7224 16.3889 32.5002 15.8333 32.5002 15.1667C32.5002 14.5 32.7502 13.9167 33.2502 13.4167C33.7502 12.9167 34.3335 12.6667 35.0002 12.6667C35.6668 12.6667 36.2502 12.9167 36.7502 13.4167L37.1668 13.8333C38.9446 15.6111 39.8335 17.7222 39.8335 20.1667C39.8335 22.6111 38.9446 24.7222 37.1668 26.5L36.8335 26.8333C36.389 27.2778 35.8335 27.5 35.1668 27.5C34.5002 27.5 33.9168 27.25 33.4168 26.75ZM40.0835 33.4167C39.5835 32.9167 39.3335 32.3333 39.3335 31.6667C39.3335 31 39.5835 30.4167 40.0835 29.9167L50.3335 19.6667C51.1113 18.8889 51.5002 17.9167 51.5002 16.75C51.5002 15.5833 51.1113 14.6111 50.3335 13.8333L46.6668 10.1667C46.2224 9.72222 46.0002 9.16667 46.0002 8.5C46.0002 7.83333 46.2502 7.25 46.7502 6.75C47.2502 6.25 47.8335 6 48.5002 6C49.1668 6 49.7502 6.25 50.2502 6.75L53.8335 10.3333C55.6113 12.1111 56.5002 14.25 56.5002 16.75C56.5002 19.25 55.6113 21.3889 53.8335 23.1667L43.5002 33.5C43.0557 33.9444 42.5002 34.1667 41.8335 34.1667C41.1668 34.1667 40.5835 33.9167 40.0835 33.4167ZM53.4168 46.75C52.9168 46.25 52.6668 45.6667 52.6668 45C52.6668 44.3333 52.9168 43.75 53.4168 43.25L57.0002 39.6667C58.7779 37.8889 60.9168 37 63.4168 37C65.9168 37 68.0557 37.8889 69.8335 39.6667L73.5002 43.3333C73.9446 43.7778 74.1668 44.3333 74.1668 45C74.1668 45.6667 73.9168 46.25 73.4168 46.75C72.9168 47.25 72.3335 47.5 71.6668 47.5C71.0002 47.5 70.4168 47.25 69.9168 46.75L66.3335 43.1667C65.5557 42.3889 64.5835 42 63.4168 42C62.2502 42 61.2779 42.3889 60.5002 43.1667L56.8335 46.8333C56.389 47.2778 55.8335 47.5 55.1668 47.5C54.5002 47.5 53.9168 47.25 53.4168 46.75Z" fill="url(#paint0_linear_799_1289)"/>
<defs>
<linearGradient id="paint0_linear_799_1289" x1="43.1275" y1="6" x2="43.1275" y2="71.2453" gradientUnits="userSpaceOnUse">
<stop stop-color="#5599FF"/>
<stop offset="1" stop-color="#80F2E7"/>
</linearGradient>
</defs>
</svg>
