<svg width="16" height="16" viewBox="0 0 16 16" fill="none" xmlns="http://www.w3.org/2000/svg">
<path fill-rule="evenodd" clip-rule="evenodd" d="M0.833984 14C0.833984 13.7239 1.05784 13.5 1.33398 13.5H11.334C11.6101 13.5 11.834 13.7239 11.834 14C11.834 14.2761 11.6101 14.5 11.334 14.5H1.33398C1.05784 14.5 0.833984 14.2761 0.833984 14Z" fill="#C0C0C1"/>
<path fill-rule="evenodd" clip-rule="evenodd" d="M13.5 14C13.5 13.7239 13.7239 13.5 14 13.5H14.6667C14.9428 13.5 15.1667 13.7239 15.1667 14C15.1667 14.2761 14.9428 14.5 14.6667 14.5H14C13.7239 14.5 13.5 14.2761 13.5 14Z" fill="#C0C0C1"/>
<path fill-rule="evenodd" clip-rule="evenodd" d="M1.83398 2.5V10.8333H14.1673V2.5H1.83398ZM0.833984 2.4C0.833984 1.90294 1.23693 1.5 1.73398 1.5H14.2673C14.7644 1.5 15.1673 1.90296 15.1673 2.4V10.9333C15.1673 11.4304 14.7644 11.8333 14.2673 11.8333H1.73398C1.23694 11.8333 0.833984 11.4304 0.833984 10.9333V2.4Z" fill="#C0C0C1"/>
</svg>
