<svg width="26" height="27" viewBox="0 0 26 27" fill="none" xmlns="http://www.w3.org/2000/svg">
<path fill-rule="evenodd" clip-rule="evenodd" d="M16.7479 9.97939C17.0642 9.66312 17.577 9.66312 17.8933 9.97939L21.1328 13.2189C21.2104 13.2965 21.269 13.386 21.3085 13.4816C21.3481 13.577 21.37 13.6818 21.37 13.7916C21.37 13.9014 21.3481 14.0061 21.3085 14.1016C21.269 14.1971 21.2104 14.2866 21.1328 14.3642L17.8933 17.6037C17.577 17.92 17.0642 17.92 16.7479 17.6037C16.4317 17.2875 16.4317 16.7747 16.7479 16.4584L18.6049 14.6014H13.0013C12.554 14.6014 12.1914 14.2388 12.1914 13.7916C12.1914 13.3443 12.554 12.9817 13.0013 12.9817H18.6049L16.7479 11.1247C16.4317 10.8085 16.4317 10.2957 16.7479 9.97939Z" fill="#F44141"/>
<path fill-rule="evenodd" clip-rule="evenodd" d="M4.63281 6.23273C4.63281 4.59269 5.96232 3.26318 7.60236 3.26318H18.4007C20.0408 3.26318 21.3702 4.5927 21.3702 6.23273V7.31256C21.3702 7.75984 21.0076 8.12244 20.5604 8.12244C20.1131 8.12244 19.7505 7.75984 19.7505 7.31256V6.23273C19.7505 5.48725 19.1462 4.88293 18.4007 4.88293H7.60236C6.85689 4.88293 6.25256 5.48726 6.25256 6.23273V21.3504C6.25256 22.0959 6.85688 22.7002 7.60236 22.7002H18.4007C19.1462 22.7002 19.7505 22.0959 19.7505 21.3504V20.2706C19.7505 19.8233 20.1131 19.4607 20.5604 19.4607C21.0076 19.4607 21.3702 19.8233 21.3702 20.2706V21.3504C21.3702 22.9905 20.0408 24.3199 18.4007 24.3199H7.60236C5.96233 24.3199 4.63281 22.9905 4.63281 21.3504V6.23273Z" fill="#F44141"/>
</svg>
