<svg width="24" height="24" viewBox="0 0 24 24" fill="none" xmlns="http://www.w3.org/2000/svg">
<path d="M23.5309 9.825H12.2402V14.4656H18.6902C18.4121 15.9656 17.5684 17.2344 16.2965 18.0844C15.2215 18.8031 13.8496 19.2281 12.2371 19.2281C9.11523 19.2281 6.47461 17.1187 5.53086 14.2844C5.29336 13.5656 5.15586 12.7969 5.15586 12.0063C5.15586 11.2156 5.29336 10.4469 5.53086 9.72812C6.47773 6.89687 9.11836 4.7875 12.2402 4.7875C13.9996 4.7875 15.5777 5.39375 16.8215 6.58125L20.259 3.14062C18.1809 1.20312 15.4715 0.015625 12.2402 0.015625C7.55586 0.015625 3.50273 2.70312 1.53086 6.62187C0.718359 8.24062 0.255859 10.0719 0.255859 12.0094C0.255859 13.9469 0.718359 15.775 1.53086 17.3937C3.50273 21.3125 7.55586 24 12.2402 24C15.4777 24 18.1902 22.925 20.1715 21.0938C22.4371 19.0063 23.7465 15.9313 23.7465 12.2781C23.7465 11.4281 23.6715 10.6125 23.5309 9.825Z" fill="#A5A0EA"/>
</svg>
