<svg width="41" height="41" viewBox="0 0 41 41" fill="none" xmlns="http://www.w3.org/2000/svg">
<path d="M15.5 35.6388H12.1667C8.48477 35.6388 5.5 32.6539 5.5 28.9721V18.4848C5.5 16.1536 6.71768 13.9917 8.71132 12.7834L17.0447 7.73293C19.1685 6.44579 21.8315 6.44579 23.9553 7.73293L32.2887 12.7834C34.2823 13.9917 35.5 16.1536 35.5 18.4848V28.9721C35.5 32.6539 32.5152 35.6388 28.8333 35.6388H25.5M15.5 35.6388V28.9721C15.5 26.2106 17.7385 23.9721 20.5 23.9721C23.2615 23.9721 25.5 26.2106 25.5 28.9721V35.6388M15.5 35.6388H25.5" stroke="#6C7BFF" stroke-linecap="round" stroke-linejoin="round"/>
</svg>
