<svg width="41" height="40" viewBox="0 0 41 40" fill="none" xmlns="http://www.w3.org/2000/svg">
<path d="M15.5 35.0001H12.1667C8.48477 35.0001 5.5 32.0153 5.5 28.3334V17.8461C5.5 15.5149 6.71768 13.353 8.71132 12.1448L17.0447 7.09426C19.1685 5.80712 21.8315 5.80712 23.9553 7.09426L32.2887 12.1448C34.2823 13.353 35.5 15.5149 35.5 17.8461V28.3334C35.5 32.0153 32.5152 35.0001 28.8333 35.0001H25.5M15.5 35.0001V28.3334C15.5 25.5719 17.7385 23.3334 20.5 23.3334C23.2615 23.3334 25.5 25.5719 25.5 28.3334V35.0001M15.5 35.0001H25.5" stroke="#D2D2D2" stroke-width="1.5" stroke-linecap="round" stroke-linejoin="round"/>
</svg>
