<svg width="64" height="64" viewBox="0 0 64 64" fill="none" xmlns="http://www.w3.org/2000/svg">
<path d="M50.6667 29.3335H13.3333C10.3878 29.3335 8 31.7213 8 34.6668V53.3335C8 56.279 10.3878 58.6668 13.3333 58.6668H50.6667C53.6122 58.6668 56 56.279 56 53.3335V34.6668C56 31.7213 53.6122 29.3335 50.6667 29.3335Z" stroke="#E7E7E7" stroke-width="2" stroke-linecap="round" stroke-linejoin="round"/>
<path d="M18.667 29.3335V18.6668C18.667 15.1306 20.0717 11.7392 22.5722 9.23874C25.0727 6.73825 28.4641 5.3335 32.0003 5.3335C35.5365 5.3335 38.9279 6.73825 41.4284 9.23874C43.9289 11.7392 45.3337 15.1306 45.3337 18.6668V29.3335" stroke="#E7E7E7" stroke-width="2" stroke-linecap="round" stroke-linejoin="round"/>
</svg>
