<svg width="196" height="72" viewBox="0 0 196 72" fill="none" xmlns="http://www.w3.org/2000/svg">
<g filter="url(#filter0_i_803_1789)">
<rect x="33.7097" y="41.5033" width="11.7216" height="12.9032" rx="5.86082" transform="rotate(-90 33.7097 41.5033)" fill="#3347FF"/>
</g>
<path d="M74.7563 38V16.8856H80.6122V38H74.7563ZM77.698 14.1639C76.8274 14.1639 76.0805 13.8752 75.4574 13.2978C74.8434 12.7113 74.5364 12.0103 74.5364 11.1946C74.5364 10.3882 74.8434 9.6963 75.4574 9.11895C76.0805 8.53244 76.8274 8.23918 77.698 8.23918C78.5686 8.23918 79.3109 8.53244 79.9249 9.11895C80.5481 9.6963 80.8597 10.3882 80.8597 11.1946C80.8597 12.0103 80.5481 12.7113 79.9249 13.2978C79.3109 13.8752 78.5686 14.1639 77.698 14.1639ZM88.2559 25.7933V38H82.4V16.8856H87.981V20.6109H88.2284C88.6958 19.3829 89.4793 18.4115 90.579 17.6967C91.6787 16.9727 93.0121 16.6107 94.5792 16.6107C96.0455 16.6107 97.3239 16.9315 98.4144 17.5729C99.505 18.2144 100.353 19.1309 100.958 20.3222C101.562 21.5044 101.865 22.9157 101.865 24.5561V38H96.0088V25.6008C96.018 24.3087 95.6881 23.3006 95.0191 22.5766C94.3501 21.8435 93.4291 21.4769 92.2561 21.4769C91.468 21.4769 90.7715 21.6464 90.1666 21.9855C89.571 22.3246 89.1036 22.8195 88.7645 23.4701C88.4346 24.1116 88.2651 24.886 88.2559 25.7933ZM113.117 38.4124C110.954 38.4124 109.094 37.9542 107.536 37.0378C105.987 36.1122 104.796 34.8292 103.962 33.1888C103.137 31.5484 102.725 29.6606 102.725 27.5253C102.725 25.3625 103.142 23.4655 103.976 21.8343C104.819 20.1939 106.015 18.9155 107.563 17.9991C109.112 17.0735 110.954 16.6107 113.089 16.6107C114.931 16.6107 116.544 16.9452 117.928 17.6142C119.312 18.2832 120.407 19.2225 121.213 20.4322C122.02 21.6419 122.464 23.0623 122.547 24.6935H117.021C116.865 23.6397 116.453 22.792 115.784 22.1505C115.124 21.4998 114.258 21.1745 113.186 21.1745C112.278 21.1745 111.486 21.4219 110.807 21.9168C110.138 22.4025 109.616 23.1127 109.24 24.0475C108.865 24.9822 108.677 26.114 108.677 27.4428C108.677 28.79 108.86 29.9355 109.227 30.8794C109.602 31.8233 110.129 32.5427 110.807 33.0376C111.486 33.5324 112.278 33.7799 113.186 33.7799C113.855 33.7799 114.455 33.6424 114.986 33.3675C115.527 33.0926 115.971 32.6939 116.32 32.1716C116.677 31.64 116.911 31.0031 117.021 30.2608H122.547C122.455 31.8737 122.015 33.2942 121.227 34.5222C120.448 35.741 119.371 36.6941 117.997 37.3814C116.622 38.0687 114.995 38.4124 113.117 38.4124ZM129.249 9.84751V38H123.393V9.84751H129.249ZM144.577 29.0099V16.8856H150.433V38H144.81V34.1648H144.59C144.114 35.4019 143.321 36.3963 142.212 37.1477C141.113 37.8992 139.77 38.2749 138.185 38.2749C136.773 38.2749 135.532 37.9542 134.459 37.3127C133.387 36.6712 132.549 35.7593 131.944 34.5772C131.348 33.395 131.046 31.9791 131.037 30.3295V16.8856H136.892V29.2848C136.902 30.5312 137.236 31.5163 137.896 32.2403C138.556 32.9643 139.44 33.3262 140.549 33.3262C141.255 33.3262 141.914 33.1659 142.528 32.8451C143.142 32.5152 143.637 32.0295 144.013 31.388C144.398 30.7465 144.586 29.9538 144.577 29.0099ZM159.994 38.3437C158.39 38.3437 156.938 37.9313 155.636 37.1065C154.344 36.2725 153.318 35.0491 152.557 33.4362C151.806 31.8141 151.43 29.8255 151.43 27.4703C151.43 25.051 151.819 23.0394 152.598 21.4357C153.377 19.8228 154.413 18.6177 155.705 17.8204C157.006 17.0139 158.431 16.6107 159.98 16.6107C161.162 16.6107 162.147 16.8123 162.936 17.2155C163.733 17.6096 164.374 18.1045 164.86 18.7001C165.355 19.2867 165.731 19.864 165.987 20.4322H166.166V9.84751H172.008V38H166.235V34.6184H165.987C165.712 35.2049 165.323 35.7868 164.819 36.3642C164.324 36.9324 163.678 37.4043 162.881 37.7801C162.093 38.1558 161.13 38.3437 159.994 38.3437ZM161.85 33.6837C162.794 33.6837 163.591 33.4271 164.242 32.9139C164.901 32.3915 165.405 31.6629 165.754 30.7282C166.111 29.7934 166.29 28.6983 166.29 27.4428C166.29 26.1873 166.116 25.0968 165.767 24.1712C165.419 23.2456 164.915 22.5308 164.255 22.0268C163.595 21.5227 162.794 21.2707 161.85 21.2707C160.887 21.2707 160.076 21.5319 159.417 22.0543C158.757 22.5766 158.257 23.3006 157.918 24.2262C157.579 25.1518 157.41 26.224 157.41 27.4428C157.41 28.6708 157.579 29.7568 157.918 30.7007C158.266 31.6354 158.766 32.3686 159.417 32.9001C160.076 33.4225 160.887 33.6837 161.85 33.6837ZM183.542 38.4124C181.37 38.4124 179.501 37.9725 177.934 37.0927C176.376 36.2038 175.175 34.9483 174.332 33.3262C173.489 31.695 173.067 29.7659 173.067 27.539C173.067 25.3671 173.489 23.461 174.332 21.8206C175.175 20.1802 176.362 18.9018 177.892 17.9853C179.432 17.0689 181.237 16.6107 183.308 16.6107C184.701 16.6107 185.998 16.8352 187.199 17.2843C188.408 17.7242 189.462 18.3886 190.36 19.2775C191.267 20.1664 191.973 21.2845 192.477 22.6316C192.981 23.9696 193.233 25.5367 193.233 27.3328V28.9412H175.404V25.3121H187.721C187.721 24.469 187.538 23.7221 187.171 23.0715C186.805 22.4208 186.296 21.9122 185.645 21.5456C185.004 21.1699 184.257 20.982 183.405 20.982C182.516 20.982 181.728 21.1882 181.04 21.6006C180.362 22.0038 179.831 22.5491 179.446 23.2364C179.061 23.9146 178.864 24.6706 178.855 25.5046V28.9549C178.855 29.9996 179.047 30.9023 179.432 31.6629C179.826 32.4236 180.38 33.0101 181.095 33.4225C181.81 33.8349 182.658 34.0411 183.638 34.0411C184.289 34.0411 184.885 33.9494 185.425 33.7661C185.966 33.5828 186.429 33.3079 186.814 32.9413C187.199 32.5748 187.492 32.1257 187.693 31.5942L193.11 31.9516C192.835 33.2529 192.271 34.3893 191.419 35.3607C190.576 36.3229 189.485 37.0744 188.147 37.6151C186.818 38.1466 185.283 38.4124 183.542 38.4124Z" fill="white"/>
<path d="M84.2963 67.7162C82.1335 67.7162 80.2732 67.258 78.7153 66.3416C77.1665 65.416 75.9752 64.133 75.1412 62.4926C74.3164 60.8522 73.904 58.9644 73.904 56.8291C73.904 54.6664 74.321 52.7694 75.155 51.1381C75.9981 49.4977 77.194 48.2193 78.7427 47.3029C80.2915 46.3773 82.1335 45.9145 84.2688 45.9145C86.1108 45.9145 87.7237 46.249 89.1075 46.918C90.4913 47.587 91.5864 48.5263 92.3929 49.736C93.1993 50.9457 93.6438 52.3661 93.7263 53.9974H88.2002C88.0444 52.9435 87.632 52.0958 86.9631 51.4543C86.3032 50.8036 85.4372 50.4783 84.365 50.4783C83.4577 50.4783 82.665 50.7258 81.9869 51.2206C81.3179 51.7063 80.7955 52.4166 80.4198 53.3513C80.0441 54.2861 79.8562 55.4178 79.8562 56.7466C79.8562 58.0938 80.0395 59.2393 80.4061 60.1832C80.7818 61.1271 81.3087 61.8465 81.9869 62.3414C82.665 62.8363 83.4577 63.0837 84.365 63.0837C85.034 63.0837 85.6342 62.9462 86.1658 62.6713C86.7065 62.3964 87.1509 61.9977 87.4992 61.4754C87.8566 60.9439 88.0903 60.3069 88.2002 59.5646H93.7263C93.6346 61.1775 93.1947 62.598 92.4066 63.826C91.6276 65.0449 90.5508 65.9979 89.1762 66.6852C87.8016 67.3726 86.1749 67.7162 84.2963 67.7162ZM104.112 67.7162C101.977 67.7162 100.13 67.2626 98.5725 66.3553C97.0238 65.4389 95.8278 64.1651 94.9847 62.5339C94.1416 60.8935 93.7201 58.9919 93.7201 56.8291C93.7201 54.648 94.1416 52.7419 94.9847 51.1107C95.8278 49.4703 97.0238 48.1964 98.5725 47.2892C100.13 46.3727 101.977 45.9145 104.112 45.9145C106.248 45.9145 108.09 46.3727 109.638 47.2892C111.196 48.1964 112.397 49.4703 113.24 51.1107C114.083 52.7419 114.505 54.648 114.505 56.8291C114.505 58.9919 114.083 60.8935 113.24 62.5339C112.397 64.1651 111.196 65.4389 109.638 66.3553C108.09 67.2626 106.248 67.7162 104.112 67.7162ZM104.14 63.1799C105.111 63.1799 105.922 62.905 106.573 62.3552C107.224 61.7961 107.714 61.0355 108.044 60.0733C108.383 59.111 108.552 58.0159 108.552 56.7879C108.552 55.5599 108.383 54.4648 108.044 53.5025C107.714 52.5403 107.224 51.7796 106.573 51.2206C105.922 50.6616 105.111 50.3821 104.14 50.3821C103.159 50.3821 102.334 50.6616 101.665 51.2206C101.006 51.7796 100.506 52.5403 100.167 53.5025C99.8372 54.4648 99.6722 55.5599 99.6722 56.7879C99.6722 58.0159 99.8372 59.111 100.167 60.0733C100.506 61.0355 101.006 61.7961 101.665 62.3552C102.334 62.905 103.159 63.1799 104.14 63.1799ZM123.189 67.6475C121.586 67.6475 120.133 67.2351 118.832 66.4103C117.54 65.5764 116.513 64.353 115.753 62.74C115.001 61.118 114.625 59.1293 114.625 56.7741C114.625 54.3548 115.015 52.3432 115.794 50.7395C116.573 49.1266 117.608 47.9215 118.901 47.1242C120.202 46.3178 121.627 45.9145 123.176 45.9145C124.358 45.9145 125.343 46.1161 126.131 46.5194C126.928 46.9134 127.57 47.4083 128.056 48.004C128.551 48.5905 128.926 49.1678 129.183 49.736H129.362V39.1513H135.204V67.3038H129.43V63.9222H129.183C128.908 64.5087 128.518 65.0907 128.014 65.668C127.52 66.2362 126.873 66.7082 126.076 67.0839C125.288 67.4596 124.326 67.6475 123.189 67.6475ZM125.045 62.9875C125.989 62.9875 126.786 62.7309 127.437 62.2177C128.097 61.6953 128.601 60.9668 128.949 60.032C129.307 59.0973 129.485 58.0021 129.485 56.7466C129.485 55.4911 129.311 54.4006 128.963 53.475C128.615 52.5494 128.111 51.8346 127.451 51.3306C126.791 50.8266 125.989 50.5745 125.045 50.5745C124.083 50.5745 123.272 50.8357 122.612 51.3581C121.952 51.8804 121.453 52.6044 121.114 53.53C120.775 54.4556 120.605 55.5278 120.605 56.7466C120.605 57.9747 120.775 59.0606 121.114 60.0045C121.462 60.9393 121.961 61.6724 122.612 62.2039C123.272 62.7263 124.083 62.9875 125.045 62.9875ZM146.738 67.7162C144.566 67.7162 142.696 67.2763 141.129 66.3966C139.571 65.5076 138.371 64.2521 137.528 62.6301C136.684 60.9988 136.263 59.0698 136.263 56.8429C136.263 54.671 136.684 52.7648 137.528 51.1244C138.371 49.484 139.557 48.2056 141.088 47.2892C142.627 46.3727 144.433 45.9145 146.504 45.9145C147.897 45.9145 149.194 46.1391 150.394 46.5881C151.604 47.028 152.658 47.6924 153.556 48.5813C154.463 49.4703 155.169 50.5883 155.673 51.9354C156.177 53.2734 156.429 54.8405 156.429 56.6367V58.245H138.6V54.616H150.917C150.917 53.7729 150.733 53.026 150.367 52.3753C150 51.7247 149.491 51.216 148.841 50.8495C148.199 50.4737 147.452 50.2859 146.6 50.2859C145.711 50.2859 144.923 50.4921 144.236 50.9045C143.558 51.3077 143.026 51.853 142.641 52.5403C142.256 53.2184 142.059 53.9745 142.05 54.8084V58.2587C142.05 59.3035 142.243 60.2061 142.627 60.9668C143.022 61.7274 143.576 62.3139 144.291 62.7263C145.006 63.1387 145.853 63.3449 146.834 63.3449C147.485 63.3449 148.08 63.2532 148.621 63.07C149.162 62.8867 149.624 62.6118 150.009 62.2452C150.394 61.8786 150.687 61.4296 150.889 60.898L156.305 61.2554C156.03 62.5568 155.467 63.6931 154.614 64.6645C153.771 65.6268 152.681 66.3782 151.343 66.9189C150.014 67.4505 148.479 67.7162 146.738 67.7162Z" fill="white"/>
<rect width="13.2627" height="50.0874" rx="6.63135" transform="matrix(-0.678521 0.734581 -0.795295 -0.606222 49.5168 59.2264)" fill="url(#paint0_linear_803_1789)"/>
<g filter="url(#filter1_i_803_1789)">
<rect width="13.2627" height="50.0874" rx="6.63135" transform="matrix(-0.678521 -0.734581 0.795295 -0.606222 8.99902 45.5571)" fill="url(#paint1_linear_803_1789)"/>
</g>
<defs>
<filter id="filter0_i_803_1789" x="33.7097" y="29.7816" width="12.9033" height="15.7217" filterUnits="userSpaceOnUse" color-interpolation-filters="sRGB">
<feFlood flood-opacity="0" result="BackgroundImageFix"/>
<feBlend mode="normal" in="SourceGraphic" in2="BackgroundImageFix" result="shape"/>
<feColorMatrix in="SourceAlpha" type="matrix" values="0 0 0 0 0 0 0 0 0 0 0 0 0 0 0 0 0 0 127 0" result="hardAlpha"/>
<feOffset dy="4"/>
<feGaussianBlur stdDeviation="2"/>
<feComposite in2="hardAlpha" operator="arithmetic" k2="-1" k3="1"/>
<feColorMatrix type="matrix" values="0 0 0 0 0 0 0 0 0 0 0 0 0 0 0 0 0 0 0.25 0"/>
<feBlend mode="normal" in2="shape" result="effect1_innerShadow_803_1789"/>
</filter>
<filter id="filter1_i_803_1789" x="2.84082" y="8.02576" width="43.1519" height="38.9561" filterUnits="userSpaceOnUse" color-interpolation-filters="sRGB">
<feFlood flood-opacity="0" result="BackgroundImageFix"/>
<feBlend mode="normal" in="SourceGraphic" in2="BackgroundImageFix" result="shape"/>
<feColorMatrix in="SourceAlpha" type="matrix" values="0 0 0 0 0 0 0 0 0 0 0 0 0 0 0 0 0 0 127 0" result="hardAlpha"/>
<feOffset dy="4"/>
<feGaussianBlur stdDeviation="2"/>
<feComposite in2="hardAlpha" operator="arithmetic" k2="-1" k3="1"/>
<feColorMatrix type="matrix" values="0 0 0 0 0 0 0 0 0 0 0 0 0 0 0 0 0 0 0.25 0"/>
<feBlend mode="normal" in2="shape" result="effect1_innerShadow_803_1789"/>
</filter>
<linearGradient id="paint0_linear_803_1789" x1="6.63135" y1="1.06234e-08" x2="3.93898" y2="119.808" gradientUnits="userSpaceOnUse">
<stop stop-color="#5B6CFF"/>
<stop offset="1" stop-color="#000D7E"/>
</linearGradient>
<linearGradient id="paint1_linear_803_1789" x1="6.63135" y1="0" x2="6.63135" y2="50.0874" gradientUnits="userSpaceOnUse">
<stop offset="0.0208333" stop-color="#0014C5"/>
<stop offset="1" stop-color="#3347FF"/>
</linearGradient>
</defs>
</svg>
