<svg width="196" height="72" viewBox="0 0 196 72" fill="none" xmlns="http://www.w3.org/2000/svg">
<rect x="33.7097" y="41.5034" width="11.7216" height="12.9032" rx="5.86082" transform="rotate(-90 33.7097 41.5034)" fill="white"/>
<path d="M74.7563 38V16.8856H80.6122V38H74.7563ZM77.698 14.1639C76.8274 14.1639 76.0805 13.8752 75.4574 13.2978C74.8434 12.7113 74.5364 12.0103 74.5364 11.1946C74.5364 10.3882 74.8434 9.6963 75.4574 9.11895C76.0805 8.53244 76.8274 8.23918 77.698 8.23918C78.5686 8.23918 79.3109 8.53244 79.9249 9.11895C80.5481 9.6963 80.8597 10.3882 80.8597 11.1946C80.8597 12.0103 80.5481 12.7113 79.9249 13.2978C79.3109 13.8752 78.5686 14.1639 77.698 14.1639ZM88.2559 25.7933V38H82.4V16.8856H87.981V20.6109H88.2284C88.6958 19.3829 89.4793 18.4115 90.579 17.6967C91.6787 16.9727 93.0121 16.6107 94.5792 16.6107C96.0455 16.6107 97.3239 16.9315 98.4144 17.5729C99.505 18.2144 100.353 19.1309 100.958 20.3222C101.562 21.5044 101.865 22.9157 101.865 24.5561V38H96.0088V25.6008C96.018 24.3087 95.6881 23.3006 95.0191 22.5766C94.3501 21.8435 93.4291 21.4769 92.2561 21.4769C91.468 21.4769 90.7715 21.6464 90.1666 21.9855C89.571 22.3246 89.1036 22.8195 88.7645 23.4701C88.4346 24.1116 88.2651 24.886 88.2559 25.7933ZM113.117 38.4124C110.954 38.4124 109.094 37.9542 107.536 37.0378C105.987 36.1122 104.796 34.8292 103.962 33.1888C103.137 31.5484 102.725 29.6606 102.725 27.5253C102.725 25.3625 103.142 23.4655 103.976 21.8343C104.819 20.1939 106.015 18.9155 107.563 17.9991C109.112 17.0735 110.954 16.6107 113.089 16.6107C114.931 16.6107 116.544 16.9452 117.928 17.6142C119.312 18.2832 120.407 19.2225 121.213 20.4322C122.02 21.6419 122.464 23.0623 122.547 24.6935H117.021C116.865 23.6397 116.453 22.792 115.784 22.1505C115.124 21.4998 114.258 21.1745 113.186 21.1745C112.278 21.1745 111.486 21.4219 110.807 21.9168C110.138 22.4025 109.616 23.1127 109.24 24.0475C108.865 24.9822 108.677 26.114 108.677 27.4428C108.677 28.79 108.86 29.9355 109.227 30.8794C109.602 31.8233 110.129 32.5427 110.807 33.0376C111.486 33.5324 112.278 33.7799 113.186 33.7799C113.855 33.7799 114.455 33.6424 114.986 33.3675C115.527 33.0926 115.971 32.6939 116.32 32.1716C116.677 31.64 116.911 31.0031 117.021 30.2608H122.547C122.455 31.8737 122.015 33.2942 121.227 34.5222C120.448 35.741 119.371 36.6941 117.997 37.3814C116.622 38.0687 114.995 38.4124 113.117 38.4124ZM129.249 9.84751V38H123.393V9.84751H129.249ZM144.577 29.0099V16.8856H150.433V38H144.81V34.1648H144.59C144.114 35.4019 143.321 36.3963 142.212 37.1477C141.113 37.8992 139.77 38.2749 138.185 38.2749C136.773 38.2749 135.532 37.9542 134.459 37.3127C133.387 36.6712 132.549 35.7593 131.944 34.5772C131.348 33.395 131.046 31.9791 131.037 30.3295V16.8856H136.892V29.2848C136.902 30.5312 137.236 31.5163 137.896 32.2403C138.556 32.9643 139.44 33.3262 140.549 33.3262C141.255 33.3262 141.914 33.1659 142.528 32.8451C143.142 32.5152 143.637 32.0295 144.013 31.388C144.398 30.7465 144.586 29.9538 144.577 29.0099ZM159.994 38.3437C158.39 38.3437 156.938 37.9313 155.636 37.1065C154.344 36.2725 153.318 35.0491 152.557 33.4362C151.806 31.8141 151.43 29.8255 151.43 27.4703C151.43 25.051 151.819 23.0394 152.598 21.4357C153.377 19.8228 154.413 18.6177 155.705 17.8204C157.006 17.0139 158.431 16.6107 159.98 16.6107C161.162 16.6107 162.147 16.8123 162.936 17.2155C163.733 17.6096 164.374 18.1045 164.86 18.7001C165.355 19.2867 165.731 19.864 165.987 20.4322H166.166V9.84751H172.008V38H166.235V34.6184H165.987C165.712 35.2049 165.323 35.7868 164.819 36.3642C164.324 36.9324 163.678 37.4043 162.881 37.7801C162.093 38.1558 161.13 38.3437 159.994 38.3437ZM161.85 33.6837C162.794 33.6837 163.591 33.4271 164.242 32.9139C164.901 32.3915 165.405 31.6629 165.754 30.7282C166.111 29.7934 166.29 28.6983 166.29 27.4428C166.29 26.1873 166.116 25.0968 165.767 24.1712C165.419 23.2456 164.915 22.5308 164.255 22.0268C163.595 21.5227 162.794 21.2707 161.85 21.2707C160.887 21.2707 160.076 21.5319 159.417 22.0543C158.757 22.5766 158.257 23.3006 157.918 24.2262C157.579 25.1518 157.41 26.224 157.41 27.4428C157.41 28.6708 157.579 29.7568 157.918 30.7007C158.266 31.6354 158.766 32.3686 159.417 32.9001C160.076 33.4225 160.887 33.6837 161.85 33.6837ZM183.542 38.4124C181.37 38.4124 179.501 37.9725 177.934 37.0927C176.376 36.2038 175.175 34.9483 174.332 33.3262C173.489 31.695 173.067 29.7659 173.067 27.539C173.067 25.3671 173.489 23.461 174.332 21.8206C175.175 20.1802 176.362 18.9018 177.892 17.9853C179.432 17.0689 181.237 16.6107 183.308 16.6107C184.701 16.6107 185.998 16.8352 187.199 17.2843C188.408 17.7242 189.462 18.3886 190.36 19.2775C191.267 20.1664 191.973 21.2845 192.477 22.6316C192.981 23.9696 193.233 25.5367 193.233 27.3328V28.9412H175.404V25.3121H187.721C187.721 24.469 187.538 23.7221 187.171 23.0715C186.805 22.4208 186.296 21.9122 185.645 21.5456C185.004 21.1699 184.257 20.982 183.405 20.982C182.516 20.982 181.728 21.1882 181.04 21.6006C180.362 22.0038 179.831 22.5491 179.446 23.2364C179.061 23.9146 178.864 24.6706 178.855 25.5046V28.9549C178.855 29.9996 179.047 30.9023 179.432 31.6629C179.826 32.4236 180.38 33.0101 181.095 33.4225C181.81 33.8349 182.658 34.0411 183.638 34.0411C184.289 34.0411 184.885 33.9494 185.425 33.7661C185.966 33.5828 186.429 33.3079 186.814 32.9413C187.199 32.5748 187.492 32.1257 187.693 31.5942L193.11 31.9516C192.835 33.2529 192.271 34.3893 191.419 35.3607C190.576 36.3229 189.485 37.0744 188.147 37.6151C186.818 38.1466 185.283 38.4124 183.542 38.4124Z" fill="white"/>
<path d="M84.2963 67.7161C82.1335 67.7161 80.2732 67.2579 78.7153 66.3415C77.1665 65.4159 75.9752 64.1329 75.1412 62.4925C74.3164 60.8521 73.904 58.9643 73.904 56.829C73.904 54.6662 74.321 52.7693 75.155 51.138C75.9981 49.4976 77.194 48.2192 78.7427 47.3028C80.2915 46.3772 82.1335 45.9144 84.2688 45.9144C86.1108 45.9144 87.7237 46.2489 89.1075 46.9179C90.4913 47.5869 91.5864 48.5262 92.3929 49.7359C93.1993 50.9456 93.6438 52.366 93.7263 53.9973H88.2002C88.0444 52.9434 87.632 52.0957 86.9631 51.4542C86.3032 50.8035 85.4372 50.4782 84.365 50.4782C83.4577 50.4782 82.665 50.7256 81.9869 51.2205C81.3179 51.7062 80.7955 52.4164 80.4198 53.3512C80.0441 54.2859 79.8562 55.4177 79.8562 56.7465C79.8562 58.0937 80.0395 59.2392 80.4061 60.1831C80.7818 61.127 81.3087 61.8464 81.9869 62.3413C82.665 62.8362 83.4577 63.0836 84.365 63.0836C85.034 63.0836 85.6342 62.9461 86.1658 62.6712C86.7065 62.3963 87.1509 61.9976 87.4992 61.4753C87.8566 60.9437 88.0903 60.3068 88.2002 59.5645H93.7263C93.6346 61.1774 93.1947 62.5979 92.4066 63.8259C91.6276 65.0447 90.5508 65.9978 89.1762 66.6851C87.8016 67.3724 86.1749 67.7161 84.2963 67.7161ZM104.112 67.7161C101.977 67.7161 100.13 67.2625 98.5725 66.3552C97.0238 65.4388 95.8278 64.165 94.9847 62.5337C94.1416 60.8933 93.7201 58.9918 93.7201 56.829C93.7201 54.6479 94.1416 52.7418 94.9847 51.1105C95.8278 49.4701 97.0238 48.1963 98.5725 47.289C100.13 46.3726 101.977 45.9144 104.112 45.9144C106.248 45.9144 108.09 46.3726 109.638 47.289C111.196 48.1963 112.397 49.4701 113.24 51.1105C114.083 52.7418 114.505 54.6479 114.505 56.829C114.505 58.9918 114.083 60.8933 113.24 62.5337C112.397 64.165 111.196 65.4388 109.638 66.3552C108.09 67.2625 106.248 67.7161 104.112 67.7161ZM104.14 63.1798C105.111 63.1798 105.922 62.9049 106.573 62.355C107.224 61.796 107.714 61.0354 108.044 60.0731C108.383 59.1109 108.552 58.0158 108.552 56.7878C108.552 55.5598 108.383 54.4646 108.044 53.5024C107.714 52.5401 107.224 51.7795 106.573 51.2205C105.922 50.6615 105.111 50.382 104.14 50.382C103.159 50.382 102.334 50.6615 101.665 51.2205C101.006 51.7795 100.506 52.5401 100.167 53.5024C99.8372 54.4646 99.6722 55.5598 99.6722 56.7878C99.6722 58.0158 99.8372 59.1109 100.167 60.0731C100.506 61.0354 101.006 61.796 101.665 62.355C102.334 62.9049 103.159 63.1798 104.14 63.1798ZM123.189 67.6474C121.586 67.6474 120.133 67.235 118.832 66.4102C117.54 65.5763 116.513 64.3528 115.753 62.7399C115.001 61.1179 114.625 59.1292 114.625 56.774C114.625 54.3547 115.015 52.3431 115.794 50.7394C116.573 49.1265 117.608 47.9214 118.901 47.1241C120.202 46.3176 121.627 45.9144 123.176 45.9144C124.358 45.9144 125.343 46.116 126.131 46.5193C126.928 46.9133 127.57 47.4082 128.056 48.0039C128.551 48.5904 128.926 49.1677 129.183 49.7359H129.362V39.1512H135.204V67.3037H129.43V63.9221H129.183C128.908 64.5086 128.518 65.0906 128.014 65.6679C127.52 66.2361 126.873 66.708 126.076 67.0838C125.288 67.4595 124.326 67.6474 123.189 67.6474ZM125.045 62.9874C125.989 62.9874 126.786 62.7308 127.437 62.2176C128.097 61.6952 128.601 60.9667 128.949 60.0319C129.307 59.0971 129.485 58.002 129.485 56.7465C129.485 55.491 129.311 54.4005 128.963 53.4749C128.615 52.5493 128.111 51.8345 127.451 51.3305C126.791 50.8264 125.989 50.5744 125.045 50.5744C124.083 50.5744 123.272 50.8356 122.612 51.358C121.952 51.8803 121.453 52.6043 121.114 53.5299C120.775 54.4555 120.605 55.5277 120.605 56.7465C120.605 57.9745 120.775 59.0605 121.114 60.0044C121.462 60.9392 121.961 61.6723 122.612 62.2038C123.272 62.7262 124.083 62.9874 125.045 62.9874ZM146.738 67.7161C144.566 67.7161 142.696 67.2762 141.129 66.3965C139.571 65.5075 138.371 64.252 137.528 62.63C136.684 60.9987 136.263 59.0697 136.263 56.8427C136.263 54.6708 136.684 52.7647 137.528 51.1243C138.371 49.4839 139.557 48.2055 141.088 47.289C142.627 46.3726 144.433 45.9144 146.504 45.9144C147.897 45.9144 149.194 46.1389 150.394 46.588C151.604 47.0279 152.658 47.6923 153.556 48.5812C154.463 49.4701 155.169 50.5882 155.673 51.9353C156.177 53.2733 156.429 54.8404 156.429 56.6366V58.2449H138.6V54.6158H150.917C150.917 53.7727 150.733 53.0259 150.367 52.3752C150 51.7245 149.491 51.2159 148.841 50.8493C148.199 50.4736 147.452 50.2857 146.6 50.2857C145.711 50.2857 144.923 50.4919 144.236 50.9043C143.558 51.3076 143.026 51.8528 142.641 52.5401C142.256 53.2183 142.059 53.9743 142.05 54.8083V58.2586C142.05 59.3033 142.243 60.206 142.627 60.9667C143.022 61.7273 143.576 62.3138 144.291 62.7262C145.006 63.1386 145.853 63.3448 146.834 63.3448C147.485 63.3448 148.08 63.2531 148.621 63.0698C149.162 62.8866 149.624 62.6116 150.009 62.2451C150.394 61.8785 150.687 61.4294 150.889 60.8979L156.305 61.2553C156.03 62.5566 155.467 63.693 154.614 64.6644C153.771 65.6267 152.681 66.3781 151.343 66.9188C150.014 67.4503 148.479 67.7161 146.738 67.7161Z" fill="white"/>
<rect width="13.2627" height="50.0874" rx="6.63135" transform="matrix(-0.678521 0.734581 -0.795295 -0.606222 49.5168 59.2266)" fill="white"/>
<rect width="13.2627" height="50.0874" rx="6.63135" transform="matrix(-0.678521 -0.734581 0.795295 -0.606222 8.99902 45.5571)" fill="white"/>
</svg>
