<svg width="48" height="48" viewBox="0 0 48 48" fill="none" xmlns="http://www.w3.org/2000/svg">
<g filter="url(#filter0_d_1182_2809)">
<circle cx="24" cy="20" r="19.5" stroke="#F2F2F2"/>
<path d="M24.0254 24C23.6254 24 23.2881 23.8583 23.0134 23.575C22.7381 23.2917 22.6171 22.9583 22.6504 22.575C22.7004 21.875 22.8671 21.2667 23.1504 20.75C23.4338 20.2333 23.8838 19.7 24.5004 19.15C25.1838 18.55 25.7044 18.029 26.0624 17.587C26.4211 17.1457 26.6004 16.6417 26.6004 16.075C26.6004 15.3917 26.3714 14.825 25.9134 14.375C25.4548 13.925 24.8171 13.7 24.0004 13.7C23.4671 13.7 23.0131 13.8123 22.6384 14.037C22.2631 14.2623 21.9588 14.5417 21.7254 14.875C21.4921 15.2083 21.2048 15.4333 20.8634 15.55C20.5214 15.6667 20.1921 15.6583 19.8754 15.525C19.4921 15.3583 19.2298 15.0833 19.0884 14.7C18.9464 14.3167 18.9754 13.9583 19.1754 13.625C19.6588 12.875 20.3088 12.25 21.1254 11.75C21.9421 11.25 22.9004 11 24.0004 11C25.7504 11 27.0964 11.4877 28.0384 12.463C28.9798 13.4377 29.4504 14.6083 29.4504 15.975C29.4504 16.8083 29.2714 17.521 28.9134 18.113C28.5548 18.7043 27.9921 19.375 27.2254 20.125C26.6588 20.6583 26.2588 21.0917 26.0254 21.425C25.7921 21.7583 25.6338 22.1417 25.5504 22.575C25.4838 22.9917 25.3088 23.3333 25.0254 23.6C24.7421 23.8667 24.4088 24 24.0254 24ZM24.0004 30C23.4504 30 22.9798 29.8043 22.5884 29.413C22.1964 29.021 22.0004 28.55 22.0004 28C22.0004 27.45 22.1964 26.979 22.5884 26.587C22.9798 26.1957 23.4504 26 24.0004 26C24.5504 26 25.0214 26.1957 25.4134 26.587C25.8048 26.979 26.0004 27.45 26.0004 28C26.0004 28.55 25.8048 29.021 25.4134 29.413C25.0214 29.8043 24.5504 30 24.0004 30Z" fill="#F2F2F2"/>
</g>
<defs>
<filter id="filter0_d_1182_2809" x="0" y="0" width="48" height="48" filterUnits="userSpaceOnUse" color-interpolation-filters="sRGB">
<feFlood flood-opacity="0" result="BackgroundImageFix"/>
<feColorMatrix in="SourceAlpha" type="matrix" values="0 0 0 0 0 0 0 0 0 0 0 0 0 0 0 0 0 0 127 0" result="hardAlpha"/>
<feOffset dy="4"/>
<feGaussianBlur stdDeviation="2"/>
<feComposite in2="hardAlpha" operator="out"/>
<feColorMatrix type="matrix" values="0 0 0 0 0 0 0 0 0 0 0 0 0 0 0 0 0 0 0.25 0"/>
<feBlend mode="normal" in2="BackgroundImageFix" result="effect1_dropShadow_1182_2809"/>
<feBlend mode="normal" in="SourceGraphic" in2="effect1_dropShadow_1182_2809" result="shape"/>
</filter>
</defs>
</svg>
