<svg width="399" height="399" viewBox="0 0 399 399" fill="none" xmlns="http://www.w3.org/2000/svg">
<path d="M191.712 349.935C254.083 349.935 304.645 342.134 304.645 332.511C304.645 322.888 254.083 315.086 191.712 315.086C129.341 315.086 78.7793 322.888 78.7793 332.511C78.7793 342.134 129.341 349.935 191.712 349.935Z" fill="#FFC1EB"/>
<path d="M124.328 297.423L123.739 298.694C123.366 299.498 123.716 300.451 124.52 300.824L154.988 314.941C155.792 315.313 156.745 314.964 157.118 314.16L157.706 312.889C158.079 312.085 157.729 311.132 156.925 310.759L126.457 296.642C125.653 296.27 124.7 296.62 124.328 297.423Z" fill="black"/>
<path d="M124.971 286.937L140.133 290.927L160.613 300.419L157.118 307.968C156.797 308.658 156.216 309.193 155.502 309.455C154.787 309.716 153.998 309.684 153.308 309.365L126.347 296.876L124.971 286.937Z" fill="#E7E7E7"/>
<path d="M154.509 310.422C153.978 310.422 153.454 310.307 152.973 310.083L125.617 297.415L124.021 285.844L140.476 290.189L161.675 300.048L157.841 308.323C157.542 308.954 157.07 309.486 156.48 309.857C155.89 310.229 155.206 310.425 154.509 310.422ZM127.082 296.333L153.643 308.643C153.891 308.759 154.16 308.825 154.433 308.838C154.707 308.85 154.98 308.807 155.237 308.713C155.495 308.619 155.73 308.474 155.931 308.288C156.132 308.102 156.295 307.878 156.408 307.629L159.572 300.802L139.862 291.669L125.925 288.002L127.082 296.333Z" fill="black"/>
<path d="M128.478 302.649L111.233 294.669C110.599 294.375 110.108 293.842 109.867 293.185C109.626 292.529 109.655 291.804 109.948 291.17C111.155 288.567 113.346 286.55 116.04 285.563C118.734 284.575 121.709 284.698 124.312 285.903C125.601 286.5 126.76 287.346 127.723 288.391C128.685 289.436 129.432 290.66 129.921 291.994C130.41 293.328 130.632 294.745 130.573 296.165C130.514 297.584 130.177 298.978 129.579 300.267L128.478 302.649Z" fill="black"/>
<path d="M264.207 134.42L255.361 134.958C251.319 135.204 247.346 133.834 244.314 131.15C241.282 128.466 239.44 124.688 239.194 120.646L238.695 112.423C238.587 110.644 238.83 108.861 239.412 107.176C239.993 105.491 240.901 103.937 242.083 102.603C243.265 101.269 244.698 100.181 246.301 99.4016C247.903 98.6219 249.644 98.1655 251.423 98.0587L258.318 97.6398C263.307 97.3408 268.21 99.0345 271.951 102.349C275.692 105.663 277.964 110.327 278.268 115.315L278.451 118.348C278.693 122.368 277.329 126.32 274.658 129.334C271.986 132.348 268.227 134.177 264.207 134.42Z" fill="black"/>
<path d="M113.169 333.565C112.978 333.567 112.794 333.502 112.647 333.381C112.501 333.259 112.403 333.09 112.371 332.902L90.9722 210.006L58.334 332.838C58.2748 333.036 58.1413 333.203 57.9615 333.305C57.7817 333.406 57.5697 333.434 57.3698 333.382C57.17 333.331 56.998 333.203 56.8898 333.028C56.7817 332.852 56.7458 332.641 56.7898 332.439L91.2914 202.569L113.955 332.643C113.991 332.85 113.944 333.062 113.824 333.235C113.705 333.407 113.522 333.526 113.316 333.565C113.267 333.569 113.218 333.569 113.169 333.565Z" fill="black"/>
<path d="M237.461 195.179H75.8783C73.9413 195.179 72.3711 196.749 72.3711 198.686V202.78C72.3711 204.717 73.9413 206.287 75.8783 206.287H237.461C239.398 206.287 240.969 204.717 240.969 202.78V198.686C240.969 196.749 239.398 195.179 237.461 195.179Z" fill="black"/>
<path d="M226.326 79.457H197.662C193.499 79.457 190.125 82.8315 190.125 86.9941C190.125 91.1568 193.499 94.5312 197.662 94.5312H226.326C230.489 94.5312 233.863 91.1568 233.863 86.9941C233.863 82.8315 230.489 79.457 226.326 79.457Z" fill="#E7E7E7"/>
<path d="M226.33 95.325H197.662C196.552 95.3492 195.449 95.1517 194.417 94.7438C193.384 94.3359 192.444 93.726 191.651 92.9498C190.857 92.1736 190.227 91.2467 189.797 90.2236C189.366 89.2005 189.145 88.1018 189.145 86.9918C189.145 85.8819 189.366 84.7832 189.797 83.7601C190.227 82.737 190.857 81.8101 191.651 81.0339C192.444 80.2577 193.384 79.6478 194.417 79.2399C195.449 78.832 196.552 78.6345 197.662 78.6587H226.33C227.44 78.6345 228.543 78.832 229.575 79.2399C230.608 79.6478 231.548 80.2577 232.341 81.0339C233.135 81.8101 233.765 82.737 234.196 83.7601C234.626 84.7832 234.848 85.8819 234.848 86.9918C234.848 88.1018 234.626 89.2005 234.196 90.2236C233.765 91.2467 233.135 92.1736 232.341 92.9498C231.548 93.726 230.608 94.3359 229.575 94.7438C228.543 95.1517 227.44 95.3492 226.33 95.325ZM197.662 80.2547C196.763 80.2329 195.87 80.391 195.033 80.7197C194.197 81.0484 193.434 81.5412 192.791 82.169C192.148 82.7967 191.637 83.5468 191.288 84.3751C190.939 85.2033 190.759 86.0931 190.759 86.9918C190.759 87.8906 190.939 88.7804 191.288 89.6086C191.637 90.4369 192.148 91.187 192.791 91.8147C193.434 92.4425 194.197 92.9353 195.033 93.264C195.87 93.5927 196.763 93.7508 197.662 93.729H226.33C227.229 93.7508 228.122 93.5927 228.959 93.264C229.796 92.9353 230.558 92.4425 231.201 91.8147C231.844 91.187 232.355 90.4369 232.704 89.6086C233.053 88.7804 233.233 87.8906 233.233 86.9918C233.233 86.0931 233.053 85.2033 232.704 84.3751C232.355 83.5468 231.844 82.7967 231.201 82.169C230.558 81.5412 229.796 81.0484 228.959 80.7197C228.122 80.391 227.229 80.2329 226.33 80.2547H197.662Z" fill="black"/>
<path d="M202.568 90.6248L200.526 89.5475C200.495 89.5318 200.462 89.5236 200.428 89.5236C200.394 89.5236 200.36 89.5318 200.33 89.5475L198.287 90.6248C198.252 90.6423 198.213 90.6497 198.174 90.6464C198.136 90.643 198.098 90.629 198.067 90.6059C198.036 90.5828 198.011 90.5515 197.997 90.5154C197.982 90.4793 197.978 90.4398 197.984 90.4014L198.383 88.1271C198.388 88.093 198.384 88.0583 198.373 88.0257C198.362 87.9931 198.344 87.9636 198.319 87.9396L196.667 86.3436C196.639 86.3165 196.619 86.2821 196.61 86.2443C196.6 86.2065 196.602 86.1668 196.614 86.1297C196.626 86.0927 196.648 86.0598 196.678 86.0348C196.708 86.0098 196.744 85.9937 196.783 85.9884L199.069 85.6533C199.102 85.6492 199.134 85.6369 199.161 85.6173C199.188 85.5978 199.21 85.5718 199.225 85.5416L200.25 83.4708C200.267 83.4352 200.294 83.4052 200.327 83.3842C200.36 83.3632 200.398 83.3521 200.438 83.3521C200.477 83.3521 200.515 83.3632 200.549 83.3842C200.582 83.4052 200.608 83.4352 200.625 83.4708L201.647 85.5416C201.662 85.5718 201.685 85.5978 201.713 85.6173C201.74 85.6368 201.773 85.6492 201.806 85.6533L204.089 85.9884C204.127 85.9937 204.164 86.0098 204.193 86.0348C204.223 86.0598 204.246 86.0927 204.258 86.1297C204.27 86.1668 204.271 86.2065 204.262 86.2443C204.252 86.2821 204.232 86.3165 204.204 86.3436L202.552 87.9396C202.528 87.9638 202.51 87.9935 202.5 88.0261C202.489 88.0587 202.487 88.0933 202.493 88.1271L202.892 90.4014C202.901 90.4426 202.898 90.4858 202.883 90.5252C202.867 90.5647 202.841 90.5986 202.806 90.6227C202.771 90.6467 202.73 90.6598 202.687 90.6602C202.645 90.6606 202.604 90.6483 202.568 90.6248Z" fill="#FFBB45"/>
<path d="M214.137 90.6253L212.094 89.5479C212.064 89.5322 212.03 89.524 211.996 89.524C211.962 89.524 211.929 89.5322 211.898 89.5479L209.855 90.6253C209.82 90.6438 209.781 90.6521 209.742 90.6493C209.702 90.6465 209.664 90.6327 209.632 90.6094C209.6 90.5861 209.575 90.5543 209.56 90.5176C209.546 90.4809 209.541 90.4408 209.548 90.4018L209.947 88.1275C209.954 88.0937 209.951 88.0589 209.941 88.0262C209.931 87.9935 209.912 87.9638 209.887 87.94L208.236 86.344C208.207 86.317 208.188 86.2826 208.178 86.2447C208.169 86.2069 208.17 86.1672 208.182 86.1302C208.194 86.0931 208.216 86.0602 208.246 86.0352C208.276 86.0102 208.313 85.9941 208.351 85.9889L210.638 85.6537C210.671 85.6496 210.702 85.6373 210.73 85.6177C210.757 85.5982 210.779 85.5722 210.793 85.542L211.815 83.4712C211.832 83.4359 211.859 83.4061 211.893 83.3853C211.926 83.3645 211.965 83.3535 212.004 83.3535C212.044 83.3535 212.082 83.3645 212.116 83.3853C212.149 83.4061 212.176 83.4359 212.194 83.4712L213.215 85.542C213.23 85.5722 213.251 85.5982 213.279 85.6177C213.306 85.6373 213.337 85.6496 213.371 85.6537L215.657 85.9889C215.696 85.9941 215.732 86.0102 215.762 86.0352C215.792 86.0602 215.814 86.0931 215.826 86.1302C215.838 86.1672 215.84 86.2069 215.83 86.2447C215.821 86.2826 215.801 86.317 215.773 86.344L214.121 87.94C214.096 87.9638 214.078 87.9935 214.067 88.0262C214.057 88.0589 214.055 88.0937 214.061 88.1275L214.46 90.4018C214.469 90.4431 214.466 90.4862 214.451 90.5256C214.436 90.5651 214.409 90.599 214.374 90.6231C214.339 90.6472 214.298 90.6602 214.256 90.6606C214.213 90.661 214.172 90.6487 214.137 90.6253Z" fill="#FFBB45"/>
<path d="M225.703 90.6248L223.66 89.5475C223.63 89.5318 223.597 89.5236 223.563 89.5236C223.528 89.5236 223.495 89.5318 223.465 89.5475L221.422 90.6248C221.387 90.6434 221.347 90.6517 221.308 90.6489C221.268 90.6461 221.231 90.6322 221.199 90.609C221.167 90.5857 221.142 90.5539 221.127 90.5172C221.112 90.4805 221.108 90.4404 221.115 90.4014L221.514 88.1271C221.519 88.0933 221.517 88.0587 221.506 88.0261C221.496 87.9935 221.478 87.9638 221.454 87.9396L219.802 86.3436C219.774 86.3165 219.754 86.2821 219.744 86.2443C219.735 86.2065 219.736 86.1668 219.748 86.1297C219.761 86.0927 219.783 86.0598 219.813 86.0348C219.843 86.0098 219.879 85.9937 219.918 85.9884L222.2 85.6533C222.234 85.6488 222.266 85.6364 222.293 85.6169C222.321 85.5975 222.344 85.5716 222.36 85.5416L223.381 83.4708C223.398 83.4352 223.424 83.4052 223.458 83.3842C223.491 83.3632 223.529 83.3521 223.569 83.3521C223.608 83.3521 223.646 83.3632 223.679 83.3842C223.713 83.4052 223.739 83.4352 223.756 83.4708L224.777 85.5416C224.793 85.5716 224.816 85.5975 224.844 85.6169C224.871 85.6364 224.903 85.6488 224.937 85.6533L227.223 85.9884C227.262 85.9937 227.298 86.0098 227.328 86.0348C227.358 86.0598 227.38 86.0927 227.392 86.1297C227.405 86.1668 227.406 86.2065 227.397 86.2443C227.387 86.2821 227.367 86.3165 227.339 86.3436L225.683 87.9396C225.659 87.9638 225.641 87.9935 225.631 88.0261C225.62 88.0587 225.618 88.0933 225.623 88.1271L226.022 90.4014C226.031 90.442 226.028 90.4844 226.012 90.5231C225.997 90.5618 225.971 90.5951 225.937 90.619C225.903 90.6428 225.862 90.6561 225.821 90.6571C225.779 90.6582 225.738 90.6469 225.703 90.6248Z" fill="#FFBB45"/>
<path d="M206.283 102.392H104.737C100.502 102.392 97.0684 105.825 97.0684 110.06V172.819C97.0684 177.054 100.502 180.488 104.737 180.488H206.283C210.518 180.488 213.951 177.054 213.951 172.819V110.06C213.951 105.825 210.518 102.392 206.283 102.392Z" fill="black"/>
<path d="M200.371 109.13H110.652C107.424 109.13 104.807 111.747 104.807 114.976V169.475C104.807 172.703 107.424 175.32 110.652 175.32H200.371C203.599 175.32 206.216 172.703 206.216 169.475V114.976C206.216 111.747 203.599 109.13 200.371 109.13Z" fill="#E7E7E7"/>
<path d="M162.589 120.19H137.125C134.864 120.19 133.031 122.023 133.031 124.284V162.241C133.031 164.502 134.864 166.335 137.125 166.335H162.589C164.85 166.335 166.683 164.502 166.683 162.241V124.284C166.683 122.023 164.85 120.19 162.589 120.19Z" fill="#6DC8C2"/>
<path d="M123.918 118.938H114.929C113.983 118.938 113.217 119.705 113.217 120.65V129.64C113.217 130.585 113.983 131.351 114.929 131.351H123.918C124.863 131.351 125.63 130.585 125.63 129.64V120.65C125.63 119.705 124.863 118.938 123.918 118.938Z" fill="#6DC8C2"/>
<path d="M123.587 137.188H115.26C114.131 137.188 113.217 138.103 113.217 139.231V147.558C113.217 148.687 114.131 149.601 115.26 149.601H123.587C124.715 149.601 125.63 148.687 125.63 147.558V139.231C125.63 138.103 124.715 137.188 123.587 137.188Z" fill="#FFC1EB"/>
<path d="M123.563 155.435H115.284C114.142 155.435 113.217 156.36 113.217 157.501V165.781C113.217 166.922 114.142 167.847 115.284 167.847H123.563C124.704 167.847 125.63 166.922 125.63 165.781V157.501C125.63 156.36 124.704 155.435 123.563 155.435Z" fill="#FFBB45"/>
<path d="M199.927 121.89H173.29C173.079 121.89 172.876 121.806 172.726 121.657C172.576 121.507 172.492 121.304 172.492 121.092C172.492 120.881 172.576 120.678 172.726 120.528C172.876 120.379 173.079 120.294 173.29 120.294H199.927C200.139 120.294 200.342 120.379 200.492 120.528C200.641 120.678 200.725 120.881 200.725 121.092C200.725 121.304 200.641 121.507 200.492 121.657C200.342 121.806 200.139 121.89 199.927 121.89Z" fill="black"/>
<path d="M199.927 129.276H173.29C173.079 129.276 172.876 129.192 172.726 129.042C172.576 128.893 172.492 128.69 172.492 128.478C172.492 128.267 172.576 128.064 172.726 127.914C172.876 127.764 173.079 127.68 173.29 127.68H199.927C200.139 127.68 200.342 127.764 200.492 127.914C200.641 128.064 200.725 128.267 200.725 128.478C200.725 128.69 200.641 128.893 200.492 129.042C200.342 129.192 200.139 129.276 199.927 129.276Z" fill="black"/>
<path d="M191.656 136.625H173.302C173.09 136.625 172.887 136.541 172.738 136.392C172.588 136.242 172.504 136.039 172.504 135.827C172.504 135.616 172.588 135.413 172.738 135.263C172.887 135.113 173.09 135.029 173.302 135.029H191.656C191.868 135.029 192.071 135.113 192.22 135.263C192.37 135.413 192.454 135.616 192.454 135.827C192.454 136.039 192.37 136.242 192.22 136.392C192.071 136.541 191.868 136.625 191.656 136.625Z" fill="black"/>
<path d="M187.159 142.18H176.059C174.104 142.18 172.52 143.764 172.52 145.719C172.52 147.673 174.104 149.258 176.059 149.258H187.159C189.113 149.258 190.698 147.673 190.698 145.719C190.698 143.764 189.113 142.18 187.159 142.18Z" fill="#FFC1EB"/>
<path d="M198.087 149.046C199.923 149.046 201.411 147.558 201.411 145.723C201.411 143.887 199.923 142.399 198.087 142.399C196.252 142.399 194.764 143.887 194.764 145.723C194.764 147.558 196.252 149.046 198.087 149.046Z" fill="#FB6D6D"/>
<path d="M156.564 195.179H128.762L140.145 180.488H169.089L156.564 195.179Z" fill="black"/>
<path d="M276.787 246.646C276.721 246.646 276.655 246.638 276.591 246.622C276.49 246.596 276.394 246.551 276.31 246.488C276.226 246.426 276.155 246.347 276.101 246.257C276.047 246.167 276.012 246.067 275.997 245.964C275.982 245.86 275.987 245.754 276.013 245.652L286.514 204.156C286.567 203.951 286.7 203.775 286.882 203.668C287.065 203.56 287.283 203.529 287.488 203.582C287.693 203.635 287.869 203.767 287.977 203.95C288.085 204.132 288.115 204.35 288.062 204.555L277.561 246.051C277.516 246.222 277.415 246.373 277.275 246.481C277.135 246.588 276.963 246.647 276.787 246.646Z" fill="black"/>
<path d="M219.112 331.821C219.076 331.825 219.04 331.825 219.004 331.821C218.9 331.807 218.8 331.773 218.709 331.72C218.618 331.668 218.538 331.598 218.475 331.514C218.411 331.431 218.364 331.336 218.337 331.234C218.31 331.133 218.304 331.027 218.318 330.923L229.063 251.598C229.077 251.493 229.111 251.392 229.164 251.3C229.217 251.209 229.287 251.129 229.371 251.064C229.455 251 229.551 250.953 229.653 250.926C229.755 250.898 229.862 250.892 229.967 250.905C230.071 250.919 230.172 250.954 230.264 251.007C230.355 251.06 230.436 251.13 230.5 251.214C230.564 251.298 230.611 251.394 230.639 251.496C230.666 251.598 230.673 251.704 230.659 251.809L219.902 331.13C219.876 331.321 219.781 331.497 219.636 331.624C219.491 331.75 219.305 331.82 219.112 331.821Z" fill="black"/>
<path d="M288.507 161.392L280.413 197.045C279.731 200.052 281.615 203.042 284.621 203.725L290.715 205.108C293.721 205.79 296.711 203.906 297.394 200.9L305.487 165.247C306.17 162.24 304.286 159.25 301.28 158.568L295.186 157.184C292.18 156.502 289.19 158.386 288.507 161.392Z" fill="#C7B8F8"/>
<path d="M277.35 331.821C277.156 331.823 276.968 331.754 276.822 331.628C276.675 331.501 276.579 331.326 276.552 331.134L265.336 251.805C265.306 251.594 265.362 251.379 265.491 251.208C265.619 251.038 265.811 250.925 266.022 250.895C266.234 250.866 266.449 250.922 266.619 251.05C266.79 251.179 266.902 251.37 266.932 251.582L278.144 330.911C278.173 331.12 278.119 331.333 277.991 331.502C277.864 331.671 277.675 331.783 277.466 331.813C277.427 331.82 277.389 331.822 277.35 331.821Z" fill="black"/>
<path d="M273.635 305.526H222.671C222.459 305.526 222.256 305.442 222.107 305.292C221.957 305.143 221.873 304.94 221.873 304.728C221.873 304.517 221.957 304.314 222.107 304.164C222.256 304.014 222.459 303.93 222.671 303.93H273.635C273.847 303.93 274.05 304.014 274.2 304.164C274.349 304.314 274.433 304.517 274.433 304.728C274.433 304.94 274.349 305.143 274.2 305.292C274.05 305.442 273.847 305.526 273.635 305.526Z" fill="black"/>
<path d="M272.928 232.972H224.625C221.58 232.972 219.111 235.441 219.111 238.486V246.179C219.111 249.224 221.58 251.693 224.625 251.693H272.928C275.974 251.693 278.443 249.224 278.443 246.179V238.486C278.443 235.441 275.974 232.972 272.928 232.972Z" fill="#C7B8F8"/>
<path d="M279.91 111.8C286.444 111.8 291.741 106.503 291.741 99.9695C291.741 93.4358 286.444 88.1392 279.91 88.1392C273.377 88.1392 268.08 93.4358 268.08 99.9695C268.08 106.503 273.377 111.8 279.91 111.8Z" fill="black"/>
<path d="M301.632 105.168C310.403 105.168 317.512 98.0583 317.512 89.2879C317.512 80.5175 310.403 73.4077 301.632 73.4077C292.862 73.4077 285.752 80.5175 285.752 89.2879C285.752 98.0583 292.862 105.168 301.632 105.168Z" fill="black"/>
<path d="M272.181 122.361C272.181 120.986 271.635 119.666 270.662 118.693C269.689 117.721 268.37 117.174 266.994 117.174C266.751 117.177 266.509 117.195 266.268 117.23L265.275 103.616L245.911 105.695C243.923 105.907 242.083 106.847 240.746 108.334C239.409 109.822 238.669 111.751 238.669 113.751V115.941C238.687 118.48 237.981 120.971 236.635 123.123L236.599 123.175V123.195C236.452 123.417 236.354 123.667 236.311 123.93C236.269 124.192 236.283 124.461 236.352 124.718C236.422 124.975 236.545 125.214 236.714 125.419C236.883 125.624 237.094 125.791 237.333 125.908L238.681 126.571V131.702C238.681 132.722 238.902 133.73 239.329 134.656C239.755 135.583 240.377 136.406 241.152 137.069C241.927 137.732 242.837 138.22 243.818 138.498C244.799 138.776 245.829 138.838 246.837 138.68L251.809 137.906L252.806 146.433L268.634 144.566L267.561 135.464H267.609L267.03 127.544C268.399 127.535 269.709 126.985 270.674 126.014C271.638 125.043 272.18 123.73 272.181 122.361Z" fill="#E7E7E7"/>
<path d="M252.108 147.319L251.107 138.852L246.957 139.499C245.836 139.674 244.69 139.604 243.598 139.294C242.506 138.984 241.494 138.441 240.632 137.703C239.77 136.965 239.078 136.049 238.603 135.018C238.129 133.987 237.884 132.865 237.884 131.73V127.09L236.978 126.647C236.641 126.483 236.342 126.249 236.102 125.96C235.862 125.672 235.686 125.336 235.586 124.975C235.485 124.606 235.464 124.22 235.522 123.842C235.581 123.464 235.718 123.102 235.925 122.78L235.969 122.713C237.239 120.687 237.904 118.34 237.884 115.95V113.759C237.88 111.562 238.69 109.442 240.158 107.807C241.626 106.173 243.647 105.14 245.832 104.909L266.017 102.743L267.015 116.384C268.505 116.415 269.931 117 271.013 118.026C272.094 119.052 272.754 120.445 272.863 121.931C272.972 123.418 272.522 124.892 271.601 126.065C270.68 127.237 269.355 128.024 267.885 128.271L268.455 136.135L269.533 145.264L252.108 147.319ZM252.507 137.009L253.513 145.547L267.757 143.868L266.688 134.798H266.767L266.181 126.758H267.035C268.199 126.755 269.314 126.29 270.135 125.465C270.956 124.639 271.415 123.522 271.412 122.358C271.409 121.193 270.943 120.078 270.118 119.258C269.293 118.437 268.175 117.977 267.011 117.98C266.805 117.983 266.6 117.999 266.396 118.028L265.551 118.148L264.537 104.506L245.992 106.501C244.199 106.691 242.54 107.538 241.335 108.879C240.13 110.22 239.465 111.96 239.468 113.763V115.954C239.488 118.649 238.736 121.293 237.301 123.574L237.261 123.638C237.174 123.772 237.116 123.922 237.09 124.079C237.065 124.237 237.073 124.398 237.114 124.552C237.153 124.696 237.223 124.831 237.318 124.946C237.414 125.061 237.534 125.154 237.668 125.218L239.468 126.096V131.726C239.468 132.63 239.664 133.524 240.042 134.345C240.42 135.167 240.972 135.897 241.659 136.485C242.345 137.073 243.151 137.506 244.021 137.754C244.891 138.001 245.804 138.057 246.698 137.919L252.507 137.009Z" fill="black"/>
<path d="M243.789 132.536C243.586 132.536 243.383 132.519 243.183 132.484C242.412 132.351 241.697 131.996 241.124 131.463C240.965 131.32 240.87 131.12 240.859 130.906C240.847 130.693 240.921 130.484 241.064 130.325C241.207 130.167 241.407 130.071 241.62 130.06C241.834 130.049 242.043 130.123 242.201 130.266C242.548 130.587 242.978 130.804 243.442 130.892C244.918 131.135 246.08 129.695 246.092 129.695C246.225 129.538 246.414 129.438 246.619 129.417C246.824 129.396 247.029 129.455 247.191 129.582C247.354 129.709 247.461 129.894 247.49 130.098C247.519 130.302 247.469 130.509 247.348 130.677C247.265 130.768 245.856 132.536 243.789 132.536Z" fill="black"/>
<path d="M247.058 121.719C247.752 121.719 248.315 121.157 248.315 120.462C248.315 119.768 247.752 119.206 247.058 119.206C246.364 119.206 245.801 119.768 245.801 120.462C245.801 121.157 246.364 121.719 247.058 121.719Z" fill="black"/>
<path d="M266.469 125.054C266.044 125.054 265.629 124.929 265.276 124.693C264.923 124.457 264.648 124.122 264.486 123.729C264.323 123.337 264.281 122.905 264.364 122.489C264.446 122.073 264.651 121.69 264.951 121.39C265.251 121.09 265.634 120.885 266.05 120.802C266.467 120.72 266.898 120.762 267.29 120.925C267.683 121.087 268.018 121.362 268.254 121.715C268.49 122.068 268.616 122.483 268.616 122.908C268.616 123.477 268.389 124.023 267.987 124.426C267.584 124.828 267.038 125.054 266.469 125.054ZM266.469 122.357C266.36 122.357 266.254 122.39 266.163 122.45C266.072 122.511 266.002 122.597 265.96 122.697C265.919 122.798 265.908 122.908 265.929 123.015C265.95 123.122 266.003 123.22 266.08 123.297C266.157 123.374 266.255 123.427 266.361 123.448C266.468 123.469 266.579 123.458 266.68 123.417C266.78 123.375 266.866 123.304 266.927 123.214C266.987 123.123 267.02 123.017 267.02 122.908C267.02 122.762 266.961 122.622 266.858 122.519C266.755 122.415 266.615 122.357 266.469 122.357Z" fill="black"/>
<path d="M253.621 144.279L277.904 143.178C281.536 142.975 285.101 144.215 287.823 146.629C291.322 149.821 294.059 155.682 290.249 166.336L284.886 176.331L254.562 172.66L249.323 182.85L230.291 185.025C229.82 185.077 228.364 182.571 228.16 182.256C226.646 179.947 225.659 177.333 225.272 174.599C224.274 166.811 230.06 160.554 234.54 154.86C239.297 148.788 245.617 144.642 253.621 144.279Z" fill="#FFC1EB"/>
<path d="M265.168 124.057C264.981 124.06 264.799 123.998 264.653 123.881C264.507 123.763 264.407 123.598 264.37 123.414C264.262 122.877 264.296 122.322 264.47 121.802C264.644 121.283 264.951 120.818 265.36 120.454C265.756 120.123 266.226 119.89 266.729 119.776C267.233 119.662 267.756 119.668 268.257 119.795C268.358 119.824 268.452 119.871 268.535 119.936C268.618 120 268.687 120.081 268.739 120.172C268.79 120.263 268.824 120.364 268.836 120.468C268.849 120.572 268.841 120.678 268.813 120.779C268.785 120.88 268.738 120.975 268.673 121.057C268.608 121.14 268.528 121.209 268.437 121.261C268.346 121.313 268.245 121.346 268.141 121.359C268.037 121.371 267.931 121.364 267.83 121.336C267.585 121.276 267.33 121.274 267.085 121.328C266.839 121.383 266.61 121.493 266.413 121.651C266.214 121.83 266.065 122.057 265.981 122.311C265.897 122.565 265.881 122.837 265.935 123.099C265.956 123.202 265.956 123.308 265.936 123.411C265.916 123.514 265.876 123.612 265.818 123.699C265.761 123.786 265.686 123.862 265.599 123.92C265.512 123.979 265.415 124.02 265.312 124.041C265.265 124.049 265.217 124.055 265.168 124.057Z" fill="black"/>
<path d="M245.92 105.703C245.92 105.703 245.661 121.779 266.433 117.214L265.284 103.624L245.92 105.703Z" fill="black"/>
<path d="M247.348 127.444C244.053 127.444 241.363 124.336 241.363 120.51C241.363 116.683 244.049 113.575 247.348 113.575C250.648 113.575 253.333 116.687 253.333 120.51C253.333 124.332 250.648 127.444 247.348 127.444ZM247.348 115.171C244.93 115.171 242.959 117.565 242.959 120.51C242.959 123.454 244.926 125.848 247.348 125.848C249.77 125.848 251.737 123.454 251.737 120.51C251.737 117.565 249.774 115.171 247.348 115.171Z" fill="black"/>
<path d="M274.689 211.426H244.189V191.181H272.371C274.362 197.734 275.153 204.592 274.705 211.426H274.689Z" fill="black"/>
<path d="M197.798 195.179H182.085C181.21 195.18 180.346 194.978 179.562 194.588C178.779 194.198 178.097 193.631 177.57 192.932C177.043 192.233 176.686 191.421 176.527 190.561C176.368 189.7 176.412 188.814 176.655 187.973C176.984 186.843 177.671 185.85 178.613 185.144C179.555 184.438 180.701 184.057 181.878 184.059H198.001C199.136 184.058 200.243 184.413 201.166 185.073C202.089 185.734 202.782 186.667 203.148 187.741C203.435 188.59 203.515 189.495 203.382 190.381C203.25 191.266 202.907 192.108 202.384 192.835C201.861 193.562 201.172 194.154 200.375 194.562C199.577 194.969 198.694 195.181 197.798 195.179Z" fill="#F3EAD6"/>
<path d="M254.093 172.66L248.93 182.85L219.192 185.811C218.08 185.922 216.96 185.707 215.968 185.192L203.093 178.505C203.093 178.505 198.596 175.987 192.096 178.701L181.148 183.668C180.688 183.867 180.302 184.205 180.044 184.634C179.787 185.063 179.67 185.563 179.711 186.062V186.086C179.738 186.29 179.809 186.486 179.919 186.661C180.028 186.836 180.174 186.985 180.346 187.098C180.518 187.212 180.713 187.287 180.916 187.319C181.12 187.351 181.328 187.338 181.527 187.283L193.118 184.031L187.687 188.943C186.888 189.659 186.33 190.606 186.091 191.652C185.724 193.356 186.167 195.666 190.58 196.719C190.58 196.719 192.611 200.131 196.066 198.315C196.086 198.315 196.577 198.75 196.617 198.778C197.156 199.194 197.733 199.559 198.341 199.867C200.242 200.813 202.323 201.342 204.445 201.42C205.762 201.483 206.999 200.909 207.17 199.48L208.28 199.596C211.738 199.95 215.181 200.458 218.61 201.12L244.836 206.192C252.018 207.209 257.157 205.673 259.779 204.636C267.439 201.607 272.403 196.221 276.385 189.378L283.966 176.326L254.093 172.66Z" fill="#E7E7E7"/>
<path d="M249.522 207.332C247.92 207.329 246.32 207.213 244.734 206.985H244.694L218.452 201.894C215.068 201.239 211.617 200.733 208.194 200.377L207.763 200.334C207.276 201.558 206.007 202.289 204.399 202.209C202.163 202.123 199.971 201.564 197.967 200.569C197.318 200.236 196.7 199.846 196.12 199.404L195.964 199.268L195.936 199.244C193.143 200.413 190.997 198.722 190.075 197.405C185.099 196.1 184.944 193.14 185.287 191.472C185.562 190.258 186.212 189.162 187.146 188.34L190.067 185.698L181.712 188.032C181.405 188.119 181.083 188.138 180.768 188.09C180.453 188.042 180.152 187.926 179.884 187.752C179.617 187.578 179.391 187.349 179.219 187.08C179.048 186.811 178.936 186.509 178.891 186.193C178.819 185.521 178.963 184.844 179.301 184.259C179.638 183.674 180.153 183.211 180.77 182.937L191.763 177.962C198.566 175.121 203.282 177.686 203.481 177.798L216.317 184.469C217.176 184.917 218.147 185.103 219.11 185.004L248.409 182.087L253.628 171.789L285.284 175.683L277.077 189.784C272.496 197.648 267.102 202.604 260.076 205.381C256.713 206.693 253.132 207.355 249.522 207.332ZM244.961 205.405C250.188 206.143 255.076 205.636 259.481 203.897C266.24 201.223 271.24 196.623 275.688 188.982L282.679 176.972L254.561 173.521L249.454 183.599L219.282 186.604C218.016 186.73 216.74 186.485 215.611 185.898L202.751 179.214C202.56 179.111 198.458 176.916 192.429 179.438L181.473 184.393C181.168 184.521 180.91 184.74 180.735 185.02C180.56 185.3 180.476 185.628 180.495 185.958C180.507 186.05 180.538 186.139 180.587 186.219C180.636 186.298 180.701 186.367 180.779 186.419C180.856 186.471 180.944 186.506 181.036 186.521C181.128 186.537 181.223 186.532 181.313 186.508L196.172 182.343L188.236 189.525C187.55 190.123 187.07 190.921 186.863 191.807C186.428 193.822 187.737 195.21 190.757 195.929L191.084 196.008L191.256 196.3C191.428 196.579 193.004 199.009 195.689 197.596C196.192 197.333 196.523 197.628 197.026 198.075L197.117 198.159C197.619 198.537 198.153 198.869 198.713 199.152C200.515 200.042 202.484 200.539 204.491 200.613C205.014 200.637 206.242 200.573 206.382 199.376L206.474 198.578L208.369 198.773C211.836 199.129 215.336 199.643 218.767 200.31L244.961 205.405Z" fill="black"/>
<path d="M208.75 326.645H175.17C174.285 326.645 173.566 327.363 173.566 328.249V329.65C173.566 330.535 174.285 331.253 175.17 331.253H208.75C209.636 331.253 210.354 330.535 210.354 329.65V328.249C210.354 327.363 209.636 326.645 208.75 326.645Z" fill="black"/>
<path d="M169.74 318.47L185.174 315.717H207.749V324.04C207.749 324.801 207.447 325.53 206.909 326.068C206.371 326.606 205.641 326.909 204.88 326.909H175.163L169.74 318.47Z" fill="#E7E7E7"/>
<path d="M204.879 327.707H174.734L168.418 317.895L185.176 314.919H208.549V324.04C208.548 325.013 208.161 325.946 207.473 326.633C206.785 327.321 205.851 327.707 204.879 327.707ZM175.604 326.111H204.879C205.427 326.11 205.954 325.891 206.342 325.503C206.73 325.115 206.948 324.589 206.949 324.04V316.515H185.244L171.055 319.045L175.604 326.111Z" fill="black"/>
<path d="M150.595 299.976L141.319 293.193C139.888 292.151 138.677 290.836 137.755 289.325C136.833 287.814 136.217 286.137 135.943 284.388C135.67 282.639 135.743 280.853 136.159 279.133C136.576 277.412 137.327 275.791 138.37 274.361L178.789 218.932C180.318 216.833 182.246 215.057 184.462 213.704C186.678 212.351 189.139 211.448 191.704 211.047C194.269 210.645 196.888 210.753 199.412 211.363C201.935 211.974 204.314 213.076 206.411 214.606C208.51 216.136 210.286 218.064 211.639 220.28C212.992 222.496 213.895 224.957 214.296 227.522C214.698 230.087 214.59 232.706 213.98 235.23C213.369 237.753 212.267 240.132 210.737 242.229L170.964 296.788C168.686 299.912 165.26 302.003 161.44 302.601C157.62 303.198 153.719 302.254 150.595 299.976Z" fill="black"/>
<path d="M247.037 239.799H176.414V225.922C176.415 220.583 178.537 215.463 182.312 211.688C186.088 207.913 191.209 205.792 196.548 205.792H274.688V212.149C274.688 219.482 271.775 226.515 266.589 231.701C261.404 236.886 254.37 239.799 247.037 239.799Z" fill="black"/>
<path d="M201.391 317.668H189.924C186.349 317.668 182.92 316.248 180.392 313.721C177.863 311.193 176.442 307.765 176.441 304.19V238.096H215.982V303.089C215.983 305.005 215.606 306.902 214.872 308.672C214.139 310.441 213.064 312.049 211.709 313.403C210.354 314.758 208.745 315.831 206.974 316.563C205.204 317.295 203.307 317.67 201.391 317.668Z" fill="black"/>
<path d="M155.335 300.256C155.189 300.255 155.046 300.215 154.921 300.139C154.797 300.063 154.695 299.954 154.628 299.824C154.561 299.695 154.531 299.549 154.541 299.404C154.551 299.258 154.6 299.118 154.684 298.999L175.775 269.074C175.898 268.901 176.083 268.783 176.292 268.747C176.501 268.711 176.716 268.76 176.889 268.882C177.062 269.004 177.179 269.19 177.215 269.399C177.251 269.608 177.202 269.822 177.08 269.995L155.989 299.92C155.915 300.025 155.817 300.11 155.703 300.168C155.589 300.226 155.462 300.256 155.335 300.256Z" fill="#E7E7E7"/>
<path d="M203.45 318.318C203.239 318.318 203.036 318.234 202.886 318.084C202.736 317.935 202.652 317.732 202.652 317.52V236.451C202.654 233.449 203.848 230.571 205.97 228.448C208.092 226.325 210.97 225.131 213.972 225.128H245.006C248.267 225.124 251.393 223.828 253.698 221.522C256.004 219.217 257.3 216.091 257.303 212.83V205.792C257.303 205.58 257.387 205.378 257.537 205.228C257.687 205.078 257.89 204.994 258.101 204.994C258.313 204.994 258.516 205.078 258.666 205.228C258.815 205.378 258.899 205.58 258.899 205.792V212.83C258.895 216.514 257.43 220.045 254.826 222.65C252.221 225.254 248.69 226.719 245.006 226.724H213.972C211.393 226.727 208.921 227.753 207.098 229.577C205.275 231.4 204.25 233.873 204.248 236.451V317.52C204.248 317.732 204.164 317.935 204.015 318.084C203.865 318.234 203.662 318.318 203.45 318.318Z" fill="#E7E7E7"/>
<path d="M190.572 197.505C190.4 197.504 190.233 197.448 190.095 197.344C189.958 197.241 189.858 197.096 189.81 196.931C187.958 190.59 194.753 186.672 194.825 186.632C194.916 186.58 195.017 186.546 195.121 186.533C195.226 186.519 195.331 186.526 195.433 186.554C195.534 186.581 195.63 186.628 195.713 186.692C195.796 186.756 195.866 186.836 195.918 186.928C195.971 187.019 196.005 187.119 196.018 187.224C196.032 187.328 196.025 187.434 195.997 187.535C195.97 187.637 195.923 187.732 195.859 187.815C195.794 187.899 195.714 187.968 195.623 188.021C194.583 188.663 193.649 189.462 192.854 190.391C191.258 192.314 190.735 194.361 191.358 196.484C191.417 196.687 191.393 196.905 191.291 197.091C191.19 197.276 191.018 197.414 190.815 197.473C190.736 197.495 190.654 197.506 190.572 197.505Z" fill="black"/>
<path d="M196.061 199.101C195.931 199.1 195.803 199.068 195.688 199.007C195.573 198.946 195.475 198.858 195.402 198.75C194.971 198.164 194.672 197.492 194.526 196.78C194.38 196.068 194.39 195.332 194.556 194.624C195.354 191.265 199.412 188.978 199.588 188.883C199.68 188.824 199.782 188.785 199.89 188.768C199.997 188.751 200.107 188.756 200.212 188.782C200.318 188.809 200.417 188.857 200.503 188.923C200.589 188.99 200.661 189.073 200.714 189.168C200.767 189.263 200.799 189.368 200.81 189.476C200.821 189.585 200.81 189.694 200.777 189.798C200.744 189.901 200.69 189.997 200.619 190.079C200.547 190.161 200.46 190.228 200.362 190.275C200.298 190.315 196.739 192.334 196.109 194.995C195.996 195.487 195.992 195.998 196.097 196.491C196.203 196.985 196.415 197.449 196.719 197.852C196.801 197.972 196.849 198.112 196.857 198.257C196.866 198.402 196.834 198.547 196.767 198.675C196.699 198.804 196.597 198.911 196.473 198.986C196.349 199.061 196.206 199.101 196.061 199.101Z" fill="black"/>
<path d="M207.167 200.298C206.971 200.3 206.781 200.229 206.634 200.099C206.486 199.97 206.392 199.791 206.369 199.596C206.213 198.319 203.615 196.803 202.379 196.28L201.277 195.809L205.1 192.111C205.254 191.975 205.454 191.904 205.659 191.912C205.864 191.92 206.058 192.007 206.201 192.154C206.344 192.301 206.424 192.498 206.426 192.703C206.427 192.908 206.35 193.106 206.209 193.256L204.066 195.331C205.467 196.081 207.725 197.565 207.949 199.404C207.973 199.614 207.914 199.825 207.784 199.991C207.654 200.157 207.464 200.264 207.254 200.29L207.167 200.298Z" fill="black"/>
<path d="M179.515 331.258H160.51C159.811 331.258 159.14 330.98 158.646 330.486C158.151 329.991 157.873 329.32 157.873 328.621C157.874 325.751 159.014 322.999 161.044 320.97C163.073 318.941 165.824 317.801 168.694 317.8C171.564 317.8 174.316 318.94 176.345 320.969C178.375 322.998 179.515 325.751 179.515 328.621V331.258Z" fill="black"/>
<path d="M252.536 120.167C252.325 120.179 252.117 120.106 251.959 119.964C251.801 119.823 251.706 119.625 251.695 119.413C251.683 119.201 251.756 118.994 251.897 118.836C252.039 118.678 252.237 118.583 252.449 118.571L265.033 117.179C265.245 117.155 265.457 117.217 265.623 117.35C265.789 117.484 265.896 117.677 265.919 117.889C265.942 118.101 265.88 118.313 265.747 118.479C265.614 118.645 265.42 118.751 265.209 118.775L252.624 120.163L252.536 120.167Z" fill="black"/>
<path d="M251.904 137.108L252.467 141.896L260.798 136.402C260.857 136.364 260.9 136.308 260.922 136.242C260.944 136.176 260.942 136.104 260.917 136.039C260.893 135.974 260.846 135.919 260.786 135.885C260.726 135.85 260.655 135.837 260.587 135.848L251.904 137.108Z" fill="black"/>
<path d="M254.091 173.457C253.982 173.458 253.873 173.437 253.772 173.394C253.581 173.307 253.431 173.147 253.357 172.951C253.282 172.754 253.288 172.536 253.373 172.344L256.645 164.811C256.686 164.714 256.745 164.625 256.82 164.551C256.896 164.476 256.985 164.418 257.083 164.378C257.181 164.339 257.286 164.319 257.391 164.32C257.497 164.322 257.602 164.344 257.699 164.386C257.796 164.428 257.883 164.489 257.957 164.565C258.03 164.641 258.087 164.731 258.125 164.83C258.164 164.929 258.182 165.034 258.179 165.139C258.176 165.245 258.153 165.349 258.109 165.446L254.833 172.979C254.771 173.123 254.667 173.245 254.535 173.33C254.403 173.415 254.248 173.46 254.091 173.457Z" fill="black"/>
<path d="M176.669 288.521C176.457 288.521 176.254 288.437 176.105 288.287C175.955 288.137 175.871 287.934 175.871 287.723V222.798C175.871 222.586 175.955 222.383 176.105 222.233C176.254 222.084 176.457 222 176.669 222C176.881 222 177.084 222.084 177.233 222.233C177.383 222.383 177.467 222.586 177.467 222.798V287.723C177.467 287.934 177.383 288.137 177.233 288.287C177.084 288.437 176.881 288.521 176.669 288.521Z" fill="#E7E7E7"/>
<path d="M378.798 119.193H306.224C301.35 119.193 297.398 123.145 297.398 128.019V172.34C297.398 177.215 301.35 181.166 306.224 181.166H378.798C383.673 181.166 387.624 177.215 387.624 172.34V128.019C387.624 123.145 383.673 119.193 378.798 119.193Z" fill="#E7E7E7"/>
<path d="M378.8 181.964H306.225C303.674 181.961 301.228 180.946 299.424 179.141C297.62 177.337 296.605 174.891 296.602 172.34V128.019C296.605 125.467 297.62 123.021 299.424 121.217C301.228 119.413 303.674 118.398 306.225 118.395H378.8C381.351 118.398 383.797 119.413 385.601 121.217C387.405 123.021 388.42 125.467 388.423 128.019V172.34C388.42 174.891 387.405 177.337 385.601 179.141C383.797 180.946 381.351 181.961 378.8 181.964ZM306.225 119.991C304.097 119.993 302.056 120.84 300.551 122.345C299.046 123.85 298.2 125.89 298.198 128.019V172.34C298.2 174.468 299.046 176.509 300.551 178.014C302.056 179.519 304.097 180.366 306.225 180.368H378.8C380.928 180.365 382.968 179.518 384.473 178.013C385.977 176.508 386.824 174.468 386.827 172.34V128.019C386.825 125.89 385.979 123.85 384.474 122.345C382.969 120.84 380.928 119.993 378.8 119.991H306.225Z" fill="black"/>
<path d="M346.596 141.852C348.083 141.852 349.289 140.647 349.289 139.159C349.289 137.672 348.083 136.466 346.596 136.466C345.108 136.466 343.902 137.672 343.902 139.159C343.902 140.647 345.108 141.852 346.596 141.852Z" fill="#FFC1EB"/>
<path d="M355.924 141.852C357.411 141.852 358.617 140.647 358.617 139.159C358.617 137.672 357.411 136.466 355.924 136.466C354.436 136.466 353.23 137.672 353.23 139.159C353.23 140.647 354.436 141.852 355.924 141.852Z" fill="#FFC1EB"/>
<path d="M365.258 141.852C366.745 141.852 367.951 140.647 367.951 139.159C367.951 137.672 366.745 136.466 365.258 136.466C363.77 136.466 362.564 137.672 362.564 139.159C362.564 140.647 363.77 141.852 365.258 141.852Z" fill="#FFC1EB"/>
<path d="M374.59 141.852C376.077 141.852 377.283 140.647 377.283 139.159C377.283 137.672 376.077 136.466 374.59 136.466C373.102 136.466 371.896 137.672 371.896 139.159C371.896 140.647 373.102 141.852 374.59 141.852Z" fill="#FFC1EB"/>
<path d="M320.565 152.314C323.454 152.314 325.796 149.972 325.796 147.083C325.796 144.194 323.454 141.853 320.565 141.853C317.676 141.853 315.334 144.194 315.334 147.083C315.334 149.972 317.676 152.314 320.565 152.314Z" fill="#6DC8C2"/>
<path d="M320.102 154.987C318.359 154.975 316.641 155.406 315.11 156.24C313.579 157.073 312.284 158.281 311.348 159.751C313.865 161.743 316.958 162.868 320.166 162.958C323.375 163.048 326.527 162.098 329.151 160.25C328.253 158.642 326.939 157.305 325.347 156.38C323.755 155.454 321.943 154.973 320.102 154.987Z" fill="#6DC8C2"/>
<path d="M377.283 150.024H343.368C343.157 150.024 342.954 149.94 342.804 149.79C342.654 149.64 342.57 149.437 342.57 149.226C342.57 149.014 342.654 148.811 342.804 148.661C342.954 148.512 343.157 148.428 343.368 148.428H377.283C377.495 148.428 377.698 148.512 377.848 148.661C377.997 148.811 378.081 149.014 378.081 149.226C378.081 149.437 377.997 149.64 377.848 149.79C377.698 149.94 377.495 150.024 377.283 150.024Z" fill="black"/>
<path d="M377.283 156.288H343.368C343.157 156.288 342.954 156.204 342.804 156.054C342.654 155.905 342.57 155.702 342.57 155.49C342.57 155.278 342.654 155.075 342.804 154.926C342.954 154.776 343.157 154.692 343.368 154.692H377.283C377.495 154.692 377.698 154.776 377.848 154.926C377.997 155.075 378.081 155.278 378.081 155.49C378.081 155.702 377.997 155.905 377.848 156.054C377.698 156.204 377.495 156.288 377.283 156.288Z" fill="black"/>
<path d="M364.687 162.56H343.384C343.172 162.56 342.969 162.476 342.82 162.327C342.67 162.177 342.586 161.974 342.586 161.762C342.586 161.551 342.67 161.348 342.82 161.198C342.969 161.048 343.172 160.964 343.384 160.964H364.687C364.898 160.964 365.101 161.048 365.251 161.198C365.4 161.348 365.485 161.551 365.485 161.762C365.485 161.974 365.4 162.177 365.251 162.327C365.101 162.476 364.898 162.56 364.687 162.56Z" fill="black"/>
<path d="M320.25 163.335C317.467 163.335 314.746 162.51 312.432 160.963C310.118 159.417 308.314 157.219 307.249 154.648C306.184 152.076 305.905 149.247 306.448 146.517C306.991 143.787 308.331 141.279 310.3 139.311C312.268 137.343 314.775 136.003 317.505 135.46C320.235 134.917 323.064 135.196 325.636 136.261C328.207 137.326 330.405 139.13 331.952 141.444C333.498 143.758 334.323 146.479 334.323 149.262C334.319 152.993 332.835 156.57 330.197 159.208C327.559 161.847 323.981 163.331 320.25 163.335ZM320.25 136.789C317.783 136.789 315.37 137.521 313.318 138.892C311.266 140.264 309.667 142.212 308.723 144.492C307.779 146.773 307.532 149.281 308.014 151.702C308.495 154.122 309.684 156.345 311.43 158.09C313.175 159.835 315.398 161.023 317.819 161.504C320.239 161.985 322.748 161.737 325.028 160.792C327.308 159.847 329.256 158.247 330.626 156.195C331.997 154.143 332.728 151.73 332.727 149.262C332.723 145.955 331.407 142.784 329.068 140.446C326.729 138.108 323.558 136.793 320.25 136.789Z" fill="black"/>
<path d="M337.047 205.792H310.721C307.38 205.792 304.672 208.501 304.672 211.841V238.167C304.672 241.508 307.38 244.216 310.721 244.216H337.047C340.387 244.216 343.096 241.508 343.096 238.167V211.841C343.096 208.501 340.387 205.792 337.047 205.792Z" fill="#E7E7E7"/>
<path d="M337.048 245.014H310.714C308.898 245.012 307.157 244.291 305.872 243.007C304.588 241.724 303.865 239.983 303.863 238.167V211.833C303.865 210.017 304.588 208.276 305.872 206.992C307.157 205.708 308.898 204.987 310.714 204.986H337.048C338.864 204.987 340.605 205.708 341.89 206.992C343.174 208.276 343.897 210.017 343.899 211.833V238.167C343.897 239.983 343.174 241.724 341.89 243.007C340.605 244.291 338.864 245.012 337.048 245.014ZM310.714 206.59C309.321 206.591 307.986 207.144 307.001 208.129C306.016 209.113 305.461 210.448 305.459 211.841V238.175C305.461 239.567 306.016 240.902 307.001 241.887C307.986 242.871 309.321 243.424 310.714 243.426H337.048C338.441 243.424 339.776 242.871 340.761 241.887C341.746 240.902 342.301 239.567 342.303 238.175V211.841C342.301 210.448 341.746 209.113 340.761 208.129C339.776 207.144 338.441 206.591 337.048 206.59H310.714Z" fill="black"/>
<path d="M317.74 234.097V225.068C317.737 224.905 317.778 224.745 317.859 224.605C317.94 224.464 318.057 224.348 318.199 224.27C319.46 223.563 322.927 221.213 323.33 216.453C323.478 214.733 324.232 213.923 325.026 213.728C325.944 213.505 326.889 214.462 327.021 214.59C329.18 216.84 326.925 221.999 326.718 222.462L329.571 222.386C330.129 222.372 330.685 222.468 331.206 222.669C331.728 222.869 332.204 223.171 332.609 223.556C333.014 223.941 333.338 224.402 333.565 224.913C333.791 225.423 333.914 225.973 333.928 226.532L334.028 230.618C334.041 231.184 333.942 231.747 333.735 232.274C333.528 232.801 333.217 233.282 332.821 233.687C332.426 234.092 331.953 234.414 331.431 234.634C330.909 234.854 330.349 234.967 329.782 234.967H318.634C318.401 234.967 318.177 234.876 318.011 234.714C317.844 234.551 317.747 234.33 317.74 234.097Z" fill="#6DC8C2"/>
<path d="M317.84 223.117H315.175C314.633 223.117 314.193 223.556 314.193 224.098V234.791C314.193 235.334 314.633 235.773 315.175 235.773H317.84C318.382 235.773 318.822 235.334 318.822 234.791V224.098C318.822 223.556 318.382 223.117 317.84 223.117Z" fill="#FFC1EB"/>
<path d="M92.9119 103.864C98.1983 103.864 102.484 99.5782 102.484 94.2917C102.484 89.0053 98.1983 84.7197 92.9119 84.7197C87.6254 84.7197 83.3398 89.0053 83.3398 94.2917C83.3398 99.5782 87.6254 103.864 92.9119 103.864Z" fill="#FFBB45"/>
<path d="M93.4443 122.047C98.2626 112.896 96.7819 102.642 90.1369 99.1426C83.492 95.6436 74.1991 100.225 69.3807 109.375C64.5623 118.526 66.0431 128.78 72.688 132.279C79.333 135.778 88.6259 131.197 93.4443 122.047Z" fill="#FFBB45"/>
<path d="M91.3001 155.934C93.256 142.102 85.7284 129.601 74.4867 128.011C63.2451 126.422 52.5463 136.345 50.5904 150.177C48.6344 164.008 56.162 176.509 67.4037 178.099C78.6454 179.688 89.3442 169.765 91.3001 155.934Z" fill="#FFBB45"/>
<path d="M20.2248 134.511C25.1124 134.511 29.0746 130.548 29.0746 125.661C29.0746 120.773 25.1124 116.811 20.2248 116.811C15.3372 116.811 11.375 120.773 11.375 125.661C11.375 130.548 15.3372 134.511 20.2248 134.511Z" fill="#FFBB45"/>
<path d="M29.7375 161.672C36.4038 160.111 40.162 151.816 38.1316 143.146C36.1012 134.476 29.0511 128.713 22.3848 130.274C15.7185 131.835 11.9604 140.129 13.9908 148.799C16.0212 157.47 23.0713 163.233 29.7375 161.672Z" fill="#FFBB45"/>
<path d="M38.08 200.705C47.7591 199.039 53.9428 188.031 51.8917 176.12C49.8407 164.208 40.3315 155.903 30.6525 157.57C20.9734 159.236 14.7897 170.244 16.8407 182.155C18.8918 194.067 28.4009 202.372 38.08 200.705Z" fill="#FFBB45"/>
<path d="M49.5636 240.142C49.3682 240.144 49.179 240.074 49.0319 239.945C48.8848 239.816 48.79 239.638 48.7656 239.444C44.0534 202.062 31.07 169.575 30.9383 169.268C30.8954 169.17 30.8725 169.064 30.8712 168.958C30.8698 168.851 30.8899 168.745 30.9303 168.646C30.9708 168.547 31.0307 168.457 31.1065 168.381C31.1823 168.306 31.2725 168.247 31.3717 168.207C31.4709 168.167 31.5771 168.148 31.684 168.15C31.7909 168.152 31.8963 168.175 31.9939 168.219C32.0916 168.262 32.1795 168.325 32.2524 168.403C32.3254 168.481 32.3819 168.573 32.4186 168.673C32.5503 168.997 45.6095 201.651 50.3736 239.245C50.387 239.349 50.3796 239.455 50.352 239.556C50.3243 239.658 50.2768 239.753 50.2123 239.836C50.1478 239.919 50.0675 239.988 49.976 240.04C49.8845 240.092 49.7837 240.125 49.6793 240.138L49.5636 240.142Z" fill="black"/>
<path d="M59.2037 240.553C58.992 240.553 58.7891 240.469 58.6394 240.319C58.4898 240.17 58.4057 239.967 58.4057 239.755C58.3059 202.249 63.5927 172.176 68.0415 153.535C72.8694 133.318 77.8051 121.803 77.845 121.695C77.931 121.504 78.0888 121.354 78.2844 121.278C78.48 121.202 78.6976 121.207 78.89 121.29C79.0825 121.373 79.2344 121.529 79.3128 121.724C79.3913 121.918 79.39 122.136 79.3093 122.329C79.2614 122.441 74.3777 133.86 69.5817 153.962C65.1568 172.508 59.9019 202.452 60.0057 239.747C60.0057 239.959 59.9216 240.162 59.7719 240.311C59.6223 240.461 59.4193 240.545 59.2077 240.545L59.2037 240.553Z" fill="black"/>
<path d="M63.7881 239.755H43.6625C37.5872 239.755 32.6621 244.68 32.6621 250.756V326.805C32.6621 332.881 37.5872 337.806 43.6625 337.806H63.7881C69.8635 337.806 74.7885 332.881 74.7885 326.805V250.756C74.7885 244.68 69.8635 239.755 63.7881 239.755Z" fill="#6DC8C2"/>
<path d="M34.7127 332.566C34.5565 332.567 34.4036 332.521 34.2731 332.435C34.1426 332.349 34.0402 332.227 33.9785 332.084C33.8934 331.891 33.8875 331.673 33.9623 331.477C34.037 331.28 34.1862 331.121 34.3775 331.034C40.621 328.33 47.3393 326.893 54.1426 326.805C60.946 326.717 67.699 327.981 74.0102 330.524C74.2 330.607 74.35 330.761 74.4284 330.953C74.5068 331.145 74.5074 331.359 74.4302 331.552C74.3529 331.744 74.2038 331.899 74.0145 331.983C73.8251 332.068 73.6104 332.075 73.4157 332.004C67.2995 329.541 60.7552 328.316 54.1622 328.401C47.5692 328.486 41.0586 329.879 35.0079 332.499C34.9147 332.54 34.8145 332.563 34.7127 332.566Z" fill="black"/>
<path d="M68.9479 256.023H39.1027C38.891 256.023 38.6881 255.939 38.5384 255.789C38.3888 255.639 38.3047 255.436 38.3047 255.225C38.3047 255.013 38.3888 254.81 38.5384 254.66C38.6881 254.511 38.891 254.427 39.1027 254.427H68.9479C69.1595 254.427 69.3625 254.511 69.5122 254.66C69.6618 254.81 69.7459 255.013 69.7459 255.225C69.7459 255.436 69.6618 255.639 69.5122 255.789C69.3625 255.939 69.1595 256.023 68.9479 256.023Z" fill="black"/>
<path d="M61.2902 328.397C61.0785 328.397 60.8756 328.313 60.7259 328.163C60.5763 328.013 60.4922 327.81 60.4922 327.599V255.46C60.4922 255.248 60.5763 255.045 60.7259 254.895C60.8756 254.746 61.0785 254.662 61.2902 254.662C61.5018 254.662 61.7048 254.746 61.8545 254.895C62.0041 255.045 62.0882 255.248 62.0882 255.46V327.599C62.0882 327.81 62.0041 328.013 61.8545 328.163C61.7048 328.313 61.5018 328.397 61.2902 328.397Z" fill="black"/>
<path d="M46.7394 328.397C46.5278 328.397 46.3248 328.313 46.1751 328.163C46.0255 328.013 45.9414 327.81 45.9414 327.599V255.46C45.9414 255.248 46.0255 255.045 46.1751 254.895C46.3248 254.746 46.5278 254.662 46.7394 254.662C46.951 254.662 47.154 254.746 47.3037 254.895C47.4533 255.045 47.5374 255.248 47.5374 255.46V327.599C47.5374 327.81 47.4533 328.013 47.3037 328.163C47.154 328.313 46.951 328.397 46.7394 328.397Z" fill="black"/>
</svg>
