<svg width="40" height="40" viewBox="0 0 40 40" fill="none" xmlns="http://www.w3.org/2000/svg">
<g clip-path="url(#clip0_735_3737)">
<path d="M20 25C22.7614 25 25 22.7614 25 20C25 17.2386 22.7614 15 20 15C17.2386 15 15 17.2386 15 20C15 22.7614 17.2386 25 20 25Z" stroke="#D2D2D2" stroke-width="2" stroke-linecap="round" stroke-linejoin="round"/>
<path d="M32.3337 24.9998C32.1118 25.5025 32.0456 26.0602 32.1437 26.6008C32.2417 27.1415 32.4994 27.6404 32.8837 28.0332L32.9837 28.1332C33.2936 28.4427 33.5394 28.8104 33.7072 29.215C33.8749 29.6197 33.9613 30.0535 33.9613 30.4915C33.9613 30.9296 33.8749 31.3633 33.7072 31.768C33.5394 32.1726 33.2936 32.5403 32.9837 32.8498C32.6741 33.1598 32.3065 33.4056 31.9018 33.5734C31.4971 33.7411 31.0634 33.8275 30.6253 33.8275C30.1873 33.8275 29.7535 33.7411 29.3489 33.5734C28.9442 33.4056 28.5766 33.1598 28.267 32.8498L28.167 32.7498C27.7742 32.3656 27.2753 32.1079 26.7346 32.0098C26.194 31.9118 25.6364 31.978 25.1337 32.1998C24.6407 32.4111 24.2203 32.7619 23.9242 33.2091C23.628 33.6562 23.4691 34.1802 23.467 34.7165V34.9998C23.467 35.8839 23.1158 36.7317 22.4907 37.3569C21.8656 37.982 21.0177 38.3332 20.1337 38.3332C19.2496 38.3332 18.4018 37.982 17.7766 37.3569C17.1515 36.7317 16.8003 35.8839 16.8003 34.9998V34.8498C16.7874 34.2982 16.6089 33.7632 16.2878 33.3143C15.9668 32.8655 15.5182 32.5236 15.0003 32.3332C14.4976 32.1113 13.94 32.0451 13.3993 32.1432C12.8587 32.2412 12.3598 32.4989 11.967 32.8832L11.867 32.9832C11.5574 33.2931 11.1898 33.539 10.7851 33.7067C10.3805 33.8745 9.94671 33.9608 9.50866 33.9608C9.07061 33.9608 8.63685 33.8745 8.23219 33.7067C7.82753 33.539 7.4599 33.2931 7.15033 32.9832C6.8404 32.6736 6.59454 32.306 6.42679 31.9013C6.25905 31.4966 6.1727 31.0629 6.1727 30.6248C6.1727 30.1868 6.25905 29.753 6.42679 29.3484C6.59454 28.9437 6.8404 28.5761 7.15033 28.2665L7.25033 28.1665C7.63455 27.7737 7.8923 27.2748 7.99033 26.7342C8.08836 26.1935 8.02218 25.6359 7.80033 25.1332C7.58905 24.6402 7.23825 24.2198 6.7911 23.9237C6.34395 23.6276 5.81997 23.4686 5.28366 23.4665H5.00033C4.11627 23.4665 3.26842 23.1153 2.6433 22.4902C2.01818 21.8651 1.66699 21.0172 1.66699 20.1332C1.66699 19.2491 2.01818 18.4013 2.6433 17.7761C3.26842 17.151 4.11627 16.7998 5.00033 16.7998H5.15033C5.70198 16.7869 6.237 16.6084 6.68582 16.2874C7.13465 15.9663 7.47652 15.5177 7.66699 14.9998C7.88885 14.4971 7.95503 13.9395 7.857 13.3989C7.75897 12.8582 7.50122 12.3593 7.11699 11.9665L7.01699 11.8665C6.70707 11.5569 6.46121 11.1893 6.29346 10.7846C6.12571 10.38 6.03937 9.94622 6.03937 9.50817C6.03937 9.07012 6.12571 8.63636 6.29346 8.2317C6.46121 7.82704 6.70707 7.45941 7.01699 7.14984C7.32657 6.83992 7.6942 6.59405 8.09886 6.4263C8.50352 6.25856 8.93727 6.17222 9.37533 6.17222C9.81338 6.17222 10.2471 6.25856 10.6518 6.4263C11.0565 6.59405 11.4241 6.83992 11.7337 7.14984L11.8337 7.24984C12.2265 7.63407 12.7254 7.89181 13.266 7.98984C13.8067 8.08788 14.3643 8.0217 14.867 7.79984H15.0003C15.4933 7.58857 15.9137 7.23776 16.2098 6.79061C16.5059 6.34346 16.6649 5.81948 16.667 5.28317V4.99984C16.667 4.11578 17.0182 3.26794 17.6433 2.64281C18.2684 2.01769 19.1163 1.6665 20.0003 1.6665C20.8844 1.6665 21.7322 2.01769 22.3573 2.64281C22.9825 3.26794 23.3337 4.11578 23.3337 4.99984V5.14984C23.3358 5.68615 23.4947 6.21013 23.7908 6.65728C24.087 7.10443 24.5074 7.45523 25.0003 7.6665C25.503 7.88836 26.0606 7.95454 26.6013 7.85651C27.142 7.75848 27.6409 7.50073 28.0337 7.1165L28.1337 7.0165C28.4432 6.70658 28.8109 6.46072 29.2155 6.29297C29.6202 6.12522 30.0539 6.03888 30.492 6.03888C30.93 6.03888 31.3638 6.12522 31.7685 6.29297C32.1731 6.46072 32.5407 6.70658 32.8503 7.0165C33.1602 7.32608 33.4061 7.69371 33.5739 8.09837C33.7416 8.50303 33.8279 8.93679 33.8279 9.37484C33.8279 9.81289 33.7416 10.2466 33.5739 10.6513C33.4061 11.056 33.1602 11.4236 32.8503 11.7332L32.7503 11.8332C32.3661 12.226 32.1084 12.7249 32.0103 13.2655C31.9123 13.8062 31.9785 14.3638 32.2003 14.8665V14.9998C32.4116 15.4928 32.7624 15.9132 33.2096 16.2093C33.6567 16.5055 34.1807 16.6644 34.717 16.6665H35.0003C35.8844 16.6665 36.7322 17.0177 37.3573 17.6428C37.9825 18.2679 38.3337 19.1158 38.3337 19.9998C38.3337 20.8839 37.9825 21.7317 37.3573 22.3569C36.7322 22.982 35.8844 23.3332 35.0003 23.3332H34.8503C34.314 23.3353 33.79 23.4942 33.3429 23.7904C32.8957 24.0865 32.5449 24.5069 32.3337 24.9998V24.9998Z" stroke="#D2D2D2" stroke-width="2" stroke-linecap="round" stroke-linejoin="round"/>
</g>
<defs>
<clipPath id="clip0_735_3737">
<rect width="40" height="40" fill="white"/>
</clipPath>
</defs>
</svg>
