<svg width="36" height="36" viewBox="0 0 36 36" fill="none" xmlns="http://www.w3.org/2000/svg">
<path d="M3 28.8L5.7 31.5M7.05 20.7L8.4 26.1M8.4 26.1L13.8 27.45M8.4 26.1L4.35 30.15M24.6 5.85L11.1 19.35L11.775 22.725L15.15 23.4L28.65 9.9L30 4.5L24.6 5.85Z" stroke="#5599FF" stroke-width="2" stroke-linecap="round" stroke-linejoin="round"/>
<path d="M33 28.8L30.3 31.5M28.95 20.7L27.6 26.1M27.6 26.1L31.65 30.15M27.6 26.1L24.9 26.775L22.2 27.45M13.95 16.5L7.35 9.9L6 4.5L11.4 5.85L18 12.45M18.15 20.7L20.85 23.4L24.225 22.725L24.9 19.35L22.2 16.65" stroke="#5599FF" stroke-width="2" stroke-linecap="round" stroke-linejoin="round"/>
</svg>
