<svg width="80" height="80" viewBox="0 0 80 80" fill="none" xmlns="http://www.w3.org/2000/svg">
<mask id="mask0_756_5070" style="mask-type:alpha" maskUnits="userSpaceOnUse" x="0" y="0" width="80" height="80">
<circle cx="39.8689" cy="39.8689" r="39.8689" fill="#D9D9D9"/>
</mask>
<g mask="url(#mask0_756_5070)">
<path d="M61.7257 72.7844C61.5427 72.9151 61.3336 73.0458 61.1506 73.1765C60.9414 73.3072 60.7584 73.438 60.5492 73.5425C60.3662 73.6471 60.2094 73.7517 60.0264 73.8563C60.0002 73.8824 59.9741 73.8824 59.9479 73.9085C59.3466 74.2746 58.7192 74.6144 58.0917 74.9282C57.9087 75.0327 57.6996 75.1373 57.5166 75.2157C57.5166 75.2157 57.4904 75.2419 57.4643 75.2419C57.2551 75.3465 57.046 75.451 56.8368 75.5556C56.4185 75.7648 55.9741 75.9478 55.5558 76.1308C55.3466 76.2353 55.1113 76.3138 54.9022 76.3922C54.693 76.4706 54.4577 76.5752 54.2486 76.6536C54.0394 76.7321 53.8041 76.8367 53.595 76.9151C53.595 76.9151 53.595 76.9151 53.5689 76.9151C53.3597 76.9935 53.1244 77.0719 52.9153 77.1504C52.4447 77.3072 51.9479 77.4641 51.4774 77.621C51.3205 77.6733 51.1375 77.7255 50.9806 77.7778C50.4839 77.9347 49.9872 78.0654 49.4904 78.17C49.3074 78.2223 49.1244 78.2484 48.9153 78.3007C48.4447 78.4053 47.9479 78.5099 47.4774 78.6144C47.3728 78.6406 47.2943 78.6406 47.1898 78.6667C47.0329 78.6929 46.8499 78.719 46.693 78.7451C46.4577 78.7713 46.2486 78.8236 46.0133 78.8497C45.9087 78.8759 45.8042 78.8759 45.6996 78.902C45.5689 78.9282 45.412 78.9543 45.2551 78.9543C44.8368 79.0066 44.3924 79.0589 43.9741 79.1112C43.8434 79.1373 43.6865 79.1373 43.5558 79.1634H43.5296C43.3466 79.1896 43.1636 79.1896 42.9806 79.2157C42.7976 79.2419 42.6146 79.2419 42.4316 79.2419C42.327 79.2419 42.1963 79.268 42.0917 79.268C41.8826 79.268 41.6996 79.2942 41.5166 79.2942C41.2551 79.2942 41.0198 79.3203 40.7584 79.3203C40.497 79.3203 40.2617 79.3203 40.0002 79.3203C39.8172 79.3203 39.6342 79.3203 39.4512 79.3203C28.4185 79.1634 18.51 74.4837 11.4251 67.0589C11.4251 67.0589 11.4251 67.0327 11.3989 67.0327C10.6146 66.3268 11.2944 62.5621 14.4577 60.1831C18.4316 57.1765 27.9479 55.2942 27.9479 55.2942C27.9479 55.2942 31.6342 54.6929 45.3074 57.5425C53.3074 59.2157 59.3989 61.6471 62.7976 68.2353C63.5035 69.5948 64.2094 71.6863 61.7257 72.7844Z" fill="#E7E7E7"/>
<path d="M45.3857 57.255C50.4053 58.2746 55.7648 59.3727 59.8955 62.6929C61.2812 63.8171 62.1962 65.4642 62.9544 67.059C63.3204 67.8433 63.6864 68.6537 63.974 69.5165C64.1308 70.0916 64.3661 70.7452 64.2354 71.425C64.2093 71.608 64.0524 71.8433 63.9217 71.974C63.3204 72.5753 62.6668 72.9413 62.0132 73.4119C58.17 76.0786 53.7517 77.9609 49.1766 78.9544C38.9805 81.1766 27.9478 79.4511 18.9805 74.0916C16.0001 72.2877 13.255 70.0916 10.9021 67.5034C10.6406 67.1897 10.6406 66.6668 10.6406 66.3269C10.6668 65.5426 10.8759 64.7844 11.1374 64.0786C11.7648 62.4576 12.5753 60.8367 13.9609 59.7125C14.9544 59.0328 16.0262 58.4576 17.1243 57.9871C20.5753 56.523 24.2093 55.5034 27.9478 55.0851C28.2615 55.0589 28.3138 55.5034 28.0001 55.5557C24.4184 56.2877 20.8628 57.3857 17.5426 58.8759C16.34 59.4773 15.0589 60.0001 14.0916 60.9413C13.1766 61.9348 12.523 63.1635 12.0001 64.4184C11.6602 65.1766 11.4249 66.3792 11.5295 66.9805C13.1766 68.9413 15.1112 70.6668 17.2027 72.157C28.6537 80.157 46.0393 80.6799 58.2223 74.0132C59.3204 73.4119 60.3923 72.7322 61.4119 72.0263C61.9086 71.6864 62.4315 71.3988 62.8236 71.0067C62.8498 70.9805 62.8236 71.0067 62.8236 71.0328C62.8236 71.059 62.7975 71.0851 62.7975 71.0851C62.8236 70.7714 62.7191 70.3531 62.5883 69.9348C62.1178 68.4184 61.3596 66.8237 60.5491 65.438C59.2681 63.3727 57.0981 62.0655 54.9021 61.0197C53.3857 60.3139 51.791 59.7648 50.17 59.242C48.5491 58.7191 46.9021 58.2746 45.255 57.8825C44.8367 57.7779 44.9674 57.1766 45.3857 57.255Z" fill="#5599FF"/>
<path d="M70.4057 88.9937H4.28809C4.28809 88.9937 5.35998 78.2225 9.43841 69.6211C10.9286 66.4839 11.4253 61.8826 14.3796 59.8695C17.4123 57.8042 23.8698 56.1571 26.1182 55.8957C27.3731 55.7388 27.0855 55.6342 27.9744 55.3989C28.2619 56.1832 31.1639 63.8695 38.1182 66.693C44.1051 69.1244 47.6606 67.5035 48.2097 64.8107C48.5495 63.0852 47.4776 60.2617 46.9286 59.3466C46.6149 59.0852 46.4057 58.693 46.3012 58.3009L46.092 57.4381C46.5626 57.3336 47.007 57.2029 47.4776 57.0721C47.7129 57.1244 47.9744 57.0983 48.1835 57.229C50.3796 58.4316 56.994 60.131 60.4449 63.7649C61.8044 65.1767 63.9221 70.1963 64.2619 73.4643C65.2293 82.4316 70.4057 88.9937 70.4057 88.9937Z" fill="#E7E7E7"/>
<path d="M70.7716 89.1504C51.1638 89.2027 23.6343 89.438 4.31408 89.3596C4.07879 89.3596 3.89578 89.1504 3.92192 88.9151C4.15722 87.0589 4.47094 85.255 4.83696 83.4249C5.80428 78.4315 7.26833 73.5164 9.46441 68.9413C10.3533 66.7975 10.7977 64.5491 11.8696 62.4576C12.4971 61.2027 13.4383 60.0001 14.6932 59.2942C16.7062 58.0916 18.9285 57.3334 21.1507 56.6537C22.484 56.2615 23.8435 55.8955 25.203 55.6341C25.8827 55.4772 26.5624 55.5034 27.1899 55.2419C27.5298 55.1112 28.1834 54.7191 28.3925 55.2158C30.301 60.157 33.9873 64.8367 39.1376 66.5883C41.8043 67.5557 46.4317 68.3661 47.7912 65.0981C48.2095 63.8694 47.8173 62.536 47.4513 61.3073C47.2422 60.6798 46.9807 60.0262 46.667 59.5034L46.7454 59.5818C46.2749 59.1896 46.0134 58.5622 45.935 57.987L45.8043 57.4642C45.752 57.255 45.8827 57.0459 46.0919 56.9936C46.5624 56.9151 47.033 56.7583 47.5036 56.6276C47.7651 56.6276 48.1834 56.6798 48.5232 56.8628C51.399 58.1962 54.667 59.1635 57.4121 60.8367C58.9546 61.7517 60.5232 62.8236 61.5167 64.3661C63.3468 67.4249 64.5232 70.9021 64.8631 74.4315C65.5951 79.4772 67.6343 84.3138 70.5624 88.4707L70.667 88.6014L70.7193 88.6537L70.7455 88.6798C70.7455 88.6798 70.7455 88.6537 70.7716 88.7321C70.7977 88.889 70.7977 89.072 70.7716 89.1504ZM70.0657 88.8106C70.0134 88.889 70.0134 89.072 70.0657 89.1504C70.118 89.2027 70.0919 89.1766 70.0919 89.1766L70.0657 89.1504L70.0134 89.072L69.9088 88.9413C68.2618 86.4315 66.9023 83.7387 65.9088 80.9413C65.1245 78.8759 64.5494 76.7321 64.2356 74.536C64.1311 73.7517 64.0004 72.706 63.8173 71.9478C63.216 69.438 62.2487 66.9282 60.8631 64.7583C60.4187 64.0524 59.7651 63.5034 59.1115 62.9805C57.0461 61.4119 54.6147 60.4445 52.2095 59.5034L49.752 58.5883C48.9415 58.2746 47.9742 57.9347 47.4775 57.438H47.6866C47.216 57.5949 46.7454 57.7256 46.2749 57.8302L46.5624 57.3596L46.6932 57.8825C46.7977 58.353 46.9023 58.7713 47.2683 59.0851C47.2945 59.1112 47.3206 59.1374 47.3468 59.1635C48.0526 60.4445 48.4709 61.7779 48.6801 63.2158C49.1245 65.6994 47.5559 67.6602 45.1507 68.1308C41.8304 68.7844 37.8566 67.3465 35.1115 65.4903C31.6605 63.0589 29.1768 59.4511 27.6605 55.5557L28.1311 55.7909C27.8958 55.8694 27.7389 55.9478 27.5036 56.0524C27.2683 56.1831 26.9807 56.2615 26.7193 56.3138C26.7455 56.4707 26.667 56.0001 26.7716 56.6276C26.2749 56.6798 25.8827 56.706 25.4121 56.8106C24.0788 57.0197 22.7455 57.3334 21.4383 57.6994C19.6866 58.17 17.9611 58.7452 16.3402 59.5034C15.5298 59.8955 14.7455 60.3138 14.1441 60.8628C13.5167 61.4119 13.02 62.1439 12.6017 62.9282C11.3729 65.3073 10.7716 68.157 9.5167 70.5622C6.90232 76.3923 5.43826 82.7452 4.73238 89.0981L4.34023 88.6798C23.3206 88.6014 50.7716 88.706 70.0657 88.8106Z" fill="#5599FF"/>
<path d="M49.1767 71.8956C48.2617 72.157 45.0721 68.8368 44.4185 68.2616C43.8172 68.9413 39.5819 73.7256 37.4904 73.4119C35.1898 73.072 29.3074 69.1243 26.327 62.9283C24.68 59.5296 24.6277 57.4642 24.8107 56.34C24.8891 55.8171 25.046 55.4773 25.1244 55.2943C25.3858 54.693 27.2682 52.3662 27.7388 52.3923V52.4185C27.9741 54.9283 28.7845 57.3596 30.144 59.4773C31.8172 62.0655 34.4577 65.1766 38.144 66.6668C44.1309 69.0982 47.2421 66.693 47.7649 64.0002C48.1048 62.2747 47.5035 60.2354 46.9545 59.3204C46.6408 59.059 46.4316 58.6668 46.327 58.2747L46.1179 57.4119C46.5885 57.3073 47.0329 57.1766 47.5035 57.0459C47.6342 56.9936 47.7911 56.9675 47.9218 56.9152C48.0002 57.0198 48.1048 57.1243 48.1832 57.2289C49.2813 58.4838 50.4316 60.2093 51.0591 63.1374C52.1048 67.8171 50.1963 71.5819 49.1767 71.8956Z" fill="#5599FF"/>
<path d="M44.3403 68.1045C44.3403 68.1045 46.2488 69.2025 46.1965 70.1176C46.1443 71.0326 46.6933 73.9346 46.6933 73.9346" stroke="#5599FF" stroke-width="3" stroke-miterlimit="10" stroke-linecap="round" stroke-linejoin="round"/>
<path d="M44.314 71.5816C44.6605 71.5816 44.9414 71.3006 44.9414 70.9541C44.9414 70.6076 44.6605 70.3267 44.314 70.3267C43.9674 70.3267 43.6865 70.6076 43.6865 70.9541C43.6865 71.3006 43.9674 71.5816 44.314 71.5816Z" fill="#5599FF"/>
<path d="M44.523 74.0391C44.8695 74.0391 45.1504 73.7582 45.1504 73.4116C45.1504 73.0651 44.8695 72.7842 44.523 72.7842C44.1764 72.7842 43.8955 73.0651 43.8955 73.4116C43.8955 73.7582 44.1764 74.0391 44.523 74.0391Z" fill="#5599FF"/>
<path d="M17.2292 88.9933L16.0527 79.2939" stroke="#544D4D" stroke-width="3" stroke-miterlimit="10" stroke-linecap="round" stroke-linejoin="round"/>
<path d="M62.9021 76C62.9021 76 62.1178 77.9085 62.3531 79.817C62.5884 81.7255 63.2681 84.5229 62.3008 88.9935" stroke="#544D4D" stroke-width="3" stroke-miterlimit="10" stroke-linecap="round" stroke-linejoin="round"/>
<path d="M27.7387 52.3923C27.7387 52.3923 36.1832 49.7779 47.9479 56.889C47.9479 56.889 51.1897 65.621 49.1766 66.9543C47.1636 68.2877 40.8368 68.4184 36.4185 66.9543C31.974 65.5164 26.2747 58.3269 27.7387 52.3923Z" fill="#5599FF"/>
<path d="M47.843 64.2093C47.294 66.9021 43.7384 68.523 37.7515 66.0916C31.5293 63.5818 28.8365 57.5949 28.1567 55.8171C31.843 48.9152 29.2809 44.1308 29.2809 44.1308C37.7777 43.3988 45.2025 53.3335 45.2025 53.3335L46.3528 58.2485C46.4574 58.6668 46.6665 59.0328 46.9803 59.2942C47.5293 60.2616 48.1829 62.4838 47.843 64.2093Z" fill="#E7E7E7"/>
<path d="M28.0262 55.8956C28.5229 55.1374 28.8366 54.2485 29.0458 53.3858C29.4379 51.5818 29.5686 49.7518 29.5948 47.9217V47.242C29.5163 46.5622 29.2811 45.8563 29.0196 45.2289C28.6797 44.3923 29.9085 43.8694 30.3007 44.706C30.3529 44.8106 30.3529 44.9936 30.3529 45.0982C30.4314 48.6537 30.5882 53.2289 28.3399 56.1831C28.183 56.34 27.8693 56.1047 28.0262 55.8956Z" fill="#5599FF"/>
<path d="M45.4904 53.281C45.8825 53.5163 46.0132 53.83 46.0655 54.1437C46.2224 54.7712 46.1701 55.4509 46.327 56.1045C46.4577 56.732 46.8498 57.3333 46.9544 57.9869C47.0851 58.6666 47.4773 60.1045 47.6341 60.8104C47.6864 60.9672 47.5819 61.1502 47.3988 61.1764C47.2943 61.2025 47.2158 61.1764 47.1374 61.1241C46.7975 60.8365 46.6407 60.5489 46.4315 60.1829C46.0917 59.5555 45.8564 58.9803 45.6472 58.2744C45.4642 57.647 45.5426 56.9672 45.3858 56.3136C45.2551 55.6862 44.889 55.0849 44.7583 54.4313C44.6799 54.1176 44.6537 53.7777 44.889 53.3855C45.0459 53.2287 45.3073 53.1764 45.4904 53.281Z" fill="#5599FF"/>
<path d="M47.3724 60.1831C42.3789 59.9217 38.3005 58.353 34.3267 51.2681C37.6731 54.2223 41.6208 55.3465 45.7776 55.8694L46.3267 58.2746C46.4312 58.6929 47.0587 59.9217 47.3724 60.1831Z" fill="#5599FF"/>
<path d="M47.1634 59.2159C48.0523 60.8891 48.5752 62.9806 48.0262 64.8368C47.6079 66.144 46.4052 67.1113 45.0981 67.4773C42.0654 68.2878 38.5621 67.0068 35.8693 65.5688C32.549 63.7126 30.0915 60.6015 28.5229 57.2028C28.4183 56.9414 28.7843 56.7322 28.9412 56.9937C29.4902 58.0917 30.1177 59.1636 30.8235 60.1309C31.5294 61.1244 32.3399 62.0394 33.2549 62.8499C35.9216 65.2551 39.5294 66.7453 43.1373 66.7453C46.8497 66.6407 48.2615 64.68 47.3987 61.0721C47.268 60.4969 47.0588 59.8956 46.7713 59.3989C46.6144 59.1898 47.0065 58.9545 47.1634 59.2159Z" fill="#5599FF"/>
<path d="M57.2809 27.8173C57.7515 30.0133 57.3855 31.4774 57.1763 37.5428C56.9671 43.5035 55.2417 51.9218 53.124 54.0395C51.5031 55.6343 46.3005 56.8892 41.673 55.7127C39.3201 55.1114 37.3332 53.7519 35.7122 52.7846C33.673 51.5558 31.8953 47.765 30.4312 45.3336C29.2809 43.4251 29.3854 45.7258 27.8953 44.0787C25.8299 41.8303 23.3462 37.3075 24.575 29.3075C26.5619 16.3401 36.8364 14.8238 44.4443 16.2617C52.1044 17.6996 56.026 22.0395 57.2809 27.8173Z" fill="#E7E7E7"/>
<path d="M29.2027 46.3792C28.6014 45.3857 27.8171 44.4969 27.1112 43.5557C26.0655 42.1178 25.2812 40.4707 24.7583 38.7714C22.4838 31.5034 23.8694 21.9871 30.7452 17.6995C36.9936 13.7256 49.1243 15.1635 54.1962 20.6014C56.1047 22.5622 57.3335 25.1243 57.8563 27.791C57.8825 27.9478 57.9609 28.2354 57.9871 28.3923C58.0132 28.523 58.0916 28.6799 58.0655 28.8367C58.0132 29.4119 57.9086 29.9871 57.8563 30.5622C57.4642 34.0393 57.5688 37.5949 57.1243 41.072C56.7322 44.7322 56.2093 48.3923 55.1112 51.9217C54.7714 52.9936 54.1178 53.9609 53.255 54.6668C51.3204 56.2877 48.7844 56.8367 46.3531 56.9413C41.4903 57.1766 36.5492 55.4511 33.7256 51.3465C33.621 51.1897 33.8302 51.0067 33.9609 51.1635C36.3139 53.6995 39.5034 55.3204 42.9021 55.6864C46.6668 56.1308 52.34 55.791 53.9871 51.7648C55.8956 46.0655 56.889 40.0263 56.9936 34.0393C56.9936 32.5753 56.9152 31.1112 56.9152 29.621C56.9152 29.438 56.9413 29.0197 56.9413 28.8367C56.9413 28.8367 56.9413 28.8106 56.9413 28.8367C56.9413 28.8629 56.9413 28.8629 56.9413 28.8367C56.7322 28.3139 56.6537 27.7387 56.4969 27.2158C55.9217 25.0459 54.876 22.9805 53.3858 21.3335C48.4446 15.791 37.438 14.4054 31.2681 18.5622C26.3792 21.8041 25.072 28.0263 24.7322 33.5165C24.4446 37.621 25.6472 41.6472 28.7583 44.4707L29.9871 45.7518C30.5099 46.3269 29.621 47.0067 29.2027 46.3792Z" fill="#5599FF"/>
<path d="M32.2877 38.0654C32.2877 38.0654 31.4772 34.1438 27.6602 34.6144C24.3661 35.0327 23.2158 42.9281 30.6929 45.1242" fill="#E7E7E7"/>
<path d="M30.353 41.6995C29.7517 41.3596 29.3334 40.7844 29.3073 40.0786C29.3334 39.5557 29.4118 38.9544 29.2811 38.4315C29.2027 37.9348 28.6798 37.804 28.2876 37.8302C27.8693 37.9086 27.6079 38.4315 27.5295 38.8498C27.5295 38.8759 27.5033 38.9544 27.5033 38.9805C27.4772 39.1112 27.268 39.1112 27.2158 38.9805C26.8759 37.9609 27.6341 36.8367 28.7321 36.9674C30.2746 37.072 30.4837 38.6929 30.1961 39.9217C30.0393 40.4446 30.2484 40.9152 30.536 41.3596L30.5883 41.438C30.719 41.5949 30.5099 41.804 30.353 41.6995Z" fill="#5599FF"/>
<path d="M51.2683 35.2943C51.6605 37.1505 52.3925 38.876 53.3075 40.4969C54.118 42.4839 52.0265 44.3662 50.1703 44.2878C49.9611 44.2878 49.935 44.0002 50.118 43.9479C51.2945 43.5819 52.3664 42.7976 52.5494 41.595C52.6278 41.229 52.5232 40.9152 52.3402 40.6015C51.4775 38.9806 50.9546 37.1244 51.0853 35.2943C51.0853 35.1636 51.2683 35.1636 51.2683 35.2943Z" fill="#5599FF"/>
<path d="M32.1572 38.0919C31.5559 36.5494 30.2487 35.0853 28.497 35.1115C28.3402 35.0853 28.0787 35.1376 27.9219 35.1376C27.4774 35.1638 27.1114 35.3206 26.7715 35.6343C25.0983 37.3075 25.3859 40.2618 26.7454 42.118C27.216 42.7716 27.8173 43.3468 28.497 43.8174C29.1768 44.2879 29.9349 44.654 30.7454 44.9677C30.9284 45.02 30.85 45.3075 30.667 45.2814C28.9153 44.9154 27.2421 44.0526 26.0918 42.6147C24.314 40.4709 23.948 36.8892 26.0657 34.7977C26.5362 34.3794 27.1898 34.0657 27.8434 34.0657C28.0526 34.0657 28.3663 34.0134 28.5755 34.0657C29.6735 34.118 30.7192 34.667 31.399 35.5298C32.0003 36.2618 32.3402 37.1507 32.4447 38.0396C32.4447 38.1964 32.2094 38.2487 32.1572 38.0919Z" fill="#5599FF"/>
<path d="M49.281 46.902C47.6078 48.4968 44.4444 47.2157 43.6078 45.2811C43.5032 45.0458 43.7647 44.8367 43.9738 44.9412C44.4182 45.1765 44.8104 45.4118 45.2287 45.5948C46.4313 46.1438 47.6862 46.5883 49.0196 46.4576C49.281 46.4053 49.464 46.719 49.281 46.902Z" fill="#040404"/>
<path d="M45.3596 32.5228C45.9348 32.6012 46.3792 31.9999 46.1701 31.4248C46.0655 31.111 45.8825 30.8235 45.5949 30.6404C44.706 30.0914 41.3857 30.0391 39.6341 31.294C38.0655 32.4444 42.7452 32.1568 45.3596 32.5228Z" fill="#5599FF"/>
<path d="M52.6013 32.8106C52.1307 32.8106 51.8431 32.2093 52.0784 31.7125C52.2091 31.4511 52.3921 31.2158 52.6536 31.0851C53.464 30.6929 55.634 30.9282 56.6013 32.2616C57.464 33.438 54.7712 32.7844 52.6013 32.8106Z" fill="#5599FF"/>
<path d="M44.3925 35.8953C43.0592 35.3202 41.5428 35.477 40.1572 35.7907C40.0004 35.843 39.8958 35.6339 40.0265 35.5293C41.2291 34.5358 43.5036 34.4051 44.4709 35.7646C44.5494 35.8169 44.4971 35.9215 44.3925 35.8953Z" fill="#5599FF"/>
<path d="M54.6669 36.4445C54.0395 36.0001 53.1244 36.0785 52.3924 36.157C52.131 36.1831 51.8695 36.2354 51.582 36.3138C51.5035 36.34 51.4251 36.2093 51.4774 36.157L51.5297 36.1047C52.1833 35.4249 53.2029 35.2681 54.0918 35.6079C54.4055 35.7387 54.7192 35.9217 54.8761 36.2877C54.9545 36.4184 54.7715 36.5491 54.6669 36.4445Z" fill="#5599FF"/>
<path d="M56.6023 42.5357C56.6546 44.0782 56.733 45.0717 56.733 45.0717L59.6873 44.2612C59.6873 44.2612 58.7984 39.137 59.2428 34.7187C60.1056 26.3527 59.2428 23.9998 59.2428 23.9998C58.7984 21.8298 57.3605 19.8952 54.1709 19.32C53.2036 18.7187 52.1317 18.2481 50.9552 17.856C46.7461 16.3658 37.4912 13.2547 30.3801 17.9344C23.269 22.6141 23.0075 31.32 22.0402 37.1239C21.0729 42.9279 14.7461 47.1632 14.7461 47.1632L16.2101 49.2547C16.9945 49.8298 19.1121 47.2416 19.452 47.1632C19.7918 47.0847 17.5435 49.8037 17.5435 49.8037C18.1186 52.1305 20.5762 53.49 20.5762 53.49C20.5762 53.49 24.3932 51.0324 23.6088 52.1566C22.8245 53.2808 21.3605 54.1697 21.3605 54.1697C21.3605 54.1697 25.1775 57.5423 26.7461 57.2547C28.3147 56.9671 30.5631 53.3854 30.3801 54.1697C30.2232 54.954 28.9422 57.8298 28.9422 57.8298L31.0075 59.0063C37.5173 56.9148 32.3409 48.7056 36.0533 43.6599C39.7396 38.6141 35.0337 35.9213 37.9879 34.2481C38.7461 33.8037 39.4781 33.3331 40.1317 32.8102L44.367 33.5423C44.367 33.5423 47.1121 33.49 46.3278 27.9998C46.0402 25.9867 46.72 23.8429 46.9814 23.137C47.0075 23.137 47.0075 23.137 47.0337 23.137C46.9291 23.8429 46.7461 25.9344 47.3474 28.6272C48.184 32.4181 45.5696 33.8821 45.5696 33.8821L48.2101 34.7187C50.903 33.3854 48.733 29.124 48.2101 25.7253C48.0533 24.6272 48.2624 23.9475 48.6284 23.5553C50.4585 24.1043 51.635 24.7318 51.7396 24.1828C56.0533 25.2547 56.1056 30.9279 56.2363 31.0847C56.184 32.1305 56.0533 33.9083 56.0271 36.2089C56.0271 37.2808 56.1317 39.3462 56.0533 40.5488C55.9749 42.0128 55.8441 43.3723 55.635 44.7318C55.2428 46.8233 54.6415 49.0194 53.7788 50.3789C52.0533 53.0717 50.6938 55.3462 48.2101 56.4965C45.7526 57.6207 42.9552 57.856 42.9552 57.856C42.9552 57.856 43.7396 58.3527 45.5958 58.4573C47.452 58.5619 48.7853 57.8298 50.1448 57.6207C51.5043 57.3854 54.6154 58.2481 54.6154 58.2481C54.9552 57.6468 54.72 55.4246 55.0598 55.869C55.3997 56.3135 55.3474 58.2481 55.3474 58.2481L58.1448 58.7449C58.7461 57.3331 58.8245 54.8233 58.8245 54.8233C58.8245 54.405 58.7984 53.9867 58.7722 53.5161C58.3278 49.0717 56.5762 48.3135 56.6023 42.5357Z" fill="#5599FF"/>
<path d="M45.7516 41.2023C44.549 41.2284 40.8366 41.2546 39.6863 41.2807C37.6994 41.3069 36.2092 39.5814 36.3922 37.6206C36.4183 36.967 36.3922 36.052 36.4183 35.3984C36.4706 33.699 37.9869 32.2611 39.6863 32.3134L44.1046 32.3657C44.4445 32.3657 45.4118 32.3918 45.7516 32.3918C47.1634 32.3657 48.4967 33.4114 48.8105 34.7971C48.915 35.1892 48.8889 35.6075 48.8889 35.9474V38.1696C48.8628 39.8167 47.3987 41.2284 45.7516 41.2023ZM45.7516 40.6271C47.1111 40.6794 48.366 39.5029 48.3922 38.1435C48.4183 37.4376 48.3922 36.6794 48.3922 35.9474C48.549 34.3526 47.3464 32.8886 45.7255 32.9408C44.6013 32.967 40.8366 32.9931 39.6601 33.0193C38.2484 33.0193 37.0458 34.3003 37.1503 35.7121C37.1503 35.8951 37.1503 36.3657 37.1503 36.5487C37.1765 37.1239 37.098 38.1173 37.2288 38.6402C37.4902 39.7382 38.536 40.5748 39.6601 40.5748H40.2092C40.9673 40.5748 44.9673 40.6271 45.7516 40.6271Z" fill="#5599FF"/>
<path d="M56.2874 33.0717L54.222 33.0978C53.6468 33.124 52.9671 33.0194 52.4704 33.3593C51.9998 33.673 51.7906 34.2482 51.8168 34.7972C51.8168 35.4769 51.8168 36.1828 51.7906 36.8625L51.7645 36.758C52.1305 38.039 52.6272 39.2678 53.3854 40.3397L53.124 40.1828C53.3331 40.2351 53.6991 40.2351 53.9083 40.2351C54.6926 40.2612 55.6076 40.3135 56.3919 40.3135C57.124 40.3135 57.8298 39.7645 57.9867 39.0325C58.039 38.8233 58.039 38.4573 58.039 38.2482C58.039 37.124 58.0651 36.0259 58.0128 34.9017C58.0651 33.9083 57.307 33.0194 56.2874 33.0717ZM56.2874 32.2874C57.673 32.2874 58.6403 33.6207 58.405 34.9279C58.3527 36.0521 58.3789 37.1501 58.3789 38.2743C58.5096 39.5815 57.7253 40.758 56.3658 40.8625C55.7906 40.8887 55.2416 40.8887 54.6926 40.9148C54.405 40.9148 53.6991 40.9671 53.4377 40.9671C53.307 40.9933 53.0978 40.9671 52.9671 40.9671C52.8625 40.9671 52.758 40.8887 52.7057 40.8102C51.8952 39.6076 51.32 38.2743 50.9802 36.8887C50.9802 35.9998 50.9017 35.1109 50.9802 34.222C51.137 33.1763 52.0782 32.2874 53.1501 32.2612C53.8821 32.2351 55.5553 32.2874 56.2874 32.2874Z" fill="#5599FF"/>
<path d="M48.6011 34.6924C49.307 34.3787 50.0913 34.248 50.8756 34.3003C51.137 34.3264 51.3985 34.4048 51.6338 34.614L51.9736 34.9016C52.3135 35.1892 51.8952 35.6859 51.5553 35.3983C51.137 35.0323 50.6403 35.0846 50.1436 35.1107C49.6468 35.163 49.1762 35.2676 48.7057 35.4506C48.2612 35.6336 47.9736 34.98 48.3919 34.7709L48.6011 34.6924Z" fill="#5599FF"/>
<path d="M36.8366 35.6339C36.6535 36.0522 36.4444 36.1045 36.1045 36.0784L35.3464 36.1045C33.83 36.1045 32.2875 36.0784 30.7712 35.8431C30.2483 35.8169 30.2222 35.0849 30.7451 35.0588L36.8104 34.8496C36.9934 34.8496 37.1241 35.0326 37.0457 35.1895L36.8366 35.6339Z" fill="#5599FF"/>
<path d="M75.3463 22.039C91.2155 52.6011 63.3201 87.0848 30.0652 78.6665C15.1371 74.954 3.1371 62.0129 0.653439 46.8233C-2.17009 31.7122 4.65344 15.4769 17.4116 6.92789C34.9018 -5.09825 59.1371 -1.09825 71.66 16.1044C71.7384 16.1828 71.7123 16.3135 71.6077 16.3919C71.5293 16.4704 71.3985 16.4442 71.3201 16.3397C69.5946 14.1174 67.6338 12.1044 65.49 10.3004C61.9606 7.2939 57.8299 4.94096 53.4639 3.34619C31.2417 -4.7061 6.84952 8.67952 1.98677 31.9214C-3.50342 57.9606 18.6404 81.9344 45.0456 78.3527C65.4116 75.7906 80.5489 56.9933 78.8757 36.5488C78.5097 31.6076 77.2025 26.7187 75.0325 22.222C74.9802 22.1436 75.0325 22.039 75.111 21.9867C75.1894 21.9344 75.294 21.9606 75.3463 22.039Z" fill="#5599FF"/>
</g>
</svg>
