<svg width="80" height="80" viewBox="0 0 80 80" fill="none" xmlns="http://www.w3.org/2000/svg">
<mask id="mask0_756_5008" style="mask-type:alpha" maskUnits="userSpaceOnUse" x="0" y="0" width="80" height="80">
<circle cx="39.8689" cy="39.8689" r="39.8689" fill="#D9D9D9"/>
</mask>
<g mask="url(#mask0_756_5008)">
<path d="M61.7257 72.7844C61.5427 72.9151 61.3336 73.0458 61.1506 73.1765C60.9414 73.3072 60.7584 73.438 60.5492 73.5425C60.3662 73.6471 60.2094 73.7517 60.0264 73.8563C60.0002 73.8824 59.9741 73.8824 59.9479 73.9085C59.3466 74.2746 58.7192 74.6144 58.0917 74.9282C57.9087 75.0327 57.6996 75.1373 57.5166 75.2157C57.5166 75.2157 57.4904 75.2419 57.4643 75.2419C57.2551 75.3465 57.046 75.451 56.8368 75.5556C56.4185 75.7648 55.9741 75.9478 55.5558 76.1308C55.3466 76.2353 55.1113 76.3138 54.9022 76.3922C54.693 76.4706 54.4577 76.5752 54.2486 76.6536C54.0394 76.7321 53.8041 76.8367 53.595 76.9151C53.595 76.9151 53.595 76.9151 53.5689 76.9151C53.3597 76.9935 53.1244 77.0719 52.9153 77.1504C52.4447 77.3072 51.9479 77.4641 51.4774 77.621C51.3205 77.6733 51.1375 77.7255 50.9806 77.7778C50.4839 77.9347 49.9872 78.0654 49.4904 78.17C49.3074 78.2223 49.1244 78.2484 48.9153 78.3007C48.4447 78.4053 47.9479 78.5099 47.4774 78.6144C47.3728 78.6406 47.2943 78.6406 47.1898 78.6667C47.0329 78.6929 46.8499 78.719 46.693 78.7451C46.4577 78.7713 46.2486 78.8236 46.0133 78.8497C45.9087 78.8759 45.8042 78.8759 45.6996 78.902C45.5689 78.9282 45.412 78.9543 45.2551 78.9543C44.8368 79.0066 44.3924 79.0589 43.9741 79.1112C43.8434 79.1373 43.6865 79.1373 43.5558 79.1634H43.5296C43.3466 79.1896 43.1636 79.1896 42.9806 79.2157C42.7976 79.2419 42.6146 79.2419 42.4316 79.2419C42.327 79.2419 42.1963 79.268 42.0917 79.268C41.8826 79.268 41.6996 79.2942 41.5166 79.2942C41.2551 79.2942 41.0198 79.3203 40.7584 79.3203C40.497 79.3203 40.2617 79.3203 40.0002 79.3203C39.8172 79.3203 39.6342 79.3203 39.4512 79.3203C28.4185 79.1634 18.51 74.4837 11.4251 67.0589C11.4251 67.0589 11.4251 67.0327 11.3989 67.0327C10.6146 66.3268 11.2944 62.5621 14.4577 60.1831C18.4316 57.1765 27.9479 55.2942 27.9479 55.2942C27.9479 55.2942 31.6342 54.6929 45.3074 57.5425C53.3074 59.2157 59.3989 61.6471 62.7976 68.2353C63.5035 69.5948 64.2094 71.6863 61.7257 72.7844Z" fill="#E7E7E7"/>
<path d="M45.3857 57.255C50.4053 58.2746 55.7648 59.3727 59.8955 62.6929C61.2812 63.8171 62.1962 65.4642 62.9544 67.059C63.3204 67.8433 63.6864 68.6537 63.974 69.5165C64.1308 70.0916 64.3661 70.7452 64.2354 71.425C64.2093 71.608 64.0524 71.8433 63.9217 71.974C63.3204 72.5753 62.6668 72.9413 62.0132 73.4119C58.17 76.0786 53.7517 77.9609 49.1766 78.9544C38.9805 81.1766 27.9478 79.4511 18.9805 74.0916C16.0001 72.2877 13.255 70.0916 10.9021 67.5034C10.6406 67.1897 10.6406 66.6668 10.6406 66.3269C10.6668 65.5426 10.8759 64.7844 11.1374 64.0786C11.7648 62.4576 12.5753 60.8367 13.9609 59.7125C14.9544 59.0328 16.0262 58.4576 17.1243 57.9871C20.5753 56.523 24.2093 55.5034 27.9478 55.0851C28.2615 55.0589 28.3138 55.5034 28.0001 55.5557C24.4184 56.2877 20.8628 57.3857 17.5426 58.8759C16.34 59.4773 15.0589 60.0001 14.0916 60.9413C13.1766 61.9348 12.523 63.1635 12.0001 64.4184C11.6602 65.1766 11.4249 66.3792 11.5295 66.9805C13.1766 68.9413 15.1112 70.6668 17.2027 72.157C28.6537 80.157 46.0393 80.6799 58.2223 74.0132C59.3204 73.4119 60.3923 72.7322 61.4119 72.0263C61.9086 71.6864 62.4315 71.3988 62.8236 71.0067C62.8498 70.9805 62.8236 71.0067 62.8236 71.0328C62.8236 71.059 62.7975 71.0851 62.7975 71.0851C62.8236 70.7714 62.7191 70.3531 62.5883 69.9348C62.1178 68.4184 61.3596 66.8237 60.5491 65.438C59.2681 63.3727 57.0981 62.0655 54.9021 61.0197C53.3857 60.3139 51.791 59.7648 50.17 59.242C48.5491 58.7191 46.9021 58.2746 45.255 57.8825C44.8367 57.7779 44.9674 57.1766 45.3857 57.255Z" fill="#5599FF"/>
<path d="M70.4048 88.9933H4.28711C4.28711 88.9933 7.37208 79.0064 9.69887 69.7776C10.6139 66.1698 12.3133 61.2548 14.4048 59.8168C17.2806 57.8299 22.0387 56.7057 24.1825 55.9476C25.6727 55.4247 26.8231 55.2417 27.8949 54.9541C27.8949 55.0848 27.9211 55.1894 27.9211 55.3201C27.9211 55.3201 30.3002 60.6535 37.6466 63.6077C43.6335 66.0391 45.725 65.0718 46.274 62.3789C46.6139 60.6535 47.4767 60.2613 46.9276 59.3463C46.6139 59.0848 46.4048 58.6927 46.3002 58.3005L46.091 57.4378C46.5878 57.3332 47.0583 57.2025 47.5289 57.0456C47.6858 56.9933 47.8165 56.941 47.9734 56.8887C50.8753 58.5358 54.8753 59.0587 59.7119 62.6142C60.5747 63.2417 63.0845 65.9606 64.1302 72.575C65.5943 81.2809 70.4048 88.9933 70.4048 88.9933Z" fill="#5599FF"/>
<path d="M70.8755 89.2547C51.2416 89.3331 23.6337 89.5946 4.2873 89.5423C3.97358 89.5423 3.73828 89.307 3.73828 88.9933C4.49645 85.7514 5.72521 81.0717 6.56181 77.8037C7.21541 75.1632 8.02586 72.2089 8.67946 69.5423C9.62064 66.0652 10.7971 61.5423 13.7514 59.2416C14.7187 58.6142 15.7906 58.1697 16.8102 57.7776C19.0585 56.941 21.3592 56.3135 23.6599 55.6076C24.967 55.1109 26.4311 54.7972 27.7906 54.405C28.0782 54.3266 28.3657 54.4835 28.4442 54.7449C28.4703 54.8233 28.4703 55.1632 28.4965 55.2416L27.9474 54.7449C28.1566 54.7449 28.3657 54.8756 28.4442 55.0586C28.6533 55.5031 28.9409 55.9737 29.2285 56.392C31.9997 60.392 36.4703 62.954 41.1239 64.1567C42.4572 64.4442 44.235 64.7841 45.2023 63.6076C45.8298 62.7972 45.8036 61.5423 46.3004 60.6534C46.4834 60.2351 46.6925 59.9737 46.4834 59.6076L46.588 59.7384C46.2481 59.4246 45.9866 59.0325 45.8559 58.6142C45.7514 58.222 45.6729 57.8821 45.5945 57.5423C45.5161 57.2547 45.7252 56.941 46.0128 56.8887C46.6141 56.758 47.2416 56.575 47.8167 56.3658C47.9736 56.3135 48.1304 56.3397 48.2612 56.392C49.0193 56.7318 49.8036 57.0194 50.6141 57.307C53.1501 58.1174 55.686 58.9802 58.0128 60.3135C58.7971 60.758 59.5553 61.2547 60.2873 61.7776C61.1501 62.4312 61.6991 63.1632 62.2481 64.0259C64.235 67.137 64.8625 70.7188 65.5161 74.2743C66.5095 78.8756 68.235 83.3201 70.2742 87.5553L70.5618 88.1305L70.6925 88.4181L70.771 88.5488L70.7971 88.6272L70.8233 88.6534C70.8233 88.6272 70.8494 88.6795 70.8755 88.758C70.9801 88.941 70.954 89.1501 70.8755 89.2547ZM69.9344 88.7318C69.8559 88.8364 69.8298 89.0194 69.8821 89.1501C69.9082 89.2286 69.9344 89.2808 69.9344 89.2547L69.9082 89.2285L69.8559 89.1501L69.7775 89.0194C68.052 86.0652 66.6141 82.954 65.4899 79.7384C64.7579 77.6469 64.1566 75.5292 63.7644 73.3331C63.2938 70.4312 62.5618 67.3985 60.9932 64.8887C60.5749 64.2351 60.052 63.5292 59.4246 63.0586C58.7187 62.5619 58.0128 62.0652 57.2808 61.6469C55.8167 60.758 54.2481 60.0521 52.6533 59.4246C51.0585 58.771 49.3592 58.2743 47.7644 57.3593L48.2089 57.3854C47.5814 57.6207 46.9278 57.8037 46.2481 57.9344L46.6664 57.2808C46.8232 57.856 46.8494 58.5357 47.32 58.9279C47.6076 59.2416 47.7383 59.7906 47.6599 60.2351C47.5814 60.6272 47.4246 60.8887 47.32 61.124C47.0847 61.6207 46.9278 62.039 46.8232 62.588C45.9082 67.137 40.6533 65.3854 37.6729 64.2089C33.4899 62.5357 29.5945 59.6076 27.4768 55.5554L27.9736 55.8691C27.686 55.8691 27.4507 55.6599 27.4246 55.3723L27.3984 55.0325L28.0782 55.5031C26.6141 55.7645 25.3069 55.9737 23.9474 56.4704C20.8363 57.4377 17.5161 58.2482 14.8232 60.1044C12.0259 62.1436 10.4311 69.3854 9.5422 72.7318C8.57488 76.4181 7.55527 80.0782 6.48338 83.7122C5.93436 85.5423 5.38534 87.3462 4.81018 89.1763L4.2873 88.4704C23.2677 88.4442 50.6925 88.575 69.9344 88.7318Z" fill="#5599FF"/>
<path d="M43.895 65.5684C43.9212 65.5945 43.9212 65.5945 43.9473 65.6207C43.9473 65.5945 43.9473 65.5684 43.9473 65.5684C43.9473 65.5684 43.9212 65.5684 43.895 65.5684Z" fill="#E7E7E7"/>
<path d="M50.1434 55.8689C50.1434 55.8689 50.1434 53.3591 47.9473 52.7055C43.895 51.4768 36.2349 50.9277 31.1107 50.9277C31.1107 50.9277 28.9408 51.0846 28.1565 51.4768C27.3983 51.8428 26.4833 52.0781 26.2741 53.7774C26.1695 54.614 26.1695 55.9473 26.1957 57.1238C26.2218 58.6924 26.8493 60.2088 27.9473 61.333C29.6989 63.1369 33.3329 65.4898 37.4898 66.1957C47.5029 67.8689 50.2218 63.5029 50.1434 61.1761C50.0388 58.4833 50.1434 55.8689 50.1434 55.8689Z" fill="#5599FF"/>
<path d="M49.5944 55.843C49.5421 54.7188 48.9408 53.5162 47.7905 53.2024C47.4245 53.0979 47.0585 52.9933 46.7186 52.9149C41.6206 51.7907 36.3395 51.5292 31.1107 51.4508C30.431 51.5292 29.1238 51.6338 28.3657 51.9475C28.0519 52.1044 27.6598 52.2613 27.3983 52.4704C26.797 52.9933 26.7709 53.9083 26.7447 54.7188C26.7186 55.1894 26.7186 55.66 26.7186 56.1305C26.5617 59.3201 27.9735 61.0194 30.5094 62.7188C32.4179 64.026 34.5617 64.9671 36.8362 65.49C39.9473 66.0913 43.3983 66.3789 46.3787 65.1763C47.9473 64.5488 49.4114 63.2155 49.5944 61.49C49.6206 61.124 49.5944 60.4966 49.5944 60.1305C49.5421 58.7711 49.5421 57.2286 49.5944 55.843ZM50.6663 55.8691C50.6402 57.2547 50.6402 58.7449 50.6663 60.1305C50.6663 60.575 50.7186 61.2024 50.6663 61.6207C50.431 63.8168 48.6794 65.4639 46.7709 66.2482C43.7643 67.5031 40.4179 67.2939 37.2807 66.7972C36.6009 66.6665 35.7643 66.4835 35.1107 66.2743C32.2872 65.3593 29.6467 63.8952 27.529 61.8037C26.0127 60.3135 25.4375 58.222 25.5683 56.1567C25.6467 54.6403 25.3853 52.8364 26.6402 51.66C27.0323 51.3462 27.4245 51.1632 27.8428 50.9802C28.9147 50.5619 29.9604 50.4835 31.0585 50.3789C34.5879 50.4051 38.1173 50.5881 41.6467 51.0064C43.7382 51.2678 45.8558 51.5554 47.8951 52.1567L48.0519 52.209L48.2349 52.2874C49.15 52.7318 49.5421 53.6992 50.065 54.4835C50.4049 54.9018 50.6402 55.3462 50.6663 55.8691Z" fill="#5599FF"/>
<path d="M26.3787 57.0977C26.9539 65.4898 39.8951 74.4571 47.5814 69.8035C49.5944 68.4441 50.1435 65.8558 50.0912 63.5813C50.0912 62.797 50.0127 62.0127 49.9605 61.2022C49.9343 61.0192 50.248 60.9669 50.2742 61.15C51.3722 65.5421 50.8232 70.4049 45.699 71.712C38.5095 73.4637 30.3526 68.1826 27.1892 61.8558C26.4572 60.3918 25.9866 58.7709 25.9604 57.15C25.9866 56.8885 26.3526 56.8362 26.3787 57.0977Z" fill="#E7E7E7"/>
<path d="M47.843 64.2093C47.294 66.9021 43.7384 68.523 37.7515 66.0916C31.5293 63.5818 28.8365 57.5949 28.1567 55.8171C31.843 48.9152 29.2809 44.1308 29.2809 44.1308C37.7777 43.3988 45.2025 53.3335 45.2025 53.3335L46.3528 58.2485C46.4574 58.6668 46.6665 59.0328 46.9803 59.2942C47.5293 60.2616 48.1829 62.4838 47.843 64.2093Z" fill="#E7E7E7"/>
<path d="M28.0262 55.8956C28.5229 55.1374 28.8366 54.2485 29.0458 53.3858C29.4379 51.5818 29.5686 49.7518 29.5948 47.9217V47.242C29.5163 46.5622 29.2811 45.8563 29.0196 45.2289C28.6797 44.3923 29.9085 43.8694 30.3007 44.706C30.3529 44.8106 30.3529 44.9936 30.3529 45.0982C30.4314 48.6537 30.5882 53.2289 28.3399 56.1831C28.183 56.34 27.8693 56.1047 28.0262 55.8956Z" fill="#5599FF"/>
<path d="M45.4904 53.281C45.8825 53.5163 46.0132 53.83 46.0655 54.1437C46.2224 54.7712 46.1701 55.4509 46.327 56.1045C46.4577 56.732 46.8498 57.3333 46.9544 57.9869C47.0851 58.6666 47.4773 60.1045 47.6341 60.8104C47.6864 60.9672 47.5819 61.1502 47.3988 61.1764C47.2943 61.2025 47.2158 61.1764 47.1374 61.1241C46.7975 60.8365 46.6407 60.5489 46.4315 60.1829C46.0917 59.5555 45.8564 58.9803 45.6472 58.2744C45.4642 57.647 45.5426 56.9672 45.3858 56.3136C45.2551 55.6862 44.889 55.0849 44.7583 54.4313C44.6799 54.1176 44.6537 53.7777 44.889 53.3855C45.0459 53.2287 45.3073 53.1764 45.4904 53.281Z" fill="#5599FF"/>
<path d="M47.3724 60.1831C42.3789 59.9217 38.3005 58.353 34.3267 51.2681C37.6731 54.2223 41.6208 55.3465 45.7776 55.8694L46.3267 58.2746C46.4312 58.6929 47.0587 59.9217 47.3724 60.1831Z" fill="#5599FF"/>
<path d="M47.1634 59.2159C48.0523 60.8891 48.5752 62.9806 48.0262 64.8368C47.6079 66.144 46.4052 67.1113 45.0981 67.4773C42.0654 68.2878 38.5621 67.0068 35.8693 65.5688C32.549 63.7126 30.0915 60.6015 28.5229 57.2028C28.4183 56.9414 28.7843 56.7322 28.9412 56.9937C29.4902 58.0917 30.1177 59.1636 30.8235 60.1309C31.5294 61.1244 32.3399 62.0394 33.2549 62.8499C35.9216 65.2551 39.5294 66.7453 43.1373 66.7453C46.8497 66.6407 48.2615 64.68 47.3987 61.0721C47.268 60.4969 47.0588 59.8956 46.7713 59.3989C46.6144 59.1898 47.0065 58.9545 47.1634 59.2159Z" fill="#5599FF"/>
<path d="M57.2811 27.8173C57.7517 30.0133 57.987 31.7911 56.7059 37.6473C55.451 43.4774 57.8824 49.3598 51.7125 54.7192C47.5556 58.3271 40.2876 59.0068 34.4837 55.0591C32.5229 53.7258 32.0001 47.5035 30.4576 45.1245C29.804 44.131 29.4118 45.7258 27.9216 44.0787C25.8563 41.8303 23.3726 37.3075 24.6014 29.3075C26.5883 16.3401 36.8628 14.8238 44.4706 16.2617C52.1046 17.6996 56.0262 22.0395 57.2811 27.8173Z" fill="#E7E7E7"/>
<path d="M29.2025 46.3792C28.6012 45.3858 27.843 44.523 27.1372 43.608C26.0914 42.1962 25.3071 40.5753 24.7842 38.9021C22.5358 31.7387 23.7385 22.4054 30.379 17.9348C36.5228 13.7779 48.2613 15.0328 53.647 20.0525C56.3398 22.4838 57.83 26.0132 58.1437 29.5688C58.3005 31.9479 57.7254 34.2485 57.2287 36.5492C56.6535 38.7976 56.5228 41.0459 56.5228 43.3727C56.4966 45.6995 56.3921 48.1309 55.5032 50.327C54.1437 53.6734 51.294 56.3923 47.8692 57.5427C43.3724 59.1113 38.0653 58.2224 34.379 55.2159C34.2221 55.0851 34.379 54.876 34.562 54.9544C39.3986 57.6995 45.7515 58.1701 50.4574 55.0067C53.2548 53.1243 55.1894 50.144 55.6339 46.7976C55.9999 44.523 55.8953 42.2224 56.1045 39.9217C56.1829 38.9021 56.4705 37.4904 56.6796 36.4708C56.9934 34.7714 57.2025 33.0721 57.1764 31.3727C57.1502 29.6995 56.7842 28.0525 56.2875 26.4577C54.562 20.7845 49.6208 17.4381 43.9215 16.523C35.3986 15.0328 27.9476 18.1962 25.7254 27.059C24.7581 31.3989 23.9999 36.1832 25.83 40.3923C26.4836 41.9871 27.5555 43.3466 28.7842 44.523L29.9868 45.8041C30.5097 46.327 29.6208 47.0067 29.2025 46.3792Z" fill="#5599FF"/>
<path d="M32.2872 38.0654C32.2872 38.0654 31.4767 34.1438 27.6597 34.6144C24.3656 35.0327 23.2153 42.9281 30.6924 45.1242" fill="#E7E7E7"/>
<path d="M30.353 41.6995C29.7517 41.3596 29.3334 40.7844 29.3073 40.0786C29.3334 39.5557 29.4118 38.9544 29.2811 38.4315C29.2027 37.9348 28.6798 37.804 28.2876 37.8302C27.8693 37.9086 27.6079 38.4315 27.5295 38.8498C27.5295 38.8759 27.5033 38.9544 27.5033 38.9805C27.4772 39.1112 27.268 39.1112 27.2158 38.9805C26.8759 37.9609 27.6341 36.8367 28.7321 36.9674C30.2746 37.072 30.4837 38.6929 30.1961 39.9217C30.0393 40.4446 30.2484 40.9152 30.536 41.3596L30.5883 41.438C30.719 41.5949 30.5099 41.804 30.353 41.6995Z" fill="#5599FF"/>
<path d="M51.2678 35.2943C51.66 37.1505 52.392 38.876 53.307 40.4969C54.1175 42.4839 52.026 44.3662 50.1698 44.2878C49.9606 44.2878 49.9345 44.0002 50.1175 43.9479C51.294 43.5819 52.3659 42.7976 52.5489 41.595C52.6273 41.229 52.5227 40.9152 52.3397 40.6015C51.477 38.9806 50.9541 37.1244 51.0848 35.2943C51.0848 35.1636 51.2678 35.1636 51.2678 35.2943Z" fill="#5599FF"/>
<path d="M32.1567 38.0919C31.5554 36.5494 30.2482 35.0853 28.4965 35.1115C28.3397 35.0853 28.0782 35.1376 27.9214 35.1376C27.4769 35.1638 27.1109 35.3206 26.771 35.6343C25.0978 37.3075 25.3854 40.2618 26.7449 42.118C27.2155 42.7716 27.8168 43.3468 28.4965 43.8174C29.1763 44.2879 29.9344 44.654 30.7449 44.9677C30.9279 45.02 30.8495 45.3075 30.6665 45.2814C28.9148 44.9154 27.2416 44.0526 26.0913 42.6147C24.3135 40.4709 23.9475 36.8892 26.0652 34.7977C26.5358 34.3794 27.1893 34.0657 27.8429 34.0657C28.0521 34.0657 28.3658 34.0134 28.575 34.0657C29.673 34.118 30.7188 34.667 31.3985 35.5298C31.9998 36.2618 32.3397 37.1507 32.4443 38.0396C32.4443 38.1964 32.209 38.2487 32.1567 38.0919Z" fill="#5599FF"/>
<path d="M49.3598 46.9283C49.3075 47.3728 49.2814 47.6865 49.203 47.9479C48.8892 49.3335 48.2618 48.6538 47.1114 48.6799C45.6735 48.7061 43.216 50.0917 42.6932 48.2355C42.5886 47.8956 42.5363 47.5819 42.5101 47.2943C42.2487 44.6799 44.8108 45.5427 47.3729 46.5362C48.3664 46.9545 48.9938 46.9806 49.3598 46.9283Z" fill="#E7E7E7"/>
<path d="M49.2029 48.1309L48.5231 47.9741C48.4185 47.9479 48.4447 47.8172 48.5493 47.7911L49.2551 47.7388C49.5166 47.7388 49.4904 48.1832 49.2029 48.1309Z" fill="#5599FF"/>
<path d="M50.1439 46.5885C49.6472 47.3728 48.523 47.0852 47.791 46.8761C46.6929 46.5623 43.2158 44.7846 42.6668 46.4055C42.5099 46.9284 42.6145 47.5297 42.7191 48.0787C42.7975 48.4447 42.9544 48.8107 43.2942 48.9937C43.8171 49.2552 44.3923 49.1244 44.9413 48.9676C45.7256 48.7584 46.4315 48.4186 47.2681 48.4186C47.6864 48.4186 48.1047 48.5493 48.4184 48.5493C48.5753 48.5493 48.6276 48.5231 48.706 48.4447C48.7844 48.3663 48.8629 48.1833 48.9152 48.0264C49.0197 47.6865 49.0982 47.2944 49.1766 46.9284C49.2027 46.8238 49.2812 46.7715 49.3857 46.7976C49.4642 46.8238 49.5165 46.8761 49.5165 46.9545C49.5165 47.2421 49.4903 47.5558 49.4642 47.8434C49.3073 48.9414 48.889 49.3074 47.7648 49.046C46.4054 48.8369 45.1766 49.4905 43.7648 49.3597C43.3465 49.3336 42.8759 49.0983 42.6145 48.7061C42.4838 48.5231 42.4054 48.2878 42.3269 48.131C42.0916 47.5297 41.8302 46.8499 41.9871 46.1702C42.6406 44.0787 45.4903 45.3074 46.8498 45.8826C47.608 46.1963 49.2289 47.1114 49.8825 46.4055C50.0132 46.3271 50.1962 46.4578 50.1439 46.5885Z" fill="#5599FF"/>
<path d="M42.5622 46.9809C43.1896 46.9547 44.3138 46.5626 44.7844 47.2423C44.8628 47.3469 44.889 47.373 45.0197 47.373C45.2027 47.3469 45.438 47.2162 45.6471 47.3207C45.987 47.3992 46.353 47.4776 46.6929 47.556C46.7713 47.5822 46.8236 47.6345 46.7975 47.7129C46.7713 47.7913 46.719 47.8436 46.6406 47.8175C46.2484 47.7652 45.8563 47.7652 45.4641 47.6606C45.2811 47.739 44.9674 47.8697 44.706 47.7652C44.5491 47.7129 44.4184 47.556 44.3138 47.4514C44.2615 47.3992 44.1569 47.3992 44.0785 47.3992C43.5818 47.373 43.0589 47.5822 42.5622 47.6606C42.0393 47.7129 42.0132 46.9024 42.5622 46.9809Z" fill="#5599FF"/>
<path d="M43.8174 36.5489C42.4057 36.4443 41.0985 35.843 40.0004 34.9541C39.7913 34.7973 40.0266 34.4835 40.2357 34.6404C41.0462 35.1633 41.9351 35.5293 42.9024 35.6862C43.2161 35.7384 43.556 35.7646 43.8436 35.7646C44.3665 35.7646 44.3665 36.575 43.8174 36.5489Z" fill="#5599FF"/>
<path d="M51.5033 36.1828C52.3138 36.0782 53.255 35.9475 53.8824 35.3723C53.9347 35.2939 54.0654 35.2939 54.1177 35.3723C54.353 35.6076 53.7517 35.9997 53.5948 36.1305C52.9935 36.5226 52.3138 36.7841 51.634 36.9671C51.4249 37.0194 51.2157 36.8886 51.1634 36.6795C51.085 36.4442 51.268 36.2089 51.5033 36.1828Z" fill="#5599FF"/>
<path d="M45.0721 34.1436C45.5688 34.4312 46.1962 34.0391 46.2224 33.4378C46.2224 33.124 46.1701 32.7842 45.961 32.4966C45.3335 31.66 42.2747 30.3789 40.157 30.9279C38.327 31.3985 42.7976 32.8364 45.0721 34.1436Z" fill="#5599FF"/>
<path d="M53.0983 34.4572C52.7323 34.7448 52.131 34.405 52.0526 33.8559C52.0003 33.5684 52.0264 33.2546 52.1572 32.9932C52.5755 32.2089 54.5101 31.137 56.0787 31.6599C57.4382 32.1566 54.85 33.1762 53.0983 34.4572Z" fill="#5599FF"/>
<path d="M40.8629 35.2676C40.6538 35.4506 40.5231 35.7382 40.4969 36.0257L40.4708 36.7578C40.4446 37.3852 40.9152 37.9081 41.5165 37.9342C42.144 37.9604 42.6668 37.4898 42.693 36.8885L42.7191 36.1565C42.7191 36.1303 42.7191 36.1042 42.7191 36.078C42.0132 36.0257 41.4381 35.7382 40.8629 35.2676Z" fill="#5599FF"/>
<path d="M51.5819 36.5229C51.5819 36.549 51.5819 36.549 51.5819 36.5752L51.5558 37.2549C51.5296 37.8301 51.9741 38.3268 52.5492 38.3529C53.1244 38.3791 53.6211 37.9346 53.6473 37.3595L53.6734 36.6797C53.6996 36.4183 53.595 36.183 53.4643 36C52.8891 36.3399 52.2355 36.4183 51.5819 36.5229Z" fill="#5599FF"/>
<path d="M57.4905 28.7845C57.4382 28.4708 57.3598 28.1571 57.3075 27.8172C57.0199 26.5362 56.6016 25.3335 56.0526 24.2094L52.9677 25.4904C52.0788 25.8564 51.0853 25.961 50.118 25.8041L37.8827 23.6865C36.3925 23.425 34.9546 24.2878 34.4579 25.6996C34.0918 26.7192 33.5167 28.1571 33.0461 29.1767C29.3337 29.778 28.1049 28.8891 25.1245 27.5035C24.8892 27.3989 24.5494 27.059 24.2879 26.9283C24.7585 24.5492 22.9546 14.6146 25.203 12.0264C25.9611 11.1636 26.7193 11.059 27.4513 11.3205C29.1507 11.9218 28.4448 11.5819 29.6735 10.2747C30.667 9.25511 31.9219 8.36622 33.4644 8.34008C34.2226 8.31393 34.8239 8.4708 35.3206 8.75838C36.8892 9.62112 38.7977 9.33354 40.2095 8.26165C40.6539 7.94792 41.1245 7.73877 41.6474 7.73877C42.4056 7.73877 43.0853 8.0525 43.6343 8.4708C44.6801 9.25511 46.0657 9.43812 47.3467 9.17668C47.4252 9.15053 47.5036 9.15053 47.582 9.15053C47.8958 9.15053 48.2356 9.22897 48.5232 9.35968C49.6213 9.83027 50.85 9.88256 51.9481 9.41197C52.4709 9.20282 53.0984 9.20282 53.7258 9.80413C54.5101 10.5623 55.5298 11.059 56.6278 11.0852C56.9154 11.0852 57.2814 11.2159 57.7258 11.5035C57.935 11.6603 58.118 11.9479 58.2487 12.3401C58.4579 12.9414 58.9546 13.3858 59.582 13.5688C59.9742 13.6996 60.2618 14.0917 60.3402 14.9806C60.5755 17.778 58.1441 26.51 57.4905 28.7845Z" fill="#5599FF"/>
<path d="M59.5298 13.5163C58.3794 13.9346 58.1703 13.6993 56.8631 13.3595C55.5559 13.0196 54.4056 14.4836 53.4644 12.9673C52.1049 10.7451 49.5951 12.2614 49.0984 11.8431C48.6017 11.4248 47.0592 10.0392 44.8892 11.5033C43.4513 12.4706 41.6213 10.7451 39.3206 10.7451C34.7193 10.7451 33.8827 14.1176 32.2879 12.5751C30.6932 11.0588 31.6082 12.0784 29.2553 12.4967C26.9023 12.915 25.6997 11.5033 25.6997 11.5033C26.2749 11.1111 26.85 11.1111 27.3991 11.2941C29.0984 11.8954 28.3925 11.5555 29.6213 10.2484C30.6147 9.22874 31.8696 8.33985 33.4121 8.31371C34.1703 8.28757 34.7716 8.44443 35.2683 8.73201C36.837 9.59476 38.7455 9.30717 40.1572 8.23528C40.6017 7.92155 41.0723 7.7124 41.5951 7.7124C42.3533 7.7124 43.033 8.02613 43.5821 8.44443C44.6278 9.22874 46.0134 9.41175 47.2945 9.15031C47.3729 9.12417 47.4513 9.12417 47.5298 9.12417C47.8435 9.12417 48.1834 9.2026 48.4709 9.33332C49.569 9.80391 50.7977 9.85619 51.8958 9.38561C52.4187 9.17646 53.0461 9.17646 53.6736 9.77776C54.4579 10.5359 55.4775 11.0327 56.5755 11.0588C56.8631 11.0588 57.2291 11.1895 57.6736 11.4771C57.8827 11.634 58.0657 11.9216 58.1964 12.3137C58.4056 12.8889 58.9023 13.3333 59.5298 13.5163Z" fill="#5599FF"/>
<path d="M32.0784 36.6796C32.0784 36.8365 31.8693 36.9149 31.7908 36.7581C31.1895 35.66 29.9869 34.3267 27.6862 34.6143C24.915 34.9541 23.6601 40.5751 27.7385 43.66C28.7059 44.3659 29.7255 44.7581 30.0392 44.8888C30.1176 44.9149 30.1438 44.9934 30.1438 45.0456L29.8823 46.8757C29.8562 46.9803 29.7516 47.0849 29.6732 47.0064C28.7581 45.9607 28.3921 45.3855 26.1961 43.111C24.6013 41.4639 22.7974 39.1371 22.5621 35.2679C22.3791 31.8692 23.1895 29.2025 24.2091 27.0326C24.2353 26.9541 24.3398 26.928 24.4183 26.9541C27.8693 28.5489 29.1503 29.4639 32.8627 28.9149C32.9934 28.8888 33.0719 29.0195 33.0196 29.1241C32.6013 29.9345 32.183 30.5881 31.7385 30.9019C30.4575 31.8953 31.9477 34.3005 32.0784 36.6796Z" fill="#D6D6D6"/>
<path d="M32.2616 36.6534C32.2878 37.0717 31.7388 37.1501 31.5819 36.7841C31.059 35.8429 30.1963 35.0848 29.1505 34.8756C27.9479 34.6403 26.7453 34.9018 26.0917 36.0521C24.8891 38.1436 25.5427 40.9933 27.242 42.6403C28.0786 43.3985 28.8891 44.4443 30.0656 44.758C30.1963 44.7841 30.2747 44.941 30.2486 45.0456V45.0717V45.124V45.2547V45.49C30.2486 45.8822 30.2486 46.4312 30.2224 46.8233C30.2224 47.2416 29.6734 47.5554 29.3858 47.1894C29.0721 46.8756 28.6015 46.2482 28.3139 45.8822C26.7192 43.8952 24.6538 42.1697 23.5819 39.7907C21.961 36.2351 22.3009 32.0521 23.608 28.4704C23.8172 27.9475 24.0002 27.3985 24.2878 26.9279C24.3662 26.8756 24.4446 26.9018 24.5231 26.9541C26.2224 27.7122 28.0263 28.758 29.9087 28.9933C30.876 29.0979 31.8433 29.0456 32.7845 28.9148C32.863 28.9148 32.9414 28.8626 33.0198 28.9148C33.2551 29.0456 32.9414 29.4116 32.8891 29.5946C32.6538 30.1175 32.3662 30.6665 31.9479 31.0586C31.1113 31.8691 32.1571 33.5684 32.2616 34.6142C32.3139 35.3201 32.2094 35.9998 32.2616 36.6534ZM31.8695 36.6795C31.8433 36.0521 31.4512 35.4769 31.1897 34.9018C30.7976 33.7776 30.3793 32.4965 30.8237 31.2939C30.9806 30.9279 31.2943 30.6403 31.608 30.4312C32.0263 30.039 32.3924 29.5162 32.6538 28.9933C32.5754 29.0979 32.6799 29.3854 32.8891 29.3593C29.3597 29.9606 27.4512 28.8626 24.3139 27.3724L24.2616 27.3462C24.3662 27.3985 24.4969 27.3462 24.5492 27.2416V27.2155C24.4708 27.3985 24.3662 27.5815 24.2878 27.7907C22.693 31.4508 22.2747 35.9214 24.0786 39.5815C25.2028 41.8822 27.2682 43.4769 28.8368 45.4639C29.0982 45.7776 29.6473 46.4312 29.9087 46.771C29.8303 46.6665 29.5688 46.6403 29.5165 46.771L29.4904 46.8233C29.5165 46.6926 29.5427 46.5358 29.595 46.405C29.6995 45.9867 29.8564 45.4639 29.961 45.0194C29.961 44.9933 29.961 44.9933 29.961 44.9933C29.7257 44.8887 29.4643 44.7841 29.229 44.6795C28.6277 44.4181 27.9479 44.2874 27.3728 43.9214C25.4381 42.588 24.3662 39.9998 24.8368 37.6469C25.1244 35.9737 26.3531 34.1959 28.2355 34.3528C29.778 34.3266 31.2159 35.2416 31.9218 36.6011L31.9479 36.6534C31.9218 36.6273 31.8956 36.6273 31.8695 36.6795Z" fill="#5599FF"/>
<path d="M32.1046 30.5882C31.9738 30.7189 31.8693 30.8496 31.7385 30.928C31.4248 31.1633 31.268 31.5032 31.2157 31.8953C29.5948 31.9738 27.268 31.294 26.4575 31.0326C26.2745 30.9803 26.1699 30.8234 26.1699 30.6404V30.5097C26.1699 30.2221 26.4314 30.0391 26.6928 30.0914C28.5229 30.5882 32 30.5882 32.1046 30.5882Z" fill="#5599FF"/>
<path d="M31.5819 34.0917C30.144 33.9871 28.7583 33.7257 28.1309 33.5949C27.9217 33.5427 27.791 33.3858 27.791 33.1766C27.791 32.9152 28.0263 32.7322 28.2877 32.7583C29.4642 32.9413 30.7191 32.9152 31.3204 32.8891C31.3466 33.2551 31.4511 33.6472 31.5819 34.0917Z" fill="#5599FF"/>
<path d="M29.36 38.876C29.36 38.876 27.2685 38.5623 27.4254 41.4904C27.5038 42.9806 27.5038 43.791 27.4777 44.2093C27.4515 44.4969 27.6345 44.7583 27.896 44.8629C28.2097 44.9936 28.5496 44.8629 28.7064 44.5492C28.9417 44.1309 29.2032 43.5557 29.2032 43.0851C29.2032 42.3008 30.0398 41.5949 30.0398 41.5949C30.0398 41.5949 29.2816 40.9413 29.36 38.876Z" fill="#E7E7E7"/>
<path d="M29.2814 38.9544C29.2814 38.9806 29.3076 39.0067 29.3337 39.0067C29.3337 39.0067 29.3337 39.0067 29.3076 39.0067H29.2553C28.0004 39.1113 27.6082 40.2093 27.6605 41.3335C27.6867 42.0655 27.739 42.7976 27.7128 43.5034C27.7651 43.8956 27.5298 44.4185 27.922 44.6276C28.1573 44.7584 28.471 44.6538 28.5756 44.3923C28.8109 43.9218 29.0462 43.4512 29.0462 42.9283C29.1507 42.327 29.5429 41.8564 29.9612 41.4904V41.6995C29.4122 41.1244 29.2814 40.34 29.203 39.608C29.2292 39.425 29.2292 39.1374 29.2814 38.9544ZM29.4645 38.7714C29.5429 39.5034 29.5429 40.2616 29.8566 40.9152C29.935 41.0982 30.0658 41.3074 30.2226 41.4381C30.3272 41.5165 30.3272 41.6734 30.2226 41.7518C29.8566 42.0917 29.5429 42.51 29.4906 42.9806C29.4906 43.5557 29.2553 44.1048 28.9939 44.6015C28.7847 45.0459 28.1834 45.2812 27.739 45.0198C27.4514 44.8629 27.2422 44.5492 27.2422 44.2093C27.2422 43.9479 27.2684 43.7387 27.2684 43.4773C27.2684 42.7453 27.2161 42.0394 27.1899 41.3074C27.1899 40.8368 27.2161 40.2878 27.4252 39.8172C27.6867 39.0851 28.4971 38.5884 29.2814 38.7191C29.3599 38.7191 29.4383 38.7453 29.4645 38.7714Z" fill="#5599FF"/>
<path d="M29.0198 69.8302C29.8825 66.0655 28.7583 61.8302 27.791 58.0655C27.3989 56.5753 27.0067 55.1636 26.8237 53.9348C26.4838 51.8694 26.7191 49.9087 27.5557 48.0786C28.5753 45.8041 28.4185 43.8694 28.4185 43.791L27.8956 43.8433C27.8956 43.8694 28.0524 45.7518 27.0851 47.8694C26.2224 49.7779 25.9609 51.8433 26.3008 54.0132C26.51 55.2681 26.876 56.706 27.2681 58.1962C28.2355 61.8825 29.3335 66.0655 28.4969 69.6995C28.0263 71.7126 28.9413 75.0067 30.2485 78.3008C30.4577 78.327 30.6407 78.3531 30.8498 78.3792C29.5165 75.0851 28.5753 71.7649 29.0198 69.8302Z" fill="#5599FF"/>
<path d="M27.5035 43.0066C27.5296 43.5818 27.5035 43.9739 27.5035 44.2092C27.4773 44.4968 27.6603 44.7582 27.9218 44.8628C28.2355 44.9935 28.5754 44.8628 28.7322 44.5491C28.9675 44.1308 29.229 43.5556 29.229 43.085C29.229 43.0589 29.229 43.0066 29.229 42.9805C28.7061 43.1896 28.0786 43.3465 27.5035 43.0066Z" fill="#E7E7E7"/>
<path d="M27.5818 43.1113C27.6079 43.4773 27.6341 43.8172 27.6341 44.1832C27.6079 44.3401 27.6602 44.4969 27.7648 44.6276C28.1047 44.9675 28.5752 44.7584 28.706 44.3401C28.9151 43.9218 29.0981 43.4773 29.0981 43.0067L29.2811 43.1375C28.706 43.242 28.1047 43.3989 27.5556 43.1636C27.5556 43.1636 27.5818 43.1375 27.5818 43.1113ZM27.4511 42.876C27.5033 42.876 27.6079 42.9022 27.6602 42.9544C28.1308 43.2943 28.7321 43.1375 29.2027 42.876C29.2811 42.8237 29.4118 42.9022 29.3857 43.0067C29.3596 43.608 29.1243 44.1832 28.8105 44.7061C28.523 45.0982 27.9216 45.1244 27.5818 44.7845C27.4249 44.6276 27.3465 44.3662 27.3726 44.1571C27.3726 43.7126 27.4249 43.2943 27.4511 42.876Z" fill="#5599FF"/>
<path d="M52.131 60.3922C52.5754 57.3072 52.1571 55.1111 52.0003 54.4575C51.9218 54.5098 51.8696 54.5882 51.7911 54.6405C51.7127 54.719 51.6343 54.7712 51.5558 54.8497C51.7127 55.6863 52.0003 57.6732 51.6081 60.3137C51.4251 61.5425 51.3728 63.4771 51.3467 65.7255C51.2944 67.8954 50.6147 73.3072 49.8042 78.4314C49.9872 78.3791 50.1702 78.3268 50.3532 78.3007C51.1637 73.2288 51.8173 67.9216 51.8696 65.7516C51.9218 63.5033 51.948 61.5948 52.131 60.3922Z" fill="#5599FF"/>
<path d="M75.3463 22.039C91.2155 52.6011 63.3201 87.0848 30.0652 78.6665C15.1371 74.954 3.1371 62.0129 0.653439 46.8233C-2.17009 31.7122 4.65344 15.4769 17.4116 6.92789C34.9018 -5.09825 59.1371 -1.09825 71.66 16.1044C71.7384 16.1828 71.7123 16.3135 71.6077 16.3919C71.5293 16.4704 71.3985 16.4442 71.3201 16.3397C69.5946 14.1174 67.6338 12.1044 65.49 10.3004C61.9606 7.2939 57.8299 4.94096 53.4639 3.34619C31.2417 -4.7061 6.84952 8.67952 1.98677 31.9214C-3.50342 57.9606 18.6404 81.9344 45.0456 78.3527C65.4116 75.7906 80.5489 56.9933 78.8757 36.5488C78.5097 31.6076 77.2025 26.7187 75.0325 22.222C74.9802 22.1436 75.0325 22.039 75.111 21.9867C75.1894 21.9344 75.294 21.9606 75.3463 22.039Z" fill="#5599FF"/>
</g>
</svg>
