<svg width="80" height="80" viewBox="0 0 80 80" fill="none" xmlns="http://www.w3.org/2000/svg">
<mask id="mask0_756_5018" style="mask-type:alpha" maskUnits="userSpaceOnUse" x="0" y="0" width="80" height="80">
<circle cx="39.8689" cy="39.8689" r="39.8689" fill="#D9D9D9"/>
</mask>
<g mask="url(#mask0_756_5018)">
<path d="M61.7257 72.7844C61.5427 72.9151 61.3336 73.0458 61.1506 73.1765C60.9414 73.3072 60.7584 73.438 60.5492 73.5425C60.3662 73.6471 60.2094 73.7517 60.0264 73.8563C60.0002 73.8824 59.9741 73.8824 59.9479 73.9085C59.3466 74.2746 58.7192 74.6144 58.0917 74.9282C57.9087 75.0327 57.6996 75.1373 57.5166 75.2157C57.5166 75.2157 57.4904 75.2419 57.4643 75.2419C57.2551 75.3465 57.046 75.451 56.8368 75.5556C56.4185 75.7648 55.9741 75.9478 55.5558 76.1308C55.3466 76.2353 55.1113 76.3138 54.9022 76.3922C54.693 76.4706 54.4577 76.5752 54.2486 76.6536C54.0394 76.7321 53.8041 76.8367 53.595 76.9151C53.595 76.9151 53.595 76.9151 53.5689 76.9151C53.3597 76.9935 53.1244 77.0719 52.9153 77.1504C52.4447 77.3072 51.9479 77.4641 51.4774 77.621C51.3205 77.6733 51.1375 77.7255 50.9806 77.7778C50.4839 77.9347 49.9872 78.0654 49.4904 78.17C49.3074 78.2223 49.1244 78.2484 48.9153 78.3007C48.4447 78.4053 47.9479 78.5099 47.4774 78.6144C47.3728 78.6406 47.2943 78.6406 47.1898 78.6667C47.0329 78.6929 46.8499 78.719 46.693 78.7451C46.4577 78.7713 46.2486 78.8236 46.0133 78.8497C45.9087 78.8759 45.8042 78.8759 45.6996 78.902C45.5689 78.9282 45.412 78.9543 45.2551 78.9543C44.8368 79.0066 44.3924 79.0589 43.9741 79.1112C43.8434 79.1373 43.6865 79.1373 43.5558 79.1634H43.5296C43.3466 79.1896 43.1636 79.1896 42.9806 79.2157C42.7976 79.2419 42.6146 79.2419 42.4316 79.2419C42.327 79.2419 42.1963 79.268 42.0917 79.268C41.8826 79.268 41.6996 79.2942 41.5166 79.2942C41.2551 79.2942 41.0198 79.3203 40.7584 79.3203C40.497 79.3203 40.2617 79.3203 40.0002 79.3203C39.8172 79.3203 39.6342 79.3203 39.4512 79.3203C28.4185 79.1634 18.51 74.4837 11.4251 67.0589C11.4251 67.0589 11.4251 67.0327 11.3989 67.0327C10.6146 66.3268 11.2944 62.5621 14.4577 60.1831C18.4316 57.1765 27.9479 55.2942 27.9479 55.2942C27.9479 55.2942 31.6342 54.6929 45.3074 57.5425C53.3074 59.2157 59.3989 61.6471 62.7976 68.2353C63.5035 69.5948 64.2094 71.6863 61.7257 72.7844Z" fill="#E7E7E7"/>
<path d="M45.3857 57.255C50.4053 58.2746 55.7648 59.3727 59.8955 62.6929C61.2812 63.8171 62.1962 65.4642 62.9544 67.059C63.3204 67.8433 63.6864 68.6537 63.974 69.5165C64.1308 70.0916 64.3661 70.7452 64.2354 71.425C64.2093 71.608 64.0524 71.8433 63.9217 71.974C63.3204 72.5753 62.6668 72.9413 62.0132 73.4119C58.17 76.0786 53.7517 77.9609 49.1766 78.9544C38.9805 81.1766 27.9478 79.4511 18.9805 74.0916C16.0001 72.2877 13.255 70.0916 10.9021 67.5034C10.6406 67.1897 10.6406 66.6668 10.6406 66.3269C10.6668 65.5426 10.8759 64.7844 11.1374 64.0786C11.7648 62.4576 12.5753 60.8367 13.9609 59.7125C14.9544 59.0328 16.0262 58.4576 17.1243 57.9871C20.5753 56.523 24.2093 55.5034 27.9478 55.0851C28.2615 55.0589 28.3138 55.5034 28.0001 55.5557C24.4184 56.2877 20.8628 57.3857 17.5426 58.8759C16.34 59.4773 15.0589 60.0001 14.0916 60.9413C13.1766 61.9348 12.523 63.1635 12.0001 64.4184C11.6602 65.1766 11.4249 66.3792 11.5295 66.9805C13.1766 68.9413 15.1112 70.6668 17.2027 72.157C28.6537 80.157 46.0393 80.6799 58.2223 74.0132C59.3204 73.4119 60.3923 72.7322 61.4119 72.0263C61.9086 71.6864 62.4315 71.3988 62.8236 71.0067C62.8498 70.9805 62.8236 71.0067 62.8236 71.0328C62.8236 71.059 62.7975 71.0851 62.7975 71.0851C62.8236 70.7714 62.7191 70.3531 62.5883 69.9348C62.1178 68.4184 61.3596 66.8237 60.5491 65.438C59.2681 63.3727 57.0981 62.0655 54.9021 61.0197C53.3857 60.3139 51.791 59.7648 50.17 59.242C48.5491 58.7191 46.9021 58.2746 45.255 57.8825C44.8367 57.7779 44.9674 57.1766 45.3857 57.255Z" fill="#5599FF"/>
<path d="M70.4052 88.9935H4.2876C4.2876 88.9935 8.18302 80.7844 9.90851 71.4249C11.1111 64.9412 12 61.1504 15.3726 59.0589C17.7516 57.5948 24.4445 55.4772 29.2026 54.7974C31.1373 54.536 34.9804 54.2484 38.3007 54.5098C40.8105 54.8236 45.9869 56.2876 47.9739 56.8366C50.9543 57.6732 57.4118 60.1569 60.2615 62.7713C61.3856 63.817 64.0523 69.0458 65.7778 76.6275C67.7647 85.2549 70.4052 88.9935 70.4052 88.9935Z" fill="#E7E7E7"/>
<path d="M71.0064 89.3073C51.3201 89.4641 23.7123 89.8301 4.3136 89.804C3.73844 89.8301 3.32014 89.1766 3.58157 88.6537C4.05216 87.6602 4.49661 86.6406 4.91491 85.5948C6.79726 80.9413 8.39203 76.1569 9.35935 71.2419C10.1437 67.3988 10.7711 63.1112 13.6731 60.2092C14.4835 59.3988 15.477 58.7713 16.4966 58.3007C18.562 57.3596 20.6796 56.5752 22.8234 55.8955C27.1371 54.4837 31.7123 53.8824 36.2613 53.9609C38.5358 53.9609 40.8365 54.3269 43.0587 54.8498C44.026 55.0328 45.3855 55.4511 46.3267 55.7125L47.1371 55.9478C47.294 56.0262 47.3463 56.34 47.4247 56.4968C47.477 56.6014 47.5293 56.6275 47.6077 56.6537C47.7384 56.6798 47.9476 56.4968 48.0783 56.5491C50.7188 57.3334 53.2548 58.4837 55.6861 59.7648C57.4116 60.7321 59.1894 61.6733 60.6012 63.085C61.8299 64.6537 62.8234 66.4053 63.7384 68.1831C65.9607 72.7582 66.5881 77.9347 68.2875 82.6667C68.9149 84.4707 69.6469 86.2746 70.5358 87.9739L70.7188 88.3138L70.8234 88.4968L70.8757 88.5752L70.9018 88.6275C71.0587 88.7321 71.111 89.1243 71.0064 89.3073ZM69.8038 88.6798C69.6731 88.8367 69.6992 89.1766 69.8038 89.3073L69.7776 89.255L69.7254 89.1504L69.6208 88.9674C68.5489 87.085 67.7907 85.072 67.111 83.0328C65.3332 77.6994 64.758 72.0001 62.2482 66.9282C61.6208 65.6471 60.9933 64.34 60.0522 63.2681C59.5031 62.7713 58.9018 62.353 58.2744 61.9609C55.4509 60.2354 52.2875 59.0589 49.1763 57.9347C48.9149 57.8301 48.2613 57.621 47.9999 57.5426C47.7907 57.4903 47.7123 57.4641 47.66 57.2027C47.6077 56.9935 47.5554 56.7321 47.3201 56.8367C47.1894 56.889 46.9541 57.2027 46.7973 57.1766C46.2744 57.0458 44.8888 56.6798 44.3659 56.5491C42.3528 56.0262 40.3659 55.3726 38.3267 54.9805C32.0522 54.4315 25.7776 55.5295 19.7907 57.3857C17.7254 58.0916 15.4509 58.7452 13.9607 60.4445C11.3724 63.6602 10.928 69.072 10.1175 73.072C8.99334 78.6406 7.29399 84.0524 5.01948 89.3073L4.28746 88.1569C23.2156 88.2354 50.6143 88.4707 69.8038 88.6798Z" fill="#5599FF"/>
<path d="M28.3921 57.4381C27.5816 57.5165 26.7189 57.6995 25.9868 58.1178C25.9084 58.1701 25.8038 58.0394 25.8823 57.9871C26.562 57.3858 27.4248 57.0459 28.2614 56.7845C28.4444 56.7322 28.6274 56.8367 28.6535 57.0198C28.7319 57.2289 28.6012 57.4381 28.3921 57.4381Z" fill="#5599FF"/>
<path d="M30.4834 60.7845C29.5423 60.9936 28.6272 61.4381 27.8691 62.0655C27.2678 62.1701 28.7841 60.9413 28.8887 60.889C29.3331 60.5753 29.7776 60.34 30.3004 60.1309C30.4573 60.0786 30.6664 60.157 30.7187 60.3139C30.8233 60.5492 30.6926 60.7583 30.4834 60.7845Z" fill="#5599FF"/>
<path d="M33.8561 64.1309C33.0979 64.7322 32.4443 65.5427 32.026 66.4316C31.9999 66.4838 31.9215 66.51 31.8692 66.4838C31.8169 66.4577 31.7908 66.4054 31.8169 66.3531C31.9738 65.8564 32.1829 65.3597 32.4705 64.9152C32.7581 64.4446 33.0718 64.0263 33.4378 63.6342C33.5685 63.5035 33.7777 63.5035 33.9084 63.6342C34.0391 63.7649 34.0391 64.0263 33.8561 64.1309Z" fill="#5599FF"/>
<path d="M39.5031 66.7192C39.0586 67.6604 38.7188 68.68 38.6665 69.7258C38.6665 69.9088 38.3528 69.9088 38.3528 69.7258C38.3005 68.8892 38.4312 68.0525 38.6665 67.2682C38.7972 66.9545 38.8233 66.1179 39.3462 66.2748C39.5031 66.3271 39.5815 66.5362 39.5031 66.7192Z" fill="#5599FF"/>
<path d="M45.4901 66.8235C45.6469 67.1895 46.8495 70.1176 46.2744 70.1438C46.1959 70.1438 46.1175 70.0915 46.1175 70.013C46.0914 69.7516 46.0129 69.5163 45.9084 69.2549C45.6469 68.5229 45.2809 67.7908 44.8887 67.1111C44.7057 66.7189 45.307 66.4052 45.4901 66.8235Z" fill="#5599FF"/>
<path d="M47.9735 61.0461C48.9409 61.2291 49.7513 61.8043 50.3526 62.5363C50.3788 62.5625 50.3788 62.6409 50.3526 62.667C50.3265 62.6932 50.2742 62.6932 50.2219 62.667C49.5945 62.118 48.7579 61.7259 47.9213 61.6997C47.4245 61.6736 47.503 60.9677 47.9735 61.0461Z" fill="#5599FF"/>
<path d="M47.0326 57.9871C47.8431 58.1963 48.6012 58.5361 49.2025 59.1113C49.2548 59.1636 49.2548 59.242 49.2025 59.2943C49.1502 59.3466 49.098 59.3466 49.0457 59.3204C48.4182 58.9021 47.66 58.693 46.928 58.6407C46.4574 58.5884 46.562 57.8825 47.0326 57.9871Z" fill="#5599FF"/>
<path d="M47.9736 64.7322C48.7057 65.3335 49.4377 65.961 49.9083 66.7976C49.9344 66.8237 49.9083 66.876 49.8821 66.9022C49.856 66.9283 49.8037 66.9022 49.7776 66.876C49.2024 66.1701 48.4181 65.6995 47.6338 65.2551C47.2155 65.0459 47.5815 64.4446 47.9736 64.7322Z" fill="#5599FF"/>
<path d="M47.843 64.2093C47.294 66.9021 43.7384 68.523 37.7515 66.0916C31.5293 63.5818 28.8365 57.5949 28.1567 55.8171C31.843 48.9152 29.2809 44.1308 29.2809 44.1308C37.7777 43.3988 45.2025 53.3335 45.2025 53.3335L46.3528 58.2485C46.4574 58.6668 46.6665 59.0328 46.9803 59.2942C47.5293 60.2616 48.1829 62.4838 47.843 64.2093Z" fill="#E7E7E7"/>
<path d="M28.0262 55.8956C28.5229 55.1374 28.8366 54.2485 29.0458 53.3858C29.4379 51.5818 29.5686 49.7518 29.5948 47.9217V47.242C29.5163 46.5622 29.2811 45.8563 29.0196 45.2289C28.6797 44.3923 29.9085 43.8694 30.3007 44.706C30.3529 44.8106 30.3529 44.9936 30.3529 45.0982C30.4314 48.6537 30.5882 53.2289 28.3399 56.1831C28.183 56.34 27.8693 56.1047 28.0262 55.8956Z" fill="#5599FF"/>
<path d="M45.4904 53.281C45.8825 53.5163 46.0132 53.83 46.0655 54.1437C46.2224 54.7712 46.1701 55.4509 46.327 56.1045C46.4577 56.732 46.8498 57.3333 46.9544 57.9869C47.0851 58.6666 47.4773 60.1045 47.6341 60.8104C47.6864 60.9672 47.5819 61.1502 47.3988 61.1764C47.2943 61.2025 47.2158 61.1764 47.1374 61.1241C46.7975 60.8365 46.6407 60.5489 46.4315 60.1829C46.0917 59.5555 45.8564 58.9803 45.6472 58.2744C45.4642 57.647 45.5426 56.9672 45.3858 56.3136C45.2551 55.6862 44.889 55.0849 44.7583 54.4313C44.6799 54.1176 44.6537 53.7777 44.889 53.3855C45.0459 53.2287 45.3073 53.1764 45.4904 53.281Z" fill="#5599FF"/>
<path d="M47.3724 60.1831C42.3789 59.9217 38.3005 58.353 34.3267 51.2681C37.6731 54.2223 41.6208 55.3465 45.7776 55.8694L46.3267 58.2746C46.4312 58.6929 47.0587 59.9217 47.3724 60.1831Z" fill="#5599FF"/>
<path d="M47.1634 59.2159C48.0523 60.8891 48.5752 62.9806 48.0262 64.8368C47.6079 66.144 46.4052 67.1113 45.0981 67.4773C42.0654 68.2878 38.5621 67.0068 35.8693 65.5688C32.549 63.7126 30.0915 60.6015 28.5229 57.2028C28.4183 56.9414 28.7843 56.7322 28.9412 56.9937C29.4902 58.0917 30.1177 59.1636 30.8235 60.1309C31.5294 61.1244 32.3399 62.0394 33.2549 62.8499C35.9216 65.2551 39.5294 66.7453 43.1373 66.7453C46.8497 66.6407 48.2615 64.68 47.3987 61.0721C47.268 60.4969 47.0588 59.8956 46.7713 59.3989C46.6144 59.1898 47.0065 58.9545 47.1634 59.2159Z" fill="#5599FF"/>
<path d="M57.2811 27.8173C57.7517 30.0133 57.987 31.7911 56.7059 37.6473C55.451 43.4774 57.8824 49.3598 51.7125 54.7192C47.5556 58.3271 40.2876 59.0068 34.4837 55.0591C32.5229 53.7258 32.0001 47.5035 30.4576 45.1245C29.804 44.131 29.4118 45.7258 27.9216 44.0787C25.8563 41.8303 23.3726 37.3075 24.6014 29.3075C26.5883 16.3401 36.8628 14.8238 44.4706 16.2617C52.1046 17.6996 56.0262 22.0395 57.2811 27.8173Z" fill="#E7E7E7"/>
<path d="M29.2025 46.3792C28.6012 45.3858 27.843 44.523 27.1372 43.608C26.0914 42.1962 25.3071 40.5753 24.7842 38.9021C22.5358 31.7387 23.7385 22.4054 30.379 17.9348C36.5228 13.7779 48.2613 15.0328 53.647 20.0525C56.3398 22.4838 57.83 26.0132 58.1437 29.5688C58.3005 31.9479 57.7254 34.2485 57.2287 36.5492C56.6535 38.7976 56.5228 41.0459 56.5228 43.3727C56.4966 45.6995 56.3921 48.1309 55.5032 50.327C54.1437 53.6734 51.294 56.3923 47.8692 57.5427C43.3724 59.1113 38.0653 58.2224 34.379 55.2159C34.2221 55.0851 34.379 54.876 34.562 54.9544C39.3986 57.6995 45.7515 58.1701 50.4574 55.0067C53.2548 53.1243 55.1894 50.144 55.6339 46.7976C55.9999 44.523 55.8953 42.2224 56.1045 39.9217C56.1829 38.9021 56.4705 37.4904 56.6796 36.4708C56.9934 34.7714 57.2025 33.0721 57.1764 31.3727C57.1502 29.6995 56.7842 28.0525 56.2875 26.4577C54.562 20.7845 49.6208 17.4381 43.9215 16.523C35.3986 15.0328 27.9476 18.1962 25.7254 27.059C24.7581 31.3989 23.9999 36.1832 25.83 40.3923C26.4836 41.9871 27.5555 43.3466 28.7842 44.523L29.9868 45.8041C30.5097 46.327 29.6208 47.0067 29.2025 46.3792Z" fill="#5599FF"/>
<path d="M32.2872 38.0654C32.2872 38.0654 31.4767 34.1438 27.6597 34.6144C24.3656 35.0327 23.2153 42.9281 30.6924 45.1242" fill="#E7E7E7"/>
<path d="M30.353 41.6995C29.7517 41.3596 29.3334 40.7844 29.3073 40.0786C29.3334 39.5557 29.4118 38.9544 29.2811 38.4315C29.2027 37.9348 28.6798 37.804 28.2876 37.8302C27.8693 37.9086 27.6079 38.4315 27.5295 38.8498C27.5295 38.8759 27.5033 38.9544 27.5033 38.9805C27.4772 39.1112 27.268 39.1112 27.2158 38.9805C26.8759 37.9609 27.6341 36.8367 28.7321 36.9674C30.2746 37.072 30.4837 38.6929 30.1961 39.9217C30.0393 40.4446 30.2484 40.9152 30.536 41.3596L30.5883 41.438C30.719 41.5949 30.5099 41.804 30.353 41.6995Z" fill="#5599FF"/>
<path d="M51.2678 35.2943C51.66 37.1505 52.392 38.876 53.307 40.4969C54.1175 42.4839 52.026 44.3662 50.1698 44.2878C49.9606 44.2878 49.9345 44.0002 50.1175 43.9479C51.294 43.5819 52.3659 42.7976 52.5489 41.595C52.6273 41.229 52.5227 40.9152 52.3397 40.6015C51.477 38.9806 50.9541 37.1244 51.0848 35.2943C51.0848 35.1636 51.2678 35.1636 51.2678 35.2943Z" fill="#5599FF"/>
<path d="M32.1567 38.0919C31.5554 36.5494 30.2482 35.0853 28.4965 35.1115C28.3397 35.0853 28.0782 35.1376 27.9214 35.1376C27.4769 35.1638 27.1109 35.3206 26.771 35.6343C25.0978 37.3075 25.3854 40.2618 26.7449 42.118C27.2155 42.7716 27.8168 43.3468 28.4965 43.8174C29.1763 44.2879 29.9344 44.654 30.7449 44.9677C30.9279 45.02 30.8495 45.3075 30.6665 45.2814C28.9148 44.9154 27.2416 44.0526 26.0913 42.6147C24.3135 40.4709 23.9475 36.8892 26.0652 34.7977C26.5358 34.3794 27.1893 34.0657 27.8429 34.0657C28.0521 34.0657 28.3658 34.0134 28.575 34.0657C29.673 34.118 30.7188 34.667 31.3985 35.5298C31.9998 36.2618 32.3397 37.1507 32.4443 38.0396C32.4443 38.1964 32.209 38.2487 32.1567 38.0919Z" fill="#5599FF"/>
<path d="M49.5161 46.7711C49.0717 47.0849 48.4181 46.8234 47.9475 47.0326C47.6076 47.1371 47.0586 47.6077 46.2743 47.5554C45.6469 47.5032 45.3331 47.1894 44.8102 46.9541C44.2612 46.7711 43.6861 46.4313 43.3201 45.9868C43.2416 45.9084 43.2416 45.8038 43.3201 45.7254C43.4246 45.6208 43.5292 45.6992 43.6338 45.7515C43.8691 45.8822 44.0521 45.9868 44.2351 46.0391C44.4181 46.0914 44.6011 46.0391 44.8887 46.0391C45.1763 46.013 45.5946 46.1437 45.856 46.3528C46.039 46.4835 46.2482 46.562 46.405 46.5881C46.8233 46.6666 47.3462 46.3267 47.7906 46.2744C48.1044 46.2221 48.4442 46.2483 48.7057 46.3267C48.9671 46.4051 49.1501 46.4574 49.3593 46.4051C49.5946 46.3528 49.7253 46.6666 49.5161 46.7711Z" fill="#5599FF"/>
<path d="M45.3596 32.5228C45.9348 32.6012 46.3792 31.9999 46.1701 31.4248C46.0655 31.111 45.8825 30.8235 45.5949 30.6404C44.706 30.0914 41.3857 30.0391 39.6341 31.294C38.0655 32.4444 42.7452 32.1568 45.3596 32.5228Z" fill="#5599FF"/>
<path d="M52.6013 32.8106C52.1307 32.8106 51.8431 32.2093 52.0784 31.7125C52.2091 31.4511 52.3921 31.2158 52.6536 31.0851C53.464 30.6929 55.634 30.9282 56.6013 32.2616C57.464 33.438 54.7712 32.7844 52.6013 32.8106Z" fill="#5599FF"/>
<path d="M44.4969 35.974C43.5818 36.7845 42.1701 36.7845 41.072 36.3662C40.889 36.2877 39.8433 35.8171 40.0524 35.5557C40.0786 35.5296 40.1309 35.5034 40.157 35.5034C40.889 35.5296 41.5688 35.608 42.2746 35.6603C42.9805 35.7126 43.608 35.6864 44.34 35.6603C44.523 35.6603 44.6276 35.8694 44.4969 35.974Z" fill="#5599FF"/>
<path d="M54.8238 36.4182C53.9872 37.3855 52.2879 37.2548 51.5035 36.3136C51.4251 36.2352 51.5035 36.0783 51.6081 36.1045C51.8957 36.1306 52.1571 36.1829 52.4186 36.209C53.2029 36.3398 53.8565 36.3136 54.6931 36.2875C54.8238 36.2352 54.8761 36.3659 54.8238 36.4182Z" fill="#5599FF"/>
<path d="M60.6537 29.5686C59.9217 31.8431 58.17 33.7516 57.0458 35.0326C57.3073 33.8039 57.072 33.0718 57.1243 32.2091C57.2027 31.0326 57.621 29.7254 57.5426 29.2025C57.4903 28.732 57.3857 28.2875 57.2811 27.8169C57.1504 27.2418 56.9936 26.6927 56.8106 26.1437C52.706 30.1437 45.6733 26.196 45.6733 26.196C45.6733 26.196 44.1831 27.4248 41.5687 27.1372C38.7713 26.8496 38.0132 25.1241 38.0132 25.1241C37.255 30.4052 32.2615 28.3921 33.1766 33.647C33.438 35.0849 33.438 36.4705 32.2092 37.9084C32.0001 37.1764 30.9805 34.196 27.6341 34.6143C24.4707 35.0065 23.2681 42.3267 29.804 44.8365C29.7256 47.2679 29.987 50.562 29.7256 49.6993C27.8955 44.0522 24.2354 44.9411 22.5099 40.6797C21.6994 38.6405 21.8302 36.8365 22.2485 35.5032C22.6668 34.2222 22.6406 32.8365 22.2223 31.5555C21.7517 30.0653 21.3857 27.8169 22.2485 25.098C23.7125 20.4444 26.8498 19.3725 27.6602 18.8235C28.4707 18.2744 28.0785 13.2548 33.7517 11.6862C38.2746 10.4313 41.6733 13.0718 42.6668 12.8888C43.6602 12.7058 50.6145 8.13065 55.974 12.4444C61.1504 16.6274 59.2158 21.5686 59.2158 21.5686C59.2158 21.5686 62.4315 24.0522 60.6537 29.5686Z" fill="#5599FF"/>
<path d="M29.36 38.876C29.36 38.876 27.2685 38.5623 27.4254 41.4904C27.5038 42.9806 27.5038 43.791 27.4777 44.2093C27.4515 44.4969 27.6345 44.7583 27.896 44.8629C28.2097 44.9936 28.5496 44.8629 28.7064 44.5492C28.9417 44.1309 29.2032 43.5557 29.2032 43.0851C29.2032 42.3008 30.0398 41.5949 30.0398 41.5949C30.0398 41.5949 29.2816 40.9413 29.36 38.876Z" fill="#E7E7E7"/>
<path d="M29.2814 38.9544C29.2814 38.9806 29.3076 39.0067 29.3337 39.0067C29.3337 39.0067 29.3337 39.0067 29.3076 39.0067H29.2553C28.0004 39.1113 27.6082 40.2093 27.6605 41.3335C27.6867 42.0655 27.739 42.7976 27.7128 43.5034C27.7651 43.8956 27.5298 44.4185 27.922 44.6276C28.1573 44.7584 28.471 44.6538 28.5756 44.3923C28.8109 43.9218 29.0462 43.4512 29.0462 42.9283C29.1507 42.327 29.5429 41.8564 29.9612 41.4904V41.6995C29.4122 41.1244 29.2814 40.34 29.203 39.608C29.2292 39.425 29.2292 39.1374 29.2814 38.9544ZM29.4645 38.7714C29.5429 39.5034 29.5429 40.2616 29.8566 40.9152C29.935 41.0982 30.0658 41.3074 30.2226 41.4381C30.3272 41.5165 30.3272 41.6734 30.2226 41.7518C29.8566 42.0917 29.5429 42.51 29.4906 42.9806C29.4906 43.5557 29.2553 44.1048 28.9939 44.6015C28.7847 45.0459 28.1834 45.2812 27.739 45.0198C27.4514 44.8629 27.2422 44.5492 27.2422 44.2093C27.2422 43.9479 27.2684 43.7387 27.2684 43.4773C27.2684 42.7453 27.2161 42.0394 27.1899 41.3074C27.1899 40.8368 27.2161 40.2878 27.4252 39.8172C27.6867 39.0851 28.4971 38.5884 29.2814 38.7191C29.3599 38.7191 29.4383 38.7453 29.4645 38.7714Z" fill="#5599FF"/>
<path d="M29.0198 69.8302C29.8825 66.0655 28.7583 61.8302 27.791 58.0655C27.3989 56.5753 27.0067 55.1636 26.8237 53.9348C26.4838 51.8694 26.7191 49.9087 27.5557 48.0786C28.5753 45.8041 28.4185 43.8694 28.4185 43.791L27.8956 43.8433C27.8956 43.8694 28.0524 45.7518 27.0851 47.8694C26.2224 49.7779 25.9609 51.8433 26.3008 54.0132C26.51 55.2681 26.876 56.706 27.2681 58.1962C28.2355 61.8825 29.3335 66.0655 28.4969 69.6995C28.0263 71.7126 28.9413 75.0067 30.2485 78.3008C30.4577 78.327 30.6407 78.3531 30.8498 78.3792C29.5165 75.0851 28.5753 71.7649 29.0198 69.8302Z" fill="#5599FF"/>
<path d="M27.5035 43.0066C27.5296 43.5818 27.5035 43.9739 27.5035 44.2092C27.4773 44.4968 27.6603 44.7582 27.9218 44.8628C28.2355 44.9935 28.5754 44.8628 28.7322 44.5491C28.9675 44.1308 29.229 43.5556 29.229 43.085C29.229 43.0589 29.229 43.0066 29.229 42.9805C28.7061 43.1896 28.0786 43.3465 27.5035 43.0066Z" fill="#E7E7E7"/>
<path d="M27.5818 43.1113C27.6079 43.4773 27.6341 43.8172 27.6341 44.1832C27.6079 44.3401 27.6602 44.4969 27.7648 44.6276C28.1047 44.9675 28.5752 44.7584 28.706 44.3401C28.9151 43.9218 29.0981 43.4773 29.0981 43.0067L29.2811 43.1375C28.706 43.242 28.1047 43.3989 27.5556 43.1636C27.5556 43.1636 27.5818 43.1375 27.5818 43.1113ZM27.4511 42.876C27.5033 42.876 27.6079 42.9022 27.6602 42.9544C28.1308 43.2943 28.7321 43.1375 29.2027 42.876C29.2811 42.8237 29.4118 42.9022 29.3857 43.0067C29.3596 43.608 29.1243 44.1832 28.8105 44.7061C28.523 45.0982 27.9216 45.1244 27.5818 44.7845C27.4249 44.6276 27.3465 44.3662 27.3726 44.1571C27.3726 43.7126 27.4249 43.2943 27.4511 42.876Z" fill="#5599FF"/>
<path d="M52.131 60.3922C52.5754 57.3072 52.1571 55.1111 52.0003 54.4575C51.9218 54.5098 51.8696 54.5882 51.7911 54.6405C51.7127 54.719 51.6343 54.7712 51.5558 54.8497C51.7127 55.6863 52.0003 57.6732 51.6081 60.3137C51.4251 61.5425 51.3728 63.4771 51.3467 65.7255C51.2944 67.8954 50.6147 73.3072 49.8042 78.4314C49.9872 78.3791 50.1702 78.3268 50.3532 78.3007C51.1637 73.2288 51.8173 67.9216 51.8696 65.7516C51.9218 63.5033 51.948 61.5948 52.131 60.3922Z" fill="#5599FF"/>
<path d="M75.3463 22.039C91.2155 52.6011 63.3201 87.0848 30.0652 78.6665C15.1371 74.954 3.1371 62.0129 0.653439 46.8233C-2.17009 31.7122 4.65344 15.4769 17.4116 6.92789C34.9018 -5.09825 59.1371 -1.09825 71.66 16.1044C71.7384 16.1828 71.7123 16.3135 71.6077 16.3919C71.5293 16.4704 71.3985 16.4442 71.3201 16.3397C69.5946 14.1174 67.6338 12.1044 65.49 10.3004C61.9606 7.2939 57.8299 4.94096 53.4639 3.34619C31.2417 -4.7061 6.84952 8.67952 1.98677 31.9214C-3.50342 57.9606 18.6404 81.9344 45.0456 78.3527C65.4116 75.7906 80.5489 56.9933 78.8757 36.5488C78.5097 31.6076 77.2025 26.7187 75.0325 22.222C74.9802 22.1436 75.0325 22.039 75.111 21.9867C75.1894 21.9344 75.294 21.9606 75.3463 22.039Z" fill="#5599FF"/>
</g>
</svg>
