<svg width="80" height="80" viewBox="0 0 80 80" fill="none" xmlns="http://www.w3.org/2000/svg">
<mask id="mask0_756_5060" style="mask-type:alpha" maskUnits="userSpaceOnUse" x="0" y="0" width="80" height="80">
<circle cx="39.8689" cy="39.8689" r="39.8689" fill="#D9D9D9"/>
</mask>
<g mask="url(#mask0_756_5060)">
<path d="M61.7257 72.7844C61.5427 72.9151 61.3336 73.0458 61.1506 73.1765C60.9414 73.3072 60.7584 73.438 60.5492 73.5425C60.3662 73.6471 60.2094 73.7517 60.0264 73.8563C60.0002 73.8824 59.9741 73.8824 59.9479 73.9085C59.3466 74.2746 58.7192 74.6144 58.0917 74.9282C57.9087 75.0327 57.6996 75.1373 57.5166 75.2157C57.5166 75.2157 57.4904 75.2419 57.4643 75.2419C57.2551 75.3465 57.046 75.451 56.8368 75.5556C56.4185 75.7648 55.9741 75.9478 55.5558 76.1308C55.3466 76.2353 55.1113 76.3138 54.9022 76.3922C54.693 76.4706 54.4577 76.5752 54.2486 76.6536C54.0394 76.7321 53.8041 76.8367 53.595 76.9151C53.595 76.9151 53.595 76.9151 53.5689 76.9151C53.3597 76.9935 53.1244 77.0719 52.9153 77.1504C52.4447 77.3072 51.9479 77.4641 51.4774 77.621C51.3205 77.6733 51.1375 77.7255 50.9806 77.7778C50.4839 77.9347 49.9872 78.0654 49.4904 78.17C49.3074 78.2223 49.1244 78.2484 48.9153 78.3007C48.4447 78.4053 47.9479 78.5099 47.4774 78.6144C47.3728 78.6406 47.2943 78.6406 47.1898 78.6667C47.0329 78.6929 46.8499 78.719 46.693 78.7451C46.4577 78.7713 46.2486 78.8236 46.0133 78.8497C45.9087 78.8759 45.8042 78.8759 45.6996 78.902C45.5689 78.9282 45.412 78.9543 45.2551 78.9543C44.8368 79.0066 44.3924 79.0589 43.9741 79.1112C43.8434 79.1373 43.6865 79.1373 43.5558 79.1634H43.5296C43.3466 79.1896 43.1636 79.1896 42.9806 79.2157C42.7976 79.2419 42.6146 79.2419 42.4316 79.2419C42.327 79.2419 42.1963 79.268 42.0917 79.268C41.8826 79.268 41.6996 79.2942 41.5166 79.2942C41.2551 79.2942 41.0198 79.3203 40.7584 79.3203C40.497 79.3203 40.2617 79.3203 40.0002 79.3203C39.8172 79.3203 39.6342 79.3203 39.4512 79.3203C28.4185 79.1634 18.51 74.4837 11.4251 67.0589C11.4251 67.0589 11.4251 67.0327 11.3989 67.0327C10.6146 66.3268 11.2944 62.5621 14.4577 60.1831C18.4316 57.1765 27.9479 55.2942 27.9479 55.2942C27.9479 55.2942 31.6342 54.6929 45.3074 57.5425C53.3074 59.2157 59.3989 61.6471 62.7976 68.2353C63.5035 69.5948 64.2094 71.6863 61.7257 72.7844Z" fill="#E7E7E7"/>
<path d="M45.3857 57.255C50.4053 58.2746 55.7648 59.3727 59.8955 62.6929C61.2812 63.8171 62.1962 65.4642 62.9544 67.059C63.3204 67.8433 63.6864 68.6537 63.974 69.5165C64.1308 70.0916 64.3661 70.7452 64.2354 71.425C64.2093 71.608 64.0524 71.8433 63.9217 71.974C63.3204 72.5753 62.6668 72.9413 62.0132 73.4119C58.17 76.0786 53.7517 77.9609 49.1766 78.9544C38.9805 81.1766 27.9478 79.4511 18.9805 74.0916C16.0001 72.2877 13.255 70.0916 10.9021 67.5034C10.6406 67.1897 10.6406 66.6668 10.6406 66.3269C10.6668 65.5426 10.8759 64.7844 11.1374 64.0786C11.7648 62.4576 12.5753 60.8367 13.9609 59.7125C14.9544 59.0328 16.0262 58.4576 17.1243 57.9871C20.5753 56.523 24.2093 55.5034 27.9478 55.0851C28.2615 55.0589 28.3138 55.5034 28.0001 55.5557C24.4184 56.2877 20.8628 57.3857 17.5426 58.8759C16.34 59.4773 15.0589 60.0001 14.0916 60.9413C13.1766 61.9348 12.523 63.1635 12.0001 64.4184C11.6602 65.1766 11.4249 66.3792 11.5295 66.9805C13.1766 68.9413 15.1112 70.6668 17.2027 72.157C28.6537 80.157 46.0393 80.6799 58.2223 74.0132C59.3204 73.4119 60.3923 72.7322 61.4119 72.0263C61.9086 71.6864 62.4315 71.3988 62.8236 71.0067C62.8498 70.9805 62.8236 71.0067 62.8236 71.0328C62.8236 71.059 62.7975 71.0851 62.7975 71.0851C62.8236 70.7714 62.7191 70.3531 62.5883 69.9348C62.1178 68.4184 61.3596 66.8237 60.5491 65.438C59.2681 63.3727 57.0981 62.0655 54.9021 61.0197C53.3857 60.3139 51.791 59.7648 50.17 59.242C48.5491 58.7191 46.9021 58.2746 45.255 57.8825C44.8367 57.7779 44.9674 57.1766 45.3857 57.255Z" fill="#5599FF"/>
<path d="M23.7645 56.1045C24.6795 57.7254 28.1566 64.2352 28.7057 69.9868L31.9475 71.0849C31.9475 71.0849 29.49 60.2091 25.0978 55.1633C25.0978 55.1633 24.5749 54.928 23.9214 55.3725C23.7122 55.5555 23.6076 55.843 23.7645 56.1045Z" fill="#5599FF"/>
<path d="M51.5813 70.0655C51.5813 70.0655 51.7381 62.8237 48.6009 58.0655C48.5225 57.9348 48.627 57.7518 48.7839 57.7779C48.9931 57.8302 49.3068 57.9086 49.8035 58.1439C50.6401 58.5361 53.3591 62.6929 53.5944 69.5165C53.5944 69.4903 51.8427 70.0655 51.5813 70.0655Z" fill="#5599FF"/>
<path d="M60.5227 63.268C59.1632 61.8301 55.0586 59.6863 54.3527 59.7386C54.3789 59.7908 54.3789 59.8693 54.405 59.9477C55.5031 63.8954 54.6142 69.2549 50.6142 70.1438C46.4573 71.0588 42.9802 71.1895 34.6403 70.3529C28.5227 69.7516 22.771 64.2614 19.8429 58.8235C19.5554 58.2745 19.2155 57.7255 18.8495 57.2288C18.6403 57.0719 18.2482 57.098 17.9606 57.3333C17.2286 57.9346 16.2612 57.8824 16.2612 58.4575C16.2612 58.4575 10.7188 60.183 8.78412 72.3399C7.68608 79.2157 6.1436 88.1307 6.09131 91.1634H65.6207C65.2024 87.085 65.6207 68.915 60.5227 63.268Z" fill="#5599FF"/>
<path d="M60.026 63.7386C59.2417 62.9543 58.2221 62.353 57.2548 61.7778C56.3659 61.255 55.2678 60.6798 54.3528 60.4184L54.9541 59.5818L54.9802 59.7386C55.7123 62.7974 55.5554 66.4314 53.4378 68.9412C52.7057 69.7778 51.6338 70.3791 50.5358 70.5621C48.4966 70.9804 46.3789 71.2157 44.2874 71.2157C40.6273 71.1896 37.0195 70.902 33.4116 70.4053C30.8495 69.8563 28.4704 68.5752 26.4051 66.9805C23.5031 64.7321 21.2809 61.7778 19.2155 58.7713C18.928 58.353 18.5881 57.9608 18.2221 57.621L18.3528 57.7778C18.4051 57.8301 18.4312 57.804 18.4051 57.804C18.4051 57.804 18.3528 57.804 18.3267 57.8301C18.3005 57.8301 18.3005 57.8301 18.2744 57.8824C17.8561 58.2484 17.1763 58.4314 16.758 58.6667C16.7842 58.6667 16.8365 58.5099 16.8365 58.4837L16.3659 59.1112L16.2874 59.1373L16.1829 59.1896C12.6012 61.1242 10.8757 65.7255 9.9345 69.4902C9.01946 73.7778 8.47044 78.1961 7.73842 82.5099C7.32012 85.3857 6.79724 88.3399 6.66652 91.1896L5.98678 90.5099H65.6208L64.9672 91.2419C64.4182 84.0001 64.7057 69.3072 60.026 63.7386ZM61.0195 62.8236C66.0652 68.7059 65.7515 83.4772 66.3005 91.1112C66.3267 91.4772 66.0652 91.817 65.6992 91.8432C65.6731 91.8955 6.1175 91.817 6.09136 91.8432C5.72535 91.8432 5.41162 91.5556 5.41162 91.1896C5.46391 89.6471 5.67306 88.1569 5.85607 86.6929C6.45737 82.3007 7.1894 77.9347 7.89528 73.5687C8.33973 70.6406 8.94103 67.634 10.1175 64.8628C11.294 62.1177 13.0456 59.2419 15.8691 57.9086C15.9214 57.8824 15.9737 57.8563 16.0521 57.8301L15.5816 58.4576C15.5554 57.5425 16.5489 57.3072 17.1763 57.0458C17.5946 56.8105 17.9345 56.4706 18.4574 56.4706C18.7188 56.4445 19.1894 56.5491 19.3985 56.8628C19.7646 57.5948 20.0783 58.3269 20.392 59.0589C20.9149 60.2353 21.5946 61.3334 22.3789 62.353C25.2025 65.9347 29.0195 69.072 33.5685 69.987C35.0848 70.2484 36.6535 70.3007 38.1698 70.4314C42.2744 70.719 46.4051 70.7713 50.4051 69.7778C51.3463 69.5687 52.1567 69.0719 52.758 68.3399C54.5358 66.0916 54.5358 62.7974 53.7515 60.1308L53.6992 59.9216C53.5685 59.5295 53.8822 59.085 54.3005 59.085C55.0587 59.1112 55.6338 59.4772 56.3136 59.7648C57.9868 60.6014 59.6338 61.4903 61.0195 62.8236Z" fill="#5599FF"/>
<path d="M52.2092 72.9673C47.9216 74.7974 33.8301 75.2157 26.6667 71.3464C22.1438 68.915 19.2157 63.5556 17.804 61.4902C16.7582 59.9216 16.2354 58.4575 16.2354 58.4575C16.2354 57.8824 17.2288 57.9346 17.9347 57.3333C18.2223 57.098 18.6144 57.0719 18.8236 57.2288C19.1896 57.7516 19.5295 58.2745 19.8171 58.8235C22.7452 64.2353 27.3726 69.6732 34.6144 70.3529C42.9543 71.1373 46.4314 71.0588 50.5883 70.1438C54.5883 69.2549 55.4772 63.8954 54.3791 59.9477C54.353 59.8954 54.353 59.817 54.3269 59.7386C55.0327 59.6863 56.3922 59.817 56.889 61.0719C56.9151 61.0719 58.9282 70.1176 52.2092 72.9673Z" fill="#E7E7E7"/>
<path d="M52.3658 73.3333C50.6403 74.0392 48.8364 74.3006 47.0325 74.5098C45.2286 74.7189 43.4246 74.7974 41.6207 74.7974C37.0978 74.7451 32.4965 74.3268 28.2351 72.7059C23.3723 70.9542 20.2351 66.5359 17.6207 62.3529C16.8364 61.2026 16.1044 60.0261 15.6599 58.6928C15.5292 58.3529 15.7384 57.8823 16.0259 57.6732C16.4181 57.3595 16.8625 57.3595 17.2547 57.2026C17.5161 57.1242 17.673 56.9673 17.9083 56.8366C18.3266 56.6536 18.7972 56.4967 19.3201 56.732C22.3266 63.2941 27.2678 69.5686 35.0063 70.1176C40.1305 70.5882 45.3593 71.1111 50.4312 69.9346C52.4704 69.5948 53.8037 67.7647 54.2743 65.83C54.7972 63.8693 54.6403 61.7516 54.0913 59.817C54.039 59.634 54.1697 59.451 54.3527 59.451C55.4769 59.3464 56.8625 59.8431 57.2547 61.0196C57.6991 63.3725 57.6991 65.7778 57.0194 68.0523C56.3397 70.3791 54.6142 72.4183 52.3658 73.3333ZM52.0521 72.6013C54.1436 71.7647 55.6861 69.9869 56.3919 67.8693C57.0978 65.7255 57.1763 63.3464 56.7318 61.1242C56.4181 60.2614 55.3201 59.8954 54.3789 60.0261L54.6403 59.6601C55.5292 63.0065 55.3462 67.817 52.0259 69.83C51.5554 70.0915 51.0325 70.2745 50.5096 70.3791C49.49 70.5882 48.4442 70.7712 47.4246 70.9019C43.2678 71.3464 39.0848 71.0065 34.954 70.6666C27.8691 70.3006 22.405 64.732 19.3723 58.7189C19.1632 58.2483 18.9279 57.8039 18.6926 57.3333L18.7449 57.3856C18.3527 57.1503 17.9344 57.6993 17.5684 57.83C17.2286 58.0131 16.8625 58.0915 16.575 58.2745C16.5227 58.3268 16.4965 58.3791 16.4965 58.4575V58.3791C17.0978 60.0261 18.1959 61.5163 19.1371 62.9804C21.5161 66.6405 24.392 70.3268 28.6272 71.8431C34.5357 74.1961 45.9867 74.7712 52.0521 72.6013Z" fill="#5599FF"/>
<path d="M47.843 64.2093C47.294 66.9021 43.7384 68.523 37.7515 66.0916C31.5293 63.5818 28.8365 57.5949 28.1567 55.8171C31.843 48.9152 29.2809 44.1308 29.2809 44.1308C37.7777 43.3988 45.2025 53.3335 45.2025 53.3335L46.3528 58.2485C46.4574 58.6668 46.6665 59.0328 46.9803 59.2942C47.5293 60.2616 48.1829 62.4838 47.843 64.2093Z" fill="#E7E7E7"/>
<path d="M28.0262 55.8956C28.5229 55.1374 28.8366 54.2485 29.0458 53.3858C29.4379 51.5818 29.5686 49.7518 29.5948 47.9217V47.242C29.5163 46.5622 29.2811 45.8563 29.0196 45.2289C28.6797 44.3923 29.9085 43.8694 30.3007 44.706C30.3529 44.8106 30.3529 44.9936 30.3529 45.0982C30.4314 48.6537 30.5882 53.2289 28.3399 56.1831C28.183 56.34 27.8693 56.1047 28.0262 55.8956Z" fill="#5599FF"/>
<path d="M45.4904 53.281C45.8825 53.5163 46.0132 53.83 46.0655 54.1437C46.2224 54.7712 46.1701 55.4509 46.327 56.1045C46.4577 56.732 46.8498 57.3333 46.9544 57.9869C47.0851 58.6666 47.4773 60.1045 47.6341 60.8104C47.6864 60.9672 47.5819 61.1502 47.3988 61.1764C47.2943 61.2025 47.2158 61.1764 47.1374 61.1241C46.7975 60.8365 46.6407 60.5489 46.4315 60.1829C46.0917 59.5555 45.8564 58.9803 45.6472 58.2744C45.4642 57.647 45.5426 56.9672 45.3858 56.3136C45.2551 55.6862 44.889 55.0849 44.7583 54.4313C44.6799 54.1176 44.6537 53.7777 44.889 53.3855C45.0459 53.2287 45.3073 53.1764 45.4904 53.281Z" fill="#5599FF"/>
<path d="M47.3724 60.1831C42.3789 59.9217 38.3005 58.353 34.3267 51.2681C37.6731 54.2223 41.6208 55.3465 45.7776 55.8694L46.3267 58.2746C46.4312 58.6929 47.0587 59.9217 47.3724 60.1831Z" fill="#5599FF"/>
<path d="M47.1634 59.2159C48.0523 60.8891 48.5752 62.9806 48.0262 64.8368C47.6079 66.144 46.4052 67.1113 45.0981 67.4773C42.0654 68.2878 38.5621 67.0067 35.8693 65.5688C32.549 63.7126 30.0915 60.6015 28.5229 57.2028C28.4183 56.9414 28.7843 56.7322 28.9412 56.9937C29.4902 58.0917 30.1177 59.1636 30.8235 60.1309C31.5294 61.1244 32.3399 62.0394 33.2549 62.8499C35.9216 65.2551 39.5294 66.7453 43.1373 66.7453C46.8497 66.6407 48.2615 64.68 47.3987 61.0721C47.268 60.4969 47.0588 59.8956 46.7713 59.3989C46.6144 59.1898 47.0065 58.9545 47.1634 59.2159Z" fill="#5599FF"/>
<path d="M57.2809 27.817C57.7515 30.0131 56.1828 32.3661 56.1828 38.2223C56.1828 44.2092 55.0848 50.719 50.5619 55.2419C46.6665 59.1373 42.1959 58.9804 36.941 54.8759C36.209 54.3007 33.6469 52.3661 32.9933 51.7125C32.2351 50.9543 31.8168 50.4053 31.4508 49.8301C31.1371 49.3072 31.2155 46.2746 30.7711 45.5687C29.6207 43.6602 29.3854 45.7255 27.8953 44.0523C25.8299 41.804 23.3462 37.2811 24.575 29.2811C26.5619 16.3138 36.8364 14.7974 44.4443 16.2353C52.1044 17.6994 56.026 22.0393 57.2809 27.817Z" fill="#E7E7E7"/>
<path d="M29.2027 46.3791C28.6013 45.3856 27.8432 44.4967 27.1373 43.5817C26.4314 42.6144 25.8563 41.5948 25.3857 40.4967C22.719 34.0392 23.1112 25.5948 27.8432 20.1569C31.085 16.4444 36.2092 15.2157 40.9151 15.4771C45.621 15.7647 50.5098 16.9673 53.987 20.366C56 22.3268 57.2811 24.9412 57.8563 27.6601C58.0393 28.5229 57.9085 29.464 57.6994 30.2745C57.0981 32.549 56.5229 34.7189 56.4706 37.0719C56.4968 40.5752 56.3922 44.1569 55.3726 47.5294C54.6406 49.7778 53.7778 52.0261 52.4183 53.9869C51.0066 55.9738 48.8889 57.5686 46.4576 58.0392C41.5687 59.0327 36.9935 55.9477 33.7517 52.6013C33.621 52.4444 33.804 52.2614 33.9608 52.366C35.817 53.7778 37.7255 55.085 39.7909 55.9738C45.7517 58.7189 50.6929 56.183 53.3072 50.4314C55.5033 46.2484 56.1308 41.7255 55.9478 37.0457C55.9478 35.8693 56 34.6928 56.1569 33.5163C56.3138 31.817 56.8889 30.1176 56.8628 28.4444C56.4183 25.7255 55.1634 23.1111 53.2811 21.098C48.8105 16.366 40.2353 14.9804 34.2223 17.1242C27.1373 19.634 25.2288 26.7712 24.8366 33.5948C24.5752 37.6732 25.7778 41.6732 28.8628 44.4706L30.0915 45.7516C30.5098 46.3268 29.621 47.0065 29.2027 46.3791Z" fill="#5599FF"/>
<path d="M32.2877 38.0654C32.2877 38.0654 31.4772 34.1438 27.6602 34.6144C24.3661 35.0327 23.2158 42.9281 30.6929 45.1242" fill="#E7E7E7"/>
<path d="M30.353 41.6995C29.7517 41.3596 29.3334 40.7844 29.3073 40.0786C29.3334 39.5557 29.4118 38.9544 29.2811 38.4315C29.2027 37.9348 28.6798 37.804 28.2876 37.8302C27.8693 37.9086 27.6079 38.4315 27.5295 38.8498C27.5295 38.8759 27.5033 38.9544 27.5033 38.9805C27.4772 39.1112 27.268 39.1112 27.2158 38.9805C26.8759 37.9609 27.6341 36.8367 28.7321 36.9674C30.2746 37.072 30.4837 38.6929 30.1961 39.9217C30.0393 40.4446 30.2484 40.9152 30.536 41.3596L30.5883 41.438C30.719 41.5949 30.5099 41.804 30.353 41.6995Z" fill="#5599FF"/>
<path d="M51.2678 35.2943C51.66 37.1505 52.392 38.876 53.307 40.4969C54.1175 42.4839 52.026 44.3662 50.1698 44.2878C49.9606 44.2878 49.9345 44.0002 50.1175 43.9479C51.294 43.5819 52.3659 42.7976 52.5489 41.595C52.6273 41.229 52.5227 40.9152 52.3397 40.6015C51.477 38.9806 50.9541 37.1244 51.0848 35.2943C51.0848 35.1636 51.2678 35.1636 51.2678 35.2943Z" fill="#5599FF"/>
<path d="M32.1572 38.0914C31.5559 36.5489 30.2487 35.0848 28.497 35.111C28.3402 35.0848 28.0787 35.1371 27.9219 35.1371C27.4774 35.1633 27.1114 35.3201 26.7715 35.6339C25.0983 37.3071 25.3859 40.2613 26.7454 42.1175C27.216 42.7711 27.8173 43.3463 28.497 43.8169C29.1768 44.2875 29.9349 44.6535 30.7454 44.9672C30.9284 45.0195 30.85 45.3071 30.667 45.2809C28.9153 44.9149 27.2421 44.0522 26.0918 42.6142C24.314 40.4705 23.948 36.8888 26.0657 34.7973C26.5362 34.379 27.1898 34.0652 27.8434 34.0652C28.0526 34.0652 28.3663 34.0129 28.5755 34.0652C29.6735 34.1175 30.7192 34.6665 31.399 35.5293C32.0003 36.2613 32.3402 37.1502 32.4447 38.0391C32.4447 38.1959 32.2094 38.2482 32.1572 38.0914Z" fill="#5599FF"/>
<path d="M48.6799 46.7973C48.7061 47.2156 48.3924 47.9477 47.8172 48.4705C44.8629 46.6666 43.5296 47.6078 43.5296 47.6078C42.4839 46.013 42.7191 43.8431 45.2551 45.4901C47.0067 46.6405 48.1048 46.8235 48.6799 46.7973Z" fill="#5599FF"/>
<path d="M47.791 48.4968C47.1635 49.0458 46.2224 49.3857 44.9413 48.8628C44.34 48.6275 43.8694 48.157 43.5034 47.6341C43.5296 47.6341 44.8368 46.6929 47.791 48.4968Z" fill="#E7E7E7"/>
<path d="M49.1764 46.719C49.1764 46.719 48.0784 47.3203 45.2549 45.5164C41.8823 43.3465 42.5621 47.8955 44.9411 48.8628C47.4248 49.8824 48.7058 47.6602 48.6797 46.8236" stroke="#5599FF" stroke-width="3" stroke-miterlimit="10" stroke-linecap="round" stroke-linejoin="round"/>
<path d="M43.5293 47.6341C43.5293 47.6341 44.8626 46.6929 47.8169 48.4968" stroke="#5599FF" stroke-width="3" stroke-miterlimit="10" stroke-linecap="round" stroke-linejoin="round"/>
<path d="M45.5425 31.8956C46.1176 31.8433 46.4052 31.1635 46.0915 30.6407C45.9085 30.3792 45.6732 30.1439 45.3333 30.0132C44.3398 29.6995 41.098 30.4054 39.6862 32.0263C38.4313 33.5165 42.9281 32.1309 45.5425 31.8956Z" fill="#5599FF"/>
<path d="M52.4446 32.3137C52.0002 32.183 51.8694 31.5294 52.2355 31.1111C52.4185 30.902 52.6799 30.719 52.9675 30.6667C53.8564 30.5098 55.8956 31.3203 56.4707 32.8627C56.9936 34.1961 54.5623 32.8366 52.4446 32.3137Z" fill="#5599FF"/>
<path d="M41.5165 37.9611C40.8891 37.935 40.4185 37.4121 40.4708 36.7847L40.4969 36.0527C40.5231 35.4252 41.0459 34.9546 41.6734 35.0069C42.3008 35.033 42.7714 35.5559 42.7191 36.1834L42.693 36.9154C42.6668 37.5167 42.144 37.9873 41.5165 37.9611Z" fill="#5599FF"/>
<path d="M52.5229 38.3529C51.9477 38.3268 51.5033 37.83 51.5294 37.2549L51.5556 36.5751C51.5817 36 52.0784 35.5555 52.6536 35.5817C53.2288 35.6078 53.6732 36.1045 53.6471 36.6797L53.6209 37.3594C53.5948 37.9346 53.098 38.379 52.5229 38.3529Z" fill="#5599FF"/>
<path d="M43.8691 36.5491C43.0064 35.974 42.0652 35.5818 41.0195 35.7909C40.6796 35.8432 40.3397 35.9478 40.1306 36.1831C40.0521 36.2877 39.8691 36.2615 39.8691 36.1047C39.8953 35.5818 40.3397 35.2419 40.758 35.0328C41.5685 34.6145 42.6927 34.6929 43.4247 35.2419C43.6861 35.3988 44.575 36.3661 44.1044 36.5753C43.9999 36.6275 43.9476 36.6014 43.8691 36.5491Z" fill="#5599FF"/>
<path d="M51.3462 36.6799C51.3462 35.5819 52.7057 35.1897 53.5423 35.5819C54.0129 35.7911 54.3527 36.2094 54.4834 36.7061C54.5357 36.8629 54.3004 36.9937 54.1959 36.8629C53.7514 36.3401 52.9932 36.0786 52.3919 36.3924C52.2089 36.4969 52.1828 36.5754 52.1305 36.6799C52.1305 37.2028 51.3723 37.1767 51.3462 36.6799Z" fill="#5599FF"/>
<path d="M57.3539 35.3202C57.38 35.1895 57.4062 35.0588 57.4062 34.928C57.6676 33.281 57.8506 31.7646 57.9552 30.3267C58.1643 27.3986 57.6153 22.1176 53.4062 18.9542C53.0401 18.6666 52.648 18.4052 52.2035 18.1699C51.8375 17.9607 51.4454 17.7777 51.0532 17.5947C47.6284 16.1307 42.112 14.379 36.648 15.3202C34.5565 15.6601 32.465 16.4182 30.5042 17.6993C30.478 17.6993 30.4781 17.7254 30.4781 17.7254C25.7199 20.8627 24.0467 25.83 23.1578 30.5097C22.8702 31.9999 22.6611 33.4901 22.4781 34.8496C22.3735 35.5555 22.2689 36.2352 22.1643 36.8627C21.7722 39.2418 20.465 41.3594 19.0794 43.0326C19.0009 43.111 18.9225 43.2156 18.8441 43.2941C17.7199 44.5751 16.5957 45.5947 15.8114 46.196C15.7591 46.2222 15.7068 46.2744 15.6807 46.3006C17.4062 51.7385 23.9944 55.8169 30.0859 57.0457C30.9748 53.1503 31.5761 49.2026 30.8179 45.1503C30.6088 45.0718 30.5042 44.9934 30.5042 44.9411C23.2885 42.6666 24.4388 34.928 27.7068 34.5097C28.8833 34.3529 29.746 34.6405 30.4258 35.0588C31.3408 35.7385 32.3343 37.4378 32.3343 37.9346C32.3865 36.7843 32.8833 35.1895 33.4846 35.1372C34.112 35.0849 34.7395 34.9542 35.3408 34.7189C38.3473 33.6731 41.0924 30.8496 43.5238 28.3398C46.8702 24.8888 49.5892 21.9607 51.5238 24.8627C51.6284 25.0195 51.733 25.1764 51.8114 25.3333C54.112 25.281 55.1839 26.6143 55.733 27.9999C55.733 27.9999 55.733 27.9999 55.733 28.0261C56.1774 29.2026 56.2297 30.4052 56.282 30.7189C56.282 30.7712 56.282 30.7973 56.3081 30.7973C56.2558 31.8431 56.1251 33.6209 56.099 35.9215C56.099 36.9673 56.2035 39.0588 56.1251 40.2614C56.099 40.6274 56.0728 40.9934 56.0467 41.3333C56.0205 41.5163 56.0205 41.6993 55.9944 41.8561C55.9683 42.013 55.9682 42.196 55.9421 42.379C55.916 42.6405 55.8898 42.9019 55.8637 43.1895C55.8375 43.4248 55.8114 43.6601 55.7852 43.8954V43.9215C55.7591 44.1045 55.733 44.2614 55.7068 44.4182C55.3147 46.5097 54.7133 48.732 53.8506 50.0653C52.1251 52.7581 50.7656 55.0326 48.282 56.1829C45.8245 57.3071 43.0271 57.5424 43.0271 57.5424C43.0271 57.5424 43.8114 58.0392 45.6676 58.1437C47.4977 58.2483 48.8571 57.6993 50.2166 57.9346C53.1186 58.4313 58.2166 58.4313 58.2166 58.4313C62.0336 48.3921 55.5761 47.9215 57.3539 35.3202Z" fill="#5599FF"/>
<path d="M36.9936 43.137C37.7257 42.7448 38.4315 42.3265 39.242 42.1174C39.3204 42.1174 39.3727 42.0912 39.5296 42.1435C40.0786 42.5618 38.4838 43.6076 38.1962 43.869C38.2747 43.7644 38.2485 43.5814 38.1178 43.5291C38.0917 43.5291 38.0917 43.503 38.0655 43.503C38.0132 43.503 38.0132 43.503 38.0132 43.503C38.6668 43.2677 39.3204 43.0063 39.9479 42.6925C40.3139 42.5357 40.8106 42.1958 41.2028 42.1697C41.3596 42.1697 41.5427 42.3265 41.5165 42.4834C41.4904 42.6925 41.4381 42.771 41.3858 42.9017C41.3335 43.0063 41.2289 43.1631 41.2028 43.2677C41.2028 43.2938 41.1766 43.2416 41.1766 43.2416C41.1766 43.2677 41.3335 43.2677 41.3596 43.2416C41.7779 43.1893 42.2224 43.0324 42.6407 42.8755C42.7191 42.8494 42.7714 42.954 42.693 43.0063C42.2485 43.2938 41.7779 43.6076 41.2028 43.6599C40.8368 43.686 40.6538 43.3461 40.7845 43.0324C40.8368 42.8494 40.9675 42.6403 41.0198 42.4834C41.0198 42.5357 41.0721 42.6141 41.1244 42.6403C41.1766 42.6664 41.2028 42.6403 41.1766 42.6664C40.9152 42.7448 40.3923 43.0324 40.157 43.137C39.4773 43.4507 38.8237 43.7383 38.0917 43.9474C38.0394 43.9474 38.0394 43.9736 37.961 43.9474C37.7518 43.9213 37.6995 43.6599 37.8564 43.5291C38.1701 43.2677 38.5361 43.0586 38.8237 42.7971C38.9806 42.6664 39.1636 42.4834 39.2681 42.3265C39.2681 42.3527 39.2943 42.405 39.3204 42.4311C39.0851 42.4572 38.6145 42.588 38.327 42.7187C37.9087 42.8755 37.4642 43.0585 37.0459 43.2416C36.9936 43.2938 36.9152 43.1631 36.9936 43.137Z" fill="#5599FF"/>
<path d="M53.9346 43.137C54.1699 42.8756 55.1634 41.6207 55.4248 42.2743C55.4248 42.3266 55.4248 42.3788 55.4248 42.405C55.3202 42.9279 54.9804 43.3723 54.7189 43.8168C54.7712 43.686 54.6666 43.503 54.5359 43.4769C54.4836 43.4769 54.4575 43.4769 54.4313 43.4769C54.4052 43.4769 54.4313 43.4769 54.4575 43.4507C54.9804 43.1109 55.3725 42.6926 55.8954 42.3266C56 42.2743 56.1307 42.1958 56.2614 42.2743C56.3921 42.3788 56.366 42.5357 56.3137 42.6403C56.2614 42.771 56.2091 42.8756 56.1568 43.0063C56.1307 43.0324 56.1045 43.0586 56.0523 43.0324C56.0261 43.0324 56.0261 43.0063 56.0261 42.9801C56.0261 42.9279 56.0261 42.588 56.0261 42.5357C56.0261 42.5096 56 42.4834 56.0261 42.5357C56.0261 42.5618 56.0784 42.6141 56.1307 42.6141C56.1568 42.6141 56.2091 42.6141 56.2091 42.6141C55.7647 43.137 55.2418 43.6337 54.6405 43.9736C54.4575 44.052 54.2483 43.8952 54.2745 43.686C54.2745 43.6599 54.3006 43.6076 54.3268 43.5815C54.5098 43.32 54.7189 43.0586 54.8758 42.7971C54.9542 42.6664 55.0588 42.4834 55.0849 42.3527C55.0849 42.405 55.1895 42.4834 55.2157 42.4573C54.7974 42.6141 54.4313 42.954 54.0653 43.2154C53.9608 43.2939 53.8823 43.1893 53.9346 43.137Z" fill="#5599FF"/>
<path d="M75.3463 22.039C91.2155 52.6011 63.3201 87.0848 30.0652 78.6665C15.1371 74.954 3.1371 62.0129 0.653439 46.8233C-2.17009 31.7122 4.65344 15.4769 17.4116 6.92789C34.9018 -5.09825 59.1371 -1.09825 71.66 16.1044C71.7384 16.1828 71.7123 16.3135 71.6077 16.3919C71.5293 16.4704 71.3985 16.4442 71.3201 16.3397C69.5946 14.1174 67.6338 12.1044 65.49 10.3004C61.9606 7.2939 57.8299 4.94096 53.4639 3.34619C31.2417 -4.7061 6.84952 8.67952 1.98677 31.9214C-3.50342 57.9606 18.6404 81.9344 45.0456 78.3527C65.4116 75.7906 80.5489 56.9933 78.8757 36.5488C78.5097 31.6076 77.2025 26.7187 75.0325 22.222C74.9802 22.1436 75.0325 22.039 75.111 21.9867C75.1894 21.9344 75.294 21.9606 75.3463 22.039Z" fill="#5599FF"/>
</g>
</svg>
