<svg width="80" height="80" viewBox="0 0 80 80" fill="none" xmlns="http://www.w3.org/2000/svg">
<mask id="mask0_756_5080" style="mask-type:alpha" maskUnits="userSpaceOnUse" x="0" y="0" width="80" height="80">
<circle cx="39.8689" cy="39.8689" r="39.8689" fill="#D9D9D9"/>
</mask>
<g mask="url(#mask0_756_5080)">
<path d="M61.7257 72.7844C61.5427 72.9151 61.3336 73.0458 61.1506 73.1765C60.9414 73.3072 60.7584 73.438 60.5492 73.5425C60.3662 73.6471 60.2094 73.7517 60.0264 73.8563C60.0002 73.8824 59.9741 73.8824 59.9479 73.9085C59.3466 74.2746 58.7192 74.6144 58.0917 74.9282C57.9087 75.0327 57.6996 75.1373 57.5166 75.2157C57.5166 75.2157 57.4904 75.2419 57.4643 75.2419C57.2551 75.3465 57.046 75.451 56.8368 75.5556C56.4185 75.7648 55.9741 75.9478 55.5558 76.1308C55.3466 76.2353 55.1113 76.3138 54.9022 76.3922C54.693 76.4706 54.4577 76.5752 54.2486 76.6536C54.0394 76.7321 53.8041 76.8367 53.595 76.9151C53.595 76.9151 53.595 76.9151 53.5689 76.9151C53.3597 76.9935 53.1244 77.0719 52.9153 77.1504C52.4447 77.3072 51.9479 77.4641 51.4774 77.621C51.3205 77.6733 51.1375 77.7255 50.9806 77.7778C50.4839 77.9347 49.9872 78.0654 49.4904 78.17C49.3074 78.2223 49.1244 78.2484 48.9153 78.3007C48.4447 78.4053 47.9479 78.5099 47.4774 78.6144C47.3728 78.6406 47.2943 78.6406 47.1898 78.6667C47.0329 78.6929 46.8499 78.719 46.693 78.7451C46.4577 78.7713 46.2486 78.8236 46.0133 78.8497C45.9087 78.8759 45.8042 78.8759 45.6996 78.902C45.5689 78.9282 45.412 78.9543 45.2551 78.9543C44.8368 79.0066 44.3924 79.0589 43.9741 79.1112C43.8434 79.1373 43.6865 79.1373 43.5558 79.1634H43.5296C43.3466 79.1896 43.1636 79.1896 42.9806 79.2157C42.7976 79.2419 42.6146 79.2419 42.4316 79.2419C42.327 79.2419 42.1963 79.268 42.0917 79.268C41.8826 79.268 41.6996 79.2942 41.5166 79.2942C41.2551 79.2942 41.0198 79.3203 40.7584 79.3203C40.497 79.3203 40.2617 79.3203 40.0002 79.3203C39.8172 79.3203 39.6342 79.3203 39.4512 79.3203C28.4185 79.1634 18.51 74.4837 11.4251 67.0589C11.4251 67.0589 11.4251 67.0327 11.3989 67.0327C10.6146 66.3268 11.2944 62.5621 14.4577 60.1831C18.4316 57.1765 27.9479 55.2942 27.9479 55.2942C27.9479 55.2942 31.6342 54.6929 45.3074 57.5425C53.3074 59.2157 59.3989 61.6471 62.7976 68.2353C63.5035 69.5948 64.2094 71.6863 61.7257 72.7844Z" fill="#E7E7E7"/>
<path d="M45.3857 57.255C50.4053 58.2746 55.7648 59.3727 59.8955 62.6929C61.2812 63.8171 62.1962 65.4642 62.9544 67.059C63.3204 67.8433 63.6864 68.6537 63.974 69.5165C64.1308 70.0916 64.3661 70.7452 64.2354 71.425C64.2093 71.608 64.0524 71.8433 63.9217 71.974C63.3204 72.5753 62.6668 72.9413 62.0132 73.4119C58.17 76.0786 53.7517 77.9609 49.1766 78.9544C38.9805 81.1766 27.9478 79.4511 18.9805 74.0916C16.0001 72.2877 13.255 70.0916 10.9021 67.5034C10.6406 67.1897 10.6406 66.6668 10.6406 66.3269C10.6668 65.5426 10.8759 64.7844 11.1374 64.0786C11.7648 62.4576 12.5753 60.8367 13.9609 59.7125C14.9544 59.0328 16.0262 58.4576 17.1243 57.9871C20.5753 56.523 24.2093 55.5034 27.9478 55.0851C28.2615 55.0589 28.3138 55.5034 28.0001 55.5557C24.4184 56.2877 20.8628 57.3857 17.5426 58.8759C16.34 59.4773 15.0589 60.0001 14.0916 60.9413C13.1766 61.9348 12.523 63.1635 12.0001 64.4184C11.6602 65.1766 11.4249 66.3792 11.5295 66.9805C13.1766 68.9413 15.1112 70.6668 17.2027 72.157C28.6537 80.157 46.0393 80.6799 58.2223 74.0132C59.3204 73.4119 60.3923 72.7322 61.4119 72.0263C61.9086 71.6864 62.4315 71.3988 62.8236 71.0067C62.8498 70.9805 62.8236 71.0067 62.8236 71.0328C62.8236 71.059 62.7975 71.0851 62.7975 71.0851C62.8236 70.7714 62.7191 70.3531 62.5883 69.9348C62.1178 68.4184 61.3596 66.8237 60.5491 65.438C59.2681 63.3727 57.0981 62.0655 54.9021 61.0197C53.3857 60.3139 51.791 59.7648 50.17 59.242C48.5491 58.7191 46.9021 58.2746 45.255 57.8825C44.8367 57.7779 44.9674 57.1766 45.3857 57.255Z" fill="#5599FF"/>
<path d="M70.8502 89.0984L4.62793 87.6343C8.70636 74.0134 10.9809 62.0134 14.0397 60.1834C19.8436 56.7062 25.0724 56.1572 28.1835 55.8696C28.9678 57.8043 31.9482 64.1572 38.1443 66.667C44.1312 69.0984 47.6868 67.4775 48.2358 64.7847C48.5756 63.0592 47.5037 60.2356 46.9547 59.3206C46.641 59.0592 46.4319 58.667 46.3273 58.2749L46.1181 57.4121C46.5626 57.3075 47.007 57.203 47.4515 57.0461C52.2096 57.8827 59.4253 61.8043 60.9678 64.0003C62.824 66.6409 65.3861 73.2553 65.2815 76.8892C65.1247 82.7977 70.8502 89.0984 70.8502 89.0984Z" fill="#E7E7E7"/>
<path d="M71.4774 89.3858C51.765 89.0982 24.0526 88.8106 4.62772 88.3139C4.2617 88.3139 3.97412 88.0002 3.97412 87.6342C6.09177 80.4969 7.79111 73.3074 10.0656 66.1963C10.3532 65.3074 10.6669 64.4446 11.0329 63.5557C11.6604 62.1701 12.2878 60.6276 13.595 59.6865C14.3532 59.242 15.1637 58.7976 15.948 58.4054C19.7388 56.5231 23.948 55.5557 28.131 55.2159C28.4447 55.1897 28.7061 55.3727 28.8107 55.6342C30.7977 60.3923 34.4055 64.8106 39.4512 66.4577C41.9349 67.3204 46.3532 68.0525 47.5297 64.9675C47.9218 63.4773 47.3467 61.9087 46.8238 60.4969C46.6931 60.2093 46.5624 59.9217 46.4316 59.6865L46.5624 59.8433C46.0656 59.425 45.7519 58.7191 45.6473 58.0917L45.5166 57.5688C45.4382 57.2028 45.6735 56.8368 46.0395 56.7583C46.4839 56.6538 46.9022 56.5492 47.3205 56.4185C50.9807 56.6799 58.4839 60.3923 61.0722 63.0067C62.5885 64.7583 63.4512 67.0329 64.314 69.1505C64.9414 70.8498 65.4905 72.6015 65.8042 74.4054C65.9349 75.0851 66.0133 75.791 66.0133 76.4969C65.9872 77.5427 66.0656 78.6146 66.3532 79.6603C67.216 82.9283 69.1245 85.9348 71.2944 88.5231L71.3467 88.5753L71.3728 88.6015C71.3728 88.6015 71.3467 88.5753 71.4512 88.6799C71.5297 88.8891 71.5558 89.2028 71.4774 89.3858ZM70.2486 88.8368C70.2225 88.9152 70.1702 89.0198 70.1964 89.1505C70.1964 89.2812 70.2486 89.3858 70.3009 89.4642C70.3794 89.5688 70.3532 89.5165 70.3532 89.5427L70.3271 89.5165C70.1441 89.2551 69.7781 88.7322 69.595 88.4446C67.4513 85.0721 65.3336 81.3335 65.2552 77.2289C65.3075 74.5361 64.4709 71.9479 63.582 69.4642C62.9545 67.791 62.2225 66.1701 61.2813 64.6538C61.046 64.2878 60.8107 63.9217 60.497 63.608C59.5558 62.693 58.4055 61.961 57.2552 61.3074C54.1963 59.608 50.8761 58.1963 47.399 57.7518L47.7127 57.7257C47.2421 57.8825 46.7715 57.9871 46.3009 58.0917L46.8238 57.2812C46.9807 57.8302 47.0068 58.4838 47.4512 58.8499C47.7388 59.1897 47.8957 59.6342 48.0787 60.0002C48.497 60.9936 48.7846 62.0132 48.9676 63.0851C49.4382 65.6472 47.9218 67.7649 45.412 68.34C43.2944 68.8368 41.0722 68.3923 39.0591 67.7387C33.6473 66.0133 29.7258 61.2812 27.6081 56.157L28.2878 56.5753C24.1571 56.5231 20.0526 57.3335 16.314 59.1113C15.5035 59.5034 14.6669 59.9479 13.9088 60.4185C12.8369 61.2812 12.314 62.6407 11.765 63.8695C10.0656 68.157 9.07216 72.6538 7.94798 77.0982C7.16366 80.2355 6.11791 84.6799 5.3336 87.8433L4.70615 86.9806C23.6343 87.3727 51.0068 88.2093 70.2486 88.8368Z" fill="#5599FF"/>
<path d="M16.2354 88.9938C16.2354 88.9938 15.8955 80.5232 15.5557 78.9546" stroke="#5599FF" stroke-width="5.1512" stroke-miterlimit="10" stroke-linecap="round" stroke-linejoin="round"/>
<path d="M62.5621 88.9938C62.5621 88.9938 61.7778 83.7389 61.7778 82.8239C61.7778 81.935 62.4576 79.0069 62.5621 76.4448" stroke="#5599FF" stroke-width="5.1512" stroke-miterlimit="10" stroke-linecap="round" stroke-linejoin="round"/>
<path d="M23.9482 82.4056V79.2944L31.4515 82.3533C31.4254 82.3533 25.3862 82.5101 23.9482 82.4056Z" fill="#E7E7E7"/>
<path d="M33.3599 82.2485C33.3599 82.2485 25.9612 82.7453 21.9873 82.2485" stroke="#5599FF" stroke-width="5.1512" stroke-miterlimit="10" stroke-linecap="round" stroke-linejoin="round"/>
<path d="M41.8303 72.2877L40.8892 91.791C40.8892 91.791 49.1767 97.4381 49.1767 97.2812C49.1767 97.1243 53.0983 90.2747 53.0983 90.2747L46.9807 71.5034C46.9807 71.5034 46.1964 72.3139 41.8303 72.2877Z" fill="#5599FF"/>
<path d="M43.7127 66.0132C43.7127 66.0132 40.131 69.3857 39.6604 70.2746C39.1898 71.1635 41.6735 72.5753 41.6735 72.5753C41.6735 72.5753 45.6735 73.4119 47.4774 71.791C47.4774 71.791 48.497 70.6668 48.2878 69.5949C48.1048 68.5491 43.7127 66.0132 43.7127 66.0132Z" fill="#5599FF"/>
<path d="M27.1113 53.3596C27.1375 53.3335 27.1636 53.3073 27.1897 53.2812C27.4773 52.9413 27.8956 52.7321 28.3662 52.6799C30.5623 52.4184 30.7976 52.6537 31.2682 53.3857C33.5427 56.9413 36.4969 63.7387 43.7388 66.0393L36.7584 73.1504C36.3924 73.621 35.7388 73.6995 35.2682 73.3596C33.0198 71.6864 28.5231 66.5622 26.0394 60.3138C25.5165 59.0067 25.412 57.5687 25.6734 56.2093C25.6211 56.157 26.6669 53.9871 27.1113 53.3596Z" fill="#E7E7E7"/>
<path d="M26.9282 53.2289C27.3203 52.8629 27.7648 52.5492 28.3138 52.4707C29.0458 52.3923 29.804 52.2355 30.5621 52.3923C31.3465 52.6276 31.634 53.4904 32.0785 54.0917C34.0393 57.3073 36.0785 60.5753 39.085 62.8498C40.1569 63.7126 41.3857 64.3662 42.6406 64.889C43.1112 65.0721 43.6079 65.2289 44.0785 65.4381C44.4706 65.6211 44.5491 66.1962 44.2092 66.4577C42.2746 68.0263 40.4445 69.7256 38.6406 71.4773C38.2223 71.8956 37.255 72.8629 36.8889 73.2289C36.4706 73.7779 35.634 73.8564 35.1112 73.4381L34.8497 73.2289C33.9608 72.4969 33.1504 71.6603 32.3661 70.8237C29.5687 67.7387 27.2157 64.2354 25.6471 60.3662C25.0981 58.9805 24.9674 57.4119 25.3072 55.974C25.6994 55.0067 26.2223 54.0394 26.9282 53.2289ZM27.451 53.5949C26.8759 54.4054 26.3791 55.3988 25.9608 56.3139L25.987 56.2355C25.8301 57.0982 25.8301 57.9871 26.0131 58.8237C26.17 59.7126 26.5621 60.4969 26.902 61.3073C27.6079 62.9805 28.4968 64.5753 29.438 66.1178C30.3791 67.6603 31.451 69.1505 32.6536 70.5361C33.4641 71.4773 34.3268 72.3923 35.3203 73.1505C35.3987 73.2289 35.4772 73.2551 35.5818 73.3073C35.9478 73.4642 36.3922 73.3335 36.6275 73.0198L37.4902 72.1309L38.353 71.2158C40.0785 69.4119 41.7255 67.5296 43.268 65.5688L43.5295 66.6407C41.6471 66.0655 39.8693 65.0459 38.3268 63.7649C35.268 61.2812 33.2811 57.8302 31.3987 54.4838C31.1634 54.1178 30.9282 53.6472 30.6929 53.3073C30.5883 53.1505 30.5099 53.0982 30.353 53.0459C29.7517 52.889 29.0458 52.9936 28.4184 53.0721C28 53.1243 27.6602 53.3073 27.451 53.5949Z" fill="#5599FF"/>
<path d="M51.0329 70.562C50.8761 71.4248 50.2486 72.2352 49.2029 71.1633L43.6865 66.013C43.6865 66.013 46.9022 62.9542 46.1179 57.4117C47.1898 57.1764 48.2094 56.8365 49.1506 56.3921C49.1767 56.4444 49.5427 57.1503 49.961 58.3267C50.8499 60.7581 51.9741 65.2287 51.0329 70.562Z" fill="#E7E7E7"/>
<path d="M51.1897 70.5883C51.0328 71.8432 50.0916 72.3661 49.1243 71.3988L47.2681 69.6733L45.4119 67.9478L43.5557 66.2223C43.4511 66.1177 43.4511 65.9608 43.5295 65.8563C44.9674 64.1831 45.6995 61.9086 45.6995 59.7125C45.6995 58.9282 45.5949 58.17 45.4642 57.3857C45.4119 57.072 45.6733 56.7844 46.0132 56.7582C47.059 56.7321 48.1047 56.6014 49.1505 56.3399C49.1766 56.3138 49.2289 56.3399 49.2289 56.3661C51.3204 60.7582 51.974 65.804 51.1897 70.5883ZM50.9021 70.536C51.5295 65.8824 50.8498 61.0458 48.6799 56.889L48.6276 56.8105C48.6014 56.7844 48.5753 56.7321 48.5753 56.7321L49.4642 56.9935C48.4446 57.4903 47.3727 57.8301 46.2746 58.0654L46.7975 57.3072C46.9544 58.9282 46.8237 60.5752 46.3531 62.1177C45.8563 63.6602 45.072 65.072 43.8956 66.2223V65.8301C44.8367 66.6929 46.6929 68.4445 47.608 69.3073L49.438 71.0589C50.0916 71.7386 50.7191 71.4772 50.9021 70.536Z" fill="#5599FF"/>
<path d="M47.843 64.2093C47.294 66.9021 43.7384 68.523 37.7515 66.0916C31.5293 63.5818 28.8365 57.5949 28.1567 55.8171C31.843 48.9152 29.2809 44.1308 29.2809 44.1308C37.7777 43.3988 45.2025 53.3335 45.2025 53.3335L46.3528 58.2485C46.4574 58.6668 46.6665 59.0328 46.9803 59.2942C47.5293 60.2616 48.1829 62.4838 47.843 64.2093Z" fill="#E7E7E7"/>
<path d="M28.0262 55.8956C28.5229 55.1374 28.8366 54.2485 29.0458 53.3858C29.4379 51.5818 29.5686 49.7518 29.5948 47.9217V47.242C29.5163 46.5622 29.2811 45.8563 29.0196 45.2289C28.6797 44.3923 29.9085 43.8694 30.3007 44.706C30.3529 44.8106 30.3529 44.9936 30.3529 45.0982C30.4314 48.6537 30.5882 53.2289 28.3399 56.1831C28.183 56.34 27.8693 56.1047 28.0262 55.8956Z" fill="#5599FF"/>
<path d="M45.4904 53.281C45.8825 53.5163 46.0132 53.83 46.0655 54.1437C46.2224 54.7712 46.1701 55.4509 46.327 56.1045C46.4577 56.732 46.8498 57.3333 46.9544 57.9869C47.0851 58.6666 47.4773 60.1045 47.6341 60.8104C47.6864 60.9672 47.5819 61.1502 47.3988 61.1764C47.2943 61.2025 47.2158 61.1764 47.1374 61.1241C46.7975 60.8365 46.6407 60.5489 46.4315 60.1829C46.0917 59.5555 45.8564 58.9803 45.6472 58.2744C45.4642 57.647 45.5426 56.9672 45.3858 56.3136C45.2551 55.6862 44.889 55.0849 44.7583 54.4313C44.6799 54.1176 44.6537 53.7777 44.889 53.3855C45.0459 53.2287 45.3073 53.1764 45.4904 53.281Z" fill="#5599FF"/>
<path d="M47.3724 60.1831C42.3789 59.9217 38.3005 58.353 34.3267 51.2681C37.6731 54.2223 41.6208 55.3465 45.7776 55.8694L46.3267 58.2746C46.4312 58.6929 47.0587 59.9217 47.3724 60.1831Z" fill="#5599FF"/>
<path d="M47.1634 59.2159C48.0523 60.8891 48.5752 62.9806 48.0262 64.8368C47.6079 66.144 46.4052 67.1113 45.0981 67.4773C42.0654 68.2878 38.5621 67.0067 35.8693 65.5688C32.549 63.7126 30.0915 60.6015 28.5229 57.2028C28.4183 56.9414 28.7843 56.7322 28.9412 56.9937C29.4902 58.0917 30.1177 59.1636 30.8235 60.1309C31.5294 61.1244 32.3399 62.0394 33.2549 62.8499C35.9216 65.2551 39.5294 66.7453 43.1373 66.7453C46.8497 66.6407 48.2615 64.68 47.3987 61.0721C47.268 60.4969 47.0588 59.8956 46.7713 59.3989C46.6144 59.1898 47.0065 58.9545 47.1634 59.2159Z" fill="#5599FF"/>
<path d="M57.2809 27.817C57.7515 30.0131 56.1828 32.3661 56.1828 38.2223C56.1828 44.2092 55.0848 50.719 50.5619 55.2419C46.6665 59.1373 42.1959 58.9804 36.941 54.8759C36.209 54.3007 33.6469 52.3661 32.9933 51.7125C32.2351 50.9543 31.8168 50.4053 31.4508 49.8301C31.1371 49.3072 31.2155 46.2746 30.7711 45.5687C29.6207 43.6602 29.3854 45.7255 27.8953 44.0523C25.8299 41.804 23.3462 37.2811 24.575 29.2811C26.5619 16.3138 36.8364 14.7974 44.4443 16.2353C52.1044 17.6994 56.026 22.0393 57.2809 27.817Z" fill="#E7E7E7"/>
<path d="M29.2027 46.3791C28.6013 45.3856 27.8432 44.4967 27.1373 43.5817C26.4314 42.6144 25.8563 41.5948 25.3857 40.4967C22.719 34.0392 23.1112 25.5948 27.8432 20.1569C31.085 16.4444 36.2092 15.2157 40.9151 15.4771C45.621 15.7647 50.5098 16.9673 53.987 20.366C56 22.3268 57.2811 24.9412 57.8563 27.6601C58.0393 28.5229 57.9085 29.464 57.6994 30.2745C57.0981 32.549 56.5229 34.7189 56.4706 37.0719C56.4968 40.5752 56.3922 44.1569 55.3726 47.5294C54.6406 49.7778 53.7778 52.0261 52.4183 53.9869C51.0066 55.9738 48.8889 57.5686 46.4576 58.0392C41.5687 59.0327 36.9935 55.9477 33.7517 52.6013C33.621 52.4444 33.804 52.2614 33.9608 52.366C35.817 53.7778 37.7255 55.085 39.7909 55.9738C45.7517 58.7189 50.6929 56.183 53.3072 50.4314C55.5033 46.2484 56.1308 41.7255 55.9478 37.0457C55.9478 35.8693 56 34.6928 56.1569 33.5163C56.3138 31.817 56.8889 30.1176 56.8628 28.4444C56.4183 25.7255 55.1634 23.1111 53.2811 21.098C48.8105 16.366 40.2353 14.9804 34.2223 17.1242C27.1373 19.634 25.2288 26.7712 24.8366 33.5948C24.5752 37.6732 25.7778 41.6732 28.8628 44.4706L30.0915 45.7516C30.5098 46.3268 29.621 47.0065 29.2027 46.3791Z" fill="#5599FF"/>
<path d="M32.2877 38.0654C32.2877 38.0654 31.4772 34.1438 27.6602 34.6144C24.3661 35.0327 23.2158 42.9281 30.6929 45.1242" fill="#E7E7E7"/>
<path d="M30.353 41.6995C29.7517 41.3596 29.3334 40.7844 29.3073 40.0786C29.3334 39.5557 29.4118 38.9544 29.2811 38.4315C29.2027 37.9348 28.6798 37.804 28.2876 37.8302C27.8693 37.9086 27.6079 38.4315 27.5295 38.8498C27.5295 38.8759 27.5033 38.9544 27.5033 38.9805C27.4772 39.1112 27.268 39.1112 27.2158 38.9805C26.8759 37.9609 27.6341 36.8367 28.7321 36.9674C30.2746 37.072 30.4837 38.6929 30.1961 39.9217C30.0393 40.4446 30.2484 40.9152 30.536 41.3596L30.5883 41.438C30.719 41.5949 30.5099 41.804 30.353 41.6995Z" fill="#5599FF"/>
<path d="M51.2678 35.2943C51.66 37.1505 52.392 38.876 53.307 40.4969C54.1175 42.4839 52.026 44.3662 50.1698 44.2878C49.9606 44.2878 49.9345 44.0002 50.1175 43.9479C51.294 43.5819 52.3659 42.7976 52.5489 41.595C52.6273 41.229 52.5227 40.9152 52.3397 40.6015C51.477 38.9806 50.9541 37.1244 51.0848 35.2943C51.0848 35.1636 51.2678 35.1636 51.2678 35.2943Z" fill="#5599FF"/>
<path d="M32.1572 38.0914C31.5559 36.5489 30.2487 35.0848 28.497 35.111C28.3402 35.0848 28.0787 35.1371 27.9219 35.1371C27.4774 35.1633 27.1114 35.3201 26.7715 35.6339C25.0983 37.3071 25.3859 40.2613 26.7454 42.1175C27.216 42.7711 27.8173 43.3463 28.497 43.8169C29.1768 44.2875 29.9349 44.6535 30.7454 44.9672C30.9284 45.0195 30.85 45.3071 30.667 45.2809C28.9153 44.9149 27.2421 44.0522 26.0918 42.6142C24.314 40.4705 23.948 36.8888 26.0657 34.7973C26.5362 34.379 27.1898 34.0652 27.8434 34.0652C28.0526 34.0652 28.3663 34.0129 28.5755 34.0652C29.6735 34.1175 30.7192 34.6665 31.399 35.5293C32.0003 36.2613 32.3402 37.1502 32.4447 38.0391C32.4447 38.1959 32.2094 38.2482 32.1572 38.0914Z" fill="#5599FF"/>
<path d="M49.5161 46.7711C49.0717 47.0849 48.4181 46.8234 47.9475 47.0326C47.6076 47.1371 47.0586 47.6077 46.2743 47.5554C45.6469 47.5032 45.3331 47.1894 44.8102 46.9541C44.2612 46.7711 43.6861 46.4313 43.3201 45.9868C43.2416 45.9084 43.2416 45.8038 43.3201 45.7254C43.4246 45.6208 43.5292 45.6992 43.6338 45.7515C43.8691 45.8822 44.0521 45.9868 44.2351 46.0391C44.4181 46.0914 44.6011 46.0391 44.8887 46.0391C45.1763 46.013 45.5946 46.1437 45.856 46.3528C46.039 46.4835 46.2482 46.562 46.405 46.5881C46.8233 46.6666 47.3462 46.3267 47.7906 46.2744C48.1044 46.2221 48.4442 46.2483 48.7057 46.3267C48.9671 46.4051 49.1501 46.4574 49.3593 46.4051C49.5946 46.3528 49.7253 46.6666 49.5161 46.7711Z" fill="#5599FF"/>
<path d="M45.3596 32.5228C45.9348 32.6012 46.3792 31.9999 46.1701 31.4248C46.0655 31.111 45.8825 30.8235 45.5949 30.6404C44.706 30.0914 41.3857 30.0391 39.6341 31.294C38.0655 32.4444 42.7452 32.1568 45.3596 32.5228Z" fill="#5599FF"/>
<path d="M52.6013 32.8106C52.1307 32.8106 51.8431 32.2093 52.0784 31.7125C52.2091 31.4511 52.3921 31.2158 52.6536 31.0851C53.464 30.6929 55.634 30.9282 56.6013 32.2616C57.464 33.438 54.7712 32.7844 52.6013 32.8106Z" fill="#5599FF"/>
<path d="M44.4969 35.974C43.5818 36.7845 42.1701 36.7845 41.072 36.3662C40.889 36.2877 39.8433 35.8171 40.0524 35.5557C40.0786 35.5296 40.1309 35.5034 40.157 35.5034C40.889 35.5296 41.5688 35.608 42.2746 35.6603C42.9805 35.7126 43.608 35.6864 44.34 35.6603C44.523 35.6603 44.6276 35.8694 44.4969 35.974Z" fill="#5599FF"/>
<path d="M54.8238 36.4182C53.9872 37.3855 52.2879 37.2548 51.5035 36.3136C51.4251 36.2352 51.5035 36.0783 51.6081 36.1045C51.8957 36.1306 52.1571 36.1829 52.4186 36.209C53.2029 36.3398 53.8565 36.3136 54.6931 36.2875C54.8238 36.2352 54.8761 36.3659 54.8238 36.4182Z" fill="#5599FF"/>
<path d="M44.8629 14.3269C33.1505 13.2027 29.2551 17.1243 27.7126 18.5099C25.5427 20.4184 22.2485 27.9739 22.3793 32.2877C22.5361 38.3007 27.3466 44.6537 27.5557 44.9674C28.6276 46.5622 29.7257 47.5295 30.0133 47.8694C29.8564 47.2942 29.5949 45.2288 29.8302 44.8628C23.2943 42.353 24.4708 35.0589 27.6603 34.6406C31.0067 34.2223 32.0525 37.2027 32.2355 37.9347C32.2355 37.9347 32.2355 38.0131 32.2616 38.1439C32.2878 38.1439 32.3139 38.17 32.34 38.17C33.4904 38.5622 34.5623 37.4118 34.1701 36.2877C33.5688 34.6406 32.8891 32.7321 32.7845 31.5033C32.6276 27.9478 34.0655 23.8955 44.6538 24.4707C46.0133 24.5491 47.1897 24.7582 48.34 24.9935C48.9152 25.1504 50.4577 25.7517 49.9348 27.2419C49.4381 28.6798 48.4185 27.5033 48.1309 27.6341C47.974 27.7125 48.9675 29.0458 50.4315 28.7844C51.6342 28.5752 52.6015 27.3465 52.1832 25.7256C52.6015 25.7779 53.0459 25.8301 53.4904 25.8824C56.3139 26.0916 58.8499 23.8955 58.7714 21.072C58.693 18.1962 56.0002 15.3988 44.8629 14.3269Z" fill="#5599FF"/>
<path d="M30.0916 47.974C30.0916 47.9478 30.0655 47.9217 30.0132 47.8433C30.0655 48.0001 30.0916 48.0524 30.0916 47.974Z" fill="#5599FF"/>
<path d="M75.3463 22.039C91.2155 52.6011 63.3201 87.0848 30.0652 78.6665C15.1371 74.954 3.1371 62.0129 0.653439 46.8233C-2.17009 31.7122 4.65344 15.4769 17.4116 6.92789C34.9018 -5.09825 59.1371 -1.09825 71.66 16.1044C71.7384 16.1828 71.7123 16.3135 71.6077 16.3919C71.5293 16.4704 71.3985 16.4442 71.3201 16.3397C69.5946 14.1174 67.6338 12.1044 65.49 10.3004C61.9606 7.2939 57.8299 4.94096 53.4639 3.34619C31.2417 -4.7061 6.84952 8.67952 1.98677 31.9214C-3.50342 57.9606 18.6404 81.9344 45.0456 78.3527C65.4116 75.7906 80.5489 56.9933 78.8757 36.5488C78.5097 31.6076 77.2025 26.7187 75.0325 22.222C74.9802 22.1436 75.0325 22.039 75.111 21.9867C75.1894 21.9344 75.294 21.9606 75.3463 22.039Z" fill="#5599FF"/>
</g>
</svg>
