<svg width="80" height="80" viewBox="0 0 80 80" fill="none" xmlns="http://www.w3.org/2000/svg">
<mask id="mask0_756_5090" style="mask-type:alpha" maskUnits="userSpaceOnUse" x="0" y="0" width="80" height="80">
<circle cx="39.8689" cy="39.8689" r="39.8689" fill="#D9D9D9"/>
</mask>
<g mask="url(#mask0_756_5090)">
<path d="M61.7257 72.7844C61.5427 72.9151 61.3336 73.0458 61.1506 73.1765C60.9414 73.3072 60.7584 73.438 60.5492 73.5425C60.3662 73.6471 60.2094 73.7517 60.0264 73.8563C60.0002 73.8824 59.9741 73.8824 59.9479 73.9085C59.3466 74.2746 58.7192 74.6144 58.0917 74.9282C57.9087 75.0327 57.6996 75.1373 57.5166 75.2157C57.5166 75.2157 57.4904 75.2419 57.4643 75.2419C57.2551 75.3465 57.046 75.451 56.8368 75.5556C56.4185 75.7648 55.9741 75.9478 55.5558 76.1308C55.3466 76.2353 55.1113 76.3138 54.9022 76.3922C54.693 76.4706 54.4577 76.5752 54.2486 76.6536C54.0394 76.7321 53.8041 76.8367 53.595 76.9151C53.595 76.9151 53.595 76.9151 53.5689 76.9151C53.3597 76.9935 53.1244 77.0719 52.9153 77.1504C52.4447 77.3072 51.9479 77.4641 51.4774 77.621C51.3205 77.6733 51.1375 77.7255 50.9806 77.7778C50.4839 77.9347 49.9872 78.0654 49.4904 78.17C49.3074 78.2223 49.1244 78.2484 48.9153 78.3007C48.4447 78.4053 47.9479 78.5099 47.4774 78.6144C47.3728 78.6406 47.2943 78.6406 47.1898 78.6667C47.0329 78.6929 46.8499 78.719 46.693 78.7451C46.4577 78.7713 46.2486 78.8236 46.0133 78.8497C45.9087 78.8759 45.8042 78.8759 45.6996 78.902C45.5689 78.9282 45.412 78.9543 45.2551 78.9543C44.8368 79.0066 44.3924 79.0589 43.9741 79.1112C43.8434 79.1373 43.6865 79.1373 43.5558 79.1634H43.5296C43.3466 79.1896 43.1636 79.1896 42.9806 79.2157C42.7976 79.2419 42.6146 79.2419 42.4316 79.2419C42.327 79.2419 42.1963 79.268 42.0917 79.268C41.8826 79.268 41.6996 79.2942 41.5166 79.2942C41.2551 79.2942 41.0198 79.3203 40.7584 79.3203C40.497 79.3203 40.2617 79.3203 40.0002 79.3203C39.8172 79.3203 39.6342 79.3203 39.4512 79.3203C28.4185 79.1634 18.51 74.4837 11.4251 67.0589C11.4251 67.0589 11.4251 67.0327 11.3989 67.0327C10.6146 66.3268 11.2944 62.5621 14.4577 60.1831C18.4316 57.1765 27.9479 55.2942 27.9479 55.2942C27.9479 55.2942 31.6342 54.6929 45.3074 57.5425C53.3074 59.2157 59.3989 61.6471 62.7976 68.2353C63.5035 69.5948 64.2094 71.6863 61.7257 72.7844Z" fill="#E7E7E7"/>
<path d="M45.3857 57.255C50.4053 58.2746 55.7648 59.3727 59.8955 62.6929C61.2812 63.8171 62.1962 65.4642 62.9544 67.059C63.3204 67.8433 63.6864 68.6537 63.974 69.5165C64.1308 70.0916 64.3661 70.7452 64.2354 71.425C64.2093 71.608 64.0524 71.8433 63.9217 71.974C63.3204 72.5753 62.6668 72.9413 62.0132 73.4119C58.17 76.0786 53.7517 77.9609 49.1766 78.9544C38.9805 81.1766 27.9478 79.4511 18.9805 74.0916C16.0001 72.2877 13.255 70.0916 10.9021 67.5034C10.6406 67.1897 10.6406 66.6668 10.6406 66.3269C10.6668 65.5426 10.8759 64.7844 11.1374 64.0786C11.7648 62.4576 12.5753 60.8367 13.9609 59.7125C14.9544 59.0328 16.0262 58.4576 17.1243 57.9871C20.5753 56.523 24.2093 55.5034 27.9478 55.0851C28.2615 55.0589 28.3138 55.5034 28.0001 55.5557C24.4184 56.2877 20.8628 57.3857 17.5426 58.8759C16.34 59.4773 15.0589 60.0001 14.0916 60.9413C13.1766 61.9348 12.523 63.1635 12.0001 64.4184C11.6602 65.1766 11.4249 66.3792 11.5295 66.9805C13.1766 68.9413 15.1112 70.6668 17.2027 72.157C28.6537 80.157 46.0393 80.6799 58.2223 74.0132C59.3204 73.4119 60.3923 72.7322 61.4119 72.0263C61.9086 71.6864 62.4315 71.3988 62.8236 71.0067C62.8498 70.9805 62.8236 71.0067 62.8236 71.0328C62.8236 71.059 62.7975 71.0851 62.7975 71.0851C62.8236 70.7714 62.7191 70.3531 62.5883 69.9348C62.1178 68.4184 61.3596 66.8237 60.5491 65.438C59.2681 63.3727 57.0981 62.0655 54.9021 61.0197C53.3857 60.3139 51.791 59.7648 50.17 59.242C48.5491 58.7191 46.9021 58.2746 45.255 57.8825C44.8367 57.7779 44.9674 57.1766 45.3857 57.255Z" fill="#5599FF"/>
<path d="M70.4055 88.9932H2.37936C2.37936 88.9932 2.17021 72.5226 8.00027 64.8625C12.2617 59.2416 20.0264 57.7514 24.7846 56.3658C26.0133 56.0259 27.0852 55.6337 27.9741 55.3984C28.2617 56.1828 31.1637 63.869 38.1179 66.6926C44.1048 69.1239 47.6604 67.503 48.2094 64.8102C48.5493 63.0847 47.4774 60.2612 46.9284 59.3462C46.6146 59.0847 46.4055 58.6926 46.3009 58.3004L46.0918 57.4377C46.5624 57.3331 47.0068 57.2024 47.4774 57.0716C47.7127 57.1239 47.948 57.1762 48.1833 57.2285C51.5558 58.039 58.5624 58.1958 64.4186 63.137C71.216 68.7841 70.4055 88.9932 70.4055 88.9932Z" fill="#5599FF"/>
<path d="M54.2484 63.5814C54.1177 61.7252 52.0262 61.4899 52.0262 61.4899C52.0262 61.4899 53.8301 61.3592 53.9085 59.8951C53.9608 59.0585 53.1765 58.248 51.8954 57.7513C52.2353 57.5683 52.4967 57.333 52.3137 56.9931C51.8954 56.235 50.353 56.1043 50.0131 55.9735C48.6797 55.4768 45.8039 52.6271 36.7843 51.6598C34.4575 51.4245 29.6209 51.2938 27.7124 52.4703V52.4441C27.4771 52.4441 27.0588 52.784 26.5882 53.2807C26.0654 53.3069 24.6275 53.4637 23.3726 54.248C22.3791 54.8494 22.2222 55.7905 22.6928 56.4441C22.0915 56.7056 21.4641 57.1239 21.0196 57.7775C19.7386 59.7382 22.6405 60.418 24 59.8951C24 59.8951 21.8039 61.0716 22.5882 62.9278C23.3726 64.784 25.8824 63.7121 25.8824 63.7121C25.8824 63.7121 23.6863 66.1173 25.5425 67.9212C27.3987 69.7252 29.5686 67.9212 29.5686 67.9212C29.5686 67.9212 28.3922 70.6664 30.353 71.686C32.3137 72.7056 33.8301 70.0128 33.8301 70.0128C33.8301 70.0128 33.2026 72.8101 35.1111 73.8297C37.0196 74.8494 38.353 72.4703 38.6405 71.5814C38.6405 71.5814 38.6405 74.5618 41.3333 74.6664C42.9804 74.7448 43.5294 72.8363 43.6863 71.3461C44.3399 71.3722 44.8366 71.3461 45.098 71.2938C45.2811 71.2415 45.5425 71.1108 45.8562 70.9539C46.1438 71.4768 46.9543 72.6533 48.2614 72.5749C49.9608 72.4964 50.3791 70.5879 49.6209 68.967C49.6209 68.967 51.0588 69.9343 52.549 68.967C54.0654 67.9997 52.7059 65.6729 51.8693 65.3592C51.9477 65.2807 54.3791 65.4114 54.2484 63.5814Z" fill="#E7E7E7"/>
<path d="M54.1962 63.5816C54.1439 62.4312 53.072 61.6992 52.0262 61.5423C51.9478 61.5423 51.9478 61.4116 52.0262 61.4116C52.9413 61.3593 53.9609 60.6796 53.804 59.6861C53.6471 58.745 52.6537 58.2482 51.8171 57.9606C51.6341 57.9083 51.6079 57.6469 51.7648 57.5423C51.8694 57.4639 52.0001 57.3593 52.0262 57.2809C52.0785 57.2025 52.0524 57.1763 52.0262 57.1763C51.5556 56.6796 50.7713 56.6796 50.1177 56.6012C49.804 56.575 49.438 56.392 49.1504 56.2613C48.4184 55.9214 47.6341 55.477 46.902 55.1894C43.9216 53.8299 40.706 53.2809 37.5426 52.5489C34.8236 51.8953 30.4576 51.1371 28.0001 52.7057L27.9739 52.7319C28.1308 52.8626 27.2942 52.7057 27.4249 52.4966C27.3988 52.4182 27.4249 52.4182 27.4249 52.392V52.3659C27.4249 52.3659 27.4249 52.3397 27.4249 52.4182L27.7648 52.7319C27.7909 52.7319 27.7648 52.7319 27.7386 52.7319C27.3988 52.8887 27.1373 53.1502 26.8759 53.4116C26.8236 53.4639 26.7452 53.49 26.6667 53.5162C25.7256 53.6208 24.7582 53.8822 23.9478 54.3267C23.5818 54.5097 23.2158 54.7972 23.0328 55.1633C22.8759 55.5031 22.902 55.843 23.1112 56.1306C23.2419 56.3136 23.2158 56.6012 23.0066 56.7319C22.9805 56.758 22.9543 56.7842 22.902 56.7842C21.9086 56.8103 20.706 57.9606 21.0197 58.928C21.255 59.3985 21.8301 59.6077 22.3269 59.6861C22.8759 59.7907 23.4511 59.7646 23.9478 59.5816C24.0785 59.5293 24.2354 59.6077 24.2877 59.7384C24.3399 59.8691 24.2877 59.9999 24.1569 60.0521C23.2158 60.575 22.3792 61.6992 22.9543 62.7711C23.1635 63.2678 23.6079 63.5293 24.1569 63.5554C24.6798 63.6077 25.2811 63.4508 25.7779 63.2678C25.987 63.1894 26.2223 63.294 26.3269 63.5031C26.3792 63.66 26.353 63.8168 26.2484 63.9476C25.4641 64.9149 24.8628 66.4574 25.8824 67.4247C26.7975 68.4443 28.2877 68.209 29.255 67.4247C29.7256 67.0325 30.4053 67.5554 30.17 68.1044C29.9609 68.6273 29.8301 69.3332 29.9086 69.8822C29.987 70.9802 31.1896 71.6077 32.1047 70.928C32.5752 70.6142 33.0197 70.0914 33.3073 69.5946C33.6733 68.941 34.6929 69.3332 34.5622 70.0391C34.536 70.1698 34.5099 70.3528 34.5099 70.5358C34.4837 71.0064 34.5099 71.5293 34.6406 71.9737C34.9282 73.0456 36.1831 73.7253 37.0197 72.8365C37.4641 72.4443 37.8563 71.8169 38.0393 71.2678C38.3007 70.5097 39.4249 70.6927 39.4249 71.477C39.4511 72.0521 39.6079 72.7057 39.9739 73.1763C40.3922 73.7515 41.4118 74.1175 42.0654 73.7253C42.7975 73.1502 42.9805 72.1044 43.1373 71.1633C43.2681 70.3789 44.2092 70.7188 44.7582 70.6404C45.072 70.6142 44.9674 70.6404 45.2811 70.5097C45.4118 70.4574 45.5164 70.4051 45.6471 70.3267C45.9347 70.1698 46.2746 70.3005 46.4053 70.5619C46.6667 71.0587 47.0328 71.5031 47.4511 71.7384C49.4118 72.6796 50.0654 70.5358 49.3596 68.9933C49.2288 68.6796 49.5948 68.392 49.8563 68.575C50.536 69.0195 51.4772 69.1502 52.2354 68.7842C53.804 68.209 52.9935 65.9868 51.8955 65.3593C51.8171 65.3332 51.7909 65.2548 51.8171 65.1763C51.8432 65.124 51.8955 65.0979 51.9478 65.0979C52.9674 65.2286 54.3007 64.8103 54.1962 63.5816ZM54.3269 63.5554C54.4837 64.8887 53.072 65.4639 51.9478 65.4116L52.0001 65.1502C52.3399 65.2809 52.5491 65.5423 52.7582 65.7776C53.3596 66.5358 53.7779 67.66 53.2288 68.575C52.523 69.5685 51.0589 69.8299 49.9609 69.3855C49.804 69.3332 49.6471 69.2548 49.4903 69.1502L49.987 68.7319C50.4576 69.6731 50.6406 70.8757 50.1177 71.8691C49.5426 72.9933 48.0001 73.2548 46.9543 72.7057C46.2746 72.3659 45.7779 71.7646 45.4118 71.1371L46.1962 71.3724C45.9086 71.5293 45.621 71.6861 45.2811 71.7907C44.7582 71.8953 44.2615 71.8953 43.7125 71.8691L44.3661 71.3201C44.2354 72.5489 43.9739 74.0129 42.8236 74.8495C41.5687 75.6861 39.7386 75.1894 38.8498 74.0391C38.2746 73.2809 38.0132 72.4182 37.987 71.5031L39.3726 71.7384C37.4903 76.8103 32.2092 74.8234 33.2288 69.8038L34.4576 70.2744C34.2223 70.6404 34.0132 70.928 33.7256 71.2417C33.1504 71.8691 32.4184 72.392 31.5033 72.4704C30.0916 72.6012 28.7582 71.3985 28.6798 70.0129C28.6014 69.1763 28.7582 68.4182 29.072 67.6338L29.987 68.3136C29.7779 68.4704 29.621 68.575 29.4118 68.6796C27.5295 69.7776 25.1243 69.0979 24.4445 66.928C24.1308 65.6208 24.7582 64.3397 25.5949 63.3724L26.0654 64.026C24.2877 64.7319 22.1177 64.2613 22.1177 62.0129C22.17 60.941 22.9805 60.1306 23.8694 59.6077L24.0785 60.0783C22.719 60.575 19.9216 59.9999 20.6014 58.0652C20.9935 57.1502 21.7256 56.5489 22.5099 55.9476L22.3007 56.6273C20.9413 54.0914 24.6798 52.9672 26.5622 52.9149L26.353 53.0195C26.719 52.6273 27.1112 52.0783 27.7125 52.026C27.8955 52.026 28.0524 52.1829 28.0524 52.3397C28.0524 52.4182 28.0524 52.4182 28.0524 52.4182C28.0524 52.392 28.0524 52.392 28.0524 52.3136C28.1831 52.1306 27.3726 51.9476 27.5295 52.0783L27.5818 52.0521C28.6014 51.5554 29.7517 51.3985 30.8498 51.3201C33.0981 51.1633 35.3465 51.2678 37.5949 51.5816C41.7779 52.1306 45.9086 53.2286 49.4903 55.5031C50.2484 55.9737 51.085 55.8168 51.8694 56.2874C52.2354 56.4966 52.6537 56.8887 52.4968 57.3593C52.4184 57.6208 52.1569 57.8038 51.9478 57.9084L51.9216 57.4639C52.3922 57.6731 52.8367 57.9345 53.2027 58.2744C54.6929 59.6077 53.8563 61.3332 51.9739 61.49V61.3593C53.1504 61.5423 54.2746 62.3528 54.3269 63.5554Z" fill="#5599FF"/>
<path d="M44.0785 70.3004C44.0785 70.3004 41.8302 76.3396 43.5034 77.4115C45.1766 78.4834 44.7321 70.0128 44.7321 70.0128C44.7321 70.0128 46.4053 77.2285 48.5491 76.6272C50.6929 76.0259 45.5165 70.0128 45.1243 69.9082" fill="#E7E7E7"/>
<path d="M44.7061 70.5356C43.9218 71.9212 42.3532 75.7905 43.5035 77.15C44.4447 77.9866 44.4708 74.3264 44.4447 73.8558C44.4185 72.5748 44.314 71.2676 44.0525 70.0127L44.0787 69.8036C44.1832 69.0454 45.3074 69.0715 45.3597 69.8297C45.3859 71.2153 46.5885 76.9408 48.5231 76.4179C49.1506 76.1565 48.7584 75.2937 48.5493 74.8493C47.7127 73.2284 46.4578 71.7905 45.046 70.6402C44.9414 70.5879 44.863 70.4833 44.7584 70.4571C44.7584 70.4571 44.7584 70.4571 44.7846 70.4833C44.8107 70.5094 44.863 70.5356 44.9153 70.5356C44.5493 70.431 44.3663 70.065 44.4447 69.699C44.5493 69.2807 45.046 69.0715 45.412 69.3068C45.4904 69.333 45.5427 69.4114 45.595 69.4637C46.0656 69.9866 46.4055 70.5617 46.7976 71.1107C47.3989 72.1042 50.3793 76.0519 48.6277 76.7317C46.5885 77.516 44.7584 71.6075 44.0525 70.1434L45.3859 69.9604C45.2551 71.2938 45.1767 72.5748 45.046 73.882C44.8891 75.0323 44.8891 76.2349 44.3401 77.3068C44.0787 77.7513 43.6081 77.7774 43.2421 77.4375C42.8238 77.0715 42.7192 76.4702 42.6669 75.9735C42.5623 73.9604 43.0852 72.0519 43.4251 70.065C43.5035 69.699 43.8434 69.4637 44.2094 69.516C44.7061 69.5944 44.9414 70.1434 44.7061 70.5356Z" fill="#5599FF"/>
<path d="M16.8626 58.7454C16.8626 58.7454 18.5881 74.5885 3.68615 75.7911C3.68615 75.7911 1.28092 67.8434 5.82994 61.8303C10.0391 56.2356 16.8626 58.7454 16.8626 58.7454Z" fill="#E7E7E7"/>
<path d="M16.9674 58.6667C17.0196 58.7451 16.9935 58.8497 17.0196 58.9281C17.0981 59.8693 17.1242 60.8366 17.0719 61.804C16.8628 67.0066 14.6144 72.2876 9.77781 74.7451C7.89546 75.7125 5.8301 76.2353 3.7386 76.4706C3.42487 76.4968 3.13729 76.3138 3.05886 76.0262C2.74513 74.8497 2.61441 73.7255 2.53598 72.5491C1.98696 65.6732 5.69938 57.5687 13.5948 58.0131C14.6928 58.0654 15.7909 58.2484 16.8366 58.6144C16.8628 58.6144 16.9151 58.6406 16.9674 58.6667ZM16.3922 59.1112C16.4445 59.1896 16.5752 59.2942 16.6275 59.2942C16.5491 59.268 16.366 59.2157 16.2876 59.1896C6.77127 56.6798 2.48369 65.9085 3.97389 74.0393C4.05232 74.5621 4.18304 75.1112 4.31376 75.6079L3.60788 75.1373C12.6536 74.5098 16.6275 67.6602 16.2876 59.1634C16.2876 59.1112 16.2615 58.902 16.2615 58.8497C16.2876 58.9281 16.3138 59.0589 16.3922 59.1112Z" fill="#5599FF"/>
<path d="M57.6475 59.2939C57.6475 59.2939 60.6801 61.5945 63.7128 67.2939C65.2814 70.2481 66.6409 73.6991 69.7782 75.2154C69.7782 75.2154 71.3207 67.869 68.288 63.4507C64.0527 57.2808 57.6475 59.2939 57.6475 59.2939Z" fill="#E7E7E7"/>
<path d="M57.909 59.3202C57.9351 59.2679 57.909 59.1372 57.8567 59.111L57.8828 59.1372C59.19 60.2091 60.3142 61.4901 61.36 62.8235C62.4057 64.1829 63.3207 65.6208 64.1573 67.111C65.726 69.8823 67.0855 73.2287 70.092 74.6143L69.1508 75.0849C69.8305 71.3463 69.9874 67.0326 67.922 63.6862C65.7783 60.3137 61.8567 58.6404 57.9351 59.5032L57.8567 59.5293H57.8044H57.7783C57.8044 59.5293 57.909 59.3986 57.909 59.3202ZM57.543 59.2679C57.5691 59.1633 57.6998 59.1633 57.8044 59.1372C60.7587 58.3529 64.0528 58.9803 66.4319 60.915C70.3796 63.9738 71.0593 69.098 70.6149 73.7777C70.5626 74.3006 70.5103 74.8235 70.4057 75.3725C70.3273 75.7908 69.8306 75.9999 69.4645 75.8169C68.6541 75.3986 67.8959 74.8235 67.2946 74.1699C65.4907 72.2614 64.4972 69.7516 63.373 67.5032C61.8828 64.5751 60.1051 61.7254 57.6737 59.477C57.6214 59.4248 57.543 59.3463 57.543 59.2679Z" fill="#5599FF"/>
<path d="M26.7979 53.3331C26.275 54.3004 25.8044 55.4508 25.8044 56.575C25.8305 57.124 26.0658 57.6468 26.3011 58.1436C28.1573 61.7514 31.3469 64.6534 34.9809 66.3789C37.0724 67.3723 39.2946 68.1305 41.5691 68.4965C42.6671 68.6534 43.8175 68.758 44.9155 68.6534L44.7064 68.7057C49.6475 66.2482 51.9482 61.856 49.4645 56.6272C49.3338 56.3658 49.726 56.1305 49.8828 56.3919C50.5364 57.5423 50.9809 58.7972 51.1377 60.1305C51.739 64.4704 48.8894 67.8952 45.3077 69.9083C45.2554 69.9344 45.1769 69.9606 45.0985 69.9606C44.4188 70.0129 43.8436 69.9867 43.19 69.9344C40.1573 69.673 37.2292 68.6534 34.5364 67.2416C30.7979 65.307 27.556 62.1959 25.7521 58.3527C25.5168 57.7776 25.2815 57.1763 25.2554 56.5227C25.3338 55.2678 25.8305 54.1436 26.4318 53.0717C26.5887 52.8625 26.9547 53.0978 26.7979 53.3331Z" fill="#5599FF"/>
<path d="M44.3401 69.3068C44.68 65.4898 44.8107 61.5683 44.0526 57.8036C44.0003 57.5683 44.1571 57.3068 44.3924 57.2545C44.6539 57.2023 44.9153 57.3853 44.9414 57.6467C45.0722 58.614 45.1767 59.6075 45.2552 60.5748C45.4905 63.3983 45.595 66.5094 45.6996 69.3591C45.6735 70.3003 44.2617 70.248 44.3401 69.3068Z" fill="#5599FF"/>
<path d="M44.8631 62.3267C45.5706 62.3267 46.1441 61.7532 46.1441 61.0457C46.1441 60.3382 45.5706 59.7646 44.8631 59.7646C44.1556 59.7646 43.582 60.3382 43.582 61.0457C43.582 61.7532 44.1556 62.3267 44.8631 62.3267Z" fill="#5599FF"/>
<path d="M45.0462 66.2745C45.7537 66.2745 46.3272 65.701 46.3272 64.9935C46.3272 64.2859 45.7537 63.7124 45.0462 63.7124C44.3387 63.7124 43.7651 64.2859 43.7651 64.9935C43.7651 65.701 44.3387 66.2745 45.0462 66.2745Z" fill="#5599FF"/>
<path d="M47.843 64.2093C47.294 66.9021 43.7384 68.523 37.7515 66.0916C31.5293 63.5818 28.8365 57.5949 28.1567 55.8171C31.843 48.9152 29.2809 44.1308 29.2809 44.1308C37.7777 43.3988 45.2025 53.3335 45.2025 53.3335L46.3528 58.2485C46.4574 58.6668 46.6665 59.0328 46.9803 59.2942C47.5293 60.2616 48.1829 62.4838 47.843 64.2093Z" fill="#E7E7E7"/>
<path d="M28.0262 55.8956C28.5229 55.1374 28.8366 54.2485 29.0458 53.3858C29.4379 51.5818 29.5686 49.7518 29.5948 47.9217V47.242C29.5163 46.5622 29.2811 45.8563 29.0196 45.2289C28.6797 44.3923 29.9085 43.8694 30.3007 44.706C30.3529 44.8106 30.3529 44.9936 30.3529 45.0982C30.4314 48.6537 30.5882 53.2289 28.3399 56.1831C28.183 56.34 27.8693 56.1047 28.0262 55.8956Z" fill="#5599FF"/>
<path d="M45.4904 53.281C45.8825 53.5163 46.0132 53.83 46.0655 54.1437C46.2224 54.7712 46.1701 55.4509 46.327 56.1045C46.4577 56.732 46.8498 57.3333 46.9544 57.9869C47.0851 58.6666 47.4773 60.1045 47.6341 60.8104C47.6864 60.9672 47.5819 61.1502 47.3988 61.1764C47.2943 61.2025 47.2158 61.1764 47.1374 61.1241C46.7975 60.8365 46.6407 60.5489 46.4315 60.1829C46.0917 59.5555 45.8564 58.9803 45.6472 58.2744C45.4642 57.647 45.5426 56.9672 45.3858 56.3136C45.2551 55.6862 44.889 55.0849 44.7583 54.4313C44.6799 54.1176 44.6537 53.7777 44.889 53.3855C45.0459 53.2287 45.3073 53.1764 45.4904 53.281Z" fill="#5599FF"/>
<path d="M47.3724 60.1831C42.3789 59.9217 38.3005 58.353 34.3267 51.2681C37.6731 54.2223 41.6208 55.3465 45.7776 55.8694L46.3267 58.2746C46.4312 58.6929 47.0587 59.9217 47.3724 60.1831Z" fill="#5599FF"/>
<path d="M47.1634 59.2159C48.0523 60.8891 48.5752 62.9806 48.0262 64.8368C47.6079 66.144 46.4052 67.1113 45.0981 67.4773C42.0654 68.2878 38.5621 67.0067 35.8693 65.5688C32.549 63.7126 30.0915 60.6015 28.5229 57.2028C28.4183 56.9414 28.7843 56.7322 28.9412 56.9937C29.4902 58.0917 30.1177 59.1636 30.8235 60.1309C31.5294 61.1244 32.3399 62.0394 33.2549 62.8499C35.9216 65.2551 39.5294 66.7453 43.1373 66.7453C46.8497 66.6407 48.2615 64.68 47.3987 61.0721C47.268 60.4969 47.0588 59.8956 46.7713 59.3989C46.6144 59.1898 47.0065 58.9545 47.1634 59.2159Z" fill="#5599FF"/>
<path d="M57.2809 27.817C57.7515 30.0131 56.1828 32.3661 56.1828 38.2223C56.1828 44.2092 55.0848 50.719 50.5619 55.2419C46.6665 59.1373 42.1959 58.9804 36.941 54.8759C36.209 54.3007 33.6469 52.3661 32.9933 51.7125C32.2351 50.9543 31.8168 50.4053 31.4508 49.8301C31.1371 49.3072 31.2155 46.2746 30.7711 45.5687C29.6207 43.6602 29.3854 45.7255 27.8953 44.0523C25.8299 41.804 23.3462 37.2811 24.575 29.2811C26.5619 16.3138 36.8364 14.7974 44.4443 16.2353C52.1044 17.6994 56.026 22.0393 57.2809 27.817Z" fill="#E7E7E7"/>
<path d="M29.2027 46.3791C28.6013 45.3856 27.8432 44.4967 27.1373 43.5817C26.4314 42.6144 25.8563 41.5948 25.3857 40.4967C22.719 34.0392 23.1112 25.5948 27.8432 20.1569C31.085 16.4444 36.2092 15.2157 40.9151 15.4771C45.621 15.7647 50.5098 16.9673 53.987 20.366C56 22.3268 57.2811 24.9412 57.8563 27.6601C58.0393 28.5229 57.9085 29.464 57.6994 30.2745C57.0981 32.549 56.5229 34.7189 56.4706 37.0719C56.4968 40.5752 56.3922 44.1569 55.3726 47.5294C54.6406 49.7778 53.7778 52.0261 52.4183 53.9869C51.0066 55.9738 48.8889 57.5686 46.4576 58.0392C41.5687 59.0327 36.9935 55.9477 33.7517 52.6013C33.621 52.4444 33.804 52.2614 33.9608 52.366C35.817 53.7778 37.7255 55.085 39.7909 55.9738C45.7517 58.7189 50.6929 56.183 53.3072 50.4314C55.5033 46.2484 56.1308 41.7255 55.9478 37.0457C55.9478 35.8693 56 34.6928 56.1569 33.5163C56.3138 31.817 56.8889 30.1176 56.8628 28.4444C56.4183 25.7255 55.1634 23.1111 53.2811 21.098C48.8105 16.366 40.2353 14.9804 34.2223 17.1242C27.1373 19.634 25.2288 26.7712 24.8366 33.5948C24.5752 37.6732 25.7778 41.6732 28.8628 44.4706L30.0915 45.7516C30.5098 46.3268 29.621 47.0065 29.2027 46.3791Z" fill="#5599FF"/>
<path d="M32.2877 38.0654C32.2877 38.0654 31.4772 34.1438 27.6602 34.6144C24.3661 35.0327 23.2158 42.9281 30.6929 45.1242" fill="#E7E7E7"/>
<path d="M30.353 41.6995C29.7517 41.3596 29.3334 40.7844 29.3073 40.0786C29.3334 39.5557 29.4118 38.9544 29.2811 38.4315C29.2027 37.9348 28.6798 37.804 28.2876 37.8302C27.8693 37.9086 27.6079 38.4315 27.5295 38.8498C27.5295 38.8759 27.5033 38.9544 27.5033 38.9805C27.4772 39.1112 27.268 39.1112 27.2158 38.9805C26.8759 37.9609 27.6341 36.8367 28.7321 36.9674C30.2746 37.072 30.4837 38.6929 30.1961 39.9217C30.0393 40.4446 30.2484 40.9152 30.536 41.3596L30.5883 41.438C30.719 41.5949 30.5099 41.804 30.353 41.6995Z" fill="#5599FF"/>
<path d="M51.2678 35.2943C51.66 37.1505 52.392 38.876 53.307 40.4969C54.1175 42.4839 52.026 44.3662 50.1698 44.2878C49.9606 44.2878 49.9345 44.0002 50.1175 43.9479C51.294 43.5819 52.3659 42.7976 52.5489 41.595C52.6273 41.229 52.5227 40.9152 52.3397 40.6015C51.477 38.9806 50.9541 37.1244 51.0848 35.2943C51.0848 35.1636 51.2678 35.1636 51.2678 35.2943Z" fill="#5599FF"/>
<path d="M32.1572 38.0914C31.5559 36.5489 30.2487 35.0848 28.497 35.111C28.3402 35.0848 28.0787 35.1371 27.9219 35.1371C27.4774 35.1633 27.1114 35.3201 26.7715 35.6339C25.0983 37.3071 25.3859 40.2613 26.7454 42.1175C27.216 42.7711 27.8173 43.3463 28.497 43.8169C29.1768 44.2875 29.9349 44.6535 30.7454 44.9672C30.9284 45.0195 30.85 45.3071 30.667 45.2809C28.9153 44.9149 27.2421 44.0522 26.0918 42.6142C24.314 40.4705 23.948 36.8888 26.0657 34.7973C26.5362 34.379 27.1898 34.0652 27.8434 34.0652C28.0526 34.0652 28.3663 34.0129 28.5755 34.0652C29.6735 34.1175 30.7192 34.6665 31.399 35.5293C32.0003 36.2613 32.3402 37.1502 32.4447 38.0391C32.4447 38.1959 32.2094 38.2482 32.1572 38.0914Z" fill="#5599FF"/>
<path d="M48.6799 46.7973C48.7061 47.2156 48.3924 47.9477 47.8172 48.4705C44.8629 46.6666 43.5296 47.6078 43.5296 47.6078C42.4839 46.013 42.7191 43.8431 45.2551 45.4901C47.0067 46.6405 48.1048 46.8235 48.6799 46.7973Z" fill="#5599FF"/>
<path d="M47.791 48.4968C47.1635 49.0458 46.2224 49.3857 44.9413 48.8628C44.34 48.6275 43.8694 48.157 43.5034 47.6341C43.5296 47.6341 44.8368 46.6929 47.791 48.4968Z" fill="#E7E7E7"/>
<path d="M49.1764 46.719C49.1764 46.719 48.0784 47.3203 45.2549 45.5164C41.8823 43.3465 42.5621 47.8955 44.9411 48.8628C47.4248 49.8824 48.7058 47.6602 48.6797 46.8236" stroke="#5599FF" stroke-width="3" stroke-miterlimit="10" stroke-linecap="round" stroke-linejoin="round"/>
<path d="M43.5293 47.6341C43.5293 47.6341 44.8626 46.6929 47.8169 48.4968" stroke="#5599FF" stroke-width="3" stroke-miterlimit="10" stroke-linecap="round" stroke-linejoin="round"/>
<path d="M42.7455 36.1046C42.7455 36.1307 42.7455 36.1569 42.7455 36.1569L42.7194 36.8889C42.6932 37.5164 42.1703 37.987 41.5429 37.9608C40.9154 37.9347 40.4448 37.3856 40.4971 36.7843L40.5233 36.0523C40.5233 35.9216 40.5756 35.7647 40.6279 35.6602L42.7194 35.7647C42.7194 35.8693 42.7455 35.9739 42.7455 36.1046Z" fill="#5599FF"/>
<path d="M53.6734 36.6796L53.6473 37.3593C53.6211 37.9345 53.1244 38.3789 52.5493 38.3528C51.9741 38.3266 51.5296 37.8299 51.5558 37.2547L51.5819 36.575C51.5819 36.4443 51.6081 36.3136 51.6604 36.209L53.6211 36.2874C53.6473 36.4181 53.6734 36.5489 53.6734 36.6796Z" fill="#5599FF"/>
<path d="M45.3596 32.5228C45.9348 32.6012 46.3792 31.9999 46.1701 31.4248C46.0655 31.111 45.8825 30.8235 45.5949 30.6404C44.706 30.0914 41.3857 30.0391 39.6341 31.294C38.0655 32.4444 42.7452 32.1568 45.3596 32.5228Z" fill="#5599FF"/>
<path d="M52.6013 32.8106C52.1307 32.8106 51.8431 32.2093 52.0784 31.7125C52.2091 31.4511 52.3921 31.2158 52.6536 31.0851C53.464 30.6929 55.634 30.9282 56.6013 32.2616C57.464 33.438 54.7712 32.7844 52.6013 32.8106Z" fill="#5599FF"/>
<path d="M44.4182 36.1046L40.1044 36.0262C39.5816 36 39.6077 35.2157 40.1306 35.2419L44.4443 35.5556C44.8103 35.5817 44.7842 36.1046 44.4182 36.1046Z" fill="#5599FF"/>
<path d="M54.7713 36.5489L51.5817 36.6012C51.0589 36.6012 51.0327 35.843 51.5556 35.8169C51.5817 35.8169 51.5817 35.8169 51.6079 35.8169L54.7974 36.1568C55.0327 36.1829 55.0066 36.5228 54.7713 36.5489Z" fill="#5599FF"/>
<path d="M54.4574 10.4313C49.2286 11.2156 46.3267 13.9607 44.8626 13.83C33.1502 12.6797 27.7123 16.9934 26.1698 18.379C23.9999 20.2875 22.2482 27.9738 22.3789 32.2875C22.5358 38.3006 27.3463 44.8365 27.5816 45.1241C29.1763 47.0326 29.5685 49.5424 29.9606 48.1568C30.0914 47.7124 29.7253 45.3594 29.8561 44.8365C23.3201 42.3267 24.4966 35.0326 27.6861 34.6143C31.0325 34.196 32.0783 37.1764 32.2613 37.9084C32.2613 37.9084 32.3659 40.0784 32.758 40.7058C33.1502 41.3333 35.7384 42.379 35.7384 42.379C35.7384 42.379 35.5031 37.9869 35.4508 37.5424C35.3986 37.098 33.1502 36.2614 32.758 31.4771C32.6012 27.9215 33.3593 21.4117 43.0064 25.83C45.2809 26.8758 50.3528 28.1568 55.294 27.5294C55.294 27.5294 61.124 27.7908 63.843 22.5882C66.562 17.4117 61.8038 9.30713 54.4574 10.4313Z" fill="#5599FF"/>
<path d="M35.8168 42.9805C35.8168 42.9805 33.3854 41.5426 33.1763 41.7256C32.9671 41.8824 36.026 43.6341 35.8168 42.9805Z" fill="#5599FF"/>
<path d="M35.817 43.3726C35.817 43.3726 34.2222 42.6667 33.9869 42.7974C33.7255 42.9281 36.1046 44.1046 35.817 43.3726Z" fill="#5599FF"/>
<path d="M53.1241 47.6341C51.2156 47.9479 50.2483 46.8498 49.8823 46.327C49.2287 47.6341 47.6601 48.7583 44.5228 48.2093C40.4444 47.5034 40.3921 43.8172 40.3921 43.8172C41.6731 45.1766 43.3202 44.157 45.5947 43.3204C48.2875 42.3531 49.5163 43.2681 49.9346 43.791C49.9869 43.7387 50.562 44.3923 51.7385 43.1636C51.9999 42.9021 52.4705 43.3727 52.8627 43.7126C54.1699 44.9152 54.7973 45.0721 55.2679 44.3662C55.2679 44.3923 55.3725 47.2681 53.1241 47.6341Z" fill="#5599FF"/>
<path d="M75.3463 22.039C91.2155 52.6011 63.3201 87.0848 30.0652 78.6665C15.1371 74.954 3.1371 62.0129 0.653439 46.8233C-2.17009 31.7122 4.65344 15.4769 17.4116 6.92789C34.9018 -5.09825 59.1371 -1.09825 71.66 16.1044C71.7384 16.1828 71.7123 16.3135 71.6077 16.3919C71.5293 16.4704 71.3985 16.4442 71.3201 16.3397C69.5946 14.1174 67.6338 12.1044 65.49 10.3004C61.9606 7.2939 57.8299 4.94096 53.4639 3.34619C31.2417 -4.7061 6.84952 8.67952 1.98677 31.9214C-3.50342 57.9606 18.6404 81.9344 45.0456 78.3527C65.4116 75.7906 80.5489 56.9933 78.8757 36.5488C78.5097 31.6076 77.2025 26.7187 75.0325 22.222C74.9802 22.1436 75.0325 22.039 75.111 21.9867C75.1894 21.9344 75.294 21.9606 75.3463 22.039Z" fill="#5599FF"/>
</g>
</svg>
