<svg width="80" height="80" viewBox="0 0 80 80" fill="none" xmlns="http://www.w3.org/2000/svg">
<mask id="mask0_756_5028" style="mask-type:alpha" maskUnits="userSpaceOnUse" x="0" y="0" width="80" height="80">
<circle cx="39.8689" cy="39.8689" r="39.8689" fill="#D9D9D9"/>
</mask>
<g mask="url(#mask0_756_5028)">
<path d="M61.7257 72.7844C61.5427 72.9151 61.3336 73.0458 61.1506 73.1765C60.9414 73.3072 60.7584 73.438 60.5492 73.5425C60.3662 73.6471 60.2094 73.7517 60.0264 73.8563C60.0002 73.8824 59.9741 73.8824 59.9479 73.9085C59.3466 74.2746 58.7192 74.6144 58.0917 74.9282C57.9087 75.0327 57.6996 75.1373 57.5166 75.2157C57.5166 75.2157 57.4904 75.2419 57.4643 75.2419C57.2551 75.3465 57.046 75.451 56.8368 75.5556C56.4185 75.7648 55.9741 75.9478 55.5558 76.1308C55.3466 76.2353 55.1113 76.3138 54.9022 76.3922C54.693 76.4706 54.4577 76.5752 54.2486 76.6536C54.0394 76.7321 53.8041 76.8367 53.595 76.9151C53.595 76.9151 53.595 76.9151 53.5689 76.9151C53.3597 76.9935 53.1244 77.0719 52.9153 77.1504C52.4447 77.3072 51.9479 77.4641 51.4774 77.621C51.3205 77.6733 51.1375 77.7255 50.9806 77.7778C50.4839 77.9347 49.9872 78.0654 49.4904 78.17C49.3074 78.2223 49.1244 78.2484 48.9153 78.3007C48.4447 78.4053 47.9479 78.5099 47.4774 78.6144C47.3728 78.6406 47.2943 78.6406 47.1898 78.6667C47.0329 78.6929 46.8499 78.719 46.693 78.7451C46.4577 78.7713 46.2486 78.8236 46.0133 78.8497C45.9087 78.8759 45.8042 78.8759 45.6996 78.902C45.5689 78.9282 45.412 78.9543 45.2551 78.9543C44.8368 79.0066 44.3924 79.0589 43.9741 79.1112C43.8434 79.1373 43.6865 79.1373 43.5558 79.1634H43.5296C43.3466 79.1896 43.1636 79.1896 42.9806 79.2157C42.7976 79.2419 42.6146 79.2419 42.4316 79.2419C42.327 79.2419 42.1963 79.268 42.0917 79.268C41.8826 79.268 41.6996 79.2942 41.5166 79.2942C41.2551 79.2942 41.0198 79.3203 40.7584 79.3203C40.497 79.3203 40.2617 79.3203 40.0002 79.3203C39.8172 79.3203 39.6342 79.3203 39.4512 79.3203C28.4185 79.1634 18.51 74.4837 11.4251 67.0589C11.4251 67.0589 11.4251 67.0327 11.3989 67.0327C10.6146 66.3268 11.2944 62.5621 14.4577 60.1831C18.4316 57.1765 27.9479 55.2942 27.9479 55.2942C27.9479 55.2942 31.6342 54.6929 45.3074 57.5425C53.3074 59.2157 59.3989 61.6471 62.7976 68.2353C63.5035 69.5948 64.2094 71.6863 61.7257 72.7844Z" fill="#E7E7E7"/>
<path d="M45.3857 57.255C50.4053 58.2746 55.7648 59.3727 59.8955 62.6929C61.2812 63.8171 62.1962 65.4642 62.9544 67.059C63.3204 67.8433 63.6864 68.6537 63.974 69.5165C64.1308 70.0916 64.3661 70.7452 64.2354 71.425C64.2093 71.608 64.0524 71.8433 63.9217 71.974C63.3204 72.5753 62.6668 72.9413 62.0132 73.4119C58.17 76.0786 53.7517 77.9609 49.1766 78.9544C38.9805 81.1766 27.9478 79.4511 18.9805 74.0916C16.0001 72.2877 13.255 70.0916 10.9021 67.5034C10.6406 67.1897 10.6406 66.6668 10.6406 66.3269C10.6668 65.5426 10.8759 64.7844 11.1374 64.0786C11.7648 62.4576 12.5753 60.8367 13.9609 59.7125C14.9544 59.0328 16.0262 58.4576 17.1243 57.9871C20.5753 56.523 24.2093 55.5034 27.9478 55.0851C28.2615 55.0589 28.3138 55.5034 28.0001 55.5557C24.4184 56.2877 20.8628 57.3857 17.5426 58.8759C16.34 59.4773 15.0589 60.0001 14.0916 60.9413C13.1766 61.9348 12.523 63.1635 12.0001 64.4184C11.6602 65.1766 11.4249 66.3792 11.5295 66.9805C13.1766 68.9413 15.1112 70.6668 17.2027 72.157C28.6537 80.157 46.0393 80.6799 58.2223 74.0132C59.3204 73.4119 60.3923 72.7322 61.4119 72.0263C61.9086 71.6864 62.4315 71.3988 62.8236 71.0067C62.8498 70.9805 62.8236 71.0067 62.8236 71.0328C62.8236 71.059 62.7975 71.0851 62.7975 71.0851C62.8236 70.7714 62.7191 70.3531 62.5883 69.9348C62.1178 68.4184 61.3596 66.8237 60.5491 65.438C59.2681 63.3727 57.0981 62.0655 54.9021 61.0197C53.3857 60.3139 51.791 59.7648 50.17 59.242C48.5491 58.7191 46.9021 58.2746 45.255 57.8825C44.8367 57.7779 44.9674 57.1766 45.3857 57.255Z" fill="#5599FF"/>
<path d="M70.4052 88.9933H4.2876C4.2876 88.9933 5.07191 77.5946 9.04577 68.941C10.4575 65.8822 11.5556 61.4378 14.1438 59.4247C17.1242 57.124 23.0065 55.6861 25.0981 55.2678C26.6405 54.9541 26.8497 55.2417 27.9216 54.9541C27.9216 55.0848 27.9477 55.1894 27.9477 55.3201C27.9477 55.3201 30.7713 63.7123 38.1177 66.6927C44.1046 69.124 47.6601 67.5031 48.2092 64.8103C48.549 63.0848 47.4771 60.2613 46.9281 59.3463C46.6144 59.0848 46.4052 58.6927 46.3007 58.3005L46.0915 57.4378C46.5883 57.3332 47.0588 57.2025 47.5294 57.0456C47.6863 56.9933 47.817 56.941 47.9739 56.8887C51.7647 57.9606 56.366 59.8953 60.3922 62.9541C62.5882 64.6273 64.4183 68.941 66.6667 76.2352C69.3072 84.6273 70.4052 88.9933 70.4052 88.9933Z" fill="#5599FF"/>
<path d="M50.353 63.4509C50.2746 62.7189 50.1439 62.0653 50.0131 61.4901C49.4641 58.928 47.8171 56.6797 47.8171 56.6797C47.8171 56.6797 43.6863 53.83 37.3073 53.0718C30.9282 52.3137 27.8171 53.0718 27.8171 53.0718C27.3465 53.2287 26.7713 53.5424 26.2484 53.83C25.3073 54.379 24.5491 55.1633 24.0785 56.1307C24.0785 56.1568 24.0524 56.1568 24.0524 56.1829C23.3726 58.1437 26.8759 65.3856 35.8955 69.4378C45.2027 73.6209 50.9805 68.732 50.353 63.4509Z" fill="#5599FF"/>
<path d="M17.2552 104.235C16.9154 96.5753 16.7585 88.4968 16.6539 80.8106C16.6016 77.8302 16.4709 74.8236 17.2029 71.8955C18.3271 67.0066 21.7258 62.4315 26.5886 60.8367L26.4056 61.0197C26.9546 59.6341 27.5559 58.0916 28.8892 57.2811C28.9415 57.255 28.9676 57.3334 28.9415 57.3596C28.0265 57.987 27.5297 59.0589 27.1114 60.0785C26.9546 60.4184 26.8761 60.8367 26.7193 61.1504C24.8892 61.8302 23.2683 63.0066 21.935 64.3923C20.6016 65.804 19.5297 67.4772 18.8239 69.2811C17.9088 71.5556 17.5167 73.987 17.4382 76.4184C17.3859 85.5949 17.6474 95.2942 17.2552 104.235Z" fill="#E7E7E7"/>
<path d="M28.8888 104.235C28.3659 99.4508 28.0522 94.5358 27.9999 89.7253C27.9476 85.307 28.0783 80.758 28.6012 76.3659C28.8888 73.8038 29.8038 67.9476 31.7123 66.2482L31.9215 66.0913C32.0522 66.0391 32.0783 65.9868 32.2614 65.9606L31.9999 66.2221C32.1306 65.2286 32.4967 64.2874 33.0195 63.4508C33.2025 63.1894 33.3855 62.9279 33.5947 62.6665C33.6208 62.6404 33.6993 62.6665 33.647 62.7188C33.464 62.9802 33.281 63.2417 33.1502 63.5293C32.7058 64.3659 32.3921 65.2809 32.3136 66.2221C32.3136 66.2482 32.2875 66.2482 32.2875 66.2744C32.1306 66.3266 31.9476 66.4574 31.8169 66.6142C31.4248 67.0325 31.1633 67.6338 30.928 68.1567C30.562 69.0717 30.3006 70.0652 30.0914 71.0587C29.5685 73.5946 29.281 76.2613 29.0718 78.8495C28.7842 83.1894 28.6797 87.7907 28.6797 92.1306L28.7058 94.5619C28.7058 97.7776 28.8627 101.019 28.9411 104.235C28.9672 104.261 28.8888 104.287 28.8888 104.235Z" fill="#E7E7E7"/>
<path d="M39.6338 104.235C39.66 96.2612 39.3201 88.2612 39.294 80.2873C39.2678 76.6795 39.2678 72.9671 39.3462 69.3592C39.5815 68.418 39.7645 67.4246 39.843 66.4311C39.8691 66.1174 39.8691 65.7775 39.843 65.4377C39.843 65.3854 39.9214 65.3854 39.9214 65.4377C40.1306 66.7448 39.9737 68.0782 39.7123 69.3854C39.8168 72.235 39.9214 75.1893 39.9737 78.0913C40.1567 84.6272 40.209 91.1631 40.0521 97.6991C40.026 98.954 39.9475 100.81 39.8691 102.065C39.8168 102.797 39.7384 103.503 39.6861 104.235C39.6861 104.261 39.66 104.261 39.6338 104.261V104.235Z" fill="#E7E7E7"/>
<path d="M51.8692 104.235C51.6339 98.196 51.4771 91.8692 50.9542 85.8561C50.6405 82.0391 50.1438 78.2744 49.4117 74.5359C48.9673 72.2875 48.3921 70.013 47.4771 67.8954C47.3202 66.6927 46.9281 65.3855 45.9869 64.5489C45.9607 64.5228 45.9607 64.4967 45.9869 64.4967C46.013 64.4705 46.013 64.4705 46.0392 64.4967C46.3006 64.6797 46.5359 64.915 46.7451 65.1764C47.3202 65.9346 47.6862 66.9803 47.817 67.8431C48.8889 69.9084 49.4902 72.1568 50.0392 74.4052C50.379 75.8692 50.6928 77.464 50.9281 78.928C51.2679 81.0195 51.5817 83.6862 51.7385 85.8039C51.8692 87.0849 51.9477 89.098 52.0261 90.4052C52.1307 93.4901 52.1568 96.5489 52.1045 99.6339L51.9738 104.235C51.9738 104.261 51.9477 104.261 51.9215 104.261C51.8954 104.261 51.8692 104.235 51.8692 104.235Z" fill="#E7E7E7"/>
<path d="M61.6993 104.209C62.3529 97.0458 62.0915 89.7779 61.0719 82.6667C60.8104 80.8105 60.4183 78.8759 60 77.0458C59.5032 75.2419 58.9019 73.4118 58.0915 71.7386C57.5163 70.4576 56.7581 69.2288 56 68.0524C54.9542 66.5622 53.6209 65.0197 52.183 63.8955C51.451 63.2942 50.6666 62.719 49.83 62.3007C49.4117 61.7517 49.1503 61.2027 48.549 60.6798C48.0784 60.2354 47.5032 59.8693 46.8497 59.8432C46.8235 59.8432 46.7974 59.8171 46.7974 59.7909C46.7974 59.7648 46.8235 59.7648 46.8235 59.7648C47.1634 59.7386 47.5032 59.8432 47.817 59.9739C48.732 60.4184 49.4117 61.2288 49.9608 62.0654C53.5948 63.7648 56.4706 67.2158 58.3791 70.7713C59.1372 72.2877 59.817 73.8563 60.2876 75.4772L60.7059 76.8628C61.9608 82.0393 62.4575 87.3726 62.5359 92.6798C62.5621 96.5491 62.3529 100.418 61.7516 104.235C61.7516 104.262 61.7255 104.262 61.6993 104.262C61.6993 104.262 61.6993 104.235 61.6993 104.209Z" fill="#E7E7E7"/>
<path d="M49.9346 74.1436C53.5947 74.2743 56.3137 73.0978 56.732 69.1501C56.7581 68.8364 56.9934 68.6011 57.281 68.5488C58.8758 68.1567 59.9477 66.7449 60.2614 65.1501C60.3398 64.8887 60.366 64.5488 60.4183 64.2874C60.4444 63.9998 60.4706 63.6861 60.4967 63.3723C60.4967 63.3462 60.5228 63.3462 60.549 63.3462C60.5751 63.3462 60.5751 63.3723 60.5751 63.3723C60.6274 63.9214 60.6797 64.6534 60.6274 65.2024C60.5228 67.0586 59.2941 68.8102 57.4379 69.307L57.4902 69.2547C57.281 72.1567 55.5032 74.2743 52.5228 74.4573C51.6601 74.5357 50.7712 74.4573 49.9085 74.2482C49.8823 74.2482 49.8823 74.222 49.8823 74.1959C49.8823 74.1436 49.9085 74.1436 49.9346 74.1436Z" fill="#E7E7E7"/>
<path d="M13.4117 62.0916C13.6993 63.5818 14.562 65.0459 15.8692 65.8302C15.9738 65.9086 16.2091 66.0132 16.3137 66.0916C16.549 66.1962 16.8104 66.3008 17.0457 66.3792L17.5424 66.5099C17.6731 66.5622 17.9084 66.5883 18.0653 66.6145L18.5882 66.6929C19.1111 66.7714 19.9215 66.4838 20.1829 67.0851C21.9084 70.7452 25.281 73.5165 29.5163 72.706C29.7777 72.6799 30.0392 72.7844 30.1437 73.0197C30.379 73.3857 30.6928 73.7779 30.9803 74.1178C32.4705 75.8955 34.7189 77.2027 37.098 76.706C38.0392 76.523 38.9542 76.1308 39.7908 75.608C39.8169 75.5818 39.8431 75.608 39.8431 75.608C36.1568 78.6668 32.0261 77.0459 29.5163 73.3857L29.5947 73.4119C28.549 73.5949 27.4771 73.6472 26.4052 73.438C23.2679 72.8629 20.8627 70.1962 19.6078 67.2942L19.6601 67.3204C19.111 67.2942 18.5097 67.2681 17.9607 67.1374C17.8039 67.1112 17.5424 67.0589 17.4117 67.0066C17.098 66.9282 16.6274 66.7452 16.3398 66.5883L16.0784 66.4576L15.8431 66.3008C15.7385 66.2223 15.4771 66.0916 15.3725 65.987C14.1699 65.0459 13.464 63.5557 13.3071 62.0655C13.3071 62.0393 13.3333 62.0132 13.3333 62.0132C13.4117 62.0655 13.4117 62.0655 13.4117 62.0916Z" fill="#E7E7E7"/>
<path d="M49.0457 70.9805C52.183 70.1439 53.7255 68.3138 53.2549 65.0197C53.2287 64.8106 53.281 64.6014 53.4117 64.4707C54.2745 63.4511 54.5098 62.0655 54.3791 60.7583C54.3529 60.34 54.196 59.7387 54.1176 59.3204C54.1176 59.2942 54.1176 59.2681 54.1438 59.2681C54.1699 59.2681 54.1699 59.2681 54.196 59.2942C54.4052 59.7387 54.6143 60.2092 54.7451 60.6798C55.0065 61.6472 55.0065 62.6929 54.6928 63.6341C54.5359 64.1047 54.3006 64.5753 53.9869 64.9674L54.013 64.9151C54.4575 67.2681 53.6732 69.6994 51.2941 70.6145C50.5882 70.9021 49.83 71.0589 49.0719 71.0851C48.9934 71.0589 48.9934 70.9805 49.0457 70.9805Z" fill="#E7E7E7"/>
<path d="M19.5032 58.1178C19.0849 59.4772 19.5555 60.9936 20.5751 61.9609L20.7058 62.1178L20.8627 62.2485C21.1764 62.5099 21.5424 62.7452 21.8823 62.9805L22.6143 63.3727C22.7712 63.4511 22.8758 63.608 22.9019 63.791C23.4248 65.7517 25.0196 67.2942 26.8235 68.1308C27.9738 68.7321 29.2287 69.0197 30.4836 69.255C30.8496 69.3334 30.9542 69.6733 31.2156 69.9086C31.5032 70.1962 31.8169 70.4838 32.1307 70.7452C34.0392 72.3661 36.6013 73.2289 39.1111 72.889L39.7647 72.8106C39.7908 72.8106 39.8169 72.8106 39.8169 72.8367C39.8169 72.8629 39.8169 72.8629 39.7908 72.889C37.2548 73.6733 34.4575 73.1766 32.2614 71.6602C31.6078 71.2158 30.6928 70.4576 30.3267 69.9609C28.5751 69.6733 26.7973 69.1504 25.3333 68.1308C23.9215 67.1897 22.5359 65.4119 22.3529 63.8694C21.9084 63.608 21.2549 63.1897 20.8627 62.8759C20.7843 62.8236 20.4444 62.4838 20.366 62.4053C20.2352 62.2485 20.0522 62.0655 19.9477 61.8825C19.1633 60.7844 18.9019 59.2942 19.4509 58.0393C19.4509 58.0132 19.4771 58.0132 19.5032 58.0132C19.5294 58.0655 19.5294 58.0916 19.5032 58.1178Z" fill="#E7E7E7"/>
<path d="M24.0785 56.157C24.0263 57.3596 24.4707 58.5622 25.255 59.4511C25.4119 59.6603 25.6733 59.8956 25.8825 60.0786C25.9609 60.1309 26.2223 60.34 26.3008 60.3923C26.5622 60.6014 27.0328 60.706 27.0589 61.072C27.1374 61.6472 27.4249 62.2485 27.7648 62.7191C28.8367 64.2877 30.6929 65.1243 32.4968 65.6472C32.6537 65.6995 32.7583 65.7779 32.8367 65.9086C34.4315 67.9217 37.072 68.9675 39.608 68.706C40.0524 68.7322 40.4446 68.9675 40.9151 69.0459C41.9086 69.3073 43.0066 69.438 44.0263 69.3596C45.3857 69.3073 46.6406 68.7322 47.3204 67.5557C47.4511 67.3727 47.6341 67.3465 47.791 67.2158C48.523 66.7191 49.1243 66.0394 49.4903 65.2289C49.9609 64.2616 49.8563 63.1635 49.5949 62.1701C49.6472 61.7518 49.7256 61.2812 49.6995 60.8106C49.6733 59.5034 49.1504 58.2224 48.3138 57.2028C48.2616 57.1766 48.34 57.0982 48.3661 57.1505C49.6733 58.4315 50.2746 60.34 50.0132 62.1439C50.8498 64.3139 49.8825 66.6929 47.8433 67.9479C47.2158 69.1766 45.5687 70.0394 44.1047 70.0916C42.6668 70.2224 40.9413 69.9086 39.7125 69.4903C36.9151 69.7779 33.987 68.5753 32.2877 66.3008L32.3138 66.3269C31.7387 66.1439 30.9544 65.8563 30.4315 65.5949C30.3008 65.5165 29.8825 65.3073 29.7517 65.2289C29.5949 65.1243 29.255 64.9152 29.1243 64.8106L28.7321 64.4969C27.6864 63.6341 26.8498 62.4577 26.6668 61.0982L26.6929 61.1505C26.4838 60.9936 26.2746 60.8629 26.0916 60.706L25.804 60.4707L25.6733 60.34C25.5426 60.2093 25.4119 60.0524 25.2812 59.9479C25.0459 59.6603 24.8106 59.3465 24.6276 59.0328C24.157 58.1701 23.9217 57.1505 24.0524 56.157C24.0524 56.1309 24.0785 56.1309 24.1047 56.1309C24.0524 56.1309 24.0785 56.1309 24.0785 56.157Z" fill="#E7E7E7"/>
<path d="M46.4659 72.6443C46.4746 71.8936 45.8848 71.278 45.1485 71.2695C44.4122 71.2609 43.8082 71.8626 43.7995 72.6133C43.7908 73.3641 44.3806 73.9796 45.1169 73.9882C45.8532 73.9967 46.4572 73.3951 46.4659 72.6443Z" fill="#E7E7E7"/>
<path d="M47.9998 76.1832C48.1828 77.5689 47.2677 78.8499 45.9605 79.0068C44.6533 79.1636 43.4507 78.1963 43.2677 76.7846C43.0847 75.3989 43.9213 73.4904 45.2285 73.3074C46.5357 73.1506 47.8167 74.7715 47.9998 76.1832Z" fill="#E7E7E7"/>
<path d="M44.6011 74.5101C43.9214 75.0591 42.0913 75.1114 41.3593 74.5885C40.4443 73.8826 41.4116 71.5558 42.039 70.8238C42.0652 70.7977 42.1175 70.7977 42.1175 70.85L41.8822 72.3663C41.8299 72.863 41.7253 73.3859 41.7776 73.8565C41.7776 73.9611 41.8822 74.0134 41.9868 74.0395C42.6926 74.3009 43.4508 74.3794 44.209 74.4578C44.3136 74.4578 44.4966 74.484 44.575 74.4317C44.575 74.4578 44.6011 74.4839 44.6011 74.5101Z" fill="#E7E7E7"/>
<path d="M44.3921 76.0523C43.3986 76.7582 42.3006 77.0719 41.0718 76.9412C40.9934 76.9412 40.8365 76.8889 40.7581 76.8628C39.5032 76.4445 39.0849 74.902 39.3463 73.7255C39.3463 73.6733 39.3986 73.6471 39.4247 73.6994C39.7123 74.6144 40.1045 75.9478 41.1764 76.1308C41.6992 76.2092 42.2483 76.1831 42.7711 76.1308C43.294 76.0785 43.843 76.0262 44.3659 75.9216C44.4182 75.9478 44.4443 76.0001 44.3921 76.0523C44.4182 76.0262 44.3921 76.0523 44.3921 76.0523Z" fill="#E7E7E7"/>
<path d="M44.0261 77.3335C43.451 77.5949 42.9281 77.8041 42.5098 78.0655C42.1961 78.2747 41.9869 78.4315 41.8562 78.7714C41.6993 79.1897 41.7255 79.6864 41.7516 80.2616C41.8039 80.7845 41.8824 81.3596 41.9085 81.9871C41.9085 82.0132 41.8562 82.0394 41.8301 82.0132C40.9935 80.6799 40.2353 78.1178 42.2745 77.4904C42.8235 77.3074 43.4248 77.2551 44 77.2812C44.0784 77.2551 44.0784 77.3335 44.0261 77.3335Z" fill="#E7E7E7"/>
<path d="M44.6797 78.1703C44.5751 78.8501 44.3137 79.3207 44.5229 79.8435C44.8889 80.6017 45.2026 81.386 45.2026 82.3011C45.2026 82.3272 45.1503 82.3534 45.1503 82.3272C44.915 82.0135 44.6797 81.6736 44.4444 81.3337C44.1568 80.8109 43.7124 80.288 43.7124 79.6605C43.7385 79.0331 44.1568 78.4841 44.6013 78.0919C44.6797 78.0658 44.7059 78.1181 44.6797 78.1703Z" fill="#E7E7E7"/>
<path d="M46.1697 74.2485C46.3004 74.1178 46.588 73.8825 46.7449 73.7517C47.1632 73.4119 47.7383 73.0459 48.1566 72.706C48.1828 72.6799 48.2089 72.6537 48.1828 72.706C48.1566 72.7321 48.1305 72.7844 48.1043 72.8367C48.0782 72.9151 48.0521 72.9674 48.0782 73.0459C47.8429 72.1047 47.5553 71.1897 47.6076 70.17V70.1439C47.6076 70.1178 47.6599 70.0916 47.686 70.1178C48.0259 70.7975 48.3658 71.5034 48.6272 72.2093C48.7318 72.4707 48.8625 72.7583 48.8625 73.072C48.8364 73.2027 48.7318 73.255 48.6534 73.3334C48.3396 73.5687 47.9736 73.7256 47.6338 73.8825C47.4507 73.9609 46.0913 74.5361 46.1436 74.2746C46.1436 74.2485 46.1697 74.2485 46.1697 74.2485Z" fill="#E7E7E7"/>
<path d="M46.7186 75.66C47.6598 75.0587 48.7578 74.7973 49.699 74.4051C49.9604 74.2482 50.0912 73.9868 50.248 73.6731C50.4833 73.2548 50.6663 72.7319 50.9278 72.1829C50.9278 72.1567 50.9539 72.1567 50.98 72.1567C51.0585 72.9672 50.9539 73.8561 50.5356 74.5881C50.0912 75.3463 49.0977 75.3986 48.3134 75.5554C47.7644 75.6339 47.2415 75.7123 46.6925 75.7384C46.6663 75.7384 46.6663 75.6861 46.7186 75.66Z" fill="#E7E7E7"/>
<path d="M47.3725 76.8105C49.4117 75.1112 51.8954 76.4445 51.4509 79.1112C51.3463 79.7386 51.111 80.3399 50.6666 80.8367C50.6404 80.8628 50.5882 80.8367 50.5882 80.8105C50.6666 80.5229 50.7189 80.2615 50.745 79.9739C51.0065 78.0393 50.5097 76.3922 48.2091 76.7321C47.9215 76.7582 47.6339 76.8105 47.3725 76.8889C47.3463 76.9151 47.3202 76.8366 47.3725 76.8105Z" fill="#E7E7E7"/>
<path d="M47.0063 77.8042C47.9213 77.6996 48.9148 78.4055 48.9409 79.4251C48.8887 80.4709 48.4181 81.412 47.5553 82.0395C47.5292 82.0656 47.4769 82.0656 47.4769 82.0134C47.7383 81.2552 47.9998 80.497 48.1305 79.7127C48.2351 79.3205 48.1305 78.9545 47.8691 78.6408C47.6338 78.3532 47.32 78.0918 46.9802 77.8826C46.9279 77.8303 46.954 77.7781 47.0063 77.8042Z" fill="#E7E7E7"/>
<path d="M47.8425 64.2093C47.2935 66.9021 43.7379 68.523 37.751 66.0916C31.5288 63.5818 28.836 57.5949 28.1562 55.8171C31.8425 48.9152 29.2804 44.1308 29.2804 44.1308C37.7772 43.3988 45.202 53.3335 45.202 53.3335L46.3523 58.2485C46.4569 58.6668 46.6661 59.0328 46.9798 59.2942C47.5288 60.2616 48.1824 62.4838 47.8425 64.2093Z" fill="#E7E7E7"/>
<path d="M28.0257 55.8956C28.5224 55.1374 28.8361 54.2485 29.0453 53.3858C29.4374 51.5818 29.5681 49.7518 29.5943 47.9217V47.242C29.5159 46.5622 29.2806 45.8563 29.0191 45.2289C28.6793 44.3923 29.908 43.8694 30.3002 44.706C30.3525 44.8106 30.3525 44.9936 30.3525 45.0982C30.4309 48.6537 30.5878 53.2289 28.3394 56.1831C28.1825 56.34 27.8688 56.1047 28.0257 55.8956Z" fill="#5599FF"/>
<path d="M45.4899 53.281C45.882 53.5163 46.0127 53.83 46.065 54.1437C46.2219 54.7712 46.1696 55.4509 46.3265 56.1045C46.4572 56.732 46.8493 57.3333 46.9539 57.9869C47.0846 58.6666 47.4768 60.1045 47.6337 60.8104C47.6859 60.9672 47.5814 61.1502 47.3984 61.1764C47.2938 61.2025 47.2154 61.1764 47.1369 61.1241C46.7971 60.8365 46.6402 60.5489 46.431 60.1829C46.0912 59.5555 45.8559 58.9803 45.6467 58.2744C45.4637 57.647 45.5422 56.9672 45.3853 56.3136C45.2546 55.6862 44.8886 55.0849 44.7578 54.4313C44.6794 54.1176 44.6533 53.7777 44.8886 53.3855C45.0454 53.2287 45.3069 53.1764 45.4899 53.281Z" fill="#5599FF"/>
<path d="M47.3719 60.1831C42.3785 59.9217 38.3 58.353 34.3262 51.2681C37.6726 54.2223 41.6203 55.3465 45.7772 55.8694L46.3262 58.2746C46.4307 58.6929 47.0582 59.9217 47.3719 60.1831Z" fill="#5599FF"/>
<path d="M47.1629 59.2159C48.0518 60.8891 48.5747 62.9806 48.0257 64.8368C47.6074 66.144 46.4048 67.1113 45.0976 67.4773C42.0649 68.2878 38.5616 67.0068 35.8688 65.5688C32.5485 63.7126 30.091 60.6015 28.5224 57.2028C28.4178 56.9414 28.7838 56.7322 28.9407 56.9937C29.4897 58.0917 30.1172 59.1636 30.8231 60.1309C31.5289 61.1244 32.3394 62.0394 33.2544 62.8499C35.9211 65.2551 39.5289 66.7453 43.1368 66.7453C46.8492 66.6407 48.261 64.68 47.3982 61.0721C47.2675 60.4969 47.0583 59.8956 46.7708 59.3989C46.6139 59.1898 47.0061 58.9545 47.1629 59.2159Z" fill="#5599FF"/>
<path d="M57.2809 27.817C57.7515 30.0131 57.9868 31.7909 56.7057 37.6471C55.4508 43.4772 58.5096 44.6798 51.2678 54.0131C48.3136 57.8301 41.1502 56.7582 35.3462 52.8105C33.3855 51.4772 32.5488 48.0523 31.0848 45.621C29.9345 43.7125 29.4116 45.6994 27.8953 44.0523C25.8299 41.804 23.3462 37.2811 24.575 29.2811C26.5619 16.3138 36.8364 14.7974 44.4443 16.2353C52.1044 17.6994 56.026 22.0393 57.2809 27.817Z" fill="#E7E7E7"/>
<path d="M29.2023 46.3792C28.601 45.3596 27.8167 44.4707 27.0847 43.5296C26.3788 42.5622 25.8036 41.4903 25.3331 40.3923C22.2219 32.7583 23.4246 22.0132 31.0585 17.5165C34.2219 15.6864 38.0389 15.242 41.5945 15.5296C49.2023 16.0786 56.1827 19.5818 57.8298 27.6341C58.7187 31.1897 57.5161 34.8498 56.8363 38.3269C56.5226 40.0524 56.784 41.8302 56.7579 43.608C56.7317 45.4119 56.235 47.2158 55.5553 48.889C55.137 50.0394 54.4049 51.059 53.6468 52.0001C52.3919 53.5165 51.137 55.059 49.5422 56.2354C49.1762 56.4969 48.5226 56.6276 48.0781 56.6799C46.8494 56.8629 45.6468 56.9152 44.418 56.8367C39.6076 56.6276 34.4572 54.3008 32.5226 49.6472C32.4442 49.4642 32.7056 49.3335 32.8102 49.4903C35.32 53.4642 39.9213 55.425 44.4965 55.6864C45.9082 55.7649 47.3461 55.7387 48.7317 55.4511C49.4115 55.1113 50.0128 54.5099 50.588 53.9609C51.9997 52.5492 53.4376 51.0328 54.4572 49.3073C55.686 46.9805 56.3657 44.4446 56.1566 41.8041C56.1043 40.6276 56.0782 39.3988 56.3134 38.2224C56.5226 37.0459 56.784 35.9217 56.9409 34.7191C57.0978 33.5688 57.1762 32.3923 57.1762 31.242C57.0455 27.8694 55.9474 24.3923 53.8036 21.7779C49.0716 15.8956 37.8821 14.3531 31.5814 18.3792C27.6076 20.8367 25.7514 25.4381 25.15 29.9086C24.235 35.2681 24.4965 40.5492 28.7579 44.4446L30.0128 45.7518C30.5095 46.3269 29.6206 47.0067 29.2023 46.3792Z" fill="#5599FF"/>
<path d="M32.2872 38.0654C32.2872 38.0654 31.4767 34.1438 27.6597 34.6144C24.3656 35.0327 23.2153 42.9281 30.6924 45.1242" fill="#E7E7E7"/>
<path d="M30.3525 41.6995C29.7512 41.3596 29.3329 40.7844 29.3068 40.0786C29.3329 39.5557 29.4113 38.9544 29.2806 38.4315C29.2022 37.9348 28.6793 37.804 28.2872 37.8302C27.8689 37.9086 27.6074 38.4315 27.529 38.8498C27.529 38.8759 27.5028 38.9544 27.5028 38.9805C27.4767 39.1112 27.2675 39.1112 27.2153 38.9805C26.8754 37.9609 27.6336 36.8367 28.7316 36.9674C30.2741 37.072 30.4832 38.6929 30.1957 39.9217C30.0388 40.4446 30.2479 40.9152 30.5355 41.3596L30.5878 41.438C30.7185 41.5949 30.5094 41.804 30.3525 41.6995Z" fill="#5599FF"/>
<path d="M51.2678 35.2943C51.66 37.1505 52.392 38.876 53.307 40.4969C54.1175 42.4839 52.026 44.3662 50.1698 44.2878C49.9606 44.2878 49.9345 44.0002 50.1175 43.9479C51.294 43.5819 52.3659 42.7976 52.5489 41.595C52.6273 41.229 52.5227 40.9152 52.3397 40.6015C51.477 38.9806 50.9541 37.1244 51.0848 35.2943C51.0848 35.1636 51.2678 35.1636 51.2678 35.2943Z" fill="#5599FF"/>
<path d="M32.1567 38.0919C31.5554 36.5494 30.2482 35.0853 28.4965 35.1115C28.3397 35.0853 28.0782 35.1376 27.9214 35.1376C27.4769 35.1638 27.1109 35.3206 26.771 35.6343C25.0978 37.3075 25.3854 40.2618 26.7449 42.118C27.2155 42.7716 27.8168 43.3468 28.4965 43.8174C29.1763 44.2879 29.9344 44.654 30.7449 44.9677C30.9279 45.02 30.8495 45.3075 30.6665 45.2814C28.9148 44.9154 27.2416 44.0526 26.0913 42.6147C24.3135 40.4709 23.9475 36.8892 26.0652 34.7977C26.5358 34.3794 27.1893 34.0657 27.8429 34.0657C28.0521 34.0657 28.3658 34.0134 28.575 34.0657C29.673 34.118 30.7188 34.667 31.3985 35.5298C31.9998 36.2618 32.3397 37.1507 32.4443 38.0396C32.4443 38.1964 32.209 38.2487 32.1567 38.0919Z" fill="#5599FF"/>
<path d="M49.281 46.902C47.6078 48.4968 44.4444 47.2157 43.6078 45.2811C43.5032 45.0458 43.7647 44.8367 43.9738 44.9412C44.4182 45.1765 44.8104 45.4118 45.2287 45.5948C46.4313 46.1438 47.6862 46.5883 49.0196 46.4576C49.281 46.4053 49.464 46.719 49.281 46.902Z" fill="#5599FF"/>
<path d="M41.516 37.9611C40.8886 37.935 40.418 37.4121 40.4703 36.7847L40.4964 36.0526C40.5226 35.4252 41.0454 34.9546 41.6729 35.0069C42.3003 35.033 42.7709 35.5559 42.7186 36.1834L42.6925 36.9154C42.6664 37.5167 42.1435 37.9873 41.516 37.9611Z" fill="#5599FF"/>
<path d="M52.5229 38.3529C51.9477 38.3268 51.5033 37.83 51.5294 37.2549L51.5556 36.5751C51.5817 36 52.0784 35.5555 52.6536 35.5817C53.2288 35.6078 53.6732 36.1045 53.6471 36.6797L53.6209 37.3594C53.5948 37.9346 53.098 38.379 52.5229 38.3529Z" fill="#5599FF"/>
<path d="M43.8691 36.5491C43.0064 35.974 42.0652 35.5818 41.0195 35.7909C40.6796 35.8432 40.3397 35.9478 40.1306 36.1831C40.0521 36.2877 39.8691 36.2615 39.8691 36.1047C39.8953 35.5818 40.3397 35.2419 40.758 35.0328C41.5685 34.6145 42.6927 34.6929 43.4247 35.2419C43.6861 35.3988 44.575 36.3661 44.1044 36.5753C43.9999 36.6275 43.9476 36.6014 43.8691 36.5491Z" fill="#5599FF"/>
<path d="M51.3462 36.6799C51.3462 35.5819 52.7057 35.1897 53.5423 35.5819C54.0129 35.7911 54.3527 36.2093 54.4834 36.7061C54.5357 36.8629 54.3004 36.9937 54.1959 36.8629C53.7514 36.3401 52.9933 36.0786 52.3919 36.3924C52.2089 36.4969 52.1828 36.5754 52.1305 36.6799C52.1305 37.2028 51.3723 37.1767 51.3462 36.6799Z" fill="#5599FF"/>
<path d="M45.1241 32.2354C45.6731 32.4185 46.2221 31.9217 46.1175 31.3204C46.0653 31.0067 45.9345 30.693 45.6731 30.4577C44.8888 29.7518 41.647 29.1243 39.6862 30.0394C37.9607 30.876 42.6143 31.3988 45.1241 32.2354Z" fill="#5599FF"/>
<path d="M52.9409 32.6535C52.4965 32.8104 52.0259 32.3398 52.1043 31.7908C52.1305 31.5032 52.235 31.2156 52.4442 31.0065C53.0716 30.379 55.2154 29.8823 56.5749 30.8496C57.7514 31.6601 54.9801 31.8953 52.9409 32.6535Z" fill="#5599FF"/>
<path d="M59.8433 22.327C58.4838 10.7191 46.9544 6.79755 49.1766 14.5361C49.1766 14.5361 46.1439 9.67337 39.3204 9.41193C33.4642 9.20278 37.0197 13.3596 37.0197 13.3596C37.0197 13.3596 32.4707 10.7453 24.7583 14.6668C18.0393 18.0917 24.2616 21.0982 24.2616 21.0982C24.2616 21.0982 19.1897 23.791 19.1112 29.5949C19.0851 31.1113 20.34 33.4381 23.3204 32.6799C22.5622 38.4577 26.0916 43.1897 27.7125 45.1244C29.8041 47.6342 29.9871 49.5427 29.9871 49.5427C31.059 48.9413 29.8041 46.2485 29.8302 44.8368C23.2942 42.327 24.4707 35.0328 27.6603 34.6145C31.0067 34.1962 32.0524 37.1766 32.2354 37.9087C32.7844 37.2551 32.9413 34.7191 33.255 32.0263C34.2224 31.7126 35.0851 31.3727 35.791 30.9283C38.5622 29.2812 39.8694 26.4315 42.6929 24.7583C47.6341 21.8041 48.9152 28.4708 51.5557 26.0132C54.6145 23.1897 56.8367 25.4381 57.5165 28.9152C57.7779 30.1701 59.3727 30.0655 59.608 28.8106C59.974 26.9806 60.1308 24.7845 59.8433 22.327Z" fill="#5599FF"/>
<path d="M75.3463 22.039C91.2155 52.6011 63.3201 87.0848 30.0652 78.6665C15.1371 74.954 3.1371 62.0129 0.653439 46.8233C-2.17009 31.7122 4.65344 15.4769 17.4116 6.92789C34.9018 -5.09825 59.1371 -1.09825 71.66 16.1044C71.7384 16.1828 71.7123 16.3135 71.6077 16.3919C71.5293 16.4704 71.3985 16.4442 71.3201 16.3397C69.5946 14.1174 67.6338 12.1044 65.49 10.3004C61.9606 7.2939 57.8299 4.94096 53.4639 3.34619C31.2417 -4.7061 6.84952 8.67952 1.98677 31.9214C-3.50342 57.9606 18.6404 81.9344 45.0456 78.3527C65.4116 75.7906 80.5489 56.9933 78.8757 36.5488C78.5097 31.6076 77.2025 26.7187 75.0325 22.222C74.9802 22.1436 75.0325 22.039 75.111 21.9867C75.1894 21.9344 75.294 21.9606 75.3463 22.039Z" fill="#5599FF"/>
</g>
</svg>
