<svg width="90" height="90" viewBox="0 0 90 90" fill="none" xmlns="http://www.w3.org/2000/svg">
<circle cx="45" cy="45" r="45" fill="#E7E7E7"/>
<mask id="mask0_756_5144" style="mask-type:alpha" maskUnits="userSpaceOnUse" x="5" y="5" width="80" height="80">
<circle cx="44.8689" cy="44.8689" r="39.8689" fill="#D9D9D9"/>
</mask>
<g mask="url(#mask0_756_5144)">
<path d="M66.7257 77.7844C66.5427 77.9151 66.3336 78.0458 66.1506 78.1765C65.9414 78.3072 65.7584 78.438 65.5492 78.5425C65.3662 78.6471 65.2094 78.7517 65.0264 78.8563C65.0002 78.8824 64.9741 78.8824 64.9479 78.9085C64.3466 79.2746 63.7192 79.6144 63.0917 79.9282C62.9087 80.0327 62.6996 80.1373 62.5166 80.2157C62.5166 80.2157 62.4904 80.2419 62.4643 80.2419C62.2551 80.3465 62.046 80.451 61.8368 80.5556C61.4185 80.7648 60.9741 80.9478 60.5558 81.1308C60.3466 81.2353 60.1113 81.3138 59.9022 81.3922C59.693 81.4706 59.4577 81.5752 59.2486 81.6536C59.0394 81.7321 58.8041 81.8367 58.595 81.9151C58.595 81.9151 58.595 81.9151 58.5689 81.9151C58.3597 81.9935 58.1244 82.0719 57.9153 82.1504C57.4447 82.3072 56.9479 82.4641 56.4774 82.621C56.3205 82.6733 56.1375 82.7255 55.9806 82.7778C55.4839 82.9347 54.9872 83.0654 54.4904 83.17C54.3074 83.2223 54.1244 83.2484 53.9153 83.3007C53.4447 83.4053 52.9479 83.5099 52.4774 83.6144C52.3728 83.6406 52.2943 83.6406 52.1898 83.6667C52.0329 83.6929 51.8499 83.719 51.693 83.7451C51.4577 83.7713 51.2486 83.8236 51.0133 83.8497C50.9087 83.8759 50.8042 83.8759 50.6996 83.902C50.5689 83.9282 50.412 83.9543 50.2551 83.9543C49.8368 84.0066 49.3924 84.0589 48.9741 84.1112C48.8434 84.1373 48.6865 84.1373 48.5558 84.1634H48.5296C48.3466 84.1896 48.1636 84.1896 47.9806 84.2157C47.7976 84.2419 47.6146 84.2419 47.4316 84.2419C47.327 84.2419 47.1963 84.268 47.0917 84.268C46.8826 84.268 46.6996 84.2942 46.5166 84.2942C46.2551 84.2942 46.0198 84.3203 45.7584 84.3203C45.497 84.3203 45.2617 84.3203 45.0002 84.3203C44.8172 84.3203 44.6342 84.3203 44.4512 84.3203C33.4185 84.1634 23.51 79.4837 16.4251 72.0589C16.4251 72.0589 16.4251 72.0327 16.3989 72.0327C15.6146 71.3268 16.2944 67.5621 19.4577 65.1831C23.4316 62.1765 32.9479 60.2942 32.9479 60.2942C32.9479 60.2942 36.6342 59.6929 50.3074 62.5425C58.3074 64.2157 64.3989 66.6471 67.7976 73.2353C68.5035 74.5948 69.2094 76.6863 66.7257 77.7844Z" fill="#E7E7E7"/>
<path d="M50.3857 62.255C55.4053 63.2746 60.7648 64.3727 64.8955 67.6929C66.2812 68.8171 67.1962 70.4642 67.9544 72.059C68.3204 72.8433 68.6864 73.6537 68.974 74.5165C69.1308 75.0916 69.3661 75.7452 69.2354 76.425C69.2093 76.608 69.0524 76.8433 68.9217 76.974C68.3204 77.5753 67.6668 77.9413 67.0132 78.4119C63.17 81.0786 58.7517 82.9609 54.1766 83.9544C43.9805 86.1766 32.9478 84.4511 23.9805 79.0916C21.0001 77.2877 18.255 75.0916 15.9021 72.5034C15.6406 72.1897 15.6406 71.6668 15.6406 71.3269C15.6668 70.5426 15.8759 69.7844 16.1374 69.0786C16.7648 67.4576 17.5753 65.8367 18.9609 64.7125C19.9544 64.0328 21.0262 63.4576 22.1243 62.9871C25.5753 61.523 29.2093 60.5034 32.9478 60.0851C33.2615 60.0589 33.3138 60.5034 33.0001 60.5557C29.4184 61.2877 25.8628 62.3857 22.5426 63.8759C21.34 64.4773 20.0589 65.0001 19.0916 65.9413C18.1766 66.9348 17.523 68.1635 17.0001 69.4184C16.6602 70.1766 16.4249 71.3792 16.5295 71.9805C18.1766 73.9413 20.1112 75.6668 22.2027 77.157C33.6537 85.157 51.0393 85.6799 63.2223 79.0132C64.3204 78.4119 65.3923 77.7322 66.4119 77.0263C66.9086 76.6864 67.4315 76.3988 67.8236 76.0067C67.8498 75.9805 67.8236 76.0067 67.8236 76.0328C67.8236 76.059 67.7975 76.0851 67.7975 76.0851C67.8236 75.7714 67.7191 75.3531 67.5883 74.9348C67.1178 73.4184 66.3596 71.8237 65.5491 70.438C64.2681 68.3727 62.0981 67.0655 59.9021 66.0197C58.3857 65.3139 56.791 64.7648 55.17 64.242C53.5491 63.7191 51.9021 63.2746 50.255 62.8825C49.8367 62.7779 49.9674 62.1766 50.3857 62.255Z" fill="#5D4DE0"/>
<path d="M66.7257 77.7844C66.5427 77.9151 66.3336 78.0458 66.1506 78.1765C65.9414 78.3072 65.7584 78.438 65.5493 78.5425C65.3663 78.6471 65.2094 78.7517 65.0264 78.8563C65.0002 78.8824 64.9741 78.8824 64.948 78.9085C64.3467 79.2746 63.7192 79.6144 63.0917 79.9282C62.9087 80.0327 62.6996 80.1373 62.5166 80.2157C62.5166 80.2157 62.4904 80.2419 62.4643 80.2419C62.2551 80.3465 62.046 80.451 61.8368 80.5556C61.4185 80.7648 60.9741 80.9478 60.5558 81.1308C60.3466 81.2353 60.1114 81.3138 59.9022 81.3922C59.6931 81.4706 59.4578 81.5752 59.2486 81.6536C59.0395 81.7321 58.8042 81.8367 58.595 81.9151C58.595 81.9151 58.595 81.9151 58.5689 81.9151C58.3597 81.9935 58.1244 82.0719 57.9153 82.1504C57.4447 82.3072 56.948 82.4641 56.4774 82.621C56.3205 82.6733 56.1375 82.7255 55.9806 82.7778C55.4839 82.9347 54.9872 83.0654 54.4904 83.17C54.3074 83.2223 54.1244 83.2484 53.9153 83.3007C53.4447 83.4053 52.948 83.5099 52.4774 83.6144C52.3728 83.6406 52.2944 83.6406 52.1898 83.6667C52.0329 83.6929 51.8499 83.719 51.6931 83.7451C51.4578 83.7713 51.2486 83.8236 51.0133 83.8497C50.9087 83.8759 50.8042 83.8759 50.6996 83.902C50.5689 83.9282 50.412 83.9543 50.2551 83.9543C49.8368 84.0066 49.3924 84.0589 48.9741 84.1112C48.8434 84.1373 48.6865 84.1373 48.5558 84.1634H48.5297C48.3466 84.1896 48.1636 84.1896 47.9806 84.2157C47.7976 84.2419 47.6146 84.2419 47.4316 84.2419C47.327 84.2419 47.1963 84.268 47.0917 84.268C46.8826 84.268 46.6996 84.2942 46.5166 84.2942C46.2551 84.2942 46.0198 84.3203 45.7584 84.3203C45.497 84.3203 45.2617 84.3203 45.0002 84.3203C44.8172 84.3203 44.6342 84.3203 44.4512 84.3203C33.4185 84.1634 23.51 79.4837 16.4251 72.0589C16.4251 72.0589 16.4251 72.0327 16.3989 72.0327C15.6146 71.6406 16.1636 67.17 19.327 64.7909C23.3009 61.7844 32.948 60.2942 32.948 60.2942C32.948 60.2942 36.6342 59.6929 50.3074 62.5425C57.6277 64.0589 64.4251 66.4641 66.9087 70.6471C67.5885 71.7974 69.2355 74.0458 68.948 75.7452C68.7911 76.6602 67.5101 77.0785 66.7257 77.7844Z" fill="#E7E7E7"/>
<path d="M50.3858 62.255C55.2486 63.3007 60.9479 64.2158 64.9479 67.3792C67.51 69.4184 68.3466 72.6602 69.5754 75.5883C69.68 75.7713 69.5754 75.9543 69.497 76.1112C68.7911 77.2092 67.6407 77.9413 66.595 78.6733C63.5362 80.7386 60.1113 82.3073 56.5819 83.3269C44.7649 86.7517 31.4055 84.6079 21.3924 77.4184C19.3793 75.9805 17.5231 74.3334 15.876 72.5034L16.0068 72.6079C15.5885 72.3204 15.4839 71.7975 15.4839 71.353C15.6146 69.523 16.4251 67.8498 17.2355 66.2288C17.497 65.7583 17.7845 65.2354 18.2028 64.8694C22.046 61.34 28.3728 59.9805 33.4185 59.5099C33.7323 59.4838 33.7584 59.9282 33.4708 59.9805C28.7911 60.8432 23.9283 61.9413 19.9545 64.6602C19.4316 65.0785 18.8041 65.4968 18.4381 66.072C17.8368 67.0132 15.7192 71.0916 16.5035 71.9282C21.9675 78.438 30.1767 82.1766 38.5166 83.17C46.7257 84.2681 55.3793 83.1439 62.7257 79.2485C63.7715 78.6994 64.7911 78.0981 65.7584 77.4184C66.6473 76.8171 67.5362 76.2419 68.2159 75.4315L68.1898 75.4838L68.1636 75.9543C68.0852 74.987 67.5885 74.0458 67.2747 73.1308C66.9087 72.2158 66.5166 71.2485 66.046 70.4119C65.1048 68.7125 63.4839 67.5099 61.7845 66.5949C60.0329 65.6537 58.1244 64.9739 56.1636 64.3988C54.2028 63.8236 52.2421 63.3269 50.229 62.8824C49.8368 62.7779 49.9675 62.1766 50.3858 62.255Z" fill="#5D4DE0"/>
<path d="M19.876 64.2157C19.876 64.2157 21.1832 64.3726 22.9871 65.4706C26.3596 67.536 31.6407 80.3726 22.4381 88.0589C22.4381 88.0589 20.791 97.6798 22.4381 99.5098C22.4381 99.5098 52.5557 101.026 65.5492 99.5098C65.5492 99.5098 67.2747 93.8628 66.4381 87.8236C65.3923 80.1634 65.706 72.1111 60.6603 65.2353C58.3596 62.0981 46.8302 59.3791 40.1636 59.4314C33.4185 59.5098 30.6211 60.2157 28.8433 60.6602C27.0394 61.1308 20.0067 62.8301 19.876 64.2157Z" fill="#5D4DE0" stroke="#5D4DE0" stroke-width="5.1257" stroke-miterlimit="10" stroke-linecap="round" stroke-linejoin="round"/>
<path d="M20.6602 65.2613C23.8236 62.3594 23.4575 64.8169 29.3922 63.8496C31.6667 63.4835 34.3595 61.6012 37.8366 61.6796C40.3464 61.7319 43.0654 63.6143 46.2811 64.0326C48.8693 64.3724 51.9543 63.196 55.0392 63.8234C57.6275 64.3724 60.0327 66.6469 63.0131 67.4574" stroke="#E7E7E7" stroke-width="4" stroke-miterlimit="10" stroke-linecap="round" stroke-linejoin="round"/>
<path d="M20.8955 68.7384C24.6079 66.5162 23.902 68.843 29.7844 68.0325C32.1112 67.7188 34.8824 65.7842 38.3334 65.8103C40.8955 65.8365 43.6668 67.6927 46.9086 68.0064C49.5491 68.2678 52.6341 66.9868 55.7452 67.5097C58.4119 67.9803 60.8955 70.2286 63.902 70.9345" stroke="#E7E7E7" stroke-width="4" stroke-miterlimit="10" stroke-linecap="round" stroke-linejoin="round"/>
<path d="M21.1309 72.2415C25.2093 70.6206 24.3204 72.8167 30.1505 72.1892C32.5557 71.9278 35.3792 69.9932 38.8302 69.9932C41.4446 69.9932 44.2943 71.8232 47.5361 72.0847C50.2289 72.2938 53.34 70.8821 56.4511 71.3265C59.1701 71.7187 61.7583 73.9147 64.8171 74.516" stroke="#E7E7E7" stroke-width="4" stroke-miterlimit="10" stroke-linecap="round" stroke-linejoin="round"/>
<path d="M21.3662 75.7975C25.6799 74.7256 24.6865 76.7909 30.4643 76.3203C32.9218 76.1112 35.8237 74.2027 39.2747 74.1765C41.9675 74.1504 44.8956 75.9805 48.1375 76.1635C50.9087 76.3203 53.9937 74.7779 57.1571 75.1177C59.9544 75.4053 62.6734 77.5491 65.7584 78.0458" stroke="#E7E7E7" stroke-width="4" stroke-miterlimit="10" stroke-linecap="round" stroke-linejoin="round"/>
<path d="M21.5493 79.3529C26.0199 78.7254 24.948 80.6862 30.7258 80.3986C33.2617 80.2679 36.2421 78.3594 39.7192 78.3333C42.4643 78.3071 45.4709 80.1633 48.7389 80.2679C51.5624 80.3725 54.6735 78.7254 57.863 78.9346C60.7389 79.1437 63.5885 81.2091 66.6996 81.549" stroke="#E7E7E7" stroke-width="4" stroke-miterlimit="10" stroke-linecap="round" stroke-linejoin="round"/>
<path d="M21.7319 82.9085C26.3071 82.6471 25.2091 84.5556 30.9868 84.4249C33.6012 84.3726 36.66 82.4902 40.1372 82.4902C42.9607 82.4902 46.0195 84.3464 49.3136 84.3987C52.2156 84.451 55.3528 82.6994 58.5424 82.804C61.4966 82.9085 64.477 84.8955 67.6404 85.0785" stroke="#E7E7E7" stroke-width="4" stroke-miterlimit="10" stroke-linecap="round" stroke-linejoin="round"/>
<path d="M21.915 86.4902C26.5948 86.5425 25.4445 88.3987 31.2222 88.4249C33.8889 88.451 37.0784 86.5948 40.5817 86.621C43.4837 86.6471 46.6209 88.5295 49.915 88.5295C52.9216 88.5556 56.0588 86.6994 59.2484 86.6994C62.3072 86.6994 65.4444 88.5817 68.5817 88.5817" stroke="#E7E7E7" stroke-width="4" stroke-miterlimit="10" stroke-linecap="round" stroke-linejoin="round"/>
<path d="M52.8425 69.2093C52.2935 71.9021 48.7379 73.523 42.751 71.0916C36.5288 68.5818 33.836 62.5949 33.1562 60.8171C36.8425 53.9152 34.2804 49.1308 34.2804 49.1308C42.7772 48.3988 50.202 58.3335 50.202 58.3335L51.3523 63.2485C51.4569 63.6668 51.6661 64.0328 51.9798 64.2942C52.5288 65.2616 53.1824 67.4838 52.8425 69.2093Z" fill="#E7E7E7"/>
<path d="M33.0257 60.8956C33.5224 60.1374 33.8361 59.2485 34.0453 58.3858C34.4374 56.5818 34.5681 54.7518 34.5943 52.9217V52.242C34.5159 51.5622 34.2806 50.8563 34.0191 50.2289C33.6793 49.3923 34.908 48.8694 35.3002 49.706C35.3525 49.8106 35.3525 49.9936 35.3525 50.0982C35.4309 53.6537 35.5878 58.2289 33.3394 61.1831C33.1825 61.34 32.8688 61.1047 33.0257 60.8956Z" fill="#5D4DE0"/>
<path d="M50.4899 58.281C50.882 58.5163 51.0127 58.83 51.065 59.1437C51.2219 59.7712 51.1696 60.4509 51.3265 61.1045C51.4572 61.732 51.8493 62.3333 51.9539 62.9869C52.0846 63.6666 52.4768 65.1045 52.6337 65.8104C52.6859 65.9672 52.5814 66.1502 52.3984 66.1764C52.2938 66.2025 52.2154 66.1764 52.1369 66.1241C51.7971 65.8365 51.6402 65.5489 51.431 65.1829C51.0912 64.5555 50.8559 63.9803 50.6467 63.2744C50.4637 62.647 50.5422 61.9672 50.3853 61.3136C50.2546 60.6862 49.8886 60.0849 49.7578 59.4313C49.6794 59.1176 49.6533 58.7777 49.8886 58.3855C50.0454 58.2287 50.3069 58.1764 50.4899 58.281Z" fill="#5D4DE0"/>
<path d="M52.3719 65.1831C47.3785 64.9217 43.3 63.353 39.3262 56.2681C42.6726 59.2223 46.6203 60.3465 50.7772 60.8694L51.3262 63.2746C51.4307 63.6929 52.0582 64.9217 52.3719 65.1831Z" fill="#5D4DE0"/>
<path d="M52.1629 64.2159C53.0518 65.8891 53.5747 67.9806 53.0257 69.8368C52.6074 71.144 51.4048 72.1113 50.0976 72.4773C47.0649 73.2878 43.5616 72.0068 40.8688 70.5688C37.5485 68.7126 35.091 65.6015 33.5224 62.2028C33.4178 61.9414 33.7838 61.7322 33.9407 61.9937C34.4897 63.0917 35.1172 64.1636 35.8231 65.1309C36.5289 66.1244 37.3394 67.0394 38.2544 67.8499C40.9211 70.2551 44.5289 71.7453 48.1368 71.7453C51.8492 71.6407 53.261 69.68 52.3982 66.0721C52.2675 65.4969 52.0583 64.8956 51.7708 64.3989C51.6139 64.1898 52.0061 63.9545 52.1629 64.2159Z" fill="#5D4DE0"/>
<path d="M62.2809 32.817C62.7515 35.0131 62.9868 36.7909 61.7057 42.6471C60.4508 48.4772 63.5096 49.6798 56.2678 59.0131C53.3136 62.8301 46.1502 61.7582 40.3462 57.8105C38.3855 56.4772 37.5488 53.0523 36.0848 50.621C34.9345 48.7125 34.4116 50.6994 32.8953 49.0523C30.8299 46.804 28.3462 42.2811 29.575 34.2811C31.5619 21.3138 41.8364 19.7974 49.4443 21.2353C57.1044 22.6994 61.026 27.0393 62.2809 32.817Z" fill="#E7E7E7"/>
<path d="M34.2023 51.3792C33.601 50.3596 32.8167 49.4707 32.0847 48.5296C31.3788 47.5622 30.8036 46.4903 30.3331 45.3923C27.2219 37.7583 28.4246 27.0132 36.0585 22.5165C39.2219 20.6864 43.0389 20.242 46.5945 20.5296C54.2023 21.0786 61.1827 24.5818 62.8298 32.6341C63.7187 36.1897 62.5161 39.8498 61.8363 43.3269C61.5226 45.0524 61.784 46.8302 61.7579 48.608C61.7317 50.4119 61.235 52.2158 60.5553 53.889C60.137 55.0394 59.4049 56.059 58.6468 57.0001C57.3919 58.5165 56.137 60.059 54.5422 61.2354C54.1762 61.4969 53.5226 61.6276 53.0781 61.6799C51.8494 61.8629 50.6468 61.9152 49.418 61.8367C44.6076 61.6276 39.4572 59.3008 37.5226 54.6472C37.4442 54.4642 37.7056 54.3335 37.8102 54.4903C40.32 58.4642 44.9213 60.425 49.4965 60.6864C50.9082 60.7649 52.3461 60.7387 53.7317 60.4511C54.4115 60.1113 55.0128 59.5099 55.588 58.9609C56.9997 57.5492 58.4376 56.0328 59.4572 54.3073C60.686 51.9805 61.3657 49.4446 61.1566 46.8041C61.1043 45.6276 61.0782 44.3988 61.3134 43.2224C61.5226 42.0459 61.784 40.9217 61.9409 39.7191C62.0978 38.5688 62.1762 37.3923 62.1762 36.242C62.0455 32.8694 60.9474 29.3923 58.8036 26.7779C54.0716 20.8956 42.8821 19.3531 36.5814 23.3792C32.6076 25.8367 30.7514 30.4381 30.15 34.9086C29.235 40.2681 29.4965 45.5492 33.7579 49.4446L35.0128 50.7518C35.5095 51.3269 34.6206 52.0067 34.2023 51.3792Z" fill="#5D4DE0"/>
<path d="M37.2872 43.0654C37.2872 43.0654 36.4767 39.1438 32.6597 39.6144C29.3656 40.0327 28.2153 47.9281 35.6924 50.1242" fill="#E7E7E7"/>
<path d="M35.3525 46.6995C34.7512 46.3596 34.3329 45.7844 34.3068 45.0786C34.3329 44.5557 34.4113 43.9544 34.2806 43.4315C34.2022 42.9348 33.6793 42.804 33.2872 42.8302C32.8689 42.9086 32.6074 43.4315 32.529 43.8498C32.529 43.8759 32.5028 43.9544 32.5028 43.9805C32.4767 44.1112 32.2675 44.1112 32.2153 43.9805C31.8754 42.9609 32.6336 41.8367 33.7316 41.9674C35.2741 42.072 35.4832 43.6929 35.1957 44.9217C35.0388 45.4446 35.2479 45.9152 35.5355 46.3596L35.5878 46.438C35.7185 46.5949 35.5094 46.804 35.3525 46.6995Z" fill="#5D4DE0"/>
<path d="M56.2678 40.2943C56.66 42.1505 57.392 43.876 58.307 45.4969C59.1175 47.4839 57.026 49.3662 55.1698 49.2878C54.9606 49.2878 54.9345 49.0002 55.1175 48.9479C56.294 48.5819 57.3659 47.7976 57.5489 46.595C57.6273 46.229 57.5227 45.9152 57.3397 45.6015C56.477 43.9806 55.9541 42.1244 56.0848 40.2943C56.0848 40.1636 56.2678 40.1636 56.2678 40.2943Z" fill="#5D4DE0"/>
<path d="M37.1567 43.0919C36.5554 41.5494 35.2482 40.0853 33.4965 40.1115C33.3397 40.0853 33.0782 40.1376 32.9214 40.1376C32.4769 40.1638 32.1109 40.3206 31.771 40.6343C30.0978 42.3075 30.3854 45.2618 31.7449 47.118C32.2155 47.7716 32.8168 48.3468 33.4965 48.8174C34.1763 49.2879 34.9344 49.654 35.7449 49.9677C35.9279 50.02 35.8495 50.3075 35.6665 50.2814C33.9148 49.9154 32.2416 49.0526 31.0913 47.6147C29.3135 45.4709 28.9475 41.8892 31.0652 39.7977C31.5358 39.3794 32.1893 39.0657 32.8429 39.0657C33.0521 39.0657 33.3658 39.0134 33.575 39.0657C34.673 39.118 35.7188 39.667 36.3985 40.5298C36.9998 41.2618 37.3397 42.1507 37.4443 43.0396C37.4443 43.1964 37.209 43.2487 37.1567 43.0919Z" fill="#5D4DE0"/>
<path d="M53.6799 51.7973C53.7061 52.2156 53.3924 52.9477 52.8172 53.4705C49.8629 51.6666 48.5296 52.6078 48.5296 52.6078C47.4839 51.013 47.7191 48.8431 50.2551 50.4901C52.0067 51.6405 53.1048 51.8235 53.6799 51.7973Z" fill="#5D4DE0"/>
<path d="M52.791 53.4968C52.1635 54.0458 51.2224 54.3857 49.9413 53.8628C49.34 53.6275 48.8694 53.157 48.5034 52.6341C48.5296 52.6341 49.8368 51.6929 52.791 53.4968Z" fill="#E7E7E7"/>
<path d="M54.1764 51.719C54.1764 51.719 53.0784 52.3203 50.2549 50.5164C46.8823 48.3465 47.5621 52.8955 49.9411 53.8628C52.4248 54.8824 53.7058 52.6602 53.6797 51.8236" stroke="#5D4DE0" stroke-width="3" stroke-miterlimit="10" stroke-linecap="round" stroke-linejoin="round"/>
<path d="M48.5293 52.6341C48.5293 52.6341 49.8626 51.6929 52.8169 53.4968" stroke="#5D4DE0" stroke-width="3" stroke-miterlimit="10" stroke-linecap="round" stroke-linejoin="round"/>
<path d="M50.3596 37.5228C50.9348 37.6012 51.3792 36.9999 51.1701 36.4248C51.0655 36.111 50.8825 35.8235 50.5949 35.6404C49.706 35.0914 46.3857 35.0391 44.6341 36.294C43.0655 37.4444 47.7452 37.1568 50.3596 37.5228Z" fill="#5D4DE0"/>
<path d="M57.6013 37.8106C57.1307 37.8106 56.8431 37.2093 57.0784 36.7125C57.2091 36.4511 57.3921 36.2158 57.6536 36.0851C58.464 35.6929 60.634 35.9282 61.6013 37.2616C62.464 38.438 59.7712 37.7844 57.6013 37.8106Z" fill="#5D4DE0"/>
<path d="M49.3925 40.8953C48.0592 40.3202 46.5428 40.477 45.1572 40.7907C45.0004 40.843 44.8958 40.6339 45.0265 40.5293C46.2291 39.5358 48.5036 39.4051 49.4709 40.7646C49.5494 40.8169 49.4971 40.9215 49.3925 40.8953Z" fill="#5D4DE0"/>
<path d="M59.6669 41.4445C59.0395 41.0001 58.1244 41.0785 57.3924 41.157C57.131 41.1831 56.8695 41.2354 56.582 41.3138C56.5035 41.34 56.4251 41.2093 56.4774 41.157L56.5297 41.1047C57.1833 40.4249 58.2029 40.2681 59.0918 40.6079C59.4055 40.7387 59.7192 40.9217 59.8761 41.2877C59.9545 41.4184 59.7715 41.5491 59.6669 41.4445Z" fill="#5D4DE0"/>
<path d="M64.3735 37.1827C65.55 33.1566 63.5108 30.3592 62.0467 28.9997C61.367 27.1697 60.2167 25.3658 58.3866 23.9801C58.0206 23.6926 57.6284 23.4311 57.184 23.1958C56.818 22.9867 56.4258 22.8037 56.0337 22.6207C52.5827 21.1305 47.0663 19.3788 41.6023 20.32C39.5108 20.6599 37.4193 21.418 35.4585 22.6991C35.4324 22.6991 35.4324 22.7252 35.4324 22.7252C35.2755 22.8298 35.1186 22.9344 34.9879 23.039C34.6219 22.5945 34.2036 22.2024 33.733 21.8363C30.465 19.3788 26.9095 19.7971 24.452 23.0912C21.9945 26.3592 21.5762 31.2481 24.8441 33.7056C25.8637 34.4638 27.0141 34.9344 28.1905 35.1174C28.1644 35.2481 28.1644 35.405 28.1382 35.5357C26.7003 48.4246 36.5565 54.2285 35.7984 50.1762C35.5892 50.0978 35.4846 50.0194 35.4846 49.9671C28.2428 47.6664 29.3931 39.9278 32.6611 39.5095C33.8376 39.3527 34.7003 39.6403 35.3801 40.0586C35.6415 40.32 35.8768 40.5553 36.1121 40.7906C36.7395 41.5749 37.2886 42.5684 37.2886 42.9605C37.3147 42.6468 37.3409 42.2808 37.4193 41.9148C40.5827 44.2677 43.4324 43.4311 48.6088 35.1697C52.0337 29.7056 54.0729 28.6337 55.1971 28.7906C55.6415 28.9475 56.0598 29.2873 56.452 29.8625C56.5565 30.0193 56.6611 30.1762 56.7395 30.3331C59.0402 30.2808 60.1121 31.6141 60.6611 32.9997C60.6611 32.9997 60.6611 32.9997 60.6611 33.0259C61.1056 34.2024 61.1578 35.405 61.2101 35.7187C61.2101 35.771 61.2101 35.7971 61.2363 35.7971C61.184 36.8429 61.0533 38.6207 61.0271 40.9213C61.0271 41.9671 61.1317 44.0586 61.0533 45.2612C61.0271 45.6272 61.001 45.9932 60.9748 46.3331C60.9487 46.5161 60.9487 46.6991 60.9226 46.856C60.8964 47.0128 60.8964 47.1958 60.8703 47.3788C60.8441 47.588 60.818 47.771 60.818 47.9801C61.3409 48.6076 62.099 48.7122 62.7265 49.1305C62.8833 47.3527 62.4128 45.8625 62.2297 43.8494C62.3866 44.5292 62.5958 45.1828 62.9095 45.8625C63.9552 48.1109 63.3801 49.7579 63.3801 49.7579L65.1056 49.8625C65.2886 49.3658 65.4454 48.4507 64.8964 47.2481C64.0598 45.3919 64.0075 44.5292 64.0075 44.5292C64.0075 44.5292 64.452 46.0455 65.2886 47.0651C65.9422 47.9017 66.2036 49.0259 65.9422 49.9148L66.5696 49.9671C68.452 47.1435 62.6219 43.1174 64.3735 37.1827ZM43.0402 39.4573C41.0533 40.8952 39.3801 40.6076 38.3605 40.1631C38.3866 40.1631 38.4128 40.137 38.4128 40.137C39.0402 40.0847 39.6677 39.954 40.269 39.7187C43.1448 38.6991 45.8114 36.0586 48.1644 33.6272C46.1775 36.0847 44.269 38.5684 43.0402 39.4573Z" fill="#5D4DE0"/>
<path d="M80.3463 27.039C96.2155 57.6011 68.3201 92.0848 35.0652 83.6665C20.1371 79.954 8.1371 67.0129 5.65344 51.8233C2.82991 36.7122 9.65344 20.4769 22.4116 11.9279C39.9018 -0.0982537 64.1371 3.90175 76.66 21.1044C76.7384 21.1828 76.7123 21.3135 76.6077 21.3919C76.5293 21.4704 76.3985 21.4442 76.3201 21.3397C74.5946 19.1174 72.6338 17.1044 70.49 15.3004C66.9606 12.2939 62.8299 9.94096 58.4639 8.34619C36.2417 0.293903 11.8495 13.6795 6.98677 36.9214C1.49658 62.9606 23.6404 86.9344 50.0456 83.3527C70.4116 80.7906 85.5489 61.9933 83.8757 41.5488C83.5097 36.6076 82.2025 31.7187 80.0325 27.222C79.9802 27.1436 80.0325 27.039 80.111 26.9867C80.1894 26.9344 80.294 26.9606 80.3463 27.039Z" fill="#5D4DE0"/>
</g>
</svg>
