<svg width="80" height="80" viewBox="0 0 80 80" fill="none" xmlns="http://www.w3.org/2000/svg">
<mask id="mask0_756_5038" style="mask-type:alpha" maskUnits="userSpaceOnUse" x="0" y="0" width="80" height="80">
<circle cx="39.8689" cy="39.8689" r="39.8689" fill="#D9D9D9"/>
</mask>
<g mask="url(#mask0_756_5038)">
<path d="M61.7257 72.7844C61.5427 72.9151 61.3336 73.0458 61.1506 73.1765C60.9414 73.3072 60.7584 73.438 60.5492 73.5425C60.3662 73.6471 60.2094 73.7517 60.0264 73.8563C60.0002 73.8824 59.9741 73.8824 59.9479 73.9085C59.3466 74.2746 58.7192 74.6144 58.0917 74.9282C57.9087 75.0327 57.6996 75.1373 57.5166 75.2157C57.5166 75.2157 57.4904 75.2419 57.4643 75.2419C57.2551 75.3465 57.046 75.451 56.8368 75.5556C56.4185 75.7648 55.9741 75.9478 55.5558 76.1308C55.3466 76.2353 55.1113 76.3138 54.9022 76.3922C54.693 76.4706 54.4577 76.5752 54.2486 76.6536C54.0394 76.7321 53.8041 76.8367 53.595 76.9151C53.595 76.9151 53.595 76.9151 53.5689 76.9151C53.3597 76.9935 53.1244 77.0719 52.9153 77.1504C52.4447 77.3072 51.9479 77.4641 51.4774 77.621C51.3205 77.6733 51.1375 77.7255 50.9806 77.7778C50.4839 77.9347 49.9872 78.0654 49.4904 78.17C49.3074 78.2223 49.1244 78.2484 48.9153 78.3007C48.4447 78.4053 47.9479 78.5099 47.4774 78.6144C47.3728 78.6406 47.2943 78.6406 47.1898 78.6667C47.0329 78.6929 46.8499 78.719 46.693 78.7451C46.4577 78.7713 46.2486 78.8236 46.0133 78.8497C45.9087 78.8759 45.8042 78.8759 45.6996 78.902C45.5689 78.9282 45.412 78.9543 45.2551 78.9543C44.8368 79.0066 44.3924 79.0589 43.9741 79.1112C43.8434 79.1373 43.6865 79.1373 43.5558 79.1634H43.5296C43.3466 79.1896 43.1636 79.1896 42.9806 79.2157C42.7976 79.2419 42.6146 79.2419 42.4316 79.2419C42.327 79.2419 42.1963 79.268 42.0917 79.268C41.8826 79.268 41.6996 79.2942 41.5166 79.2942C41.2551 79.2942 41.0198 79.3203 40.7584 79.3203C40.497 79.3203 40.2617 79.3203 40.0002 79.3203C39.8172 79.3203 39.6342 79.3203 39.4512 79.3203C28.4185 79.1634 18.51 74.4837 11.4251 67.0589C11.4251 67.0589 11.4251 67.0327 11.3989 67.0327C10.6146 66.3268 11.2944 62.5621 14.4577 60.1831C18.4316 57.1765 27.9479 55.2942 27.9479 55.2942C27.9479 55.2942 31.6342 54.6929 45.3074 57.5425C53.3074 59.2157 59.3989 61.6471 62.7976 68.2353C63.5035 69.5948 64.2094 71.6863 61.7257 72.7844Z" fill="#E7E7E7"/>
<path d="M45.3857 57.255C50.4053 58.2746 55.7648 59.3727 59.8955 62.6929C61.2812 63.8171 62.1962 65.4642 62.9544 67.059C63.3204 67.8433 63.6864 68.6537 63.974 69.5165C64.1308 70.0916 64.3661 70.7452 64.2354 71.425C64.2093 71.608 64.0524 71.8433 63.9217 71.974C63.3204 72.5753 62.6668 72.9413 62.0132 73.4119C58.17 76.0786 53.7517 77.9609 49.1766 78.9544C38.9805 81.1766 27.9478 79.4511 18.9805 74.0916C16.0001 72.2877 13.255 70.0916 10.9021 67.5034C10.6406 67.1897 10.6406 66.6668 10.6406 66.3269C10.6668 65.5426 10.8759 64.7844 11.1374 64.0786C11.7648 62.4576 12.5753 60.8367 13.9609 59.7125C14.9544 59.0328 16.0262 58.4576 17.1243 57.9871C20.5753 56.523 24.2093 55.5034 27.9478 55.0851C28.2615 55.0589 28.3138 55.5034 28.0001 55.5557C24.4184 56.2877 20.8628 57.3857 17.5426 58.8759C16.34 59.4773 15.0589 60.0001 14.0916 60.9413C13.1766 61.9348 12.523 63.1635 12.0001 64.4184C11.6602 65.1766 11.4249 66.3792 11.5295 66.9805C13.1766 68.9413 15.1112 70.6668 17.2027 72.157C28.6537 80.157 46.0393 80.6799 58.2223 74.0132C59.3204 73.4119 60.3923 72.7322 61.4119 72.0263C61.9086 71.6864 62.4315 71.3988 62.8236 71.0067C62.8498 70.9805 62.8236 71.0067 62.8236 71.0328C62.8236 71.059 62.7975 71.0851 62.7975 71.0851C62.8236 70.7714 62.7191 70.3531 62.5883 69.9348C62.1178 68.4184 61.3596 66.8237 60.5491 65.438C59.2681 63.3727 57.0981 62.0655 54.9021 61.0197C53.3857 60.3139 51.791 59.7648 50.17 59.242C48.5491 58.7191 46.9021 58.2746 45.255 57.8825C44.8367 57.7779 44.9674 57.1766 45.3857 57.255Z" fill="#5599FF"/>
<path d="M24.0264 50.6404C24.0264 50.6404 26.4577 50.0652 27.4773 49.9868L27.7911 52.8365C27.7911 52.8103 24.0525 51.3724 24.0264 50.6404Z" fill="#5599FF"/>
<path d="M65.4118 88.9933H4.2876C4.2876 88.9933 8.18302 80.6535 9.5425 71.2417C10.4837 64.6796 11.6079 61.1502 15.085 59.0587C19.0066 56.7057 25.3333 55.6338 27.8954 54.9541C27.8954 55.0848 27.9216 55.1894 27.9216 55.3201C27.9216 55.3201 30.7451 63.7123 38.0915 66.6927C44.0784 69.124 47.634 67.5031 48.183 64.8103C48.5229 63.0848 47.451 60.2613 46.902 59.3463C46.5883 59.0848 46.3791 58.6927 46.2745 58.3005L46.0654 57.4378C46.719 57.307 47.3464 57.124 47.9477 56.8887C51.3203 57.7776 57.8301 59.477 61.8039 64.5227C62.7974 65.7776 65.9085 72.4443 65.3334 83.7123C65.1242 89.5685 65.4118 88.9933 65.4118 88.9933Z" fill="#5599FF"/>
<path d="M17.2287 88.9933L16.0522 79.2939" stroke="#E7E7E7" stroke-width="3" stroke-miterlimit="10" stroke-linecap="round" stroke-linejoin="round"/>
<path d="M62.9021 76C62.9021 76 62.1178 77.9085 62.3531 79.817C62.5884 81.7255 63.2681 84.5229 62.3008 88.9935" stroke="#E7E7E7" stroke-width="3" stroke-miterlimit="10" stroke-linecap="round" stroke-linejoin="round"/>
<path d="M36.1306 71.5554C21.673 67.3724 18.0391 58.8756 18.0391 58.8756C18.0391 58.8756 20.3136 57.4639 21.3855 55.9998C22.0391 55.1109 27.9214 54.0913 27.9214 54.0913C28.026 55.2155 27.9214 54.0913 27.9998 55.3201C27.9998 55.3201 30.8234 63.7122 38.1698 66.6926C44.1567 69.124 47.7123 67.5031 48.2613 64.8103C48.6012 63.0848 47.5293 60.2612 46.9802 59.3462C46.6665 59.0848 46.4574 58.6926 46.3528 58.3005L46.1436 57.4377C47.6338 57.124 49.0456 56.5488 50.2744 55.7907C50.3266 55.8691 50.3528 55.9475 50.3789 56.026C50.9279 57.3593 52.6012 58.5619 52.6012 58.5619C56.0783 66.8233 50.8495 75.8168 36.1306 71.5554Z" fill="#5599FF"/>
<path d="M53.647 58.1962C53.647 58.1962 54.8496 57.621 56.0522 57.7517C57.2548 57.8825 62.9803 62.5099 63.5293 63.4772C64.1045 64.4446 64.0783 67.5295 63.3986 67.9217C62.7189 68.3138 62.3267 67.4511 62.3267 67.4511C62.3267 67.4511 62.8234 64.6276 62.2744 64.1047C61.7254 63.5818 56.4182 59.1374 56.2352 59.1112C56.0522 59.0851 55.0587 59.9217 55.0587 59.9217L53.647 58.1962Z" fill="#5599FF"/>
<path d="M21.9607 56.6014C21.9607 56.6014 19.2418 55.2158 18.2221 55.2158C17.2025 55.2158 11.2679 58.876 10.4574 60.7844C9.64698 62.6929 10.745 66.5361 10.745 66.5361L12.1829 64.889C12.1829 64.889 11.7908 62.0132 12.2091 60.9675C12.6274 59.9217 17.3594 56.8367 17.7777 56.9152C18.196 56.9675 20.5228 58.4577 20.5228 58.4577L21.9607 56.6014Z" fill="#5599FF"/>
<path d="M28.1309 61.647C30.6407 66.4574 35.6603 72.8627 44.0524 75.8692C51.608 78.5881 51.1374 69.464 50.0394 63.9999C42.5099 65.647 34.9544 65.7777 28.1309 61.647Z" fill="#E7E7E7"/>
<path d="M50.039 64.0261C49.7514 62.5882 49.4115 61.4117 49.1762 60.7581C48.6533 59.3463 47.869 58.0914 47.1631 57.1503C46.8233 57.2548 46.4834 57.3333 46.1435 57.4117L46.3527 58.2744C46.4573 58.6927 46.6664 59.0587 46.9801 59.3202C47.0324 59.4248 47.1108 59.5555 47.1893 59.7123C41.2546 62.013 34.2481 58.9803 34.2481 58.9803C32.1305 58.8757 32.2873 60.9672 33.2808 63.4509C29.5161 59.8692 27.9736 55.3202 27.9736 55.3202C27.9213 54.5359 27.869 53.7777 27.7906 53.0195C27.7906 53.0195 25.8559 54.0914 26.1958 56.4967C26.3527 57.5163 26.954 59.4248 28.1305 61.647C34.954 65.7777 42.5095 65.647 50.039 64.0261Z" fill="#E7E7E7"/>
<path d="M49.9344 63.9477C49.856 63.817 49.8299 63.7385 49.7776 63.5817C49.4638 62.562 49.124 61.4902 48.6534 60.549C48.1044 59.4509 47.3985 58.4575 46.6142 57.5424L47.3462 57.7777L46.2743 58.0653L46.7972 57.2549C46.8495 57.4902 46.9802 58.0392 47.0325 58.2483C47.1109 58.562 47.3462 58.7712 47.5292 59.0065C47.5031 59.2156 47.4769 59.4248 47.4246 59.6078C47.4769 59.7647 47.4246 59.9477 47.2678 60.0261C46.5096 60.3921 45.673 60.6797 44.8364 60.8627C41.7514 61.4902 38.6142 60.7843 35.6599 59.9215C35.0848 59.7385 34.5619 59.6078 33.9344 59.6601L34.1697 59.7124C34.0129 59.7124 33.8299 59.7124 33.673 59.7647C32.8887 60 33.2547 61.3594 33.4116 62.013C33.5423 62.4313 33.673 62.8496 33.856 63.2679C34.0129 63.6078 33.8299 64 33.49 64.1568C33.2285 64.2614 32.9671 64.183 32.7841 64C32.1828 63.3986 31.6076 62.7973 31.0848 62.1437C29.49 60.1568 28.2351 57.9869 27.3201 55.6078L27.9475 56.0522C27.5815 56.0522 27.2939 55.7647 27.2678 55.4248L27.0848 53.1503L28.0782 53.6732C26.9018 54.379 26.5619 55.8431 26.954 57.098C27.3462 58.562 27.9736 60.0261 28.6795 61.3856L28.4181 61.1241C34.771 65.3856 42.6926 65.7254 49.9344 63.9477ZM50.1436 64.0784C49.2808 64.7058 47.7906 65.2287 46.6926 65.464C44.1044 66.0392 41.3854 65.6993 38.7972 65.281C37.9867 65.1503 36.8102 64.9934 35.9736 64.8627L34.588 64.5751C32.7318 64.1307 30.9018 63.5294 29.124 62.7973L28.4704 62.5098L27.7906 62.2222C27.7122 62.196 27.6338 62.1176 27.5815 62.0392C26.7187 60.366 25.9344 58.6143 25.5684 56.732C25.2285 55.0849 26.0129 53.281 27.4769 52.4183C27.8952 52.183 28.4442 52.4705 28.4704 52.9411L28.6534 55.2418C28.6534 55.2418 27.9736 54.6143 27.9998 54.6143C28.2874 54.6143 28.5488 54.7973 28.6272 55.0588C29.4377 57.2549 30.6665 59.3725 32.1567 61.2026C32.6534 61.83 33.2024 62.379 33.7514 62.9542L32.6795 63.6862C32.1567 62.2745 31.4508 60.4705 32.3919 59.0588C32.8364 58.4836 33.5946 58.2745 34.3004 58.3006L34.5357 58.3529C34.9018 58.8235 35.4246 59.0326 35.9214 59.1895C38.4834 60.0261 41.2547 60.183 43.9475 59.9738C45.0194 59.8692 46.0651 59.6601 47.1109 59.3986L46.954 59.8169C46.771 59.7385 46.6142 59.6862 46.4312 59.6601L46.5619 59.8169C46.0651 59.3986 45.7514 58.6928 45.6468 58.0653L45.5161 57.5424C45.4377 57.1764 45.673 56.8104 46.039 56.732L47.0063 56.4967H47.0586C47.32 56.4183 47.6076 56.549 47.7384 56.7581C48.7841 58.379 49.5684 60.2091 49.9083 62.1176C50.0129 62.562 50.0651 63.0588 50.1436 63.5294C50.1174 63.6862 50.1436 63.9215 50.1436 64.0784Z" fill="#5599FF"/>
<path d="M24.0264 50.6406C24.0264 50.6406 30.4839 50.8498 35.3989 52.157C35.8695 52.2877 35.8695 55.3204 35.9218 55.8171C36.1048 57.5949 32.3924 60.6276 32.8107 62.2223C33.3597 64.2877 48.1832 75.8955 48.3139 77.255C48.4447 78.6145 37.5688 78.2746 31.1113 70.5361C24.6277 62.7975 25.1244 61.3857 25.1244 61.3857C25.1244 61.3857 24.0264 53.9609 24.0264 50.6406Z" fill="#5599FF"/>
<path d="M53.0195 53.438L54.6927 54.1439C55.2155 54.353 55.477 54.9543 55.294 55.5034C54.5358 57.804 52.6534 63.5295 52.575 65.5164C52.4704 68.0262 47.294 84.1569 47.294 84.1569C47.294 84.1569 44.1306 80.0001 46.4574 75.8955C48.2874 72.6537 48.392 65.7256 48.209 64.8105C47.9737 63.6079 46.9802 60.7844 46.4312 59.0066C46.1436 58.0393 46.0914 57.438 46.0914 57.438C46.0914 57.438 49.6992 56.8367 53.0195 53.438Z" fill="#5599FF"/>
<path d="M33.5687 57.7255C33.9874 57.7255 34.3269 57.3392 34.3269 56.8627C34.3269 56.3863 33.9874 56 33.5687 56C33.15 56 32.8105 56.3863 32.8105 56.8627C32.8105 57.3392 33.15 57.7255 33.5687 57.7255Z" fill="#E7E7E7"/>
<path d="M47.0328 75.1371C46.8236 76.5489 46.6145 77.9868 46.719 79.4247C47.0589 81.5423 47.1896 83.66 47.3726 85.7776C47.3988 86.3005 46.6406 86.3528 46.5883 85.8299C46.5099 83.7123 46.4576 81.5685 46.1962 79.4508C46.1439 77.9606 46.4053 76.4966 46.6929 75.0587C46.7452 74.8757 47.0589 74.9279 47.0328 75.1371Z" fill="#E7E7E7"/>
<path d="M54.2745 59.3986C53.8039 61.7254 53.281 64.0783 52.4183 66.3006C51.1111 69.0718 49.3333 71.5816 47.817 74.196C47.6862 74.4313 47.3202 74.2483 47.4248 74.013C48.6797 71.0587 50.5098 68.4182 51.7385 65.4901C51.8431 65.1764 52.4183 63.4509 52.5228 63.111C52.9411 61.83 53.3856 60.5489 53.8823 59.294C53.9869 59.0587 54.3268 59.1372 54.2745 59.3986Z" fill="#5599FF"/>
<path d="M50.6665 74.745C51.1429 74.745 51.5292 74.3588 51.5292 73.8823C51.5292 73.4058 51.1429 73.0195 50.6665 73.0195C50.19 73.0195 49.8037 73.4058 49.8037 73.8823C49.8037 74.3588 50.19 74.745 50.6665 74.745Z" fill="#E7E7E7"/>
<path d="M47.8425 64.2093C47.2935 66.9021 43.7379 68.523 37.751 66.0916C31.5288 63.5818 28.836 57.5949 28.1562 55.8171C31.8425 48.9152 29.2804 44.1308 29.2804 44.1308C37.7772 43.3988 45.202 53.3335 45.202 53.3335L46.3523 58.2485C46.4569 58.6668 46.6661 59.0328 46.9798 59.2942C47.5288 60.2616 48.1824 62.4838 47.8425 64.2093Z" fill="#E7E7E7"/>
<path d="M28.0257 55.8956C28.5224 55.1374 28.8361 54.2485 29.0453 53.3858C29.4374 51.5818 29.5681 49.7518 29.5943 47.9217V47.242C29.5159 46.5622 29.2806 45.8563 29.0191 45.2289C28.6793 44.3923 29.908 43.8694 30.3002 44.706C30.3525 44.8106 30.3525 44.9936 30.3525 45.0982C30.4309 48.6537 30.5878 53.2289 28.3394 56.1831C28.1825 56.34 27.8688 56.1047 28.0257 55.8956Z" fill="#5599FF"/>
<path d="M45.4899 53.281C45.882 53.5163 46.0127 53.83 46.065 54.1437C46.2219 54.7712 46.1696 55.4509 46.3265 56.1045C46.4572 56.732 46.8493 57.3333 46.9539 57.9869C47.0846 58.6666 47.4768 60.1045 47.6337 60.8104C47.6859 60.9672 47.5814 61.1502 47.3984 61.1764C47.2938 61.2025 47.2154 61.1764 47.1369 61.1241C46.7971 60.8365 46.6402 60.5489 46.431 60.1829C46.0912 59.5555 45.8559 58.9803 45.6467 58.2744C45.4637 57.647 45.5422 56.9672 45.3853 56.3136C45.2546 55.6862 44.8886 55.0849 44.7578 54.4313C44.6794 54.1176 44.6533 53.7777 44.8886 53.3855C45.0454 53.2287 45.3069 53.1764 45.4899 53.281Z" fill="#5599FF"/>
<path d="M47.3719 60.1831C42.3785 59.9217 38.3 58.353 34.3262 51.2681C37.6726 54.2223 41.6203 55.3465 45.7772 55.8694L46.3262 58.2746C46.4307 58.6929 47.0582 59.9217 47.3719 60.1831Z" fill="#5599FF"/>
<path d="M47.1629 59.2159C48.0518 60.8891 48.5747 62.9806 48.0257 64.8368C47.6074 66.144 46.4048 67.1113 45.0976 67.4773C42.0649 68.2878 38.5616 67.0068 35.8688 65.5688C32.5485 63.7126 30.091 60.6015 28.5224 57.2028C28.4178 56.9414 28.7838 56.7322 28.9407 56.9937C29.4897 58.0917 30.1172 59.1636 30.8231 60.1309C31.5289 61.1244 32.3394 62.0394 33.2544 62.8499C35.9211 65.2551 39.5289 66.7453 43.1368 66.7453C46.8492 66.6407 48.261 64.68 47.3982 61.0721C47.2675 60.4969 47.0583 59.8956 46.7708 59.3989C46.6139 59.1898 47.0061 58.9545 47.1629 59.2159Z" fill="#5599FF"/>
<path d="M57.2809 27.817C57.7515 30.0131 57.9868 31.7909 56.7057 37.6471C55.4508 43.4772 58.5096 44.6798 51.2678 54.0131C48.3136 57.8301 41.1502 56.7582 35.3462 52.8105C33.3855 51.4772 32.5488 48.0523 31.0848 45.621C29.9345 43.7125 29.4116 45.6994 27.8953 44.0523C25.8299 41.804 23.3462 37.2811 24.575 29.2811C26.5619 16.3138 36.8364 14.7974 44.4443 16.2353C52.1044 17.6994 56.026 22.0393 57.2809 27.817Z" fill="#E7E7E7"/>
<path d="M29.2023 46.3792C28.601 45.3596 27.8167 44.4707 27.0847 43.5296C26.3788 42.5622 25.8036 41.4903 25.3331 40.3923C22.2219 32.7583 23.4246 22.0132 31.0585 17.5165C34.2219 15.6864 38.0389 15.242 41.5945 15.5296C49.2023 16.0786 56.1827 19.5818 57.8298 27.6341C58.7187 31.1897 57.5161 34.8498 56.8363 38.3269C56.5226 40.0524 56.784 41.8302 56.7579 43.608C56.7317 45.4119 56.235 47.2158 55.5553 48.889C55.137 50.0394 54.4049 51.059 53.6468 52.0001C52.3919 53.5165 51.137 55.059 49.5422 56.2354C49.1762 56.4969 48.5226 56.6276 48.0781 56.6799C46.8494 56.8629 45.6468 56.9152 44.418 56.8367C39.6076 56.6276 34.4572 54.3008 32.5226 49.6472C32.4442 49.4642 32.7056 49.3335 32.8102 49.4903C35.32 53.4642 39.9213 55.425 44.4965 55.6864C45.9082 55.7649 47.3461 55.7387 48.7317 55.4511C49.4115 55.1113 50.0128 54.5099 50.588 53.9609C51.9997 52.5492 53.4376 51.0328 54.4572 49.3073C55.686 46.9805 56.3657 44.4446 56.1566 41.8041C56.1043 40.6276 56.0782 39.3988 56.3134 38.2224C56.5226 37.0459 56.784 35.9217 56.9409 34.7191C57.0978 33.5688 57.1762 32.3923 57.1762 31.242C57.0455 27.8694 55.9474 24.3923 53.8036 21.7779C49.0716 15.8956 37.8821 14.3531 31.5814 18.3792C27.6076 20.8367 25.7514 25.4381 25.15 29.9086C24.235 35.2681 24.4965 40.5492 28.7579 44.4446L30.0128 45.7518C30.5095 46.3269 29.6206 47.0067 29.2023 46.3792Z" fill="#5599FF"/>
<path d="M32.2872 38.0654C32.2872 38.0654 31.4767 34.1438 27.6597 34.6144C24.3656 35.0327 23.2153 42.9281 30.6924 45.1242" fill="#E7E7E7"/>
<path d="M30.3525 41.6995C29.7512 41.3596 29.3329 40.7844 29.3068 40.0786C29.3329 39.5557 29.4113 38.9544 29.2806 38.4315C29.2022 37.9348 28.6793 37.804 28.2872 37.8302C27.8689 37.9086 27.6074 38.4315 27.529 38.8498C27.529 38.8759 27.5028 38.9544 27.5028 38.9805C27.4767 39.1112 27.2675 39.1112 27.2153 38.9805C26.8754 37.9609 27.6336 36.8367 28.7316 36.9674C30.2741 37.072 30.4832 38.6929 30.1957 39.9217C30.0388 40.4446 30.2479 40.9152 30.5355 41.3596L30.5878 41.438C30.7185 41.5949 30.5094 41.804 30.3525 41.6995Z" fill="#5599FF"/>
<path d="M51.2678 35.2943C51.66 37.1505 52.392 38.876 53.307 40.4969C54.1175 42.4839 52.026 44.3662 50.1698 44.2878C49.9606 44.2878 49.9345 44.0002 50.1175 43.9479C51.294 43.5819 52.3659 42.7976 52.5489 41.595C52.6273 41.229 52.5227 40.9152 52.3397 40.6015C51.477 38.9806 50.9541 37.1244 51.0848 35.2943C51.0848 35.1636 51.2678 35.1636 51.2678 35.2943Z" fill="#5599FF"/>
<path d="M32.1567 38.0919C31.5554 36.5494 30.2482 35.0853 28.4965 35.1115C28.3397 35.0853 28.0782 35.1376 27.9214 35.1376C27.4769 35.1638 27.1109 35.3206 26.771 35.6343C25.0978 37.3075 25.3854 40.2618 26.7449 42.118C27.2155 42.7716 27.8168 43.3468 28.4965 43.8174C29.1763 44.2879 29.9344 44.654 30.7449 44.9677C30.9279 45.02 30.8495 45.3075 30.6665 45.2814C28.9148 44.9154 27.2416 44.0526 26.0913 42.6147C24.3135 40.4709 23.9475 36.8892 26.0652 34.7977C26.5358 34.3794 27.1893 34.0657 27.8429 34.0657C28.0521 34.0657 28.3658 34.0134 28.575 34.0657C29.673 34.118 30.7188 34.667 31.3985 35.5298C31.9998 36.2618 32.3397 37.1507 32.4443 38.0396C32.4443 38.1964 32.209 38.2487 32.1567 38.0919Z" fill="#5599FF"/>
<path d="M49.2809 46.876C48.4704 47.5296 47.3462 47.5557 46.3789 47.3204C46.0652 47.242 45.6992 47.1897 45.5162 46.8498C45.3331 46.5622 45.5162 46.1962 45.856 46.1439C46.1959 46.0655 46.405 46.2224 46.6926 46.3008C47.4508 46.5622 48.2874 46.7191 49.0717 46.4577C49.2809 46.4054 49.49 46.7191 49.2809 46.876Z" fill="#5599FF"/>
<path d="M46.4052 45.2025C46.9542 46.1698 46.1699 47.3202 45.2287 47.6862C45.0196 47.7908 44.0261 47.9999 44.0523 47.6078C44.0523 47.5555 44.1046 47.5032 44.1568 47.477C45.098 47.0587 45.7778 46.196 45.9346 45.2025C45.9608 44.9934 46.2483 44.9411 46.3529 45.1241L46.4052 45.2025Z" fill="#5599FF"/>
<path d="M41.516 37.9611C40.8886 37.935 40.418 37.4121 40.4703 36.7847L40.4964 36.0526C40.5226 35.4252 41.0454 34.9546 41.6729 35.0069C42.3003 35.033 42.7709 35.5559 42.7186 36.1834L42.6925 36.9154C42.6664 37.5167 42.1435 37.9873 41.516 37.9611Z" fill="#5599FF"/>
<path d="M52.5229 38.3529C51.9477 38.3268 51.5033 37.83 51.5294 37.2549L51.5556 36.5751C51.5817 36 52.0784 35.5555 52.6536 35.5817C53.2288 35.6078 53.6732 36.1045 53.6471 36.6797L53.6209 37.3594C53.5948 37.9346 53.098 38.379 52.5229 38.3529Z" fill="#5599FF"/>
<path d="M43.8691 36.5491C43.0064 35.974 42.0652 35.5818 41.0195 35.7909C40.6796 35.8432 40.3397 35.9478 40.1306 36.1831C40.0521 36.2877 39.8691 36.2615 39.8691 36.1047C39.8953 35.5818 40.3397 35.2419 40.758 35.0328C41.5685 34.6145 42.6927 34.6929 43.4247 35.2419C43.6861 35.3988 44.575 36.3661 44.1044 36.5753C43.9999 36.6275 43.9476 36.6014 43.8691 36.5491Z" fill="#5599FF"/>
<path d="M51.3462 36.6799C51.3462 35.5819 52.7057 35.1897 53.5423 35.5819C54.0129 35.7911 54.3527 36.2093 54.4834 36.7061C54.5357 36.8629 54.3004 36.9937 54.1959 36.8629C53.7514 36.3401 52.9933 36.0786 52.3919 36.3924C52.2089 36.4969 52.1828 36.5754 52.1305 36.6799C52.1305 37.2028 51.3723 37.1767 51.3462 36.6799Z" fill="#5599FF"/>
<path d="M45.1241 32.2354C45.6731 32.4185 46.2221 31.9217 46.1175 31.3204C46.0653 31.0067 45.9345 30.693 45.6731 30.4577C44.8888 29.7518 41.647 29.1243 39.6862 30.0394C37.9607 30.876 42.6143 31.3988 45.1241 32.2354Z" fill="#5599FF"/>
<path d="M52.9409 32.6535C52.4965 32.8104 52.0259 32.3398 52.1043 31.7908C52.1305 31.5032 52.235 31.2156 52.4442 31.0065C53.0716 30.379 55.2154 29.8823 56.5749 30.8496C57.7514 31.6601 54.9801 31.8953 52.9409 32.6535Z" fill="#5599FF"/>
<path d="M54.2222 20.183C52.8889 18.9542 51.2157 17.7516 49.1765 16.9411C43.1373 14.4836 37.5164 14.562 33.0981 16.4705C32.9673 13.9085 32.2876 9.98688 29.2811 9.33329C24.7321 8.31368 26.3007 13.281 27.7124 16.3921C27.7124 16.3921 22.2745 11.5294 19.8954 14.8235C17.6209 17.9869 23.3203 21.4379 23.3203 21.4379C23.3203 21.4379 14.8758 22.1176 16.6536 26.9281C17.6994 29.6993 21.2026 28.7843 24 27.5294C21.7255 36.549 25.6732 42.6928 27.7124 45.1503C29.8039 47.6601 29.987 49.5686 29.987 49.5686C31.0588 48.9673 29.7778 46.2745 29.8301 44.8627C23.2941 42.3529 24.4706 35.0588 27.6602 34.6405C31.0066 34.2222 32.0523 37.2026 32.2353 37.9346C33.4379 36.4967 33.4379 35.1111 33.2026 33.6732C32.2876 28.4183 32.8105 25.5686 35.9739 24.8888C41.0196 23.7908 45.5687 26.3529 51.5817 27.1634C53.8039 27.4771 55.1896 25.4379 56.8366 26.1699C57.0196 26.7189 57.1765 27.2679 57.3072 27.8431C57.4118 28.2875 57.4902 28.7058 57.5425 29.1503C57.8039 25.4902 57.0458 22.7973 54.2222 20.183Z" fill="#5599FF"/>
<path d="M75.3463 22.039C91.2155 52.6011 63.3201 87.0848 30.0652 78.6665C15.1371 74.954 3.1371 62.0129 0.653439 46.8233C-2.17009 31.7122 4.65344 15.4769 17.4116 6.92789C34.9018 -5.09825 59.1371 -1.09825 71.66 16.1044C71.7384 16.1828 71.7123 16.3135 71.6077 16.3919C71.5293 16.4704 71.3985 16.4442 71.3201 16.3397C69.5946 14.1174 67.6338 12.1044 65.49 10.3004C61.9606 7.2939 57.8299 4.94096 53.4639 3.34619C31.2417 -4.7061 6.84952 8.67952 1.98677 31.9214C-3.50342 57.9606 18.6404 81.9344 45.0456 78.3527C65.4116 75.7906 80.5489 56.9933 78.8757 36.5488C78.5097 31.6076 77.2025 26.7187 75.0325 22.222C74.9802 22.1436 75.0325 22.039 75.111 21.9867C75.1894 21.9344 75.294 21.9606 75.3463 22.039Z" fill="#5599FF"/>
</g>
</svg>
